<svg width="677" height="116" viewBox="0 0 677 116" fill="none" xmlns="http://www.w3.org/2000/svg">
<path d="M78.8935 115.078H0.339355V46.6097H23.2743H55.5988C68.2182 46.6097 78.4483 56.8398 78.4483 69.4592V69.4592H23.2743V92.229H78.8935V115.078Z" fill="#EFF1F3"/>
<path d="M0.339355 0.89093H79.5378V23.5191H22.9675C10.4703 23.5191 0.339355 13.3881 0.339355 0.89093V0.89093Z" fill="#C92626"/>
<path d="M568.208 115.078H489.654V46.6097H512.589H544.914C557.533 46.6097 567.763 56.8398 567.763 69.4592V69.4592H512.589V92.229H568.208V115.078Z" fill="#EFF1F3"/>
<path d="M489.655 0.89093H568.853V23.5191H512.283C499.786 23.5191 489.655 13.3881 489.655 0.89093V0.89093Z" fill="#C92626"/>
<path d="M122.801 23.8138V23.7404H145.736C148.879 23.7404 151.836 24.3507 154.606 25.5715C157.376 26.7392 159.8 28.358 161.878 30.428C163.956 32.498 165.581 34.9395 166.753 37.7525C167.978 40.5125 168.591 43.4583 168.591 46.5898C168.591 49.7213 167.978 52.6936 166.753 55.5066C165.581 58.2666 163.956 60.6816 161.878 62.7516C159.8 64.8215 157.376 66.4669 154.606 67.6877C151.836 68.8554 148.879 69.4392 145.736 69.4392H123.085V69.4678H99.8657V115.058H122.801V92.209L148.453 92.0498L158.442 115.058H182.815L170.109 85.2029C173.412 83.1329 176.395 80.6914 179.059 77.8783C181.723 75.0653 183.96 71.9869 185.772 68.643C187.636 65.2992 189.048 61.7696 190.007 58.0543C191.019 54.3389 191.526 50.5174 191.526 46.5898C191.526 42.3967 190.966 38.3629 189.847 34.4883C188.782 30.6138 187.237 26.978 185.212 23.5811C183.241 20.1842 180.844 17.1058 178.02 14.3458C175.25 11.5328 172.16 9.14432 168.75 7.18049C165.394 5.16359 161.771 3.62437 157.882 2.56284C153.993 1.44823 149.944 0.89093 145.736 0.89093H99.8657V23.8138H122.801Z" fill="#EFF1F3"/>
<path d="M99.8848 23.6807H122.791V47.7231V47.7231C110.14 47.7231 99.8848 37.4678 99.8848 24.8173V23.6807Z" fill="#EFF1F3"/>
<path d="M233.195 46.5898V69.4392H233.218V92.209H233.195V115.058H210.26V46.5898C210.26 40.2737 211.459 34.3556 213.856 28.8357C216.254 23.2627 219.53 18.4062 223.686 14.2662C227.841 10.1262 232.716 6.86203 238.31 4.47359C243.85 2.08515 249.79 0.89093 256.13 0.89093C262.47 0.89093 271.731 0.89093 277.613 0.89093C283.922 0.89093 301.92 0.89093 301.92 0.89093C301.92 0.89093 301.92 22.5541 301.92 28.8357C301.92 34.3419 301.92 40.2737 301.92 46.5898V115.058H279.065V92.209H275.928V69.4392H279.065V46.5898C279.065 43.4583 279.065 40.6799 279.065 37.7525C279.065 34.8252 279.065 23.7404 279.065 23.7404H266.049C264.677 23.7404 259.273 23.7404 256.13 23.7404C252.987 23.7404 250.03 24.3507 247.26 25.5715C244.436 26.7392 241.986 28.358 239.908 30.428C237.83 32.498 236.205 34.9395 235.033 37.7525C233.808 40.5125 233.195 43.4583 233.195 46.5898Z" fill="#EFF1F3"/>
<path d="M276.02 69.4601H269.262C256.687 69.4601 246.494 79.6538 246.494 92.2284V92.2284H276.02V69.4601Z" fill="#EFF1F3"/>
<path d="M463.735 94.1198C465.546 89.9798 466.452 85.5479 466.452 80.8241C466.452 78.701 466.159 76.5249 465.573 74.2957C465.04 72.0134 464.241 69.8373 463.175 67.7673C462.11 65.6973 460.831 63.8131 459.34 62.1146C457.848 60.3631 456.17 58.9831 454.305 57.9747C456.116 56.8601 457.768 55.4535 459.26 53.7551C460.751 52.0566 462.03 50.1724 463.095 48.1025C464.161 46.0325 464.987 43.8829 465.573 41.6537C466.159 39.4244 466.452 37.2483 466.452 35.1253C466.452 30.4014 465.546 25.9696 463.735 21.8296C461.923 17.6896 459.446 14.0804 456.303 11.002C453.213 7.87049 449.59 5.40243 445.435 3.59783C441.279 1.79323 436.831 0.89093 432.089 0.89093H374.792V23.7551H397.727V23.7404H432.089C433.688 23.7404 435.179 24.0323 436.565 24.6161C437.95 25.2 439.148 26.0226 440.161 27.0842C441.226 28.0926 442.052 29.2868 442.638 30.6668C443.224 32.0468 443.517 33.533 443.517 35.1253C443.517 36.7175 443.224 38.2302 442.638 39.6633C442.052 41.0433 441.226 42.264 440.161 43.3256C439.148 44.334 437.95 45.1302 436.565 45.714C435.179 46.2979 433.688 46.5898 432.089 46.5898H397.727V69.4392H432.089C433.688 69.4392 435.179 69.7311 436.565 70.315C437.95 70.8988 439.148 71.7215 440.161 72.783C441.226 73.7915 442.052 74.9857 442.638 76.3657C443.224 77.7457 443.517 79.2318 443.517 80.8241C443.517 82.4164 443.224 83.9025 442.638 85.2825C442.052 86.6625 441.226 87.8833 440.161 88.9448C439.148 89.9532 437.95 90.7494 436.565 91.3332C435.179 91.9171 433.688 92.209 432.089 92.209H397.727V69.4601H374.792V115.058H432.089C436.831 115.058 441.279 114.156 445.435 112.352C449.59 110.547 453.213 108.105 456.303 105.027C459.446 101.895 461.923 98.2597 463.735 94.1198Z" fill="#EFF1F3"/>
<path d="M397.734 46.5953L397.734 69.4752L374.791 69.4752V69.4752C374.791 56.839 385.098 46.5953 397.734 46.5953V46.5953Z" fill="#EFF1F3"/>
<path d="M641.479 0.655273H584.206V23.5047H618.648V114.823H641.503V28.9405H641.479V0.655273Z" fill="#EFF1F3"/>
<path d="M653.65 0.655273H676.279V0.890987C676.279 13.3882 666.148 23.5191 653.65 23.5191V23.5191V0.655273Z" fill="#C92626"/>
<path d="M350.498 92.2094H349.286C336.667 92.2094 326.437 102.439 326.437 115.058V115.058H350.498V92.2094Z" fill="#C92626"/>
</svg>
