<svg width="677" height="115" viewBox="0 0 677 115" fill="none" xmlns="http://www.w3.org/2000/svg">
<path d="M78.8935 114.54H0.339355V46.0713H23.2743H55.5988C68.2182 46.0713 78.4483 56.3013 78.4483 68.9207V68.9207H23.2743V91.6905H78.8935V114.54Z" fill="#D9D9D9"/>
<path d="M0.339355 0.352448H79.5378V22.9806H22.9675C10.4703 22.9806 0.339355 12.8496 0.339355 0.352448V0.352448Z" fill="#5F82FF"/>
<path d="M568.208 114.54H489.654V46.0713H512.589H544.914C557.533 46.0713 567.763 56.3013 567.763 68.9207V68.9207H512.589V91.6905H568.208V114.54Z" fill="#D9D9D9"/>
<path d="M489.655 0.352448H568.853V22.9806H512.283C499.786 22.9806 489.655 12.8496 489.655 0.352448V0.352448Z" fill="#5F82FF"/>
<path d="M122.801 23.2753V23.2019H145.736C148.879 23.2019 151.836 23.8122 154.606 25.033C157.376 26.2007 159.8 27.8195 161.878 29.8895C163.956 31.9595 165.581 34.401 166.753 37.2141C167.978 39.974 168.591 42.9198 168.591 46.0513C168.591 49.1828 167.978 52.1551 166.753 54.9681C165.581 57.7281 163.956 60.1431 161.878 62.2131C159.8 64.2831 157.376 65.9284 154.606 67.1492C151.836 68.3169 148.879 68.9007 145.736 68.9007H123.085V68.9293H99.8657V114.52H122.801V91.6705L148.453 91.5113L158.442 114.52H182.815L170.109 84.6644C173.412 82.5944 176.395 80.1529 179.059 77.3399C181.723 74.5268 183.96 71.4484 185.772 68.1046C187.636 64.7607 189.048 61.2312 190.007 57.5158C191.019 53.8005 191.526 49.9789 191.526 46.0513C191.526 41.8582 190.966 37.8244 189.847 33.9499C188.782 30.0753 187.237 26.4395 185.212 23.0426C183.241 19.6457 180.844 16.5673 178.02 13.8073C175.25 10.9943 172.16 8.60584 168.75 6.64201C165.394 4.6251 161.771 3.08589 157.882 2.02436C153.993 0.90975 149.944 0.352448 145.736 0.352448H99.8657V23.2753H122.801Z" fill="#D9D9D9"/>
<path d="M99.8848 23.1422H122.791V47.1845V47.1845C110.14 47.1845 99.8848 36.9293 99.8848 24.2788V23.1422Z" fill="#D9D9D9"/>
<path d="M233.195 46.0513V68.9007H233.218V91.6705H233.195V114.52H210.26V46.0513C210.26 39.7352 211.459 33.8172 213.856 28.2972C216.254 22.7242 219.53 17.8677 223.686 13.7277C227.841 9.58775 232.716 6.32355 238.31 3.93511C243.85 1.54667 249.79 0.352448 256.13 0.352448C262.47 0.352448 271.731 0.352448 277.613 0.352448C283.922 0.352448 301.92 0.352448 301.92 0.352448C301.92 0.352448 301.92 22.0156 301.92 28.2972C301.92 33.8035 301.92 39.7352 301.92 46.0513V114.52H279.065V91.6705H275.928V68.9007H279.065V46.0513C279.065 42.9198 279.065 40.1414 279.065 37.2141C279.065 34.2867 279.065 23.2019 279.065 23.2019H266.049C264.677 23.2019 259.273 23.2019 256.13 23.2019C252.987 23.2019 250.03 23.8122 247.26 25.033C244.436 26.2007 241.986 27.8195 239.908 29.8895C237.83 31.9595 236.205 34.401 235.033 37.2141C233.808 39.974 233.195 42.9198 233.195 46.0513Z" fill="#D9D9D9"/>
<path d="M276.02 68.9216H269.262C256.687 68.9216 246.494 79.1153 246.494 91.6898V91.6898H276.02V68.9216Z" fill="#D9D9D9"/>
<path d="M463.735 93.5813C465.546 89.4413 466.452 85.0094 466.452 80.2856C466.452 78.1626 466.159 75.9864 465.573 73.7572C465.04 71.4749 464.241 69.2988 463.175 67.2288C462.11 65.1588 460.831 63.2746 459.34 61.5762C457.848 59.8246 456.17 58.4446 454.305 57.4362C456.116 56.3216 457.768 54.9151 459.26 53.2166C460.751 51.5182 462.03 49.6339 463.095 47.564C464.161 45.494 464.987 43.3444 465.573 41.1152C466.159 38.886 466.452 36.7098 466.452 34.5868C466.452 29.863 465.546 25.4311 463.735 21.2911C461.923 17.1512 459.446 13.542 456.303 10.4635C453.213 7.332 449.59 4.86395 445.435 3.05935C441.279 1.25475 436.831 0.352448 432.089 0.352448H374.792V23.2166H397.727V23.2019H432.089C433.688 23.2019 435.179 23.4938 436.565 24.0776C437.95 24.6615 439.148 25.4842 440.161 26.5457C441.226 27.5541 442.052 28.7484 442.638 30.1283C443.224 31.5083 443.517 32.9945 443.517 34.5868C443.517 36.1791 443.224 37.6917 442.638 39.1248C442.052 40.5048 441.226 41.7256 440.161 42.7871C439.148 43.7955 437.95 44.5917 436.565 45.1755C435.179 45.7594 433.688 46.0513 432.089 46.0513H397.727V68.9007H432.089C433.688 68.9007 435.179 69.1926 436.565 69.7765C437.95 70.3603 439.148 71.183 440.161 72.2445C441.226 73.253 442.052 74.4472 442.638 75.8272C443.224 77.2072 443.517 78.6933 443.517 80.2856C443.517 81.8779 443.224 83.364 442.638 84.744C442.052 86.124 441.226 87.3448 440.161 88.4063C439.148 89.4148 437.95 90.2109 436.565 90.7948C435.179 91.3786 433.688 91.6705 432.089 91.6705H397.727V68.9216H374.792V114.52H432.089C436.831 114.52 441.279 113.618 445.435 111.813C449.59 110.008 453.213 107.567 456.303 104.488C459.446 101.357 461.923 97.7212 463.735 93.5813Z" fill="#D9D9D9"/>
<path d="M397.734 46.0568L397.734 68.9367L374.791 68.9367V68.9367C374.791 56.3005 385.098 46.0568 397.734 46.0568V46.0568Z" fill="#D9D9D9"/>
<path d="M641.479 0.116852H584.206V22.9663H618.648V114.284H641.503V28.402H641.479V0.116852Z" fill="#D9D9D9"/>
<path d="M653.65 0.116852H676.279V0.352566C676.279 12.8497 666.148 22.9807 653.65 22.9807V22.9807V0.116852Z" fill="#5F82FF"/>
<path d="M350.498 91.6709H349.286C336.667 91.6709 326.437 101.901 326.437 114.52V114.52H350.498V91.6709Z" fill="#5F82FF"/>
</svg>
