<svg width="677" height="116" viewBox="0 0 677 116" fill="none" xmlns="http://www.w3.org/2000/svg">
<path d="M78.8935 115.04H0.339355V46.5713H23.2743H55.5988C68.2182 46.5713 78.4483 56.8013 78.4483 69.4207V69.4207H23.2743V92.1905H78.8935V115.04Z" fill="#EBEBEB"/>
<path d="M0.339355 0.852432H79.5378V23.4806H22.9675C10.4703 23.4806 0.339355 13.3496 0.339355 0.852432V0.852432Z" fill="#238CCB"/>
<path d="M568.208 115.04H489.654V46.5713H512.589H544.914C557.533 46.5713 567.763 56.8013 567.763 69.4207V69.4207H512.589V92.1905H568.208V115.04Z" fill="#EBEBEB"/>
<path d="M489.655 0.852432H568.853V23.4806H512.283C499.786 23.4806 489.655 13.3496 489.655 0.852432V0.852432Z" fill="#238CCB"/>
<path d="M122.801 23.7753V23.7019H145.736C148.879 23.7019 151.836 24.3122 154.606 25.533C157.376 26.7007 159.8 28.3195 161.878 30.3895C163.956 32.4595 165.581 34.901 166.753 37.714C167.978 40.474 168.591 43.4198 168.591 46.5513C168.591 49.6828 167.978 52.6551 166.753 55.4681C165.581 58.2281 163.956 60.6431 161.878 62.7131C159.8 64.783 157.376 66.4284 154.606 67.6492C151.836 68.8169 148.879 69.4007 145.736 69.4007H123.085V69.4293H99.8657V115.02H122.801V92.1705L148.453 92.0113L158.442 115.02H182.815L170.109 85.1644C173.412 83.0944 176.395 80.6529 179.059 77.8399C181.723 75.0268 183.96 71.9484 185.772 68.6045C187.636 65.2607 189.048 61.7311 190.007 58.0158C191.019 54.3004 191.526 50.4789 191.526 46.5513C191.526 42.3582 190.966 38.3244 189.847 34.4498C188.782 30.5753 187.237 26.9395 185.212 23.5426C183.241 20.1457 180.844 17.0673 178.02 14.3073C175.25 11.4943 172.16 9.10582 168.75 7.14199C165.394 5.12509 161.771 3.58587 157.882 2.52434C153.993 1.40974 149.944 0.852432 145.736 0.852432H99.8657V23.7753H122.801Z" fill="#EBEBEB"/>
<path d="M99.8848 23.6421H122.791V47.6845V47.6845C110.14 47.6845 99.8848 37.4293 99.8848 24.7788V23.6421Z" fill="#EBEBEB"/>
<path d="M233.195 46.5513V69.4007H233.218V92.1705H233.195V115.02H210.26V46.5513C210.26 40.2352 211.459 34.3172 213.856 28.7972C216.254 23.2242 219.53 18.3677 223.686 14.2277C227.841 10.0877 232.716 6.82354 238.31 4.43509C243.85 2.04665 249.79 0.852432 256.13 0.852432C262.47 0.852432 271.731 0.852432 277.613 0.852432C283.922 0.852432 301.92 0.852432 301.92 0.852432C301.92 0.852432 301.92 22.5156 301.92 28.7972C301.92 34.3034 301.92 40.2352 301.92 46.5513V115.02H279.065V92.1705H275.928V69.4007H279.065V46.5513C279.065 43.4198 279.065 40.6414 279.065 37.714C279.065 34.7867 279.065 23.7019 279.065 23.7019H266.049C264.677 23.7019 259.273 23.7019 256.13 23.7019C252.987 23.7019 250.03 24.3122 247.26 25.533C244.436 26.7007 241.986 28.3195 239.908 30.3895C237.83 32.4595 236.205 34.901 235.033 37.714C233.808 40.474 233.195 43.4198 233.195 46.5513Z" fill="#EBEBEB"/>
<path d="M276.02 69.4216H269.262C256.687 69.4216 246.494 79.6153 246.494 92.1898V92.1898H276.02V69.4216Z" fill="#EBEBEB"/>
<path d="M463.735 94.0813C465.546 89.9413 466.452 85.5094 466.452 80.7856C466.452 78.6626 466.159 76.4864 465.573 74.2572C465.04 71.9749 464.241 69.7988 463.175 67.7288C462.11 65.6588 460.831 63.7746 459.34 62.0762C457.848 60.3246 456.17 58.9446 454.305 57.9362C456.116 56.8216 457.768 55.4151 459.26 53.7166C460.751 52.0182 462.03 50.1339 463.095 48.064C464.161 45.994 464.987 43.8444 465.573 41.6152C466.159 39.386 466.452 37.2098 466.452 35.0868C466.452 30.363 465.546 25.9311 463.735 21.7911C461.923 17.6512 459.446 14.042 456.303 10.9635C453.213 7.832 449.59 5.36395 445.435 3.55935C441.279 1.75475 436.831 0.852448 432.089 0.852448H374.792V23.7166H397.727V23.7019H432.089C433.688 23.7019 435.179 23.9938 436.565 24.5776C437.95 25.1615 439.148 25.9842 440.161 27.0457C441.226 28.0541 442.052 29.2484 442.638 30.6283C443.224 32.0083 443.517 33.4945 443.517 35.0868C443.517 36.6791 443.224 38.1917 442.638 39.6248C442.052 41.0048 441.226 42.2256 440.161 43.2871C439.148 44.2955 437.95 45.0917 436.565 45.6755C435.179 46.2594 433.688 46.5513 432.089 46.5513H397.727V69.4007H432.089C433.688 69.4007 435.179 69.6926 436.565 70.2765C437.95 70.8603 439.148 71.683 440.161 72.7445C441.226 73.753 442.052 74.9472 442.638 76.3272C443.224 77.7072 443.517 79.1933 443.517 80.7856C443.517 82.3779 443.224 83.864 442.638 85.244C442.052 86.624 441.226 87.8448 440.161 88.9063C439.148 89.9148 437.95 90.7109 436.565 91.2948C435.179 91.8786 433.688 92.1705 432.089 92.1705H397.727V69.4216H374.792V115.02H432.089C436.831 115.02 441.279 114.118 445.435 112.313C449.59 110.508 453.213 108.067 456.303 104.988C459.446 101.857 461.923 98.2212 463.735 94.0813Z" fill="#EBEBEB"/>
<path d="M397.734 46.5568L397.734 69.4367L374.791 69.4367V69.4367C374.791 56.8005 385.098 46.5568 397.734 46.5568V46.5568Z" fill="#EBEBEB"/>
<path d="M641.479 0.616821H584.206V23.4662H618.648V114.784H641.503V28.902H641.479V0.616821Z" fill="#EBEBEB"/>
<path d="M653.65 0.616806H676.279V0.85252C676.279 13.3497 666.148 23.4806 653.65 23.4806V23.4806V0.616806Z" fill="#238CCB"/>
<path d="M350.498 92.1709H349.286C336.667 92.1709 326.437 102.401 326.437 115.02V115.02H350.498V92.1709Z" fill="#238CCB"/>
</svg>
