<svg width="20" height="27" viewBox="0 0 20 27" fill="none" xmlns="http://www.w3.org/2000/svg">
<path d="M6.86587 0.489415C7.33626 0.0491697 8.04184 -0.113884 8.65334 0.0817804C8.88854 0.163307 9.09237 0.310056 9.31189 0.456804C9.48436 0.570942 9.6882 0.619858 9.84499 0.750301C9.92339 0.815522 9.86067 0.92966 9.86067 1.01119C10.0645 1.51665 10.1743 2.07104 10.0018 2.60911C9.86067 2.78847 9.6098 2.83739 9.40597 2.91892C9.37461 3.14719 9.45301 3.35916 9.48436 3.58744C9.43733 3.62005 9.40596 3.65266 9.35892 3.68527C9.65684 3.66896 9.95475 3.60374 10.2527 3.53852C10.3624 3.42438 10.5349 3.4896 10.676 3.4733C10.6917 3.24502 10.7701 3.03305 10.7701 2.80478C10.8014 2.80478 10.8642 2.78847 10.8955 2.77217C10.9112 2.93522 10.8955 3.09827 10.9426 3.26133C11.021 3.32655 11.1464 3.29394 11.2405 3.31024C11.2405 3.37547 11.2405 3.44069 11.2562 3.50591C13.075 3.4896 14.9095 3.50591 16.7283 3.50591C16.7283 3.60374 16.7283 3.70157 16.7283 3.7831C16.7754 3.7831 16.8381 3.7831 16.9008 3.7831C16.9008 3.42438 16.9008 3.08197 16.9008 2.72325C16.9479 2.72325 17.0576 2.72325 17.1046 2.72325C17.1046 3.01675 17.089 3.29394 17.1046 3.58744C17.1203 3.60374 17.1517 3.62005 17.183 3.62005C17.183 3.65266 17.1987 3.71788 17.1987 3.75049C17.2614 3.68527 17.3398 3.63635 17.4339 3.66896C17.4496 3.71788 17.4653 3.76679 17.481 3.83202C17.4182 3.89724 17.3869 3.97876 17.4182 4.0766C17.92 4.0929 18.4217 4.0766 18.9392 4.0766C18.9862 4.01137 19.0646 3.97876 19.143 3.94615C19.1744 3.96246 19.2214 3.99507 19.2371 4.01137C19.488 4.01137 19.7231 4.01137 19.974 4.01137C20.0054 4.14182 20.0054 4.27226 19.9897 4.3864C19.7388 4.3864 19.488 4.3864 19.2371 4.3864C19.2214 4.4027 19.1744 4.45162 19.143 4.46793C19.0646 4.41901 19.0019 4.3864 18.9235 4.33748C18.4688 4.33748 18.0141 4.33748 17.5594 4.33748C17.2928 4.41901 17.0106 4.4027 16.744 4.35379C16.744 4.45162 16.744 4.56576 16.744 4.66359C15.9914 4.66359 15.2545 4.66359 14.5018 4.66359C14.4078 4.74512 14.3137 4.79403 14.1882 4.81034C14.2353 5.05492 13.9687 5.12014 13.8747 5.2995C13.8119 5.39733 13.7179 5.46255 13.6238 5.49516C13.5454 6.00063 13.7179 6.47349 13.8433 6.94634C13.7022 6.97895 13.5454 7.02787 13.4043 7.06048C13.3259 7.38659 13.2475 7.729 13.1847 8.05511C13.122 8.3486 12.9025 8.59318 12.636 8.70732C12.4478 8.9356 12.1969 9.16387 11.899 9.18018C11.7893 9.21279 11.7109 9.13126 11.6325 9.06604C11.2405 9.09865 10.8798 8.90299 10.5349 8.73993C10.1586 8.56057 9.81363 8.3323 9.453 8.12033C9.48436 8.3486 9.37461 8.54427 9.29621 8.73993C9.46868 8.82146 9.70388 8.88668 9.79796 9.08235C9.86067 9.22909 9.92339 9.39215 9.92339 9.57151C9.90771 10.1585 9.84499 10.7455 9.81363 11.3325C9.82931 11.7564 9.62548 12.1804 9.34324 12.4902C9.15509 12.4739 8.99829 12.3923 8.82582 12.3108C8.7631 12.4576 8.62199 12.6043 8.70038 12.7837C8.7631 12.9956 8.7631 13.2239 8.85718 13.4196C9.39029 14.0066 9.84499 14.6588 10.1743 15.3925C10.5035 16.0937 10.7544 16.8274 11.021 17.5611C11.068 17.5611 11.1621 17.5448 11.2091 17.5448C11.2718 17.7568 11.2091 18.0014 11.3346 18.197C11.4443 18.3764 11.413 18.5884 11.413 18.8003C11.3816 19.2895 11.3502 19.7787 11.3032 20.2678C11.2718 20.6102 11.1934 20.9527 11.1464 21.2951C11.1621 21.556 11.2718 21.8168 11.2562 22.0777C11.2405 22.3223 11.2405 22.5832 11.0523 22.7626C11.068 23.3169 10.9269 23.8713 11.115 24.4094C11.3659 24.7681 11.6481 25.1105 11.9461 25.4203C12.2753 25.5834 12.6673 25.616 12.9496 25.9095C13.0593 26.0889 12.9966 26.3008 12.9652 26.4965C12.291 26.5943 11.6168 26.5943 10.9426 26.4965C10.676 26.4313 10.4251 26.3171 10.1586 26.2845C9.79795 26.3008 9.3746 26.4476 9.04533 26.1867C9.01397 25.7464 9.17077 25.3225 9.24917 24.8986C9.28053 24.7518 9.42165 24.654 9.40597 24.5072C9.37461 24.0018 9.34325 23.48 9.31189 22.9745C9.24917 22.9419 9.13941 22.9093 9.15509 22.8115C9.15509 22.5669 9.07669 22.3223 9.01398 22.094C8.90422 21.4744 8.85718 20.8385 8.8415 20.2026C8.82582 20.0233 8.93558 19.8928 9.06101 19.7787C9.09237 19.5015 9.12373 19.208 9.13941 18.9308C9.09237 18.784 8.98262 18.6699 8.9199 18.5395C8.63766 18.5721 8.22999 18.6373 8.05752 18.3275C7.64985 17.6916 7.2265 17.0394 6.81883 16.4035C6.64636 16.3872 6.44252 16.4035 6.28572 16.2893C6.11325 16.0937 6.00349 15.8328 5.89373 15.5882C5.84669 15.7839 5.81534 15.9958 5.70558 16.1589C5.6115 16.3219 5.4547 16.4361 5.34494 16.5828C5.23519 16.8437 5.14111 17.1046 5.04703 17.3655C4.93728 17.6916 4.78048 18.0177 4.74912 18.3764C4.73344 18.5558 4.70208 18.7188 4.63936 18.8819C4.56096 19.0123 4.41985 19.0612 4.29441 19.1265C4.20034 19.3384 4.13762 19.5504 3.9965 19.7298C3.90242 19.8439 3.74563 19.8765 3.68291 20.0233C3.62019 20.2189 3.52611 20.3983 3.44772 20.5776C3.41636 20.7733 3.54179 20.9853 3.47907 21.1809C3.36932 21.6701 3.13412 22.1266 2.91461 22.5669C2.80485 22.893 2.72645 23.2354 2.56966 23.5452C2.50694 23.6757 2.35014 23.7083 2.2247 23.7246C2.08359 24.0833 1.92679 24.4257 1.83271 24.8007C1.78567 25.1594 1.78568 25.5345 1.80136 25.8932C1.80136 26.0562 1.89543 26.1867 1.95815 26.3334C2.02087 26.5291 1.97383 26.7248 1.94247 26.9204C1.33097 27.002 0.703782 27.0672 0.107957 26.8715C0.0452384 26.8226 0.060919 26.7411 0.0452394 26.6758C-0.00179942 26.3823 -0.0331577 26.0725 0.06092 25.7954C0.264755 25.029 0.437228 24.2626 0.641062 23.4963C0.562665 23.4148 0.45291 23.3495 0.45291 23.2191C0.437231 23.0071 0.452908 22.7789 0.499947 22.5669C0.594025 22.2082 0.844898 21.931 0.970335 21.5886C1.01737 21.4418 1.0017 21.2951 1.01738 21.1483C1.01738 20.8059 1.20553 20.5287 1.34664 20.2352C1.48776 19.9906 1.59752 19.7298 1.78568 19.5178C1.91111 19.4036 1.91111 19.2243 2.00519 19.0775C2.09927 18.8982 2.25606 18.7514 2.25606 18.5395C2.28742 18.2786 2.19334 18.0177 2.2247 17.7568C2.28742 16.9905 2.42854 16.2404 2.55398 15.4741C2.49126 15.3925 2.39718 15.311 2.36582 15.1969C2.3815 15.1153 2.39718 15.0501 2.41286 14.9686C2.36582 14.8871 2.31878 14.8055 2.27175 14.724C2.33446 14.6262 2.39718 14.512 2.4599 14.4142C2.39718 14.3653 2.31878 14.3001 2.25606 14.2511C2.33446 14.0066 2.3031 13.6479 2.58534 13.5337C2.6167 13.55 2.69509 13.5663 2.72645 13.5826C2.67941 13.1587 2.67941 12.7184 2.63237 12.2945C2.52262 11.838 2.50694 11.3651 2.55398 10.9085C2.71077 10.664 3.00869 10.5661 3.27524 10.5498C2.93029 10.4683 2.58534 10.4357 2.25606 10.3216C2.24039 10.0281 2.28742 9.73456 2.33446 9.44106C2.47558 8.87038 2.41286 8.28338 2.49126 7.69639C2.56966 7.53334 2.77349 7.50072 2.94597 7.53334C3.1498 7.56595 3.35364 7.50072 3.55747 7.4355C3.55747 7.35398 3.57315 7.25614 3.55747 7.17462C3.43203 6.60393 3.46339 6.01694 3.55747 5.46255C3.68291 4.74512 3.96514 4.04399 4.48257 3.53852C4.82752 3.19611 5.32927 3.03305 5.79966 3.04936C5.95645 3.04936 6.05053 3.21241 6.17597 3.31024C6.23869 3.24502 6.3014 3.1798 6.34844 3.11458C6.27005 2.83739 6.14461 2.54389 6.16029 2.25039C6.19165 1.59818 6.39548 0.92966 6.86587 0.489415ZM11.7579 5.10384C11.7893 5.13645 11.7893 5.13645 11.7579 5.10384V5.10384ZM11.9774 5.13645C11.9931 5.25058 12.0245 5.36472 11.9617 5.46255C11.8833 5.49516 11.7893 5.49516 11.7109 5.54408C11.9304 5.54408 12.1499 5.56039 12.3694 5.54408C12.5419 5.49516 12.4792 5.26689 12.4792 5.13645C12.3694 5.006 12.1342 5.08753 11.9774 5.13645ZM11.4286 5.82127C11.5854 6.00063 11.6638 6.27782 11.8049 6.45718C12.0088 6.17999 12.1656 5.88649 12.4008 5.64191C12.1185 5.62561 11.8363 5.65822 11.5541 5.62561C11.507 5.69083 11.4757 5.75605 11.4286 5.82127Z" fill="#6C7178"/>
</svg>
