<svg width="28" height="28" viewBox="0 0 28 28" fill="none" xmlns="http://www.w3.org/2000/svg">
<path d="M28 2.66667V1.33333C28 0.965333 27.702 0.666667 27.3333 0.666667H24.6666C24.4026 0.666667 24.1906 0.684 24 0.733333V0.666667C24 0.298667 23.702 0 23.3333 0H19.3333C18.1773 0 17.7593 0.656 17.514 1.33333H16.9726C16.8173 1.126 16.6666 0.857333 16.6666 0.666667C16.6666 0.298667 16.3686 0 16 0H11.3333C10.9927 0 10.7066 0.262 10.67 0.6C10.6547 0.74 10.3713 1.33333 9.93065 1.33333H8.10399C8.06065 1.282 7.99799 1.18667 7.94399 1.06467C7.83732 0.822667 7.59732 0.666667 7.33332 0.666667H0.666666C0.298 0.666667 0 0.965333 0 1.33333V6.66667C0 8.54867 0.549999 10.9313 0.665999 11.412L0.660666 12.422L0.208666 12.8493C0.0753334 12.9747 0 13.15 0 13.3333V16C0 16.1773 0.07 16.3467 0.195333 16.4713L0.666666 16.9427V19.892L0.0346666 21.7893C-0.00599996 21.91 -0.0106666 22.0387 0.0206667 22.162L0.639999 24.6407L0.0353333 26.4567C-0.0333333 26.66 0.00133337 26.884 0.126667 27.0573C0.251333 27.2307 0.452666 27.3333 0.666666 27.3333H9.99998C10.1773 27.3333 10.3467 27.2633 10.4713 27.138L10.5313 27.078C10.8853 27.562 11.378 28 12 28H14C14.4906 28 14.92 27.786 15.298 27.5967C15.5566 27.4667 15.824 27.3333 16 27.3333H19.3333C19.5106 27.3333 19.68 27.2633 19.8046 27.138L19.9666 26.976C20.0086 27.0293 20.0486 27.082 20.088 27.1327C20.4153 27.5593 20.7533 28 21.3333 28H24.6666C25.0353 28 25.3333 27.702 25.3333 27.3333V26.854L27.172 27.3127C27.3713 27.364 27.5826 27.3173 27.7453 27.19C27.9073 27.0633 28.0013 26.868 28 26.6613C27.9993 26.596 27.958 20.0547 28 16.6747C28.002 16.4947 27.9313 16.322 27.8046 16.1947L27.3333 15.724V12.6667C27.3333 12.49 27.2633 12.32 27.138 12.1953L26.8113 11.8687L27.2146 11.062L27.8046 10.472C27.93 10.3467 28 10.1767 28 10L27.99 6.66C27.99 6.606 27.9833 6.55267 27.9706 6.5L27.3733 4.07867L27.93 2.96533C27.976 2.87267 28 2.77 28 2.66667ZM20.0593 5.33333L22.0886 6.66667L21.412 10.6667L16 6.66667L20.0593 5.33333ZM7.33332 22.6667L4.66666 20.6667L5.99999 16L11.3333 21.3333L7.33332 22.6667ZM21.4666 22H18.3553L4.66666 5.95067L7.15532 5.33333L23.3333 17.6787L21.4666 22Z" fill="#6C7178"/>
</svg>
