<svg width="28" height="28" viewBox="0 0 28 28" fill="none" xmlns="http://www.w3.org/2000/svg">
<path d="M3.81818 0L6.36364 4.13636V23.8636L3.65909 28H22.8544L26.7273 22.9091H12.7273V0H3.81818ZM15.2727 0.0646307V2.62003C20.9911 3.25512 25.4545 8.11364 25.4545 14C25.4545 16.3533 24.7399 18.5424 23.5181 20.3636H26.4538C27.4351 18.452 28 16.2922 28 14C28 6.70982 22.3975 0.709903 15.2727 0.0646307ZM3.65661 4.59624C1.39242 7.08442 0 10.3791 0 14C0 17.6107 1.38526 20.8958 3.63672 23.3814L3.81818 23.1055V19.2251C3.01 17.6559 2.54545 15.8824 2.54545 14C2.54545 12.1176 3.01 10.3441 3.81818 8.77486V4.85724L3.65661 4.59624Z" fill="#6C7178"/>
</svg>
