<svg width="30" height="30" viewBox="0 0 30 30" fill="none" xmlns="http://www.w3.org/2000/svg">
<path d="M8.002 5.69791V24.9462C8.002 24.9462 7.69186 29.5505 14.8004 29.3939C14.8004 29.3939 21.1947 30.1651 22 25.0998V12.8662C22 12.8662 21.5048 10.3648 17.1481 10.3648C17.1481 10.3648 14.1516 10.3022 13.9979 11.2612L13.9666 6.44062C13.9666 6.44062 14.9256 5.35926 16.1606 6.47192L16.1293 9.34606H22V5.69791C22 5.69791 21.9857 0.817549 15.0878 1.09356C15.0849 1.09356 8.52845 0.538654 8.002 5.69791Z" fill="#6C7178" stroke="black" stroke-width="0.0464982" stroke-miterlimit="10"/>
<path d="M12.6064 17.0381V25.8739H12.4271V26.3491H12.8966V26.5227H14.3052V26.3292H14.493V21.7334C14.493 21.7334 15.0024 21.0647 16.1805 21.2127V18.811C16.1805 18.811 17.205 18.2845 19.1031 18.2845V16.0876C19.1031 16.0876 18.3973 15.0831 16.7582 16.2043C16.7582 16.2043 14.8857 17.2288 14.4902 16.0791H12.945V16.2328H12.5979V16.5572H12.4299V16.9158H12.6007L12.6064 17.0381Z" fill="#242B36" stroke="#242B36" stroke-width="0.0464982" stroke-miterlimit="10"/>
<path d="M14.641 19.668V21.0197H16.0212V19.1472L15.8277 18.8086H15.509L15.5175 19.1273C15.5175 19.1273 15.8448 19.1842 15.8846 19.3891L15.7623 19.5058C15.765 19.503 15.4122 18.9737 14.641 19.668Z" fill="#6C7178" stroke="#242B36" stroke-width="0.0464982" stroke-miterlimit="10"/>
</svg>
