<svg width="29" height="14" viewBox="0 0 29 14" fill="none" xmlns="http://www.w3.org/2000/svg">
<path fill-rule="evenodd" clip-rule="evenodd" d="M2.34017 2.93632H7.34243C9.52078 5.71187 11.78 8.5269 13.9584 11.3024C14.8863 12.5091 14.402 13.9172 12.9495 13.9172H0C1.00826 12.9114 2.01709 11.9461 3.02535 10.9803C3.54985 10.498 3.46893 10.6187 4.07435 10.9803C5.12335 11.5839 5.72819 11.7047 7.30169 11.7047H9.68146C7.2621 8.76834 4.80142 5.87208 2.34017 2.93632ZM19.171 2.49347C18.8077 4.98694 18.5656 7.92384 19.8166 9.97503C20.6636 11.4226 22.3983 12.4685 25.1826 12.4685C23.8106 13.6346 22.6405 14.0374 21.0268 13.9973C17.6388 13.8766 14.7339 10.538 14.5727 6.79726C14.5325 5.38975 14.7741 3.82088 15.2992 2.49347H19.171ZM18.4049 0C17.3157 0 15.9442 1.32741 15.3795 2.17249H24.3758C24.618 2.17249 24.7792 2.33327 24.8601 2.53409C25.1023 3.017 25.1023 3.17778 25.5046 2.85565C26.11 2.41337 27.3604 1.48819 28.4903 0.68373C29.3379 0.0801022 29.0957 0 28.006 0H18.4049ZM3.95384 0C2.54216 0 1.73533 0.56358 1.73533 2.21254H9.19827C10.2874 2.21254 10.6507 2.21254 11.2555 2.97638C11.6188 3.3786 11.6991 3.3786 12.0624 2.93632C12.6711 2.17742 13.2898 1.42649 13.9182 0.68373C14.2407 0.322126 14.0795 0 13.555 0H3.95384Z" fill="#6C7178"/>
</svg>
