<svg width="27" height="22" viewBox="0 0 27 22" fill="none" xmlns="http://www.w3.org/2000/svg">
<path d="M0.0854619 0.406377C0.251666 0.311904 0.357576 0.50285 0.447232 0.603322C6.21615 7.48389 11.9919 14.3595 17.7603 21.24C17.8788 21.338 17.7891 21.5474 17.6292 21.5249C14.8672 21.5279 12.1046 21.5259 9.34258 21.5259C9.12133 21.5284 8.90951 21.4235 8.77371 21.259C5.90786 17.8455 3.04359 14.4304 0.177739 11.0164C0.0561006 10.8784 -0.00681574 10.7 0.00104883 10.5205C0.00104883 7.22246 0.00209722 3.92389 0 0.625815C0.00157291 0.547837 -0.00157266 0.446866 0.0854619 0.406377Z" fill="#6C7178"/>
<path d="M26.7663 0.390554C26.8843 0.348066 27.0143 0.452037 26.997 0.570004C27.0012 3.86958 26.9965 7.16915 26.9991 10.4687C27.007 10.6557 26.964 10.8491 26.8366 10.9961C25.9657 12.0348 25.0938 13.073 24.2229 14.1112C24.0777 14.2911 23.8402 14.3906 23.6027 14.3791C20.859 14.3766 18.1148 14.3806 15.3711 14.3771C15.2091 14.4011 15.1168 14.1927 15.2364 14.0922C19.0412 9.55398 22.8493 5.01725 26.6562 0.480029C26.6851 0.44104 26.7218 0.411048 26.7663 0.390554Z" fill="#6C7178"/>
</svg>
