<svg width="30" height="31" viewBox="0 0 30 31" fill="none" xmlns="http://www.w3.org/2000/svg">
<g clip-path="url(#clip0)">
<path d="M2.05916 15.0343C2.05727 22.2398 7.71227 28.0831 14.6908 28.085C21.6692 28.0875 27.3287 22.2475 27.3306 15.042L27.3306 15.0337C27.3325 7.82759 21.6775 1.98433 14.699 1.98242C7.72049 1.98052 2.0617 7.81933 2.05916 15.0255L2.05916 15.0343Z" fill="url(#paint0_linear)"/>
<path d="M13.4583 2.1637L18.517 2.48124C18.629 2.48707 18.7378 2.52115 18.8332 2.58031L23.2596 5.43812C23.355 5.49726 23.4342 5.57955 23.4897 5.67744C23.5452 5.77532 23.5753 5.88564 23.5772 5.99826C23.5792 6.11089 23.5529 6.2222 23.5008 6.32196C23.4487 6.42172 23.3725 6.50673 23.2792 6.56918C22.6955 6.96419 22.1176 7.4189 21.9551 7.83931C21.6054 8.77032 21.2083 10.1345 20.8681 11.3125C20.719 11.8379 20.5609 12.3606 20.3938 12.8805C20.3224 13.0977 20.2636 13.292 20.1965 13.4559C20.1295 13.6197 20.0871 13.7442 19.9196 13.9322C19.8943 13.9537 19.8683 13.9734 19.8405 13.9919C19.5414 14.2364 19.2297 14.3704 18.8528 14.4878C18.4759 14.6053 18.0409 14.698 17.6273 14.766C17.2138 14.834 16.8173 14.8587 16.4613 14.8651C16.1053 14.8714 15.8543 14.9495 15.4338 14.6866C15.4135 14.6746 15.3933 14.6612 15.3743 14.6472C15.1941 14.5031 15.1758 14.4066 15.1372 14.3297C15.0986 14.2529 15.0657 14.1887 15.0385 14.1112C14.9835 13.9563 14.9336 13.7823 14.8805 13.5752C14.6284 12.5777 14.45 11.5629 14.3468 10.539C14.3012 10.0894 14.2469 9.79151 14.3468 9.38824C14.3518 9.36728 14.3404 9.35014 14.3468 9.32855L14.3676 9.32855C14.4688 8.83764 14.7281 8.127 15.1777 7.32427C15.5786 6.61064 16.1158 5.98349 16.7585 5.47876C16.7357 5.45463 16.6845 5.41145 16.5612 5.35937L14.0907 5.37842C14.0167 5.37779 13.9433 5.36381 13.8731 5.33905C13.815 5.31999 13.7536 5.36064 13.4583 5.21965C13.3104 5.1498 13.1295 4.98849 13.0435 4.82274C12.9575 4.65698 12.9215 4.51663 12.905 4.36612L12.7469 2.91753C12.7349 2.81902 12.7446 2.71905 12.7755 2.62477C12.8064 2.53049 12.8577 2.44425 12.9257 2.37221C12.9937 2.30017 13.0767 2.24412 13.1688 2.20807C13.2609 2.17203 13.3597 2.15687 13.4583 2.1637Z" fill="url(#paint1_linear)"/>
<path d="M13.4191 2.83789L13.5772 4.28457C13.6215 4.6961 13.7941 4.59576 14.0976 4.69483L16.7003 4.6853C17.468 4.93298 17.5521 5.34323 17.5002 5.69379C16.0421 6.50795 15.1315 8.81896 14.9993 9.50547C14.8122 10.1672 15.5337 13.9046 15.7898 14.1097C16.2216 14.3796 18.7807 14.0017 19.4257 13.4746C19.7722 13.0841 20.5873 9.55818 21.3227 7.60026C21.5934 6.89978 22.3193 6.40761 22.9036 6.01259L18.4772 3.15479L13.4191 2.83789Z" fill="url(#paint2_radial)"/>
<path d="M26.0463 10.2005C26.1661 10.2118 26.2796 10.2598 26.3714 10.3379C26.4632 10.416 26.529 10.5206 26.5598 10.6374L28.0812 15.8571C28.1161 15.9773 28.1119 16.1057 28.0693 16.2234C28.0266 16.3411 27.9477 16.4422 27.8441 16.5118C27.2604 16.9062 26.6565 17.3666 26.4807 17.8213C26.4644 17.8563 26.4444 17.8895 26.4213 17.9204C26.4162 17.9375 26.4093 17.9452 26.4017 17.9801C26.3745 18.0982 26.3429 18.3033 26.303 18.5358C26.2227 19.0007 26.1121 19.6313 25.9673 20.2822C25.8225 20.9332 25.6441 21.6057 25.3741 22.1874C25.1041 22.7692 24.7431 23.3077 24.1095 23.5173C24.2631 23.4665 24.1354 23.5236 24.05 23.577C23.9647 23.6303 23.8527 23.7033 23.7143 23.7954C23.4373 23.9796 23.0832 24.2108 22.7265 24.4502C22.3699 24.6896 22.0114 24.9436 21.7186 25.1246C21.5725 25.2154 21.4397 25.2821 21.3234 25.3431C21.2652 25.3736 21.2127 25.3971 21.1457 25.4225C21.0787 25.4479 21.0395 25.5107 20.7701 25.4618C20.4602 25.406 20.3648 25.2326 20.3154 25.1443C20.2661 25.056 20.2554 24.9894 20.2364 24.9258C20.1991 24.7995 20.1605 24.6731 20.1378 24.5289C20.0916 24.24 20.0581 23.8837 20.0189 23.537C19.9797 23.1902 19.9398 22.839 19.9 22.604C19.8836 22.5075 19.8709 22.465 19.8608 22.4256C19.8172 22.3881 19.7552 22.3932 19.7223 22.3462C19.5933 22.1639 19.5788 21.9747 19.5838 21.8305C19.5946 21.5416 19.6863 21.3206 19.8013 21.0761C20.0315 20.5864 20.4084 20.0231 20.8289 19.4287C21.6402 18.2811 22.5678 17.1513 22.9826 16.6903C23.0174 16.576 23.037 16.4585 23.0813 16.3334C23.1363 16.1771 23.1983 16.0069 23.2394 15.8571C22.3648 16.2318 21.4587 16.5696 20.4533 16.6903C20.3934 16.693 20.3335 16.6863 20.2756 16.6706C19.9618 16.6177 19.6562 16.5242 19.3663 16.3924C19.1956 16.3149 19.0147 16.2356 18.8528 16.0946C18.691 15.9536 18.5107 15.7275 18.4772 15.4201C18.462 15.2803 18.497 15.1395 18.5759 15.0232C19.6995 13.3365 21.3145 12.9053 23.0022 12.2848L23.9716 11.0934C24.0309 11.0243 24.1054 10.9699 24.1891 10.9346L25.7504 10.2602C25.842 10.2143 25.9441 10.1937 26.0463 10.2005Z" fill="url(#paint3_linear)"/>
<path d="M23.3627 12.7828C21.5795 13.4509 20.1169 13.7913 19.0761 15.3536C19.1203 15.7645 20.0157 16.0414 20.3793 16.101C21.4594 15.9709 22.4534 15.5816 23.4291 15.137C24.394 14.9281 23.5543 16.6377 23.5024 16.9882C22.8132 17.7414 19.3948 21.9507 20.3332 22.065C20.5633 22.0935 20.6626 24.8561 20.877 24.8942C21.0913 24.9323 23.6985 23.0284 23.9324 22.9515C25.4355 22.4543 25.6821 17.7446 25.9275 17.6036C26.1975 16.9031 26.924 16.411 27.5083 16.016L25.9882 10.8008L24.4187 11.4746L23.3627 12.7828Z" fill="url(#paint4_radial)"/>
<path d="M2.14265 8.18855L2.16226 3.78244C2.16098 3.67784 2.18056 3.57404 2.21983 3.47715C2.2591 3.38026 2.31728 3.29224 2.39093 3.21827C2.46458 3.14429 2.55222 3.08587 2.6487 3.04643C2.74517 3.00699 2.84853 2.98733 2.95268 2.9886L6.96424 2.94923C7.11798 2.94836 7.26858 2.99291 7.39731 3.07732C7.52604 3.16173 7.62723 3.28229 7.68828 3.424C7.74933 3.56571 7.76755 3.72232 7.74068 3.87435C7.7138 4.02638 7.64302 4.16712 7.53714 4.27906L3.50598 8.72454C3.28782 8.96651 2.94319 9.04779 2.63967 8.92904C2.49192 8.87066 2.36529 8.76861 2.27654 8.63639C2.18779 8.50417 2.1411 8.348 2.14265 8.18855Z" fill="black" fill-opacity="0.318"/>
<path d="M2.40634 8.18968L2.42594 3.78357C2.42774 3.64737 2.48242 3.51725 2.57832 3.42093C2.67423 3.32461 2.80378 3.2697 2.9394 3.26789L6.95095 3.22852C7.05185 3.2281 7.15071 3.25697 7.23566 3.31166C7.3206 3.36634 7.388 3.44451 7.42975 3.53676C7.47151 3.62901 7.48583 3.73141 7.471 3.83164C7.45617 3.93187 7.41282 4.02567 7.34616 4.10174L3.31501 8.54722C3.24368 8.62548 3.15042 8.68021 3.04751 8.7042C2.9446 8.72818 2.83687 8.72031 2.73851 8.6816C2.64015 8.6429 2.55576 8.57518 2.49647 8.48737C2.43717 8.39956 2.40575 8.29577 2.40634 8.18968Z" fill="black" fill-opacity="0.318"/>
<path d="M2.5771 8.18975L2.5967 3.78365C2.59592 3.73653 2.60453 3.68973 2.62201 3.646C2.63949 3.60226 2.6655 3.56248 2.69851 3.52898C2.73187 3.49581 2.77147 3.46963 2.815 3.45197C2.85853 3.43431 2.90512 3.42551 2.95207 3.4261L6.9636 3.38673C7.03246 3.38618 7.09996 3.40599 7.15769 3.44369C7.21542 3.4814 7.26083 3.53532 7.28827 3.59876C7.3157 3.66219 7.32395 3.73233 7.31198 3.80044C7.30001 3.86855 7.26836 3.93162 7.22096 3.98179L3.18983 8.42727C3.14247 8.48106 3.07985 8.51902 3.01039 8.53603C2.94093 8.55305 2.86794 8.54831 2.80124 8.52245C2.73454 8.4966 2.67731 8.45086 2.63724 8.39139C2.59718 8.33192 2.57619 8.26155 2.5771 8.18975Z" fill="black" fill-opacity="0.318"/>
<path d="M2.77058 8.19229L2.79019 3.78619C2.79285 3.76521 2.79951 3.74495 2.80979 3.72649C2.81853 3.70405 2.83189 3.6837 2.84899 3.66679C2.85504 3.65976 2.86159 3.65318 2.86859 3.64711C2.89283 3.63386 2.92004 3.62708 2.94764 3.62742C2.95369 3.62039 2.96024 3.61381 2.96724 3.60773L6.97877 3.56836C6.99267 3.57311 7.00586 3.57974 7.01798 3.58805C7.03884 3.59083 7.059 3.59751 7.07742 3.60773C7.09247 3.61871 7.1057 3.632 7.11662 3.64711C7.12662 3.66569 7.13326 3.6859 7.13623 3.7068C7.14632 3.73905 7.14632 3.77363 7.13623 3.80588C7.12732 3.82823 7.11398 3.84854 7.09702 3.86557L3.06588 8.31105C3.04705 8.32734 3.02489 8.33931 3.00098 8.34611C2.97706 8.35291 2.95195 8.35438 2.9274 8.35042C2.89985 8.35046 2.8727 8.3437 2.84836 8.33074C2.84077 8.32439 2.83508 8.31804 2.82876 8.31105C2.81145 8.29431 2.79806 8.27392 2.78955 8.25135C2.77985 8.23293 2.77343 8.21294 2.77058 8.19229Z" fill="black" fill-opacity="0.333"/>
<path d="M6.72522 3.81339L2.97671 3.79687L3.01275 7.84162L6.72522 3.81339Z" fill="url(#paint5_linear)"/>
<path d="M6.70053 26.8919L2.31337 26.8722C2.20925 26.8734 2.10593 26.8537 2.0095 26.8142C1.91306 26.7747 1.82545 26.7163 1.75182 26.6423C1.67818 26.5684 1.62 26.4804 1.5807 26.3835C1.5414 26.2867 1.52177 26.1829 1.52295 26.0784L1.48375 22.0495C1.48229 21.8948 1.5263 21.7432 1.61024 21.6135C1.69419 21.4838 1.81435 21.3819 1.95569 21.3205C2.09703 21.2591 2.25327 21.2409 2.40485 21.2682C2.55643 21.2955 2.69661 21.3672 2.80786 21.4741L7.23423 25.5227C7.35206 25.6297 7.43466 25.7703 7.47106 25.9256C7.50746 26.0809 7.49594 26.2437 7.43802 26.3923C7.3801 26.5409 7.27852 26.6683 7.14679 26.7575C7.01506 26.8468 6.85942 26.8936 6.70053 26.8919Z" fill="black" fill-opacity="0.318"/>
<path d="M6.68731 26.6262L2.30018 26.6065C2.16462 26.6046 2.03515 26.5496 1.93928 26.4533C1.84341 26.357 1.78869 26.227 1.78673 26.0909L1.74752 22.062C1.74683 21.9605 1.77542 21.8611 1.82981 21.7756C1.88421 21.6901 1.9621 21.6223 2.05406 21.5803C2.14602 21.5383 2.24812 21.524 2.34801 21.539C2.44791 21.5541 2.54133 21.5978 2.61698 21.6651L7.04332 25.7136C7.12158 25.7851 7.17638 25.8788 7.20046 25.9823C7.22454 26.0857 7.21677 26.1941 7.17818 26.293C7.13959 26.392 7.07199 26.4768 6.98434 26.5363C6.89668 26.5958 6.79311 26.6271 6.68731 26.6262Z" fill="black" fill-opacity="0.318"/>
<path d="M6.70055 26.4557L2.3134 26.436C2.26661 26.4364 2.22021 26.4275 2.17691 26.4097C2.1336 26.3919 2.09426 26.3656 2.06117 26.3324C2.02809 26.2992 2.00193 26.2596 1.98422 26.2162C1.96651 26.1727 1.9576 26.1261 1.95803 26.0791L1.91882 22.0502C1.91706 21.9805 1.93606 21.9119 1.97339 21.8531C2.01071 21.7944 2.06466 21.7481 2.12832 21.7204C2.19197 21.6926 2.26244 21.6846 2.33068 21.6973C2.39891 21.71 2.46182 21.7429 2.51132 21.7917L6.93768 25.8403C6.99416 25.8411 7.0496 25.8556 7.09928 25.8826C7.14896 25.9096 7.1914 25.9483 7.22299 25.9953C7.25458 26.0423 7.27438 26.0963 7.2807 26.1527C7.28702 26.2091 7.27967 26.2662 7.25929 26.3191C7.2389 26.372 7.20608 26.4191 7.16362 26.4565C7.12116 26.494 7.07033 26.5205 7.01545 26.5339C6.96057 26.5473 6.90327 26.5472 6.84844 26.5336C6.79361 26.52 6.74287 26.4932 6.70055 26.4557Z" fill="black" fill-opacity="0.318"/>
<path d="M6.71826 26.2633L2.33109 26.2436C2.31023 26.2408 2.29007 26.2341 2.27165 26.2239C2.2493 26.2151 2.22905 26.2017 2.21221 26.1845C2.20521 26.1784 2.19866 26.1718 2.19261 26.1648C2.17947 26.1405 2.17272 26.1131 2.173 26.0854C2.166 26.0794 2.15945 26.0728 2.1534 26.0657L2.1142 22.0368C2.1192 22.023 2.12577 22.0098 2.1338 21.9975C2.13687 21.9766 2.1435 21.9564 2.1534 21.9378C2.16433 21.9226 2.17756 21.9094 2.19261 21.8984C2.2111 21.8883 2.23123 21.8817 2.25205 21.8787C2.28415 21.8686 2.31858 21.8686 2.35069 21.8787C2.37304 21.8875 2.39329 21.9009 2.41013 21.9181L6.8365 25.9667C6.85273 25.9856 6.86464 26.0078 6.87141 26.0319C6.87818 26.0559 6.87965 26.0811 6.87571 26.1058C6.87571 26.1337 6.86875 26.161 6.85611 26.1851C6.85041 26.1928 6.84283 26.1985 6.8365 26.2048C6.81993 26.2223 6.7996 26.2358 6.77706 26.2442C6.75884 26.2542 6.73888 26.2607 6.71826 26.2633Z" fill="black" fill-opacity="0.333"/>
<path d="M2.35576 21.5234L2.34248 26.0286L6.64679 26.0286L2.35576 21.5234Z" fill="url(#paint6_linear)"/>
<path d="M28.5162 21.6521L28.4966 26.0582C28.4976 26.1627 28.4779 26.2664 28.4385 26.3632C28.3991 26.4599 28.341 26.5479 28.2674 26.6218C28.1938 26.6957 28.1062 26.7541 28.0099 26.7937C27.9135 26.8332 27.8103 26.853 27.7062 26.852L23.6946 26.8914C23.3797 26.8946 23.0946 26.7079 22.9693 26.4176C22.9082 26.2757 22.8901 26.1188 22.9172 25.9666C22.9443 25.8143 23.0154 25.6735 23.1217 25.5616L27.1529 21.1161C27.2598 20.9984 27.3997 20.9161 27.5541 20.8799C27.7086 20.8438 27.8703 20.8555 28.018 20.9136C28.1656 20.9716 28.2923 21.0733 28.3813 21.2051C28.4702 21.337 28.5173 21.4928 28.5162 21.6521Z" fill="black" fill-opacity="0.318"/>
<path d="M28.2398 21.6646L28.2202 26.0707C28.2183 26.207 28.1635 26.3371 28.0675 26.4334C27.9715 26.5297 27.8418 26.5846 27.7062 26.5864L23.6946 26.6258C23.5932 26.6273 23.4936 26.5991 23.408 26.5446C23.3223 26.4901 23.2544 26.4118 23.2124 26.3191C23.1705 26.2264 23.1564 26.1234 23.1718 26.0228C23.1873 25.9222 23.2316 25.8282 23.2994 25.7525L27.3305 21.3071C27.4017 21.2283 27.495 21.1731 27.5981 21.1488C27.7012 21.1244 27.8092 21.132 27.9079 21.1705C28.0065 21.2095 28.091 21.2775 28.1503 21.3658C28.2096 21.454 28.2408 21.5582 28.2398 21.6646Z" fill="black" fill-opacity="0.318"/>
<path d="M28.0811 21.6519L28.0615 26.058C28.0624 26.1051 28.0538 26.1519 28.0362 26.1955C28.0186 26.2392 27.9924 26.2788 27.9591 26.312C27.8921 26.3799 27.801 26.4168 27.7055 26.4149L23.694 26.4542C23.6247 26.4559 23.5564 26.4367 23.498 26.3992C23.4396 26.3616 23.3937 26.3074 23.3661 26.2435C23.3385 26.1796 23.3306 26.1089 23.3432 26.0405C23.3559 25.972 23.3887 25.9089 23.4373 25.8592L27.4684 21.4137C27.5158 21.3599 27.5785 21.3219 27.648 21.3049C27.7175 21.2879 27.7906 21.2927 27.8573 21.3186C27.924 21.3446 27.9813 21.3904 28.0213 21.45C28.0613 21.5096 28.0822 21.58 28.0811 21.6519Z" fill="black" fill-opacity="0.318"/>
<path d="M27.9066 21.6371L27.887 26.0432C27.8842 26.0641 27.8776 26.0844 27.8674 26.1029C27.8585 26.1252 27.8452 26.1456 27.8282 26.1626C27.8225 26.1702 27.8156 26.1759 27.8086 26.1823C27.7843 26.1955 27.7571 26.2022 27.7296 26.202C27.7239 26.2096 27.7169 26.2153 27.71 26.2216L23.6984 26.261C23.6846 26.2561 23.6714 26.2495 23.6592 26.2413C23.6384 26.2382 23.6183 26.2316 23.5998 26.2216C23.5847 26.2107 23.5715 26.1974 23.5606 26.1823C23.5506 26.1637 23.5439 26.1435 23.541 26.1226C23.5309 26.0903 23.5309 26.0557 23.541 26.0235C23.55 26.0012 23.5633 25.9809 23.5802 25.9638L27.6113 21.5183C27.63 21.5018 27.6522 21.4897 27.6761 21.4829C27.7001 21.4761 27.7253 21.4748 27.7498 21.4789C27.7773 21.479 27.8045 21.4857 27.8288 21.4986C27.836 21.5045 27.8426 21.5111 27.8484 21.5183C27.8656 21.5352 27.879 21.5555 27.8876 21.578C27.8976 21.5963 27.9041 21.6164 27.9066 21.6371Z" fill="black" fill-opacity="0.333"/>
<path d="M23.5948 26.0141L27.6468 26.0141L27.6468 21.5801L23.5948 26.0141Z" fill="url(#paint7_linear)"/>
<path d="M22.6272 2.99616L27.0144 3.01585C27.1185 3.01483 27.2217 3.03467 27.3181 3.0742C27.4144 3.11373 27.502 3.17217 27.5756 3.24609C27.6492 3.32001 27.7073 3.40792 27.7467 3.5047C27.7861 3.60147 27.8058 3.70515 27.8048 3.80968L27.844 7.83856C27.8455 7.99322 27.8015 8.14488 27.7175 8.27454C27.6336 8.40421 27.5134 8.50613 27.3721 8.56755C27.2307 8.62897 27.0745 8.64715 26.9229 8.61983C26.7713 8.5925 26.6312 8.52088 26.5199 8.41393L22.0935 4.36537C21.9754 4.25846 21.8925 4.11791 21.8559 3.96246C21.8192 3.80701 21.8307 3.64405 21.8887 3.49531C21.9467 3.34656 22.0484 3.2191 22.1804 3.12992C22.3123 3.04074 22.4682 2.99408 22.6272 2.99616Z" fill="black" fill-opacity="0.318"/>
<path d="M22.6272 3.2754L27.0144 3.29509C27.15 3.29706 27.2794 3.35202 27.3753 3.44831C27.4712 3.54459 27.5259 3.67462 27.5279 3.81077L27.5671 7.83964C27.5676 7.94097 27.539 8.04031 27.4847 8.12567C27.4303 8.21103 27.3525 8.27877 27.2607 8.32073C27.1688 8.36268 27.0669 8.37706 26.9671 8.36213C26.8673 8.34719 26.7739 8.30358 26.6982 8.23656L22.2719 4.188C22.1937 4.11654 22.1389 4.02292 22.1148 3.91951C22.0907 3.81611 22.0984 3.7078 22.1369 3.60889C22.1754 3.50999 22.2429 3.42516 22.3305 3.36561C22.418 3.30606 22.5215 3.27461 22.6272 3.2754Z" fill="black" fill-opacity="0.318"/>
<path d="M22.6273 3.43362L27.0144 3.45331C27.0613 3.45254 27.1079 3.46124 27.1513 3.4789C27.1948 3.49656 27.2343 3.52283 27.2674 3.55612C27.3006 3.58942 27.3267 3.62907 27.3443 3.67272C27.3619 3.71638 27.3706 3.76313 27.3698 3.81022L27.409 7.83908C27.41 7.90845 27.3906 7.97656 27.3531 8.03482C27.3156 8.09309 27.2618 8.1389 27.1984 8.16648C27.135 8.19407 27.0649 8.20218 26.997 8.1898C26.929 8.17742 26.8662 8.1451 26.8165 8.09692L22.3902 4.04837C22.3368 4.00072 22.2992 3.93782 22.2824 3.86811C22.2656 3.7984 22.2704 3.7252 22.2962 3.65833C22.322 3.59145 22.3676 3.53409 22.4267 3.49393C22.4859 3.45377 22.5559 3.43273 22.6273 3.43362Z" fill="black" fill-opacity="0.318"/>
<path d="M22.6273 3.61133L27.0144 3.63102C27.0353 3.63369 27.0555 3.64038 27.0739 3.6507C27.0963 3.65964 27.1166 3.67328 27.1333 3.69071C27.1405 3.69662 27.147 3.70322 27.1529 3.7104C27.1656 3.73493 27.1723 3.76214 27.1725 3.78978C27.1797 3.79569 27.1862 3.80229 27.1921 3.80947L27.2313 7.83834C27.2267 7.85235 27.2201 7.86561 27.2117 7.87771C27.2091 7.89869 27.2024 7.91896 27.1921 7.93741C27.1812 7.95252 27.168 7.96581 27.1529 7.97679C27.1345 7.98711 27.1144 7.99379 27.0935 7.99647C27.0614 8.00661 27.0269 8.00661 26.9948 7.99647C26.9725 7.98769 26.9522 7.97427 26.9354 7.9571L22.509 3.90854C22.4926 3.88976 22.4805 3.86753 22.4737 3.84346C22.4669 3.8194 22.4656 3.79411 22.4698 3.76946C22.47 3.74181 22.4767 3.71461 22.4894 3.69008C22.4953 3.68289 22.5019 3.6763 22.509 3.67039C22.5257 3.65308 22.546 3.63964 22.5685 3.63101C22.5867 3.6208 22.6066 3.61412 22.6273 3.61133Z" fill="black" fill-opacity="0.333"/>
<path d="M27.046 7.84235L27.0226 3.82047L22.6304 3.80078L27.046 7.84235Z" fill="url(#paint8_linear)"/>
<path d="M23.24 6.70783C23.3134 6.71545 23.3798 6.75483 23.4221 6.81579C23.4645 6.87676 23.4771 6.9536 23.4575 7.02537L23.0225 8.55334L20.0189 21.9691L20.2959 23.4374C20.3023 23.4729 20.3011 23.5094 20.2923 23.5445C20.2835 23.5795 20.2673 23.6122 20.2448 23.6404C20.2223 23.6685 20.1941 23.6915 20.162 23.7078C20.1299 23.7241 20.0947 23.7332 20.0587 23.7346L15.6918 23.7346C15.6539 23.7335 15.6167 23.7237 15.583 23.7062C15.5493 23.6886 15.52 23.6636 15.4972 23.6331C15.4744 23.6026 15.4588 23.5674 15.4514 23.53C15.444 23.4926 15.4452 23.454 15.4547 23.4171L15.7316 22.0079L14.9804 19.1304L14.0515 22.0485L14.4663 23.398C14.4798 23.4362 14.4839 23.477 14.4784 23.517C14.4729 23.5571 14.4579 23.5953 14.4347 23.6283C14.4115 23.6614 14.3807 23.6883 14.3449 23.7069C14.3092 23.7255 14.2695 23.7353 14.2292 23.7353L9.30898 23.7556C9.26865 23.7557 9.22889 23.7461 9.19305 23.7275C9.15722 23.709 9.12636 23.682 9.1031 23.6489C9.07984 23.6158 9.06485 23.5776 9.05941 23.5375C9.05397 23.4973 9.05824 23.4565 9.07185 23.4184L9.64475 21.8701L7.39236 8.87087L6.5425 7.06474C6.5254 7.02716 6.51773 6.98595 6.52016 6.9447C6.5226 6.90346 6.53506 6.86344 6.55647 6.82816C6.57787 6.79288 6.60756 6.7634 6.64294 6.74231C6.67831 6.72122 6.7183 6.70917 6.75939 6.7072L11.0479 6.7072C11.0855 6.70583 11.123 6.71294 11.1575 6.72803C11.192 6.74311 11.2227 6.76578 11.2473 6.79436C11.2719 6.82294 11.2899 6.8567 11.2998 6.89316C11.3097 6.92962 11.3114 6.96786 11.3046 7.00504L11.0479 8.47332L12.5301 16.8683L14.8419 7.89858C14.8593 7.84941 14.8915 7.80685 14.9339 7.77676C14.9764 7.74666 15.0271 7.73051 15.0791 7.73051C15.131 7.73051 15.1817 7.74666 15.2242 7.77676C15.2666 7.80685 15.2988 7.84941 15.3162 7.89858L17.549 16.8092L19.4068 8.47396L19.1697 7.00568C19.1645 6.96557 19.1689 6.9248 19.1827 6.88678C19.1964 6.84877 19.2191 6.81462 19.2487 6.78722C19.2715 6.76269 19.299 6.74303 19.3295 6.72939C19.36 6.71575 19.393 6.70842 19.4264 6.70783L23.2204 6.70783C23.2269 6.70719 23.2335 6.70719 23.24 6.70783Z" fill="black" fill-opacity="0.288"/>
<path d="M23.319 6.51012C23.3795 6.52439 23.4364 6.55083 23.4864 6.58786C23.5363 6.62489 23.5783 6.67173 23.6097 6.72553C23.6411 6.77934 23.6613 6.83899 23.669 6.90086C23.6768 6.96274 23.6719 7.02556 23.6548 7.0855L23.2204 8.59378L23.24 8.59378L20.2364 21.9696L20.5133 23.3985C20.5238 23.4646 20.52 23.5322 20.502 23.5966C20.4839 23.6611 20.4522 23.7208 20.409 23.7718C20.3658 23.8227 20.3121 23.8636 20.2516 23.8917C20.1911 23.9198 20.1253 23.9344 20.0587 23.9345L15.6917 23.9345C15.6232 23.9348 15.5554 23.9198 15.4933 23.8905C15.4312 23.8613 15.3764 23.8185 15.3329 23.7652C15.2893 23.712 15.2581 23.6497 15.2416 23.5829C15.225 23.516 15.2235 23.4463 15.2371 23.3788L15.5141 22.0293L14.9608 19.9056L14.269 22.049L14.6642 23.3388C14.7053 23.4779 14.6787 23.6278 14.594 23.7453C14.5093 23.8627 14.374 23.932 14.2298 23.9345L9.30893 23.9548C9.23542 23.9546 9.16302 23.9368 9.09775 23.9029C9.03248 23.8689 8.97622 23.8198 8.93366 23.7596C8.89111 23.6994 8.86348 23.6299 8.85308 23.5568C8.84269 23.4837 8.84982 23.4092 8.87388 23.3394L9.42718 21.8312L7.19439 8.97101L6.34453 7.16488C6.31308 7.09469 6.29948 7.01776 6.30499 6.94099C6.31048 6.86422 6.3349 6.79003 6.37604 6.7251C6.41718 6.66016 6.47375 6.60651 6.54066 6.56899C6.60757 6.53146 6.68272 6.51123 6.75935 6.51012L11.0479 6.51012C11.1144 6.51022 11.1802 6.52479 11.2406 6.55285C11.3011 6.58091 11.3547 6.62178 11.3979 6.67265C11.4411 6.72353 11.4729 6.7832 11.4909 6.84756C11.509 6.91192 11.5129 6.97944 11.5025 7.04548L11.2654 8.47439L12.5497 15.8577L14.6244 7.83996C14.6431 7.73255 14.699 7.63523 14.7822 7.5651C14.8653 7.49497 14.9704 7.45653 15.079 7.45653C15.1876 7.45653 15.2927 7.49497 15.3759 7.5651C15.459 7.63523 15.5149 7.73255 15.5337 7.83996L17.5489 15.8577L19.1892 8.41533L18.9717 7.04612C18.9611 6.98005 18.9649 6.91244 18.9828 6.84798C19.0008 6.78353 19.0325 6.72377 19.0757 6.67284C19.119 6.62192 19.1727 6.58105 19.2333 6.55306C19.2938 6.52507 19.3597 6.51064 19.4263 6.51076L23.2204 6.51076C23.2531 6.50706 23.2862 6.50684 23.319 6.51012Z" fill="black" fill-opacity="0.288"/>
<path d="M23.3589 6.3124C23.4478 6.33116 23.5318 6.36823 23.6056 6.42126C23.6795 6.4743 23.7416 6.54214 23.788 6.62051C23.8344 6.69888 23.8641 6.78606 23.8753 6.87656C23.8864 6.96705 23.8788 7.05888 23.8528 7.14625L23.4177 8.63485L23.4177 8.67422L20.4337 21.9313L20.7107 23.3602C20.7442 23.5532 20.6911 23.7508 20.5652 23.9013C20.4394 24.0499 20.2535 24.1356 20.0587 24.1343L15.6918 24.1343C15.5935 24.1355 15.4962 24.1146 15.4071 24.073C15.3179 24.0314 15.2392 23.9703 15.1766 23.8942C15.1141 23.818 15.0693 23.7287 15.0457 23.6329C15.022 23.5371 15.02 23.4372 15.0399 23.3405L15.3162 21.9903L14.9406 20.6008L14.486 22.0494L14.8616 23.2802C14.8917 23.3792 14.8982 23.4839 14.8806 23.586C14.863 23.688 14.8218 23.7844 14.7603 23.8675C14.6987 23.9506 14.6186 24.0179 14.5263 24.0642C14.4341 24.1104 14.3323 24.1342 14.2292 24.1337L9.30901 24.1534C9.20529 24.1518 9.10342 24.1257 9.0117 24.077C8.91998 24.0284 8.84102 23.9586 8.78127 23.8735C8.72152 23.7883 8.68267 23.6902 8.6679 23.5871C8.65313 23.4839 8.66285 23.3788 8.69627 23.2802L9.22996 21.8316L6.99718 9.01081L6.16756 7.24468C6.12225 7.14461 6.10256 7.03475 6.11027 6.92508C6.11799 6.81542 6.15286 6.70943 6.21173 6.61674C6.27059 6.52406 6.35158 6.44761 6.44734 6.39435C6.5431 6.34109 6.6506 6.3127 6.76006 6.31177L11.0479 6.31177C11.1443 6.31083 11.2397 6.33124 11.3274 6.37155C11.415 6.41187 11.4927 6.4711 11.555 6.54502C11.6172 6.61894 11.6625 6.70574 11.6875 6.79923C11.7126 6.89272 11.7168 6.99061 11.6999 7.08592L11.4627 8.47545L12.6085 14.9455L14.4461 7.801C14.485 7.66262 14.5678 7.54078 14.6819 7.454C14.7961 7.36722 14.9353 7.32025 15.0785 7.32025C15.2216 7.32025 15.3609 7.36722 15.475 7.454C15.5891 7.54078 15.6719 7.66262 15.7108 7.801L17.5294 15.0643L18.9914 8.45576L18.7738 7.06623C18.7601 6.97236 18.7667 6.87661 18.7932 6.78554C18.8197 6.69447 18.8656 6.61025 18.9276 6.53864C18.9895 6.46704 19.0662 6.40974 19.1523 6.37069C19.2384 6.33164 19.3319 6.31176 19.4264 6.3124L23.2204 6.3124C23.2665 6.30732 23.3129 6.30732 23.3589 6.3124Z" fill="black" fill-opacity="0.288"/>
<path d="M23.319 6.07369C23.4482 6.08703 23.573 6.12847 23.6846 6.19515C23.7963 6.26183 23.8921 6.35213 23.9655 6.45978C24.0388 6.56743 24.088 6.68984 24.1095 6.81849C24.1309 6.94715 24.1242 7.07896 24.0899 7.20475L23.6548 8.69335L23.6548 8.73273L20.6708 21.9701L20.9275 23.2999C20.953 23.4294 20.9498 23.563 20.918 23.691C20.8862 23.8191 20.8266 23.9386 20.7436 24.0409C20.6606 24.1432 20.5561 24.2259 20.4376 24.283C20.3191 24.3401 20.1895 24.3702 20.0581 24.3713L15.6911 24.3713C15.4009 24.3726 15.1284 24.2309 14.9602 23.9941C14.792 24.2309 14.5194 24.3726 14.2292 24.3713L9.30896 24.3916C9.01746 24.3891 8.74555 24.2443 8.58114 24.0029C8.41673 23.7616 8.37816 23.4555 8.47934 23.1812L8.97319 21.812L6.77961 9.11059L5.94999 7.36415C5.8153 7.08472 5.83364 6.75576 5.99804 6.49284C6.07928 6.36385 6.19182 6.25771 6.32511 6.18439C6.45839 6.11108 6.60805 6.07298 6.76001 6.07369L11.0479 6.07369C11.1789 6.0725 11.3087 6.10025 11.4279 6.15498C11.547 6.20972 11.6528 6.29011 11.7376 6.39045C11.8225 6.49079 11.8843 6.60863 11.9187 6.73563C11.9532 6.86263 11.9594 6.99568 11.937 7.12537L11.6998 8.47489L12.6483 13.8133L14.2096 7.74075C14.2559 7.54413 14.367 7.36898 14.5248 7.24363C14.6826 7.11829 14.8779 7.05011 15.079 7.05011C15.2802 7.05011 15.4755 7.11829 15.6333 7.24364C15.7911 7.36898 15.9022 7.54413 15.9485 7.74075L17.5097 13.9924L18.7548 8.43551L18.5373 7.10568C18.5179 6.97744 18.5264 6.84651 18.5623 6.7219C18.5982 6.59729 18.6605 6.48197 18.745 6.38388C18.8295 6.28579 18.9342 6.20727 19.0518 6.15372C19.1694 6.10017 19.2972 6.07287 19.4264 6.07369L23.2204 6.07369C23.2532 6.07179 23.2862 6.07179 23.319 6.07369ZM14.921 21.4741L14.7237 22.0698L14.9412 22.7442L15.0797 22.0698L14.921 21.4741Z" fill="black" fill-opacity="0.288"/>
<path d="M23.2255 6.96738L22.7759 8.49028L19.7621 21.9556L20.0587 23.4842L15.6867 23.4842L15.9884 22.0109L14.9956 18.2303L13.7998 22.0604L14.2248 23.4842L9.29949 23.4944L9.90464 21.8794L7.64087 8.8402L6.76065 6.96484L11.0479 6.96738L10.7994 8.48266L12.4726 18.0614L15.0784 7.95999L17.5686 17.8829L19.6629 8.4363L19.4264 6.96738L23.2255 6.96738Z" fill="black" fill-opacity="0.288"/>
<path d="M23.2204 6.9668L21.0837 8.55193L18.2237 21.9106L20.0612 23.4837L19.7621 21.9506L22.7657 8.49477L23.2204 6.9668Z" fill="url(#paint9_linear)"/>
<path d="M18.2211 21.9102L20.0612 23.4832L15.6816 23.4782L17.3713 21.9203L18.2211 21.9102Z" fill="#792100"/>
<path d="M19.4365 6.98047L21.0818 8.55544L18.2218 21.909L17.3795 21.9167L17.549 17.762L19.5845 8.49384L19.4365 6.98047Z" fill="url(#paint10_linear)"/>
<path d="M15.6842 23.4846L17.3687 21.9242L15.005 12.8027L14.9949 18.2256L15.9877 22.0112L15.6842 23.4846Z" fill="url(#paint11_linear)"/>
<path d="M15.079 7.93945L15 12.7622L17.3738 21.9287L17.5294 17.8027L15.079 7.93945Z" fill="url(#paint12_linear)"/>
<path d="M23.2255 6.9668L21.0812 8.55447L19.4264 6.97188L23.2255 6.9668Z" fill="url(#paint13_linear)"/>
<path d="M15.0841 7.94922L15.0051 12.7967L12.8292 21.9296L11.4722 21.9366L15.0841 7.94922Z" fill="url(#paint14_linear)"/>
<path d="M15.0051 12.8027L14.9949 18.2154L13.796 22.0582L14.221 23.4782L12.8165 21.9363L15.0051 12.8027Z" fill="url(#paint15_linear)"/>
<path d="M11.4779 21.9277L12.8115 21.9328L14.2305 23.483L9.30266 23.4919L11.4779 21.9277Z" fill="#792100"/>
<path d="M7.64523 8.81958L6.76439 6.97852L9.13691 8.32613L11.4873 21.9331L9.29752 23.4979L9.90394 21.881L7.64523 8.81958Z" fill="url(#paint16_linear)"/>
<path d="M10.7994 8.47415L11.0548 6.98047L9.13442 8.31538L11.4873 21.9173L12.4744 18.0573L10.7994 8.47415Z" fill="url(#paint17_linear)"/>
<path d="M11.0574 6.97701L9.14645 8.33097L6.75432 6.96875L11.0574 6.97701Z" fill="url(#paint18_linear)"/>
<path d="M15 0.576171C22.963 0.576171 29.4249 7.07483 29.4249 15.0837C29.4249 23.0925 22.963 29.5905 15 29.5905C7.03632 29.5905 0.575094 23.0919 0.575095 15.083C0.575096 7.07419 7.03632 0.57617 15 0.576171ZM15.0594 3.07644C8.52801 3.07643 3.24229 8.39767 3.24229 14.984C3.24229 21.5703 8.528 26.9112 15.0594 26.9112C21.5908 26.9112 26.8961 21.5703 26.8961 14.984C26.8955 8.39767 21.5908 3.07644 15.0594 3.07644Z" fill="black" fill-opacity="0.263"/>
<path d="M15 0.357421C23.0819 0.357421 29.6424 6.95578 29.6424 15.0834C29.6424 23.2103 23.0819 29.8093 15 29.8093C6.91808 29.8093 0.357578 23.2103 0.357579 15.0834C0.35758 6.95578 6.91808 0.35742 15 0.357421ZM15.0594 3.29461C8.64689 3.29461 3.45983 8.51614 3.45983 14.9837C3.45983 21.4512 8.64689 26.6931 15.0594 26.6931C21.4713 26.6931 26.6786 21.4512 26.6786 14.9837C26.6786 8.51678 21.472 3.29461 15.0594 3.29461Z" fill="black" fill-opacity="0.278"/>
<path d="M15 -1.3112e-06C23.2741 -5.87855e-07 29.9984 6.76284 29.9984 15.0829C29.9984 23.4029 23.2741 30.1657 15 30.1657C6.72523 30.1657 0.00158105 23.4029 0.00158178 15.0829C0.00158251 6.76284 6.72523 -2.03461e-06 15 -1.3112e-06ZM15.0594 3.65164C8.83914 3.65164 3.81584 8.70805 3.81584 14.9838C3.81584 21.2595 8.84103 26.3356 15.0594 26.3356C21.2778 26.3356 26.3226 21.2576 26.3226 14.9838C26.3226 8.70996 21.2797 3.65164 15.0594 3.65164Z" fill="black" fill-opacity="0.414"/>
<path d="M15 0.792968C22.8473 0.792968 29.208 7.19001 29.208 15.082C29.208 22.9746 22.8473 29.371 15 29.371C7.15271 29.371 0.792032 22.9746 0.792033 15.082C0.792034 7.19001 7.15272 0.792967 15 0.792968ZM15.0595 2.85694C8.4117 2.85694 3.02545 8.28105 3.02545 14.9829C3.02545 21.6848 8.41233 27.1286 15.0595 27.1286C21.7066 27.1286 27.1131 21.6848 27.1131 14.9829C27.1131 8.28106 21.7066 2.85694 15.0595 2.85694Z" fill="url(#paint19_linear)"/>
<path d="M15.3585 0.886718C22.8087 0.886718 28.8349 6.94717 28.8349 14.4416C28.8349 21.936 22.8081 27.9965 15.3585 27.9965C7.90894 27.9965 1.8815 21.936 1.8815 14.4416C1.8815 6.94717 7.90831 0.886717 15.3585 0.886718ZM15.418 1.48178C8.37308 1.48178 2.65232 7.24311 2.65232 14.3419C2.65232 21.4407 8.37118 27.2217 15.418 27.2217C22.4647 27.2217 28.2026 21.4426 28.2026 14.3419C28.2026 7.24121 22.4628 1.48178 15.418 1.48178Z" fill="url(#paint20_linear)"/>
</g>
<defs>
<linearGradient id="paint0_linear" x1="22.6456" y1="-0.40861" x2="8.9691" y2="25.9272" gradientUnits="userSpaceOnUse">
<stop stop-color="#5B779E"/>
<stop offset="0.399" stop-color="#2D3B50"/>
<stop offset="1" stop-color="#0C0E14"/>
</linearGradient>
<linearGradient id="paint1_linear" x1="17.7374" y1="5.35175" x2="13.6099" y2="14.355" gradientUnits="userSpaceOnUse">
<stop stop-opacity="0"/>
<stop offset="1" stop-opacity="0.621"/>
</linearGradient>
<radialGradient id="paint2_radial" cx="0" cy="0" r="1" gradientUnits="userSpaceOnUse" gradientTransform="translate(19.7734 4.83419) rotate(-168.459) scale(18.1273 9.46635)">
<stop stop-color="#BDD9F9"/>
<stop offset="0.065" stop-color="#BDD9F9"/>
<stop offset="1" stop-color="#1C3556" stop-opacity="0.101"/>
</radialGradient>
<linearGradient id="paint3_linear" x1="28.5156" y1="4.41439" x2="21.3639" y2="19.7907" gradientUnits="userSpaceOnUse">
<stop stop-opacity="0"/>
<stop offset="1" stop-opacity="0.621"/>
</linearGradient>
<radialGradient id="paint4_radial" cx="0" cy="0" r="1" gradientUnits="userSpaceOnUse" gradientTransform="translate(22.7961 8.55678) rotate(-168.459) scale(18.1248 9.46508)">
<stop stop-color="#BDD9F9"/>
<stop offset="0.065" stop-color="#BDD9F9"/>
<stop offset="1" stop-color="#1C3556" stop-opacity="0.101"/>
</radialGradient>
<linearGradient id="paint5_linear" x1="6.1226" y1="3.03289" x2="2.13835" y2="6.55319" gradientUnits="userSpaceOnUse">
<stop stop-color="#FDEC97"/>
<stop offset="0.353" stop-color="#FDEC97"/>
<stop offset="0.513" stop-color="#FDEC97"/>
<stop offset="0.628" stop-color="#DB990F"/>
<stop offset="1" stop-color="#DB990F"/>
</linearGradient>
<linearGradient id="paint6_linear" x1="5.82538" y1="27.3324" x2="1.61776" y2="23.0645" gradientUnits="userSpaceOnUse">
<stop stop-color="#FFDC76"/>
<stop offset="0.327" stop-color="#E4903B"/>
<stop offset="0.451" stop-color="#CA4400"/>
<stop offset="0.58" stop-color="#FDEC97"/>
<stop offset="0.704" stop-color="#DB990F"/>
<stop offset="1" stop-color="#DB990F"/>
</linearGradient>
<linearGradient id="paint7_linear" x1="25.1238" y1="26.5622" x2="27.9319" y2="23.4865" gradientUnits="userSpaceOnUse">
<stop stop-color="#FFDC76"/>
<stop offset="0.327" stop-color="#E4903B"/>
<stop offset="0.451" stop-color="#CA4400"/>
<stop offset="0.58" stop-color="#FDEC97"/>
<stop offset="0.704" stop-color="#DB990F"/>
<stop offset="1" stop-color="#DB990F"/>
</linearGradient>
<linearGradient id="paint8_linear" x1="27.8655" y1="6.81799" x2="24.0491" y2="3.07419" gradientUnits="userSpaceOnUse">
<stop stop-color="#CA4400"/>
<stop offset="0.353" stop-color="#CA4400"/>
<stop offset="0.513" stop-color="#FDEC97"/>
<stop offset="0.628" stop-color="#DB990F"/>
<stop offset="1" stop-color="#DB990F"/>
</linearGradient>
<linearGradient id="paint9_linear" x1="22.5697" y1="7.06396" x2="19.1072" y2="22.4536" gradientUnits="userSpaceOnUse">
<stop stop-color="#DA940F"/>
<stop offset="0.235" stop-color="#EFD11A"/>
<stop offset="0.75" stop-color="#EFD11A"/>
<stop offset="0.908" stop-color="#EFD11A"/>
<stop offset="1" stop-color="#D3900E"/>
</linearGradient>
<linearGradient id="paint10_linear" x1="20.4154" y1="7.0173" x2="17.3492" y2="21.5271" gradientUnits="userSpaceOnUse">
<stop stop-color="#C63000"/>
<stop offset="0.491" stop-color="#DB9000"/>
<stop offset="0.8" stop-color="#DB9000"/>
<stop offset="1" stop-color="#C43B00"/>
</linearGradient>
<linearGradient id="paint11_linear" x1="14.4157" y1="13.8868" x2="16.6668" y2="23.2103" gradientUnits="userSpaceOnUse">
<stop stop-color="#AD2F00"/>
<stop offset="1" stop-color="#CB7500"/>
</linearGradient>
<linearGradient id="paint12_linear" x1="14.4486" y1="9.45346" x2="17.6592" y2="19.2686" gradientUnits="userSpaceOnUse">
<stop stop-color="#ECD500"/>
<stop offset="0.869" stop-color="#ECD500"/>
<stop offset="1" stop-color="#FFEF57"/>
</linearGradient>
<linearGradient id="paint13_linear" x1="21.3626" y1="6.88932" x2="20.5748" y2="8.57664" gradientUnits="userSpaceOnUse">
<stop stop-color="#FFD511"/>
<stop offset="1" stop-color="#FDF8DC"/>
</linearGradient>
<linearGradient id="paint14_linear" x1="15.6241" y1="9.16093" x2="11.9082" y2="21.9261" gradientUnits="userSpaceOnUse">
<stop stop-color="#BD3300"/>
<stop offset="0.188" stop-color="#BD3300"/>
<stop offset="0.411" stop-color="#CB8500"/>
<stop offset="1" stop-color="#C26F00"/>
</linearGradient>
<linearGradient id="paint15_linear" x1="15.774" y1="14.1148" x2="13.3041" y2="22.6031" gradientUnits="userSpaceOnUse">
<stop stop-color="#FFD303"/>
<stop offset="0.902" stop-color="#FFD303"/>
<stop offset="1" stop-color="#D27E00"/>
</linearGradient>
<linearGradient id="paint16_linear" x1="7.74641" y1="6.67051" x2="10.5273" y2="23.3854" gradientUnits="userSpaceOnUse">
<stop stop-color="#A51F00"/>
<stop offset="0.288" stop-color="#C67200"/>
<stop offset="0.644" stop-color="#C67200"/>
<stop offset="1" stop-color="#C25500"/>
</linearGradient>
<linearGradient id="paint17_linear" x1="9.88184" y1="7.02873" x2="12.6714" y2="21.8024" gradientUnits="userSpaceOnUse">
<stop stop-color="#CD7C00"/>
<stop offset="0.314" stop-color="#EED700"/>
<stop offset="1" stop-color="#EED700"/>
</linearGradient>
<linearGradient id="paint18_linear" x1="8.9441" y1="6.89254" x2="8.21254" y2="8.33733" gradientUnits="userSpaceOnUse">
<stop stop-color="#FFD511"/>
<stop offset="1" stop-color="#FDF8DC"/>
</linearGradient>
<linearGradient id="paint19_linear" x1="30.8546" y1="21.7108" x2="-1.91037" y2="8.12976" gradientUnits="userSpaceOnUse">
<stop stop-color="#51290E"/>
<stop offset="0.346" stop-color="#D08E29"/>
<stop offset="0.417" stop-color="#E1D02D"/>
<stop offset="0.498" stop-color="#F6E57F"/>
<stop offset="0.537" stop-color="#F6E57F"/>
<stop offset="0.605" stop-color="#E1D02D"/>
<stop offset="0.687" stop-color="#D08E29"/>
<stop offset="1" stop-color="#452A15"/>
</linearGradient>
<linearGradient id="paint20_linear" x1="7.14002" y1="26.1402" x2="24.1525" y2="2.13256" gradientUnits="userSpaceOnUse">
<stop stop-color="#FFE12B"/>
<stop offset="0.136" stop-color="#FFF7C7" stop-opacity="0"/>
<stop offset="0.819" stop-color="#FFF7C7" stop-opacity="0"/>
<stop offset="1" stop-color="#FFE12B"/>
</linearGradient>
<clipPath id="clip0">
<rect width="30" height="30.1657" fill="white" transform="matrix(-1 -8.74228e-08 -8.74228e-08 1 30 0)"/>
</clipPath>
</defs>
</svg>
