<svg width="30" height="30" viewBox="0 0 30 30" fill="none" xmlns="http://www.w3.org/2000/svg">
<path d="M15 1C12.2385 1 9.57722 1.805 7.27539 3.33333H3.33333V7.27539C1.805 9.57722 1 12.2385 1 15C1 17.7615 1.805 20.4228 3.33333 22.7246V26.6667H7.27539C9.57722 28.195 12.2385 29 15 29C17.7615 29 20.4228 28.195 22.7246 26.6667H26.6667V22.7246C28.195 20.4228 29 17.7615 29 15C29 12.2385 28.195 9.57722 26.6667 7.27539V3.33333H22.7246C20.4228 1.805 17.7615 1 15 1ZM15 3.33333C17.4045 3.33333 19.7195 4.06759 21.6947 5.45475L21.9954 5.66667H24.3333V8.00456L24.5452 8.30534C25.9324 10.2817 26.6667 12.5967 26.6667 15C26.6667 17.4045 25.9324 19.7195 24.5452 21.6947L24.3333 21.9954V24.3333H21.9954L21.6947 24.5452C19.7195 25.9324 17.4045 26.6667 15 26.6667C12.5967 26.6667 10.2817 25.9324 8.30534 24.5452L8.00456 24.3333H5.66667V21.9954L5.45475 21.6947C4.06759 19.7195 3.33333 17.4045 3.33333 15C3.33333 12.5967 4.06759 10.2817 5.45475 8.30534L5.66667 8.00456V5.66667H8.00456L8.30534 5.45475C10.2817 4.06759 12.5967 3.33333 15 3.33333ZM6.83333 9.16667L7.76074 10.0941C7.91824 10.2504 8.02508 10.4479 8.07292 10.6637L10.1943 20.209C10.2807 20.5986 10.1622 21.0044 9.87988 21.2868L9.16667 22H13.8333L13.2933 20.9176L15 16.1667L16.7067 20.9176L16.1667 22H20.8333L20.1201 21.2868C19.8378 21.0044 19.7193 20.5986 19.8057 20.209L21.9271 10.6637C21.9749 10.4467 22.0829 10.2504 22.2393 10.0941L23.1667 9.16667H18.5L18.8919 9.94824C19.0168 10.1979 19.0462 10.4819 18.9785 10.7526L17.6637 16.0117L15 9.16667L12.3363 16.0117L11.0215 10.7526C10.9538 10.4819 10.9855 10.1979 11.1104 9.94824L11.5 9.16667H6.83333Z" fill="#6C7178"/>
</svg>
