<svg width="6" height="10" viewBox="0 0 6 10" fill="none" xmlns="http://www.w3.org/2000/svg">
<path d="M1.35714 0.901785C1.28571 0.901785 1.20536 0.9375 1.15178 0.99107L0.705356 1.4375C0.651785 1.49107 0.616071 1.57143 0.616071 1.64286C0.616071 1.71428 0.651785 1.79464 0.705356 1.84821L4.21429 5.35714L0.705357 8.86607C0.651785 8.91964 0.616071 9 0.616071 9.07143C0.616071 9.15179 0.651785 9.22321 0.705357 9.27679L1.15179 9.72321C1.20536 9.77679 1.28571 9.8125 1.35714 9.8125C1.42857 9.8125 1.50893 9.77679 1.5625 9.72321L5.72321 5.5625C5.77679 5.50893 5.8125 5.42857 5.8125 5.35714C5.8125 5.28571 5.77679 5.20536 5.72321 5.15178L1.5625 0.99107C1.50893 0.9375 1.42857 0.901785 1.35714 0.901785Z" fill="white"/>
</svg>
