<svg width="25" height="25" viewBox="0 0 25 25" fill="none" xmlns="http://www.w3.org/2000/svg">
<path d="M10.4167 11.2847C12.0467 11.2847 13.3681 9.96336 13.3681 8.33335C13.3681 6.70334 12.0467 5.38196 10.4167 5.38196C8.78665 5.38196 7.46527 6.70334 7.46527 8.33335C7.46527 9.96336 8.78665 11.2847 10.4167 11.2847Z" fill="#18F37D"/>
<path d="M7.46528 13.7153H13.368C14.9021 13.7153 16.1458 14.959 16.1458 16.4931V18.9236H4.6875V16.4931C4.6875 14.959 5.93125 13.7153 7.46528 13.7153Z" fill="#18F37D"/>
<path d="M9.02777 8.33335C9.02777 6.97571 9.94999 5.84376 11.1979 5.50001C10.9472 5.43057 10.6889 5.38196 10.4167 5.38196C8.7868 5.38196 7.46527 6.70349 7.46527 8.33335C7.46527 9.96321 8.7868 11.2847 10.4167 11.2847C10.6889 11.2847 10.9472 11.2361 11.1979 11.1667C9.94999 10.8229 9.02777 9.69099 9.02777 8.33335Z" fill="#00B871"/>
<path d="M9.02778 13.7153H7.46528C5.93125 13.7153 4.6875 14.959 4.6875 16.4931V18.9236H6.25V16.4931C6.25 14.959 7.49375 13.7153 9.02778 13.7153Z" fill="#00B871"/>
<path d="M10.4167 11.8056C8.5021 11.8056 6.94446 10.2479 6.94446 8.33334C6.94446 6.41875 8.5021 4.86111 10.4167 4.86111C12.3313 4.86111 13.8889 6.41875 13.8889 8.33334C13.8889 10.2479 12.3313 11.8056 10.4167 11.8056ZM10.4167 5.90278C9.0764 5.90278 7.98612 6.99306 7.98612 8.33334C7.98612 9.67361 9.0764 10.7639 10.4167 10.7639C11.757 10.7639 12.8472 9.67361 12.8472 8.33334C12.8472 6.99306 11.757 5.90278 10.4167 5.90278Z" fill="white"/>
<path d="M16.1459 19.4445H4.68752C4.40002 19.4445 4.16669 19.2111 4.16669 18.9236V16.4931C4.16669 14.6743 5.64655 13.1945 7.4653 13.1945H13.3681C15.1868 13.1945 16.6667 14.6743 16.6667 16.4931V18.9236C16.6667 19.2111 16.4334 19.4445 16.1459 19.4445ZM5.20835 18.4028H15.625V16.4931C15.625 15.2486 14.6125 14.2361 13.3681 14.2361H7.4653C6.22085 14.2361 5.20835 15.2486 5.20835 16.4931V18.4028Z" fill="white"/>
<path d="M14.4097 10.9375H20.3125V11.9792H14.4097V10.9375Z" fill="white"/>
<path d="M17.9027 14.6042L17.1666 13.8681L19.5764 11.4583L17.1666 9.0486L17.9034 8.3118L20.6812 11.0896C20.8847 11.2931 20.8847 11.6229 20.6812 11.8264L17.9027 14.6042Z" fill="white"/>
<path d="M20.2769 3.91629L20.7679 3.42524L21.75 4.40734L21.2589 4.89838L20.2769 3.91629Z" fill="white"/>
<path d="M23.1047 6.74597L23.5957 6.25493L24.5778 7.23702L24.0868 7.72806L23.1047 6.74597Z" fill="white"/>
<path d="M20.1583 7.23679L21.1404 6.25469L21.6314 6.74574L20.6493 7.72783L20.1583 7.23679Z" fill="white"/>
<path d="M22.9819 4.41364L23.964 3.43154L24.455 3.92259L23.4729 4.90468L22.9819 4.41364Z" fill="white"/>
</svg>
