<svg width="18" height="18" viewBox="0 0 18 18" fill="none" xmlns="http://www.w3.org/2000/svg">
<path d="M0.551675 15.4409C0.583839 16.156 0.893103 16.8161 1.42174 17.2986C1.91697 17.7505 2.55859 17.9996 3.22867 17.9996C3.97997 17.9996 4.70159 17.6817 5.20837 17.1266L8.99995 12.9743L12.7915 17.1271C13.2983 17.6817 14.0199 18 14.7712 18C15.4417 18 16.0837 17.7509 16.5782 17.299C17.1068 16.8161 17.4161 16.1564 17.4482 15.4414C17.4808 14.7263 17.233 14.041 16.7501 13.5124L12.6303 8.99959L16.7501 4.48722C17.233 3.95858 17.4808 3.27325 17.4482 2.55823C17.4161 1.84321 17.1068 1.18304 16.5782 0.700586C16.0833 0.248648 15.4413 0 14.7712 0C14.0199 0 13.2983 0.317924 12.7915 0.87295L8.99995 5.02534L5.20837 0.872537C4.70159 0.317924 3.97997 0 3.22825 0C2.55818 0 1.91656 0.249061 1.42174 0.700586C0.893103 1.18345 0.583839 1.84321 0.551675 2.55823C0.5191 3.27325 0.766923 3.95858 1.24979 4.48722L5.3696 9L1.24979 13.5115C0.766923 14.0406 0.5191 14.7255 0.551675 15.4409ZM2.16315 14.3457L6.38564 9.7212C6.75593 9.31627 6.75593 8.68208 6.38605 8.27797L2.16315 3.6522C1.90337 3.36768 1.76976 2.99904 1.78708 2.6139C1.80481 2.22876 1.97099 1.87373 2.25634 1.61353C2.82167 1.09727 3.77998 1.14222 4.29501 1.70631L8.26555 6.05498C8.64574 6.47063 9.35416 6.47104 9.73517 6.05457L13.7053 1.70673C14.2212 1.14139 15.1795 1.09768 15.744 1.61395C16.0289 1.87373 16.1955 2.22918 16.2132 2.61431C16.2305 2.99945 16.0969 3.36851 15.8372 3.65303L11.6143 8.27715C11.244 8.68208 11.244 9.31627 11.6138 9.72038L15.8367 14.3457C16.0965 14.6303 16.2301 14.9989 16.2128 15.3844C16.1951 15.7696 16.0289 16.1246 15.7436 16.3848C15.179 16.9011 14.2216 16.8574 13.7049 16.292L9.73435 11.9434C9.54425 11.7355 9.27664 11.6164 8.99995 11.6164C8.72326 11.6164 8.45564 11.7355 8.26514 11.9438L4.29501 16.2916C3.77874 16.8565 2.8225 16.9015 2.25634 16.3844C1.9714 16.1246 1.80481 15.7692 1.78708 15.384C1.76976 14.9993 1.90337 14.6307 2.16315 14.3457Z" fill="#45464D"/>
</svg>
