<svg width="37" height="33" viewBox="0 0 37 33" fill="none" xmlns="http://www.w3.org/2000/svg">
<path d="M7.93688 20.6917L7.87229 20.7562L7.08814 23.6221L2.3385 27.8169C2.21365 27.9278 2.20125 28.1192 2.31219 28.244L3.96018 30.111C4.07113 30.2358 4.26247 30.2475 4.38802 30.1373L9.13767 25.9425L12.0788 25.519L12.1632 25.4907L7.93688 20.6917Z" fill="#5D617B"/>
<path d="M3.42501 29.3569C3.31406 29.232 3.32647 29.0407 3.45131 28.9297L8.20096 24.735L8.98241 21.8789L7.93688 20.6917L7.87229 20.7562L7.08814 23.6221L2.3385 27.8169C2.21365 27.9278 2.20125 28.1192 2.31219 28.244L3.96018 30.111C4.01839 30.1764 4.09857 30.2099 4.17981 30.2119L3.42501 29.3569Z" fill="#51556C"/>
<path d="M25.3007 0.408984L25.2876 0.490015L25.1306 1.45239C24.4728 5.50402 22.432 9.20225 19.3551 11.9192L10.3516 19.8713L11.7069 21.4058L13.3715 23.2906L14.3129 22.4591L22.375 15.3385C23.8173 14.065 25.4454 13.0439 27.1905 12.3028C27.3069 12.2534 27.4238 12.2053 27.5411 12.1584C28.0105 11.9707 28.488 11.803 28.9722 11.656C29.2142 11.5825 29.458 11.5141 29.7033 11.4509C29.9486 11.3878 30.1954 11.3297 30.4435 11.277C30.6917 11.2243 30.9411 11.1768 31.1918 11.1347C31.4256 11.0955 31.6604 11.0613 31.8961 11.0314C32.4187 10.965 32.9456 10.9211 33.4756 10.9014L33.9725 10.8828L34.4694 10.8641L34.5322 10.8619L36.272 0.15554L36.2975 0L25.3007 0.408984Z" fill="#B9B9B9"/>
<path d="M27.1903 12.3027C27.3066 12.2533 27.4235 12.2052 27.5408 12.1583C28.0103 11.9706 28.4878 11.8029 28.972 11.6559C29.214 11.5824 29.4578 11.514 29.7031 11.4508C29.9484 11.3876 30.1952 11.3296 30.4433 11.2769C30.6914 11.2242 30.9409 11.1767 31.1916 11.1346C31.4253 11.0954 31.6602 11.0612 31.8959 11.0313C32.4184 10.9649 32.9453 10.921 33.4753 10.9013L33.9722 10.8827L34.4691 10.864L34.5319 10.8618L35.3757 5.67017L29.7846 5.88093L27.6495 7.44179C27.6272 7.59343 27.118 8.10699 27.118 8.10699L11.8872 21.6103L13.3712 23.2906L14.3127 22.4591L22.3748 15.3385C23.817 14.0649 25.4451 13.0439 27.1903 12.3027Z" fill="#7C7D7D"/>
<path d="M2.85188 28.3044L2.59348 28.5628L0.914862 28.6512C0.681198 28.6629 0.48702 28.8344 0.446115 29.0644L0.00799359 31.5243C-0.0489338 31.8427 0.205857 32.1311 0.528564 32.1143L3.02352 31.9828C3.25718 31.9704 3.45136 31.7996 3.49226 31.5696L3.78725 29.9143L3.96796 29.5982L2.85188 28.3044Z" fill="#1D86AB"/>
<path d="M1.35142 29.97C1.39233 29.74 1.58651 29.5684 1.82017 29.5567L3.49879 29.4684L3.69048 29.2767L2.85188 28.3047L2.59348 28.5631L0.914862 28.6514C0.681198 28.6631 0.48702 28.8347 0.446115 29.0647L0.00799359 31.5245C-0.0489338 31.8429 0.205857 32.1313 0.528564 32.1145L0.973562 32.091L1.35142 29.97Z" fill="#215994"/>
<path d="M36.1448 0.135052L32.7248 3.15497L32.7146 3.16376L31.5142 6.99995L31.9406 7.9273L32.0195 8.01705L34.4662 10.7873L34.5044 10.8335L34.532 10.8618L36.2975 0L36.1448 0.135052Z" fill="#7C7D7D"/>
<path d="M25.3003 0.408842L25.3375 0.453434L25.3857 0.505966L27.8668 3.31491L27.8916 3.3434C27.8916 3.3434 28.0892 3.53886 28.1178 3.53886C28.1464 3.53886 31.9487 3.91913 31.9487 3.91913L32.7143 3.16376L32.7245 3.15497L36.1445 0.135052L36.2271 0.0650802L36.2972 0L25.3003 0.408842Z" fill="#606161"/>
<path d="M16.4002 25.1226C16.6754 25.1511 16.785 25.4928 16.5776 25.676L15.0341 27.0392C14.5339 27.481 13.7702 27.4335 13.3284 26.9334L6.73144 19.4638C6.289 18.9637 6.33642 18.2 6.83658 17.7582L8.36844 16.4052C8.578 16.2205 8.90659 16.376 8.89631 16.6542L8.84158 18.1613L14.8464 24.9612L16.4002 25.1226Z" fill="#E4AB65"/>
<path d="M8.16357 19.8169C7.72112 19.3167 7.76855 18.553 8.2687 18.1113L8.86194 17.5872L8.89583 16.6542C8.90604 16.376 8.57744 16.2205 8.36795 16.4052L6.83609 17.7582C6.33594 18.2 6.28851 18.9637 6.73095 19.4639L13.3279 26.9333C13.6845 27.3372 14.251 27.4455 14.7193 27.2399L8.16357 19.8169Z" fill="#E29440"/>
<path d="M6.55755 24.0907L5.104 25.3745L7.15345 27.6948L8.607 26.411L6.55755 24.0907Z" fill="#424558"/>
<path d="M6.55804 24.0897L5.10449 25.3735L6.14431 26.5508L7.59786 25.2669L6.55804 24.0897Z" fill="#313341"/>
<path d="M3.64981 26.6589L5.69934 28.9793L4.38795 30.1374C4.2624 30.2476 4.07106 30.2359 3.96011 30.1111L3.78706 29.9146L2.59329 28.5631L2.31219 28.244C2.20125 28.1192 2.21365 27.9279 2.3385 27.8169L3.64981 26.6589Z" fill="#424558"/>
<path d="M3.34427 29.4134L3.78708 29.9148L3.95772 30.1085L3.96013 30.1112C3.97452 30.1273 3.99018 30.1414 4.00699 30.1537C4.00947 30.1555 4.01223 30.1567 4.01478 30.1584C4.0296 30.1686 4.04477 30.1779 4.06087 30.1852C4.06193 30.1857 4.06313 30.1859 4.0642 30.1863C4.10085 30.2023 4.14012 30.211 4.17975 30.212L3.42495 29.3569C3.314 29.2321 3.32641 29.0407 3.45125 28.9298L4.68962 27.8362L3.6499 26.6589L2.38431 27.7765L2.33851 27.817C2.30732 27.8447 2.28307 27.8775 2.26613 27.913C2.25769 27.9307 2.25096 27.9491 2.24606 27.968C2.24117 27.9868 2.23812 28.0061 2.23692 28.0254C2.2321 28.1028 2.2567 28.1817 2.31221 28.2442L3.34427 29.4134Z" fill="#313341"/>
<path d="M32.7148 3.16382L31.9408 7.92736L27.1182 8.10693L27.8922 3.34339L32.7148 3.16382Z" fill="#1D86AB"/>
<path d="M30.0281 4.73779L32.4738 4.64677L32.7148 3.16382L27.8921 3.34346L27.1182 8.107L28.8176 8.0437L29.2419 5.43227C29.3051 5.04306 29.634 4.75247 30.0281 4.73779Z" fill="#215994"/>
</svg>
