<svg width="33" height="33" viewBox="0 0 33 33" fill="none" xmlns="http://www.w3.org/2000/svg">
<g clip-path="url(#clip0)">
<path d="M32.8787 26.4451L27.6882 5.31232H13.199C12.8468 5.31232 12.509 5.45225 12.26 5.7013L10.932 7.02929C10.4134 7.54788 9.57251 7.54788 9.05392 7.02929L7.726 5.70123C7.47695 5.45218 7.13915 5.31226 6.78698 5.31226H5.3119L0.121301 26.4451C0.0407344 26.7731 0 27.1095 0 27.4473V27.6881C0 30.6218 2.37819 33 5.3119 33H18.8964C19.2485 33 19.5863 32.8601 19.8354 32.611L21.1634 31.2831C21.682 30.7645 22.5228 30.7645 23.0414 31.2831L24.3694 32.611C24.6185 32.8601 24.9562 33 25.3084 33H27.6882C30.6218 33 33 30.6218 33 27.6882V27.4473C33 27.1095 32.9593 26.7731 32.8787 26.4451Z" fill="#E4AB65"/>
<path d="M14.4638 14.4084V5.31226H13.199C12.8467 5.31226 12.509 5.45218 12.26 5.70123L10.932 7.02922C10.4134 7.54781 9.57251 7.54781 9.05392 7.02922L7.726 5.70123C7.47695 5.45218 7.13915 5.31226 6.78698 5.31226H5.3119L0.121301 26.445C0.0407344 26.773 0 27.1095 0 27.4472V27.6881C0 30.6218 2.37819 33 5.3119 33H18.8964C19.2485 33 19.5863 32.8601 19.8354 32.611L21.1634 31.283C21.682 30.7644 22.5228 30.7644 23.0414 31.283L24.3694 32.611C24.6185 32.8601 24.9562 33 25.3084 33H27.6882C30.6218 33 33 30.6218 33 27.6881H27.7435C20.4093 27.6881 14.4638 21.7426 14.4638 14.4084Z" fill="#E29440"/>
<path d="M0 5.08952V27.6889C0 25.1219 1.8208 22.9802 4.24134 22.4849C4.8606 22.3582 5.31184 21.8243 5.31184 21.1922V1.33229C5.31184 0.421377 4.41323 -0.225861 3.55362 0.0755865C1.48403 0.801264 0 2.77205 0 5.08952H0Z" fill="#FCCA8E"/>
<path d="M29.4462 0.0748541C28.5866 -0.226593 27.688 0.420645 27.688 1.33156V12.2653C27.688 12.6175 27.8279 12.9553 28.077 13.2043L29.405 14.5323C29.9235 15.0509 29.9235 15.8918 29.405 16.4104L28.077 17.7384C27.8279 17.9874 27.688 18.3252 27.688 18.6774V21.1915C27.688 21.8236 28.1392 22.3575 28.7585 22.4842C31.179 22.9795 32.9998 25.1212 32.9998 27.6882V5.08886C32.9998 2.77138 31.5158 0.800596 29.4462 0.0748541Z" fill="#FCCA8E"/>
<path d="M10.7898 13.6479C11.8899 13.6479 12.7817 12.7561 12.7817 11.656C12.7817 10.5559 11.8899 9.66406 10.7898 9.66406C9.68967 9.66406 8.79785 10.5559 8.79785 11.656C8.79785 12.7561 9.68967 13.6479 10.7898 13.6479Z" fill="#606161"/>
<path d="M23.558 22.4009L24.5442 21.4148C24.7329 21.2259 24.7329 20.9199 24.5442 20.7311C24.3553 20.5424 24.0493 20.5424 23.8605 20.7311L22.8744 21.7173L21.8882 20.7311C21.6994 20.5424 21.3934 20.5424 21.2046 20.7311C21.0158 20.92 21.0158 21.226 21.2046 21.4148L22.1907 22.4009L21.2046 23.3871C21.0158 23.5759 21.0158 23.8819 21.2046 24.0707C21.299 24.1651 21.4228 24.2123 21.5464 24.2123C21.6701 24.2123 21.7939 24.1651 21.8883 24.0707L22.8744 23.0846L23.8606 24.0707C23.955 24.1651 24.0787 24.2123 24.2024 24.2123C24.3261 24.2123 24.4499 24.1651 24.5443 24.0707C24.7331 23.8819 24.7331 23.5759 24.5443 23.3871L23.558 22.4009Z" fill="#C62929"/>
<path d="M15.9214 12.1394H15.438C15.171 12.1394 14.9546 11.923 14.9546 11.656C14.9546 11.389 15.171 11.1726 15.438 11.1726H15.9214C16.1884 11.1726 16.4048 11.389 16.4048 11.656C16.4048 11.923 16.1884 12.1394 15.9214 12.1394Z" fill="#606161"/>
<path d="M13.3901 29.0156C13.1792 29.0156 12.9853 28.8764 12.9251 28.6634C12.8525 28.4065 13.002 28.1394 13.259 28.0668C13.5241 27.992 13.7747 27.8756 14.0039 27.7209C14.2251 27.5714 14.5256 27.6298 14.6749 27.8511C14.8243 28.0723 14.7661 28.3728 14.5448 28.5222C14.2302 28.7345 13.886 28.8944 13.5217 28.9972C13.4777 29.0096 13.4336 29.0156 13.3901 29.0156ZM11.4671 28.9364C11.4108 28.9364 11.3536 28.9265 11.2978 28.9056C10.9437 28.7731 10.614 28.5856 10.3178 28.3483C10.1095 28.1813 10.0759 27.8771 10.2429 27.6687C10.4098 27.4604 10.7141 27.4268 10.9224 27.5938C11.1385 27.767 11.3787 27.9037 11.6366 28.0002C11.8866 28.0937 12.0135 28.3722 11.9199 28.6223C11.8473 28.8165 11.6629 28.9364 11.4671 28.9364ZM15.4565 27.0864C15.4023 27.0864 15.3473 27.0772 15.2933 27.0579C15.0421 26.9678 14.9114 26.6911 15.0015 26.4397C15.0943 26.181 15.1452 25.9093 15.1527 25.6322C15.1599 25.3653 15.3835 25.1538 15.649 25.162C15.9159 25.1692 16.1263 25.3915 16.1191 25.6583C16.1088 26.0381 16.039 26.4108 15.9115 26.7661C15.8407 26.9635 15.6548 27.0864 15.4565 27.0864ZM9.5662 26.8438C9.35267 26.8438 9.15731 26.7012 9.09956 26.4852C9.01925 26.1849 8.97852 25.8737 8.97852 25.5603V25.3908C8.97852 25.1238 9.19488 24.9074 9.46191 24.9074C9.72894 24.9074 9.94531 25.1238 9.94531 25.3908V25.5603C9.94531 25.7894 9.97496 26.0165 10.0335 26.2354C10.1024 26.4934 9.94924 26.7583 9.69137 26.8273C9.64954 26.8385 9.60758 26.8438 9.5662 26.8438ZM15.9507 24.224C15.8723 24.224 15.7928 24.2049 15.7191 24.1646C15.4849 24.0364 15.3989 23.7426 15.5271 23.5084C15.7141 23.1665 15.9616 22.8669 16.2626 22.6179C16.4683 22.4478 16.773 22.4767 16.9432 22.6823C17.1134 22.888 17.0846 23.1927 16.8789 23.3629C16.6727 23.5335 16.5033 23.7386 16.3752 23.9726C16.2873 24.1331 16.1217 24.224 15.9507 24.224ZM9.46191 23.9165C9.19488 23.9165 8.97852 23.7002 8.97852 23.4331V22.4542C8.97852 22.1872 9.19488 21.9708 9.46191 21.9708C9.72894 21.9708 9.94531 22.1872 9.94531 22.4542V23.4331C9.94531 23.7002 9.72888 23.9165 9.46191 23.9165ZM9.46191 20.9799C9.19488 20.9799 8.97852 20.7636 8.97852 20.4965V19.5176C8.97852 19.2506 9.19488 19.0342 9.46191 19.0342C9.72894 19.0342 9.94531 19.2506 9.94531 19.5176V20.4965C9.94531 20.7635 9.72888 20.9799 9.46191 20.9799ZM10.0747 18.1905C9.96394 18.1905 9.85263 18.1526 9.76162 18.0752C9.5584 17.9021 9.53391 17.597 9.70696 17.3938C9.9602 17.0964 10.2633 16.8531 10.6078 16.671C10.8438 16.5461 11.1363 16.6364 11.2611 16.8723C11.386 17.1083 11.2958 17.4008 11.0598 17.5256C10.8241 17.6503 10.6165 17.8168 10.4431 18.0206C10.3474 18.1328 10.2115 18.1905 10.0747 18.1905ZM19.5948 17.2848H18.6159C18.3488 17.2848 18.1325 17.0684 18.1325 16.8014C18.1325 16.5343 18.3488 16.318 18.6159 16.318H19.5948C19.8618 16.318 20.0782 16.5343 20.0782 16.8014C20.0782 17.0684 19.8617 17.2848 19.5948 17.2848ZM16.6581 17.2848H15.6792C15.4122 17.2848 15.1958 17.0684 15.1958 16.8014C15.1958 16.5343 15.4122 16.318 15.6792 16.318H16.6581C16.9251 16.318 17.1415 16.5343 17.1415 16.8014C17.1415 17.0684 16.9251 17.2848 16.6581 17.2848ZM13.7216 17.2848H12.7426C12.4756 17.2848 12.2592 17.0684 12.2592 16.8014C12.2592 16.5343 12.4756 16.318 12.7426 16.318H13.7216C13.9886 16.318 14.205 16.5343 14.205 16.8014C14.205 17.0684 13.9885 17.2848 13.7216 17.2848ZM21.5286 17.0993C21.3371 17.0993 21.156 16.9849 21.08 16.7965C20.9803 16.5488 21.1002 16.2672 21.3478 16.1674C21.5946 16.068 21.8178 15.9237 22.0113 15.7387C22.2042 15.5541 22.5102 15.5608 22.6948 15.7537C22.8793 15.9466 22.8726 16.2526 22.6797 16.4372C22.397 16.7076 22.0705 16.9187 21.7091 17.0643C21.6499 17.088 21.5887 17.0993 21.5286 17.0993ZM23.1374 14.833C23.1298 14.833 23.1221 14.8328 23.1144 14.8325C22.8477 14.8199 22.6417 14.5936 22.6542 14.3269C22.6557 14.2943 22.6565 14.2616 22.6565 14.2287C22.6566 13.9941 22.6181 13.7641 22.5423 13.545C22.455 13.2927 22.5886 13.0173 22.8409 12.9301C23.0934 12.8427 23.3686 12.9765 23.4558 13.2287C23.5671 13.5498 23.6234 13.8863 23.6234 14.2289C23.6234 14.2769 23.6222 14.3248 23.6199 14.3724C23.6078 14.6313 23.394 14.833 23.1374 14.833ZM21.7478 12.4259C21.6729 12.4259 21.597 12.4084 21.5261 12.3717C21.2894 12.2493 21.0348 12.1743 20.7691 12.1489C20.5033 12.1235 20.3085 11.8875 20.3339 11.6217C20.3593 11.3559 20.5957 11.1615 20.8611 11.1865C21.2503 11.2237 21.6236 11.3335 21.9703 11.513C22.2075 11.6356 22.3002 11.9274 22.1775 12.1644C22.0916 12.3306 21.9227 12.4259 21.7478 12.4259ZM18.8578 12.1394H17.8788C17.6118 12.1394 17.3954 11.923 17.3954 11.656C17.3954 11.389 17.6118 11.1726 17.8788 11.1726H18.8578C19.1248 11.1726 19.3412 11.389 19.3412 11.656C19.3412 11.923 19.1248 12.1394 18.8578 12.1394Z" fill="#606161"/>
<path d="M18.8906 22.8845H18.4072C18.1402 22.8845 17.9238 22.6682 17.9238 22.4011C17.9238 22.1341 18.1402 21.9177 18.4072 21.9177H18.8906C19.1577 21.9177 19.374 22.1341 19.374 22.4011C19.374 22.6682 19.1577 22.8845 18.8906 22.8845Z" fill="#606161"/>
</g>
<defs>
<clipPath id="clip0">
<rect width="33" height="33" fill="white"/>
</clipPath>
</defs>
</svg>
