<svg width="36" height="37" viewBox="0 0 36 37" fill="none" xmlns="http://www.w3.org/2000/svg">
<path d="M21.8076 31.3078H26.6849C27.7919 31.3078 28.8989 31.2965 30.0023 31.3137C30.3319 31.3192 30.5337 31.2354 30.7067 30.9375C31.5622 29.4516 32.4343 27.9751 33.3233 26.5077C33.4832 26.2417 33.4838 26.0487 33.3233 25.7778C31.7121 23.0822 30.1402 20.3679 28.5124 17.6817C28.2105 17.1861 28.1687 16.808 28.5401 16.377C28.6377 16.2642 28.7147 16.1342 28.845 15.9495C29.3784 16.8508 29.9047 17.6979 30.3832 18.5706C30.5775 18.9258 30.7908 19.1385 31.2165 19.0539C31.7518 18.947 32.0522 19.1976 32.3064 19.6399C33.509 21.7288 34.7392 23.8017 35.9443 25.8896C36.0183 26.0181 36.0157 26.2432 35.9528 26.3821C35.8145 26.6894 35.6242 26.9761 35.4351 27.2578C35.3671 27.3597 35.2257 27.507 35.1443 27.4922C34.631 27.4021 34.5082 27.7715 34.32 28.0937C33.7042 29.1496 33.0732 30.1967 32.4583 31.2536C32.3789 31.3919 32.3411 31.5494 32.3491 31.7078C32.3622 31.8772 32.5504 32.084 32.4966 32.2003C32.2879 32.6255 32.0448 33.0336 31.7694 33.4208C31.7191 33.4951 31.5148 33.4853 31.381 33.4853C28.9104 33.4889 26.4396 33.4889 23.9688 33.4853C23.849 33.4853 23.6371 33.4961 23.6226 33.4533C23.3176 32.5243 22.1764 32.284 21.8076 31.3078Z" fill="#C62929"/>
<path d="M7.09977 15.9414C7.32418 16.2891 7.54306 16.5541 7.66835 16.856C7.72873 17.0008 7.65778 17.2421 7.56772 17.3978C5.93106 20.1924 4.28451 22.9815 2.62807 25.7653C2.45246 26.0607 2.47259 26.2647 2.63813 26.5395C3.5051 27.9787 4.36654 29.4208 5.20431 30.8776C5.38999 31.2017 5.59276 31.3209 5.97115 31.3209C8.50966 31.3051 11.0481 31.3125 13.5872 31.3125H14.2091C13.9711 31.6135 13.7955 31.8311 13.6244 32.0513C13.2994 32.471 12.9864 32.9004 12.6463 33.3082C12.5489 33.4128 12.4136 33.4759 12.2693 33.4841C9.67905 33.4946 7.0887 33.4932 4.49836 33.4801C4.33534 33.4801 4.13055 33.3413 4.02035 33.2078C3.8382 32.9876 3.72952 32.7103 3.56749 32.4724C3.40547 32.2345 3.37629 32.0391 3.54385 31.7829C3.61379 31.6765 3.60171 31.4534 3.53328 31.3352C2.84728 30.1439 2.14871 28.9599 1.43757 27.7831C1.36863 27.6693 1.20611 27.5162 1.10648 27.5285C0.664189 27.5832 0.536886 27.2823 0.328069 27.0064C-0.114722 26.4262 -0.0971113 25.9426 0.30744 25.3028C1.44763 23.4981 2.50983 21.6443 3.56749 19.7914C3.83368 19.3251 4.14815 19.1157 4.67447 19.2359C5.01412 19.3137 5.20029 19.1867 5.36835 18.8862C5.9143 17.9144 6.49596 16.9619 7.09977 15.9414Z" fill="#C62929"/>
<path d="M22.7728 7.90692C22.2108 6.96079 21.706 6.13925 21.2336 5.3C21.0781 5.02369 20.8965 4.93454 20.5795 4.93701C18.8351 4.95178 17.0908 4.95178 15.3465 4.93701C15.0254 4.93405 14.8524 5.03896 14.6994 5.30935C14.2264 6.14664 13.7238 6.96866 13.1668 7.9084C12.7612 7.10361 12.3944 6.4062 12.0658 5.69205C12.0114 5.57483 12.091 5.36402 12.1664 5.22907C12.5795 4.50753 13.0219 3.80076 13.4314 3.07822C13.5748 2.82556 13.7428 2.71228 14.0417 2.73641C14.3507 2.76104 14.6642 2.72903 14.9736 2.74872C15.0939 2.75611 15.2826 2.80881 15.3152 2.88959C15.4879 3.31611 15.8281 3.30577 16.2064 3.30134C17.4498 3.28803 18.6941 3.30134 19.9375 3.28951C20.1085 3.28951 20.3902 3.23435 20.43 3.13388C20.6188 2.64874 21.0197 2.78911 21.379 2.73346C22.0799 2.62559 22.486 2.89845 22.7698 3.52149C23.0299 4.08839 23.3811 4.61785 23.7202 5.14682C23.8948 5.4187 23.9271 5.65165 23.7706 5.94175C23.444 6.55051 23.1426 7.17553 22.7728 7.90692Z" fill="#C62929"/>
<path d="M7.59033 15.1134C8.39239 13.7452 9.14314 12.4755 9.87628 11.1959C9.95377 11.06 9.98743 10.8452 9.93514 10.7034C9.82039 10.3926 9.47821 10.0814 9.5215 9.8169C9.58495 9.42681 9.90391 9.07804 10.1756 8.60229C10.4106 9.22974 10.5681 9.79126 10.8247 10.3049C11.1704 10.9965 11.109 11.5742 10.6547 12.2145C10.1253 12.9607 9.69061 13.7748 9.25681 14.581C9.03793 14.9889 8.77279 15.1937 8.29327 15.1184C8.09502 15.0874 7.8867 15.1134 7.59033 15.1134Z" fill="#C62929"/>
<path d="M25.7463 8.61133C25.8636 8.80095 25.9053 8.89556 25.9707 8.96991C26.3581 9.40774 26.4115 9.84364 26.0014 10.3026C25.7498 10.5829 25.8198 10.8371 26.0145 11.1542C26.8015 12.4373 27.5471 13.7444 28.3497 15.1137C27.9155 15.1137 27.5582 15.1299 27.204 15.1038C27.0953 15.0959 26.9559 14.9949 26.8976 14.8979C26.225 13.7769 25.5615 12.651 24.907 11.5202C24.8451 11.4133 24.7968 11.2518 24.8335 11.1453C25.1113 10.3337 25.4102 9.5294 25.7463 8.61133Z" fill="#C62929"/>
<path d="M14.5801 7.19713C14.8563 6.72234 15.0711 6.31896 15.3247 5.94022C15.3892 5.84171 15.5733 5.77572 15.7036 5.77473C17.2067 5.76357 18.7101 5.76357 20.2135 5.77473C20.3545 5.77473 20.5512 5.85944 20.6251 5.9678C20.8737 6.33029 21.078 6.72185 21.3532 7.19517C19.0704 6.68097 16.8629 6.67801 14.5801 7.19713Z" fill="#C62929"/>
<path d="M31.6757 24.7681C31.7073 24.7898 31.7369 24.8142 31.7642 24.8409C32.5694 26.0791 32.5694 26.0791 31.8145 27.3626C31.2812 28.2699 30.7363 29.1702 30.22 30.0863C30.0691 30.3557 29.9025 30.4897 29.5765 30.4655C29.2006 30.438 28.8217 30.4591 28.312 30.4591C29.902 28.7584 31.0226 26.9061 31.6757 24.7681Z" fill="#C62929"/>
<path d="M4.24365 24.7178C4.91639 26.8952 6.02086 28.754 7.63856 30.4582C7.05186 30.4582 6.59196 30.4754 6.13508 30.4458C6.01583 30.4384 5.86739 30.307 5.79896 30.1937C5.04722 28.9417 4.30051 27.6867 3.57644 26.4194C3.49594 26.2786 3.50399 26.0293 3.57644 25.8776C3.75306 25.4979 3.99156 25.1453 4.24365 24.7178Z" fill="#C62929"/>
<path d="M31.8886 14.1354C31.6371 14.2305 31.3855 14.3325 31.1248 14.4255C30.2458 14.7417 29.3547 15.0165 28.3966 15.049C28.1355 15.0584 25.6876 14.561 27.0718 11.8393C27.1724 11.7275 27.2635 11.6112 27.3545 11.4945C27.5462 11.2483 27.8154 11.0192 28.0168 10.7799C28.851 9.78888 28.9727 8.54479 29.2747 7.36618C29.5076 6.44812 29.5338 5.50838 29.4458 4.57309C29.3351 3.39644 29.4136 2.68425 29.7225 1.5283C29.8533 1.03135 30.1935 0.541776 30.3837 0C30.2075 0.123131 28.6392 0.882106 28.2372 1.32982C27.7843 1.88686 27.4386 2.56949 27.2152 3.16545C26.7507 4.40464 26.4972 5.65516 25.4405 6.57618C25.3741 6.63429 25.3102 6.69488 25.2478 6.75742C25.2478 6.75742 23.9058 8.04783 22.9397 8.70043C22.9196 8.56153 22.8894 7.37948 22.7052 6.78697C22.4104 5.84428 22.1835 5.06561 21.162 4.48443C21.2305 4.64204 21.2571 4.70261 21.2833 4.76369C21.552 5.3956 21.7452 6.0206 21.6139 6.70374C21.6097 6.71383 21.6072 6.72444 21.6063 6.73526C21.6063 6.74068 21.6063 6.74708 21.6038 6.75349C21.5836 6.84638 21.5583 6.93813 21.5278 7.02831C21.4963 7.11909 21.4738 7.2126 21.4604 7.30757C21.2144 8.15275 20.7394 9.59974 20.6553 9.85883C20.1018 10.2494 19.6324 10.6375 19.6324 10.6375L19.1619 10.9498C18.8003 11.1894 18.3739 11.318 17.9372 11.3192H17.919C17.4796 11.32 17.05 11.1913 16.6863 10.9498L16.244 10.6542C16.244 10.6542 15.756 10.2499 15.1873 9.85099C15.0495 9.43086 14.498 7.87398 14.3385 7.09874C14.2685 6.75988 14.2031 6.44221 14.2303 6.10828C14.2711 5.60935 14.4416 5.13948 14.6148 4.65878C14.2324 4.86553 13.9087 5.16248 13.6733 5.52266C13.234 6.18215 13.1198 6.9106 13.0473 7.6489C13.0473 7.6489 12.9995 8.35025 12.9427 8.72111C11.9761 8.06951 10.6281 6.77466 10.6281 6.77466C10.5657 6.71211 10.5023 6.65153 10.4359 6.59342C9.37919 5.67239 9.12764 4.42188 8.66068 3.18269C8.44834 2.61678 8.34267 2.07008 7.91145 1.548C7.87473 1.50367 7.8395 1.45787 7.8063 1.41108C7.43545 0.892449 5.66227 0.135444 5.4917 0.0162533C5.6814 0.55803 6.02155 1.05055 6.15337 1.54308C6.46232 2.69903 6.54082 3.41121 6.43012 4.58786C6.34206 5.52365 6.36873 6.4629 6.6012 7.38096C6.9031 8.56006 7.02386 9.80368 7.85913 10.7947C8.0604 11.034 8.3296 11.2625 8.5213 11.5098C8.53942 11.5334 8.55753 11.5591 8.57615 11.5802C8.78408 11.8407 8.95347 12.1285 9.07931 12.4353C10.0681 14.8861 7.78114 15.0619 7.47773 15.0363C7.17357 15.0098 6.87119 14.9665 6.57201 14.9067C5.72819 14.7403 4.93066 14.4472 4.05615 14.0955C4.19166 14.4921 4.35508 14.879 4.54523 15.2534C5.41824 17.2004 7.37105 21.043 9.68969 22.3403C9.95582 22.5029 10.2432 22.6502 10.3528 22.8743C10.5083 23.186 10.3196 23.6283 10.3343 24.0115C10.4002 25.7353 11.1976 27.2129 12.191 28.6413C13.1349 30.0001 13.8232 31.4604 13.7966 33.1178C13.7915 33.197 13.8086 33.2761 13.8462 33.3465C13.8837 33.4169 13.9401 33.4759 14.0094 33.5172C15.2744 34.3777 16.5383 35.2411 17.7933 36.1109C17.9809 36.2418 18.0952 36.2221 18.2693 36.101C19.5148 35.2381 20.7654 34.3809 22.021 33.5295C22.1548 33.438 22.2614 33.3418 22.2544 33.1759C22.1915 31.7628 22.745 30.5 23.4459 29.285C23.8082 28.656 24.2646 28.0719 24.6334 27.4459C25.4194 26.1121 25.8631 24.6976 25.6805 23.1683C25.6498 22.9152 25.7087 22.7832 25.9422 22.6443C26.3512 22.4019 26.7542 22.1306 27.0667 21.807C28.5325 20.5949 31.0011 18.1131 31.7855 14.654C31.8283 14.5506 31.8696 14.4462 31.9083 14.3403C31.9309 14.2738 31.9858 14.2034 31.8886 14.1354Z" fill="#17181C"/>
<path d="M29.7611 0.591064C29.5945 1.06733 29.3294 1.42836 29.2136 1.86325C28.9424 2.87785 28.9514 3.89688 29.0486 4.9297C29.126 5.75025 29.1029 6.57522 28.8976 7.381C28.635 8.4153 28.5268 9.50725 27.7947 10.3775C27.4606 10.7745 27.1848 11.2192 26.804 11.5792C26.4613 11.9028 26.2419 11.9048 25.8801 11.5955C25.0182 10.8568 25.0192 10.8568 25.2355 9.72396C25.3619 9.06492 25.3865 8.41579 24.9518 7.84101C24.8385 7.69325 24.9276 7.61544 25.0157 7.52235C25.2386 7.28741 25.4429 7.03278 25.6864 6.8205C26.6142 6.01178 26.9745 4.90409 27.3826 3.81611C27.5789 3.29305 27.8128 2.78181 28.0055 2.25973C28.2571 1.57611 28.885 1.25942 29.4068 0.838804C29.5024 0.762463 29.6071 0.697942 29.7611 0.591064Z" fill="#606161"/>
<path d="M6.1084 0.591064C6.27494 1.06733 6.54012 1.42836 6.65585 1.86325C6.92706 2.87785 6.918 3.89688 6.82089 4.9297C6.7434 5.75025 6.76654 6.57522 6.97184 7.381C7.2345 8.4153 7.34268 9.50725 8.07479 10.3775C8.4089 10.7745 8.68464 11.2192 9.06555 11.5792C9.40818 11.9028 9.6276 11.9048 9.9894 11.5955C10.8513 10.8568 10.8503 10.8568 10.6339 9.72396C10.5076 9.06492 10.483 8.41579 10.9177 7.84101C11.031 7.69325 10.9419 7.61544 10.8538 7.52235C10.6309 7.28741 10.4266 7.03278 10.1831 6.8205C9.25527 6.01178 8.89497 4.90409 8.48689 3.81611C8.29116 3.29305 8.05719 2.78181 7.86397 2.25973C7.61087 1.57611 6.98341 1.25991 6.46162 0.837326C6.36702 0.762463 6.26237 0.697942 6.1084 0.591064Z" fill="#606161"/>
<path d="M18.2107 34.9845C18.1136 35.116 18.016 35.1604 17.8585 35.0441C16.8868 34.3206 15.9097 33.604 14.934 32.8858C14.8072 32.7928 14.7086 32.7007 14.7222 32.5165C14.8128 31.3137 14.4862 30.2016 13.9448 29.1348C13.9203 29.0916 13.9135 29.0408 13.9262 28.9929C14.6029 29.8953 15.2032 30.8369 15.3416 31.9767C15.3884 32.3653 15.4926 32.6662 15.8488 32.8814C16.2197 33.107 16.5774 33.3483 16.981 33.5217C17.625 33.799 18.2661 33.8542 18.9237 33.5764C19.0435 33.534 19.166 33.4994 19.2905 33.4729C19.3001 33.7251 19.0817 33.765 18.9162 33.8345C18.5302 33.9966 18.1201 34.092 17.702 34.2068C17.8177 34.5171 18.2172 34.6245 18.2107 34.9845Z" fill="#606161"/>
<path d="M18.2107 34.9846C18.0094 34.7742 17.8082 34.5649 17.6124 34.3531C17.5545 34.2911 17.4504 34.2398 17.4776 34.1428C17.5088 34.0305 17.6285 34.0847 17.7081 34.065C18.2615 33.9301 18.8377 33.8586 19.292 33.474C19.4658 33.3685 19.6397 33.2635 19.8138 33.1588C20.317 32.8543 20.6692 32.5185 20.722 31.8442C20.8051 30.8124 21.4174 29.9519 22.0202 29.0142C22.0399 29.3028 21.9195 29.4638 21.8507 29.6288C21.4612 30.5489 21.2318 31.4955 21.3052 32.4973C21.3168 32.649 21.2896 32.7588 21.1568 32.8544C20.1725 33.5609 19.1906 34.2711 18.2107 34.9846Z" fill="#606161"/>
<path d="M19.1388 27.4157C18.9958 27.9254 18.9118 28.4465 18.8263 28.9676C18.7709 29.3055 18.6251 29.6005 18.2854 29.7414C17.9834 29.8669 17.7062 29.8118 17.4969 29.5443C17.2232 28.9257 17.27 28.2741 17.3198 27.6304C17.3551 27.1708 17.5235 27.0729 18.0131 27.1187C18.0675 27.1236 18.1007 27.0773 18.1269 27.0339C18.2864 26.767 18.5234 26.7241 18.79 26.8404C19.0361 26.9453 19.2388 27.0984 19.1388 27.4157Z" fill="#C62929"/>
<path d="M24.3942 22.8257C24.4647 24.3254 24.0446 25.5587 22.9778 26.559C23.0473 26.2314 23.152 25.9143 23.1953 25.5833C23.2742 24.9809 23.2153 24.4013 22.8797 23.8777C22.7751 23.7152 22.7932 23.654 22.9708 23.5822C23.469 23.3754 23.9458 23.122 24.3942 22.8257Z" fill="#FCFCFC"/>
<path d="M16.4974 31.8786C17.5767 32.6425 18.5605 32.6105 19.6765 31.7953C19.7907 31.7116 19.754 31.6264 19.7771 31.5397C19.8138 31.386 19.8381 31.2294 19.9467 31.0703C20.0529 31.3575 20.1566 31.6456 20.2667 31.9313C20.3256 32.0849 20.2164 32.1667 20.1324 32.2568C19.5256 32.9094 18.1373 33.2419 17.2789 32.9419C16.9126 32.7602 16.5432 32.5789 16.3254 32.214C16.184 31.98 16.2242 31.9121 16.4974 31.8786Z" fill="#FAFAFA"/>
<path d="M29.0632 15.5584C28.7034 15.6038 28.3378 15.5732 27.9912 15.4682C27.6446 15.3634 27.325 15.1869 27.0541 14.9505C26.7947 14.7319 26.5547 14.4922 26.3366 14.2339C26.242 14.1182 26.0991 14.0281 25.9401 13.9414C25.7252 13.7212 25.4465 13.6907 25.1587 13.6912C24.5015 13.6912 23.8952 13.9045 23.3009 14.1443C22.7596 14.363 22.2312 14.6117 21.6616 14.8624C21.6772 14.5831 21.8196 14.3876 21.9243 14.1792C22.358 13.7685 23.5042 13.1203 23.5283 13.075C23.833 12.8109 24.0331 12.4504 24.0934 12.0565C24.1976 11.7452 24.2947 11.3276 24.3762 11.2094C24.6172 10.8596 24.6917 10.4843 24.7672 10.1194C24.888 9.53573 24.8895 8.9521 24.6701 8.33744C24.5191 7.92174 24.4396 7.89909 24.0909 8.20544C22.7278 9.69183 21.8649 9.29443 21.2616 9.88688C21.2616 9.88688 20.8505 10.2238 20.6437 10.6937C20.6035 10.7544 20.5787 10.8236 20.5712 10.8956C20.3946 11.8314 19.9095 12.5618 18.9858 12.9381C17.8229 13.4119 16.3214 13.041 15.6391 11.5344C15.5752 11.3167 15.5596 11.0163 15.4731 10.8355C15.4549 10.7943 15.4282 10.7573 15.3946 10.7267C15.178 10.4373 14.9298 10.1719 14.6544 9.93515C14.5178 9.78838 14.3476 9.67536 14.1578 9.60515C14.1472 9.60021 14.1363 9.5959 14.125 9.59237C13.5616 9.37768 12.8168 9.33575 11.7793 8.20642C11.4311 7.90007 11.3485 7.92273 11.2001 8.33842C10.8434 9.33725 10.8665 10.3011 11.494 11.2103C11.573 11.328 11.6736 11.7398 11.7742 12.0506C11.7742 12.0506 12.0259 12.9686 12.6296 13.1676C12.6819 13.1865 12.7331 13.2081 12.7831 13.2321C12.8201 13.2561 12.8603 13.2751 12.9024 13.2888C13.3552 13.5144 13.7346 13.8374 14.11 14.1714C14.2141 14.3841 14.3918 14.5742 14.3545 14.8609C13.9082 14.656 13.4991 14.4511 13.0755 14.2782C12.3655 13.9876 11.655 13.6921 10.8651 13.6921C10.5792 13.6921 10.3619 13.6877 10.075 13.8739C9.908 13.9822 9.79226 14.1832 9.72278 14.3615C9.70217 14.4107 9.68003 14.4674 9.65996 14.5231C9.57014 14.7133 9.44585 14.886 9.29312 15.0328C9.0791 15.2397 8.82194 15.399 8.5393 15.4998C8.25666 15.6006 7.95513 15.6406 7.65528 15.6169C6.87134 15.5603 5.55352 15.3815 4.79625 14.821L4.65234 14.7033C4.65234 14.7033 8.19116 20.8426 9.94571 21.5558C10.707 22.1695 14.4154 23.5618 14.4154 23.5618C15.3211 23.9287 16.2293 24.0745 17.1829 24.2799C17.6774 24.3863 18.958 24.1213 19.4527 24.0006C20.6155 23.7169 21.2742 23.5904 22.3882 23.1545C22.7686 23.0067 24.8674 22.3438 25.5406 22.0138C26.4759 21.5558 30.045 18.7725 31.4905 14.7033C30.9149 15.2225 29.8824 15.4548 29.0632 15.5584ZM15.6547 16.8103C15.2059 17.0694 14.8341 17.3782 14.8421 17.9476C14.8451 18.179 14.6882 18.0835 14.5739 18.0796C14.4099 17.9406 13.0141 17.7988 12.9809 17.7988C12.3333 17.7259 11.7868 17.3777 11.3928 17.034C11.0137 16.6947 10.7667 16.2372 10.694 15.7396C10.6651 15.5592 10.6123 15.3831 10.5369 15.216C10.4413 15.0047 10.4866 14.918 10.7322 14.9161C11.1714 14.9121 11.6027 14.9338 12.0279 15.0638C12.5728 15.2308 13.0564 15.517 13.555 15.776C13.8065 15.9888 14.0677 16.1907 14.3032 16.4192C14.4592 16.57 14.5885 16.6547 14.8331 16.6C15.1767 16.5226 15.535 16.5626 15.8932 16.6099C15.86 16.7669 15.7347 16.7635 15.6547 16.8103ZM25.4631 15.3219C25.3455 15.5695 25.2937 15.842 25.3121 16.1144C25.3334 16.3398 25.2633 16.5642 25.1169 16.7394C24.6384 17.2915 23.8272 17.5954 23.3799 17.7279C23.1107 17.8077 22.8451 17.8983 22.5824 17.9973C22.0108 18.2135 21.1519 18.4701 21.1981 17.9244C21.243 17.4003 20.8485 17.0901 20.4288 16.8359C20.3403 16.7823 20.2029 16.7808 20.1662 16.6044C20.375 16.5916 20.5888 16.5266 20.77 16.5774C21.2791 16.7202 21.6304 16.535 21.9369 16.2395C22.1017 16.0772 22.2845 15.9331 22.4818 15.81C22.516 15.7893 22.5497 15.7681 22.5824 15.7464C23.3729 15.2436 24.2092 14.9008 25.1797 14.9092C25.5612 14.9102 25.6115 14.9998 25.4631 15.3219Z" fill="#606161"/>
<path d="M14.0699 17.9535C13.8873 17.924 13.7957 17.9146 13.6673 17.8821C13.5995 17.6644 13.4208 17.6132 13.2185 17.591C12.8578 17.5516 12.5086 17.4703 12.1926 17.2876C11.8293 17.0778 11.6431 16.7695 11.6592 16.3518C11.6647 16.2016 11.7095 16.1154 11.8937 16.1548C13.0822 16.4055 14.0649 16.9271 14.5746 18.0811C14.404 18.0303 14.2486 17.9737 14.0699 17.9535Z" fill="#C62929"/>
<path d="M22.3571 18.0791C22.0647 18.1855 21.6622 18.2928 21.3965 18.2302C21.8539 16.8857 22.9564 16.403 24.1479 16.1518C24.3371 16.1114 24.3717 16.208 24.3773 16.3542C24.3934 16.7744 24.2012 17.0797 23.8384 17.2901C23.5214 17.4732 23.1707 17.5511 22.8099 17.5929C22.6076 17.6156 22.4204 17.8584 22.3571 18.0791Z" fill="#C62929"/>
<path d="M18.1266 27.0321C18.1227 27.1173 18.0798 27.2019 17.9918 27.1715C17.5304 27.0104 17.4735 27.3576 17.4509 27.628C17.4061 28.1644 17.393 28.7062 17.475 29.244C17.4896 29.3425 17.4896 29.441 17.4967 29.5424C17.315 29.3824 17.231 29.175 17.2018 28.944C17.1282 28.3311 16.9955 27.7265 16.8058 27.138C16.7421 26.9572 16.7536 26.7593 16.838 26.5869C16.9658 26.3253 17.1722 26.115 17.4956 26.1495C17.8192 26.1839 17.8438 26.4641 17.9108 26.7124C17.941 26.8287 17.7503 27.1296 18.1266 27.0321Z" fill="#CC4848"/>
<path d="M12.9524 24.2376C12.8467 24.6272 12.7621 25.0208 12.8246 25.4251C12.8819 25.7989 12.9619 26.1698 13.0445 26.6072C12.4678 25.992 12.0301 25.3867 11.8555 24.6311C11.8937 24.247 12.5956 23.8569 12.9122 24.0461C12.9886 24.0929 13.0032 24.1617 12.9524 24.2376Z" fill="#FBFBFB"/>
<path d="M12.9523 24.2375C12.9306 24.1809 12.92 24.0898 12.8441 24.105C12.4561 24.1725 12.0657 24.2444 11.8553 24.6335C11.647 24.0635 11.5846 23.4522 11.6737 22.853C12.1379 23.1459 12.6259 23.4009 13.1329 23.6155C13.2405 23.6608 13.2632 23.714 13.1953 23.8125C13.1063 23.9494 13.0323 24.0957 12.9523 24.2375Z" fill="#D0DDE8"/>
<path d="M19.1385 27.4157C19.0107 26.9143 18.658 26.7808 18.1261 27.0321C18.1261 26.97 18.1186 26.9074 18.1211 26.8454C18.1392 26.3893 18.3369 26.1164 18.6308 26.1401C18.9831 26.1686 19.3257 26.6144 19.2693 26.9926C19.2482 27.138 19.1833 27.2749 19.1385 27.4157Z" fill="#CC4848"/>
<path d="M16.4976 31.8786C16.249 31.9042 16.324 32.0156 16.4106 32.154C16.6244 32.4987 17.0144 32.6538 17.277 32.942C16.7965 32.8627 16.3803 32.6504 16.0024 32.3559C15.7891 32.1899 15.6935 32.0111 15.8349 31.7392C15.9436 31.5309 16.0024 31.2959 16.0995 31.0295C16.3135 31.3137 16.1327 31.7244 16.4976 31.8786Z" fill="#CEDAE5"/>
<path d="M20.3757 25.6113C20.1744 25.3291 20.0738 25.0735 19.9575 24.8233C19.8831 24.6632 19.8916 24.5662 20.0934 24.5337C20.2198 24.5123 20.3437 24.4794 20.4638 24.4351C20.6328 24.3741 20.6736 24.4514 20.66 24.5927C20.6368 24.9477 20.54 25.2942 20.3757 25.6113Z" fill="#EFEFF0"/>
<path d="M15.6661 25.5975C15.4457 25.2654 15.4144 24.9301 15.3782 24.5972C15.3627 24.4543 15.4109 24.3789 15.5765 24.4396C15.6716 24.477 15.7709 24.5032 15.8723 24.5173C16.1199 24.5449 16.1693 24.6504 16.058 24.8671C15.9382 25.1 15.8633 25.3551 15.6661 25.5975Z" fill="#D1DAE2"/>
<path d="M21.9318 25.1733C21.7688 24.8551 21.6369 24.5906 21.498 24.3301C21.4386 24.2188 21.4437 24.136 21.5801 24.1055C21.7758 24.0612 21.9892 23.8671 22.1461 23.9631C22.3032 24.0592 22.1703 24.3079 22.1547 24.4882C22.1316 24.7295 22.0555 24.9633 21.9318 25.1733Z" fill="#F1F1F1"/>
<path d="M14.1012 25.1827C13.9766 24.9559 13.8976 24.708 13.8682 24.4523C13.7962 23.8834 13.8128 23.8795 14.3713 24.0765C14.5726 24.1479 14.5982 24.2242 14.5017 24.3976C14.3694 24.634 14.2546 24.8798 14.1012 25.1827Z" fill="#E0E6EC"/>
<path d="M17.1337 24.8043C17.2207 24.8935 17.5287 24.7403 17.4618 25.0506C17.4215 25.2368 17.3732 25.5515 17.182 25.5175C16.9304 25.4732 16.9677 25.1378 16.9174 24.9171C16.8801 24.7526 17.0044 24.7738 17.1337 24.8043Z" fill="#CFD6DC"/>
<path d="M18.95 24.7886C19.0984 24.7561 19.1488 24.8167 19.1206 24.9235C19.0623 25.1423 19.0945 25.4845 18.8414 25.5102C18.6542 25.5288 18.5721 25.1944 18.5656 24.9959C18.5565 24.7354 18.8519 24.8876 18.95 24.7886Z" fill="#E6E6E6"/>
<path d="M18.958 21.2628C19.5185 20.7772 20.0303 20.3437 20.6964 20.1453C21.0437 20.0418 21.2832 20.1571 21.4341 20.4433C21.6122 20.7817 21.5665 21.2702 21.343 21.4559C21.2424 21.5381 21.1287 21.547 21.0084 21.5544C20.7009 21.5691 20.4071 21.4899 20.1097 21.4332C19.9289 21.4004 19.7477 21.3695 19.5659 21.3406C19.3892 21.3126 19.2111 21.2938 18.958 21.2628Z" fill="#17181C"/>
<path d="M17.1824 21.2628C16.6213 20.7772 16.1096 20.3437 15.4434 20.1453C15.0967 20.0418 14.8567 20.1571 14.7063 20.4433C14.5281 20.7817 14.5734 21.2702 14.7968 21.4559C14.8974 21.5381 15.0117 21.547 15.1319 21.5544C15.4393 21.5691 15.7327 21.4899 16.0301 21.4332C16.2109 21.4004 16.3922 21.3695 16.5741 21.3406C16.7506 21.3126 16.9287 21.2938 17.1824 21.2628Z" fill="#17181C"/>
<path d="M14.2791 5.16357C14.2791 5.16357 13.1841 5.80385 13.2661 8.71417C13.2666 8.73081 13.2728 8.7468 13.2835 8.75971C13.2942 8.77262 13.3089 8.78171 13.3255 8.78559C13.4931 8.8245 14.0058 8.96977 14.599 9.38893C14.6123 9.3988 14.6285 9.40408 14.6453 9.40408C14.6619 9.40399 14.6781 9.39862 14.6913 9.38875C14.7047 9.37889 14.7143 9.36506 14.7188 9.34937C14.7233 9.33369 14.7224 9.31696 14.7163 9.30172C14.4069 8.52061 13.4614 6.34268 14.2791 5.16357Z" fill="#606161"/>
<path d="M21.5858 5.04004C21.5858 5.04004 22.6717 5.87339 22.6666 8.72855C22.6665 8.7412 22.662 8.75343 22.6539 8.76326C22.6457 8.7731 22.6345 8.77995 22.6219 8.78273C22.4669 8.81717 21.9175 8.965 21.2819 9.42644C21.2719 9.43402 21.2597 9.43816 21.247 9.43816C21.2343 9.43825 21.222 9.43419 21.212 9.42662C21.2019 9.41913 21.1947 9.40856 21.1914 9.39658C21.1881 9.3846 21.189 9.37191 21.1939 9.36046C21.4807 8.64778 22.4246 6.25017 21.5858 5.04004Z" fill="#606161"/>
</svg>
