<svg width="26" height="38" viewBox="0 0 26 38" fill="none" xmlns="http://www.w3.org/2000/svg">
<path d="M24.1583 0.548828H4.46648C4.24898 0.548828 4.03513 0.565368 3.82568 0.595812V30.6591L24.3352 30.105L25.2066 1.59726C25.2067 1.01823 24.7373 0.548828 24.1583 0.548828Z" fill="#21619F"/>
<path d="M23.0113 1.59726V26.5722H25.2068V1.59726C25.2068 1.01823 24.7374 0.548828 24.1584 0.548828H21.9629C22.5419 0.548828 23.0113 1.01823 23.0113 1.59726Z" fill="#205C96"/>
<path d="M4.8225 0.548828H4.20462C1.89209 0.548828 0 2.44092 0 4.75344V30.6853L4.8225 31.344V0.548828Z" fill="#205C96"/>
<path d="M4.20457 0.548828C3.64728 0.548828 3.11479 0.659628 2.62695 0.858834V31.344H4.82246V0.548828H4.20457Z" fill="#215291"/>
<path d="M24.1414 34.2173H3.46619C1.55186 34.2173 0 32.6654 0 30.7511C0 28.8368 1.55186 27.2849 3.46619 27.2849H25.2067V29.0072L23.743 30.7511L25.2067 32.495V33.152C25.2067 33.7404 24.7298 34.2173 24.1414 34.2173Z" fill="#205C96"/>
<path d="M3.46599 32.4951C2.50443 32.4951 1.72217 31.7128 1.72217 30.7512C1.72217 29.7897 2.5045 29.0073 3.46599 29.0073H25.2065V32.4951H3.46599Z" fill="#FCCA8E"/>
<path d="M21.5474 29.0073H25.2065V32.4951H21.5474V29.0073Z" fill="#FCCA8E"/>
<path d="M18.5723 29.0073V36.7385C18.5723 37.0891 18.8614 37.3144 19.1027 37.1519L20.2189 36.3998C20.3258 36.3278 20.4536 36.329 20.5597 36.403L21.6091 37.1356C21.8506 37.3041 22.1443 37.0791 22.1443 36.7256V29.0073L20.3583 29.9493L18.5723 29.0073Z" fill="#E99531"/>
<path d="M18.5723 29.0073H22.1443V31.8335H18.5723V29.0073Z" fill="#E99531"/>
<path d="M24.2203 0H19.0826C18.7794 0 18.5337 0.24575 18.5337 0.548877V2.22602C18.5337 2.70552 18.9238 3.09566 19.4034 3.09566H20.7534C21.8049 3.09566 22.6605 3.95118 22.6605 5.00283V6.10768C22.6605 6.58718 23.0507 6.97732 23.5302 6.97732H25.2073C25.5105 6.97732 25.7562 6.73157 25.7562 6.42844V1.53583C25.7562 0.68895 25.0672 0 24.2203 0V0Z" fill="#E99531"/>
<path d="M25.2068 20.8564H23.5297C23.0502 20.8564 22.66 21.2466 22.66 21.7261V22.8309C22.66 23.8826 21.8045 24.7381 20.7529 24.7381H19.4029C18.9233 24.7381 18.5332 25.1282 18.5332 25.6077V27.2849C18.5332 27.588 18.7789 27.8338 19.0821 27.8338H24.2198C25.0667 27.8338 25.7556 27.1447 25.7556 26.2979V21.4053C25.7557 21.1022 25.5099 20.8564 25.2068 20.8564Z" fill="#E99531"/>
<path d="M16.8879 16.4378C17.016 16.4799 16.9315 16.2312 16.6991 15.8825L16.5585 15.6706C16.3265 15.3223 16.2283 15.0497 16.339 15.0619C16.4501 15.074 16.3356 14.914 16.0839 14.7044C15.8322 14.4948 15.7064 14.3087 15.8023 14.289C15.8982 14.2693 15.6651 14.1169 15.2841 13.9433C14.5559 13.6116 13.8589 13.245 13.3953 12.6268C13.2626 12.432 13.2228 12.264 13.2486 12.1147C13.3001 11.8175 13.5863 11.7247 13.6356 11.7914L13.7254 11.9119C13.9032 12.1932 14.2053 12.4088 14.8421 12.4486C15.2572 12.485 15.5138 12.7219 15.7538 12.9839C15.8716 13.0972 15.9892 13.1742 16.1074 13.2075C16.3322 13.2716 16.4433 13.1021 16.3565 13.0506C16.2697 12.9987 15.955 12.8747 16.049 12.689C16.143 12.5032 16.3682 12.261 16.3853 12.0817C16.4019 11.9021 16.1305 11.747 16.0123 11.653L15.7977 11.4832C15.7234 11.4351 15.6484 11.4078 15.5741 11.3949C15.4422 11.3718 15.272 11.2747 15.1313 11.2084C14.9907 11.1424 14.6655 11.1254 14.6837 11.0022C14.6894 10.9628 14.7656 10.9233 14.8683 10.8839C15.1147 10.8077 15.3626 10.8202 15.6101 10.9556C15.8144 11.0871 16.0979 11.1284 16.3947 11.175C16.8087 11.2398 17.223 11.3259 17.3041 11.2421C17.3856 11.1583 17.4144 10.8039 17.4144 10.4832C17.4144 10.1626 17.0755 9.99995 16.6608 9.94347C15.7981 9.82634 15.6048 9.05989 15.2147 8.52846C14.9668 8.1911 14.6977 8.34045 14.4949 8.40678C14.4115 8.43407 14.2906 8.39351 14.1371 8.29382C14.0268 8.20929 13.9172 8.12666 13.8077 8.05729C13.6185 7.93751 13.7341 8.29799 13.4461 8.38063C13.1584 8.46326 12.8536 8.00915 12.6561 8.00043C12.4586 7.99172 12.5693 8.11491 12.6974 8.32528C12.7854 8.4697 12.7365 8.62474 12.5011 8.56257C12.2729 8.52088 12.0682 8.5296 11.8828 8.57925C11.5504 8.66871 11.4659 8.88515 11.6213 8.89766C11.7767 8.90979 12.1186 8.93632 12.2229 9.12699C12.2881 9.24601 12.2327 9.362 12.0106 9.32144C11.8654 9.3059 11.7528 9.33054 11.6626 9.38285C11.4905 9.48216 11.6349 9.48974 11.8176 9.61938C11.8912 9.67169 11.865 9.79261 11.7104 9.96925C9.77757 12.1757 12.8835 13.8891 13.7493 16.0633C13.9043 16.4522 13.7709 16.5011 13.5378 16.1532C11.3499 12.8903 8.9209 12.3376 6.29935 13.9554C5.94304 14.1752 6.00748 14.3291 6.42406 14.2844C6.79364 14.2446 7.1636 14.2306 7.53356 14.3064C7.94635 14.4288 8.30986 14.5672 8.00965 14.7499C7.28187 15.1786 6.44719 15.6028 6.12423 16.0512C5.87936 16.3908 6.02151 16.348 6.33271 16.0679C6.62079 15.8086 7.13896 15.6452 7.76175 15.5251C8.17303 15.4458 8.6639 15.3211 8.87011 15.309C9.03234 15.2995 9.07215 15.3852 8.99747 15.5599C8.89399 15.7904 8.80188 16.0212 8.71811 16.2521C8.5771 16.6395 8.72948 16.727 9.07442 16.4894C13.1527 13.6821 15.4134 21.0972 11.7665 19.2444C11.3931 19.0548 11.2665 19.1667 11.5432 19.4805C13.078 21.2249 15.5237 19.476 15.0593 16.2733C14.9991 15.859 15.0806 15.8245 15.2303 16.2157C15.742 17.5488 15.5582 18.893 14.8872 19.9991C14.5188 20.7363 12.3305 21.9857 14.0063 23.8559C14.2857 24.1679 14.374 24.0902 14.1723 23.7229C13.7379 22.9314 13.5768 22.2438 14.6329 21.5031C15.4198 21.0362 16.2416 20.0085 16.5653 18.3805C16.6476 17.9704 16.8606 17.923 16.9546 18.3308C17.016 18.5981 17.0456 18.8824 17.0664 19.1704C17.0967 19.5885 17.1532 19.5885 17.1589 19.1697C17.1691 18.4806 17.1013 17.7842 16.9027 17.0773C16.7897 16.6747 16.7601 16.3958 16.8879 16.4378ZM14.526 8.97347C14.7004 8.97347 14.8417 9.11486 14.8417 9.28922C14.8417 9.46359 14.7004 9.60498 14.526 9.60498C14.3516 9.60498 14.2102 9.46359 14.2102 9.28922C14.2099 9.11486 14.3513 8.97347 14.526 8.97347Z" fill="#E99531"/>
<path d="M19.9666 13.5516C19.8681 13.5289 19.7794 13.4997 19.7039 13.4675C19.3188 13.3026 19.5549 12.9364 19.2885 12.6131C19.2676 12.5881 19.2479 12.5627 19.2278 12.5369C18.9716 12.2064 18.657 12.3936 18.3245 12.1393C18.2764 12.1025 18.2267 12.0582 18.1763 12.0085C17.878 11.7151 17.4478 11.7462 17.0327 11.6916C16.9273 11.6776 16.8144 11.656 16.6976 11.631C16.2883 11.543 16.2325 11.6674 16.5873 11.8899C16.8879 12.0786 17.1919 12.2674 17.3989 12.449C17.7135 12.7253 17.7343 13.1836 17.9364 13.0695C18.1384 12.9554 18.461 12.9474 18.721 13.2753C19.0421 13.6798 19.4272 14.1248 20.0625 13.9364C20.4643 13.817 20.3756 13.6457 19.9666 13.5516Z" fill="#E99531"/>
</svg>
