<svg width="39" height="39" viewBox="0 0 39 39" fill="none" xmlns="http://www.w3.org/2000/svg">
<path d="M2.41876 17.0439C2.61672 17.2419 2.85373 17.3965 3.1147 17.4978C3.37568 17.5992 3.6549 17.645 3.93458 17.6326L30.4688 16.4533H31.6875V12.797H30.4688L3.93428 11.6177C3.65459 11.6052 3.37537 11.6511 3.1144 11.7525C2.85343 11.8538 2.61642 12.0084 2.41846 12.2064C2.04039 12.5846 1.82804 13.0975 1.82812 13.6323V15.618C1.82812 15.8828 1.88028 16.145 1.98162 16.3897C2.08297 16.6343 2.23151 16.8567 2.41876 17.0439Z" fill="#E4AB65"/>
<path d="M2.41876 12.2062C2.59971 12.0255 2.81339 11.8809 3.0484 11.78C3.04779 11.8005 3.04688 11.8209 3.04688 11.8415V13.8271C3.04688 14.0995 3.10205 14.369 3.20906 14.6195C3.31607 14.8699 3.4727 15.0961 3.66952 15.2844C3.86633 15.4727 4.09924 15.6191 4.35419 15.7149C4.60915 15.8107 4.88086 15.8538 5.15295 15.8417L31.6875 14.6625V16.4531H30.4688L3.9342 17.6324C3.65458 17.6448 3.37544 17.5989 3.11453 17.4975C2.85363 17.3962 2.61668 17.2417 2.41876 17.0437C2.23151 16.8565 2.08297 16.6342 1.98162 16.3895C1.88028 16.1448 1.82812 15.8826 1.82812 15.6178V13.6321C1.82812 13.3673 1.88028 13.1051 1.98162 12.8604C2.08297 12.6158 2.23151 12.3935 2.41876 12.2062Z" fill="#E29440"/>
<path d="M35.3437 11.5781C35.3438 9.85543 34.9755 8.15263 34.2637 6.58388C33.5518 5.01514 32.5128 3.61669 31.2164 2.48229L30.4688 1.82812L30.7621 3.14796C31.3772 5.91584 31.6875 8.74272 31.6875 11.5781V17.6719C31.6875 20.8956 31.1077 24.093 29.9758 27.1115L29.8594 27.4219L31.3231 26.69C32.7355 25.9838 33.8396 24.7839 34.426 23.3178C34.6307 22.806 34.7689 22.27 34.8374 21.723L35.3437 17.6719V11.5781Z" fill="#B9B9B9"/>
<path d="M29.9757 27.1115C31.1076 24.093 31.6874 20.8956 31.6874 17.6719V11.5781C31.6874 8.74272 31.3771 5.91584 30.762 3.14796L30.4687 1.82812L31.2162 2.48229C31.9592 3.13246 32.6196 3.87128 33.1827 4.68221C33.4041 6.36241 33.5152 8.05529 33.5155 9.75V15.8438C33.5155 19.0675 32.9357 22.2649 31.8038 25.2833L31.6874 25.5938L33.1511 24.8619C33.3812 24.7462 33.6042 24.6169 33.8188 24.4746C33.1958 25.4194 32.335 26.1835 31.323 26.69L29.8593 27.4219L29.9757 27.1115Z" fill="#7C7D7D"/>
<path d="M16.4531 37.1719H24.375L27.4219 35.3438V28.6406L23.7656 26.2031L18.2812 26.8125L15.2344 28.6406V35.3438L16.4531 37.1719Z" fill="#1D86AB"/>
<path d="M29.8594 37.1719H33.5156L34.125 35.3438L33.5156 33.5156L31.6875 32.2969L29.8594 33.5156V37.1719Z" fill="#1D86AB"/>
<path d="M31.5741 11.5781H35.4572C36.0676 11.5781 36.5625 12.073 36.5625 12.6835V16.5665C36.5625 17.177 36.0676 17.6719 35.4572 17.6719H31.5741C30.9636 17.6719 30.4688 17.177 30.4688 16.5665V12.6835C30.4688 12.073 30.9636 11.5781 31.5741 11.5781Z" fill="#C62929"/>
<path d="M31.574 11.5781H31.6875V15.3478C31.6875 15.6409 31.8039 15.9221 32.0112 16.1294C32.2185 16.3366 32.4996 16.4531 32.7928 16.4531H36.5625V16.5665C36.5625 16.8597 36.4461 17.1408 36.2388 17.3481C36.0315 17.5554 35.7504 17.6719 35.4572 17.6719H31.574C31.2809 17.6719 30.9997 17.5554 30.7925 17.3481C30.5852 17.1408 30.4688 16.8597 30.4688 16.5665V12.6835C30.4688 12.3903 30.5852 12.1092 30.7925 11.9019C30.9997 11.6946 31.2809 11.5781 31.574 11.5781Z" fill="#B62323"/>
<path d="M37.1719 28.6406H34.7344V31.0781H37.1719V28.6406Z" fill="#215994"/>
<path d="M29.8594 33.5156L31.6875 35.3438V37.1719H29.8594V33.5156Z" fill="#215994"/>
<path d="M18.8906 33.5156H15.2344V28.6406L18.2812 26.8125L22.5469 29.8594L18.8906 33.5156Z" fill="#215994"/>
<path d="M24.375 31.0781L27.4219 28.6406V35.3438L24.375 37.1719H21.3281L24.375 34.125V31.0781Z" fill="#215994"/>
<path d="M7.92188 37.1719H13.4062L15.2344 35.3438V31.0781L10.9688 29.25L7.92188 31.0781L6.70312 33.5156L7.92188 37.1719Z" fill="#1D86AB"/>
<path d="M7.92188 31.0781L10.9688 29.25L11.5781 34.125L9.14062 34.7344L11.5781 37.1719H7.92188L6.70312 33.5156L7.92188 31.0781Z" fill="#215994"/>
</svg>
