<svg width="33" height="38" viewBox="0 0 33 38" fill="none" xmlns="http://www.w3.org/2000/svg">
<g clip-path="url(#clip0)">
<path d="M28.1727 15.2624C28.1382 14.3732 28.1376 13.476 27.7019 12.6611C27.5447 12.687 27.3859 12.7024 27.2266 12.7073C26.7258 12.6934 26.4855 12.9573 26.4238 13.4264C26.633 13.7243 26.8335 14.0257 26.8116 14.4147C27.0796 14.7311 27.0156 15.1309 27.0629 15.4946C27.1596 16.2437 27.1326 17.0027 27.0836 17.7576C27.0721 17.9362 26.9949 18.0929 26.9268 18.2537C26.8969 18.3649 26.9229 18.5026 26.8358 18.5862C26.6001 18.8115 26.7316 18.9988 26.8768 19.1913C26.8992 19.2553 26.9263 19.3146 27.0064 19.3209C27.3078 19.2138 27.3729 18.921 27.483 18.679C27.9272 17.6993 28.0281 16.6483 28.1168 15.5943C28.1255 15.4819 28.0725 15.3592 28.1727 15.2624Z" fill="#36373D"/>
<path d="M27.0062 19.3208C27.1405 19.2281 27.6021 18.9359 27.3099 18.793C27.0759 18.6777 27.0402 18.4046 26.9688 18.268C27.0265 18.1165 26.959 17.9799 26.9141 17.8427C26.596 16.8579 26.5199 15.8644 26.8115 14.8583C26.8558 14.7056 26.9209 14.5506 26.8334 14.3904C27.0132 13.9346 26.8265 13.6349 26.4236 13.4263C26.0313 14.8698 26.124 16.322 26.366 17.7707C26.4502 18.2675 26.7049 19.254 27.0062 19.3208Z" fill="#44454C"/>
<path d="M28.1047 19.2009C28.099 19.191 28.0956 19.18 28.0949 19.1686C28.094 19.1572 28.0958 19.1457 28.1 19.1352C28.2427 17.9657 28.2744 16.7852 28.1946 15.6096C28.1871 15.4944 28.1727 15.2639 28.1727 15.2639L28.1595 14.9072C28.1398 15.0264 28.0107 15.363 28.0095 15.4005C27.9835 16.2138 27.8709 17.022 27.6736 17.8116C27.5391 18.3496 27.3134 18.8606 27.0063 19.3225C27.3873 19.4141 27.7468 19.3155 28.1047 19.2009Z" fill="#28292E"/>
<path d="M26.8333 14.3905C26.366 15.7009 26.3925 16.994 26.9687 18.2676C27.1365 18.1852 27.1756 18.0325 27.1865 17.8642C27.2597 16.7722 27.2609 15.683 27.0649 14.6003C27.0384 14.4557 27.0263 14.3364 26.8333 14.3905Z" fill="#28292E"/>
<path d="M28.047 13.6446C27.3134 9.97674 25.1454 5.00073 16.5218 5.00073C7.89806 5.00073 5.72845 9.97443 4.9966 13.6446C4.26475 17.3148 5.10148 21.7122 5.6253 25.1698L5.82007 28.1496L15.7207 30.8251L27.908 26.7447L27.8165 25.1611C28.3374 21.7035 28.7805 17.3119 28.047 13.6446Z" fill="#C19472"/>
<path d="M28.047 13.6447C27.4223 10.5226 25.7586 6.45421 19.9546 5.31494C18.9969 7.32147 16.4319 11.6918 19.4164 10.5687C23.498 9.03183 25.4094 13.5306 25.5161 16.0662C25.6227 18.6017 27.5554 21.264 27.5243 24.4824L27.6241 23.8451C28.1259 20.6331 28.6895 16.8574 28.047 13.6447Z" fill="#44454D"/>
<path d="M4.9934 13.6447C5.61749 10.5226 7.2846 6.45421 13.0858 5.31494C14.0435 7.32147 16.6085 11.6918 13.624 10.5687C9.54242 9.03183 7.63094 13.5306 7.52376 16.0662C7.41657 18.6017 5.48265 21.2445 5.51319 24.4658L5.41695 23.8451C4.91445 20.6331 4.35087 16.8574 4.9934 13.6447Z" fill="#44454D"/>
<path d="M16.5203 4.61011C11.9534 4.61011 9.19776 6.22363 7.50586 8.2907C10.3376 7.96336 12.6432 11.5264 16.5203 11.3166C20.3973 11.1068 22.5675 7.84234 25.5163 8.26934C23.8232 6.21326 21.071 4.61011 16.5203 4.61011Z" fill="#28292E"/>
<path d="M10.0378 8.73777C10.0019 8.50438 10.0086 8.26637 10.0573 8.03531C10.1565 7.47287 10.236 6.90411 10.3495 6.34398C10.4613 5.82744 10.6303 5.32493 10.8532 4.84572C11.0223 4.44794 11.2401 4.07264 11.5015 3.72835C10.8276 3.89243 10.1944 4.19246 9.6407 4.61002C8.35856 5.60004 7.63303 4.99439 7.33972 4.33573C7.22086 4.04717 7.17189 3.7346 7.19681 3.42351C6.77729 5.00476 8.17644 5.87146 8.17644 5.87146C5.85125 5.50496 5.42251 2.78271 5.42251 2.78271C5.48417 6.05759 8.29859 7.4504 8.29859 7.4504C5.91867 7.7149 4.62727 5.56489 4.62727 5.56489C5.23926 7.52416 7.62382 7.96327 7.62382 7.96327C4.70219 7.89008 3.09961 4.9529 3.09961 4.9529C3.81302 7.84975 7.53681 9.48225 10.0534 8.79709C10.0499 8.77638 10.0418 8.75906 10.0378 8.73777Z" fill="#222226"/>
<path d="M12.0918 10.027C12.5004 10.2575 12.9217 10.4794 13.3596 10.6736C13.5169 9.19425 13.5325 6.88062 13.5325 6.88062C12.7228 7.37619 12.0924 10.027 12.0918 10.027Z" fill="#222226"/>
<path d="M25.5161 8.26773C27.4177 8.03319 28.3345 0.207031 22.2112 0.207031C14.1401 0.207031 17.9319 9.85701 10.8013 11.7898C10.8013 11.7898 14.4934 11.7898 16.5126 6.33554L25.5161 8.26773Z" fill="#28292E"/>
<path d="M23.2311 8.60432C21.3214 8.38413 22.1391 5.68094 20.918 5.22397C20.8339 5.19746 20.7451 5.17499 20.6581 5.15021C19.5528 4.91971 18.6717 5.40376 18.0466 6.98271C17.3729 8.68385 15.6205 9.28775 15.0903 11.2234C15.4551 11.3168 16.2348 11.3306 16.5212 11.315C19.3449 11.1623 21.2615 9.3955 23.234 8.60663L23.2311 8.60432Z" fill="#222226"/>
<g style="mix-blend-mode:multiply" opacity="0.3">
<g style="mix-blend-mode:multiply" opacity="0.3">
<path d="M19.969 21.5568C19.7143 21.6616 19.4274 19.3434 20.3724 19.0357C21.9986 18.506 22.6313 18.0698 23.9026 18.7152C25.1737 19.3606 25.693 20.7408 25.4913 20.9436C25.2896 21.1465 19.969 21.5568 19.969 21.5568Z" fill="#B69382"/>
</g>
</g>
<g style="mix-blend-mode:multiply" opacity="0.3">
<g style="mix-blend-mode:multiply" opacity="0.3">
<path d="M13.3167 21.6864C13.4217 21.7348 13.6458 21.1194 13.6285 20.459C13.6009 19.3918 12.9669 19.1284 12.1954 18.8904C10.9645 18.5101 10.2015 18.57 9.0179 19.2333C8.17422 19.7058 7.7501 21.0917 7.95467 21.2865C8.15924 21.4812 13.3167 21.6864 13.3167 21.6864Z" fill="#B69382"/>
</g>
</g>
<g style="mix-blend-mode:multiply" opacity="0.2">
<g style="mix-blend-mode:multiply" opacity="0.2">
<path d="M12.3514 22.345C11.7751 22.5554 10.818 22.8008 9.7802 22.5784C8.74235 22.356 8.52273 22.1589 8.47901 22.258C8.4352 22.3572 9.87062 23.0607 10.5149 23.1645C11.1592 23.2682 11.5077 22.9979 11.9469 22.8844C12.386 22.7709 12.7801 22.1889 12.3514 22.345Z" fill="#B69382"/>
</g>
</g>
<g style="mix-blend-mode:multiply" opacity="0.2">
<g style="mix-blend-mode:multiply" opacity="0.2">
<path d="M21.0492 22.175C21.6347 22.3629 22.5992 22.5704 23.6279 22.3076C24.6566 22.0448 24.868 21.8397 24.9153 21.9365C24.9625 22.0333 23.5564 22.7934 22.9168 22.9225C22.2772 23.0515 21.9181 22.7945 21.4762 22.6978C21.0341 22.6009 20.6146 22.0362 21.0492 22.175Z" fill="#B69382"/>
</g>
</g>
<g style="mix-blend-mode:multiply" opacity="0.3">
<g style="mix-blend-mode:multiply" opacity="0.3">
<path d="M14.8184 21.5291L14.9233 21.7359C15.014 21.9198 15.091 22.11 15.1538 22.3052C15.2413 22.5832 15.311 22.8665 15.3624 23.1535C15.4171 23.4827 15.4529 23.8148 15.4695 24.1481C15.4788 24.4887 15.4811 24.8286 15.4586 25.1462C15.4361 25.4637 15.401 25.7582 15.367 26.0106C15.3266 26.2895 15.2689 26.5658 15.1941 26.8375C15.1941 26.8375 15.2201 26.4998 15.2419 25.9968C15.2639 25.4937 15.2759 24.8241 15.2483 24.1579C15.2328 23.8249 15.2068 23.4923 15.1693 23.1823C15.144 23.029 15.1359 22.8763 15.1077 22.7363C15.0795 22.5963 15.0621 22.4608 15.0334 22.3398C14.9757 22.0995 14.9319 21.8915 14.8801 21.7526L14.8184 21.5291Z" fill="#B69382"/>
</g>
</g>
<g style="mix-blend-mode:multiply" opacity="0.3">
<g style="mix-blend-mode:multiply" opacity="0.3">
<path d="M18.325 21.8857C18.325 21.8857 18.295 21.9589 18.2432 22.0874C18.1725 22.2655 18.1161 22.449 18.0743 22.636C18.0176 22.9007 17.9791 23.1689 17.9591 23.4387C17.9401 23.7473 17.9401 24.0567 17.9591 24.3654C17.9834 24.6729 18.0232 24.9792 18.0784 25.2828C18.1279 25.5737 18.2034 25.8394 18.2627 26.0676C18.3326 26.3206 18.4191 26.5688 18.5215 26.8104C18.5215 26.8104 18.4598 26.5021 18.3838 26.0417C18.3077 25.5812 18.223 24.9664 18.178 24.3503C18.1579 24.042 18.1481 23.7337 18.1509 23.4445C18.1602 23.3005 18.1509 23.1592 18.1642 23.0273C18.1774 22.8953 18.1797 22.7692 18.1953 22.6545C18.2287 22.4274 18.2472 22.2315 18.2841 22.0983C18.3106 21.963 18.325 21.8857 18.325 21.8857Z" fill="#B69382"/>
</g>
</g>
<g style="mix-blend-mode:multiply" opacity="0.3">
<g style="mix-blend-mode:multiply" opacity="0.3">
<path d="M7.93652 21.2111C7.93652 21.2111 8.12784 20.3409 9.78057 19.8459C9.78057 19.8459 8.75138 20.3606 8.49027 20.9224C8.22927 21.4842 7.93652 21.2111 7.93652 21.2111Z" fill="#B69382"/>
</g>
</g>
<g style="mix-blend-mode:multiply" opacity="0.3">
<g style="mix-blend-mode:multiply" opacity="0.3">
<path d="M13.27 21.7828C13.27 21.7828 13.0972 20.1618 11.207 19.7896C11.207 19.7896 12.5042 20.2257 12.782 21.334L13.27 21.7828Z" fill="#B69382"/>
</g>
</g>
<path d="M13.1531 21.5387C12.7336 21.0887 11.8116 20.271 10.7293 20.2341C9.24606 20.1857 7.9731 21.076 7.93622 21.2108C7.89933 21.3457 9.38722 22.0752 10.5156 22.1115C11.6438 22.1478 12.4996 21.7721 12.9266 21.7859C13.2407 21.7963 13.3784 21.7824 13.1531 21.5387Z" fill="#E7E0D7"/>
<path d="M9.7345 21.0474C9.71602 21.5136 10.1177 21.9054 10.6317 21.9216C11.1457 21.9377 11.5779 21.5758 11.5964 21.1079C11.6148 20.6399 11.2131 20.2505 10.6991 20.2337C10.1851 20.217 9.7529 20.5812 9.7345 21.0474Z" fill="#682510"/>
<path d="M9.81647 21.0128C9.79972 21.4163 10.1679 21.762 10.637 21.7752C11.1061 21.7885 11.5014 21.4739 11.517 21.0682C11.5325 20.6625 11.1654 20.319 10.6958 20.3058C10.2262 20.2925 9.83255 20.6072 9.81647 21.0128Z" fill="#91462D"/>
<path d="M10.2205 21.0002C10.2113 21.2238 10.4043 21.4122 10.6516 21.4203C10.8988 21.4284 11.1063 21.2532 11.1126 21.029C11.1189 20.8048 10.9287 20.617 10.6815 20.6089C10.4343 20.6008 10.2292 20.7761 10.2205 21.0002Z" fill="#0B0B0B"/>
<path d="M10.5888 20.5927C10.6567 20.6694 10.6158 20.8025 10.4965 20.8895C10.3772 20.9765 10.2257 20.9858 10.1577 20.9091C10.0897 20.8325 10.1312 20.6999 10.2499 20.6124C10.3686 20.5248 10.5207 20.5149 10.5888 20.5927Z" fill="#E8E7E7"/>
<path d="M11.1217 21.18C11.1649 21.2295 11.1384 21.3148 11.064 21.3708C10.9897 21.4266 10.8912 21.433 10.8457 21.3834C10.8001 21.3339 10.8284 21.2486 10.9033 21.1927C10.9782 21.1368 11.0768 21.131 11.1217 21.18Z" fill="#E8E7E7"/>
<path d="M12.1978 21.9093C12.5037 21.8401 12.7527 21.7802 12.9267 21.786C13.2408 21.7963 13.3785 21.7802 13.1532 21.5387C12.966 21.3397 12.7637 21.1553 12.5481 20.9873C12.7539 21.2351 12.8945 21.658 12.1978 21.9093Z" fill="#5E4E46"/>
<path d="M7.93644 21.2111C7.91916 21.2762 8.45795 21.626 8.9904 21.7752C8.72071 21.6997 8.39285 20.8809 8.65677 20.7224C8.23034 20.935 7.95258 21.1489 7.93644 21.2111Z" fill="#5E4E46"/>
<path d="M13.2652 21.6963C13.0871 21.433 12.2469 20.7166 11.6937 20.5714C11.1405 20.4262 11.0598 20.3409 10.3827 20.3651C9.70566 20.3894 8.92018 20.6671 7.93652 21.2111C7.93652 21.2111 8.33987 20.7114 9.17609 20.3853C10.0122 20.0591 10.3343 20.1318 10.8121 20.1433C11.8361 20.1692 12.8872 20.8336 13.2652 21.6963Z" fill="#0B0B0B"/>
<path d="M14.3741 18.1898L14.2767 18.1477C14.392 18.4122 14.4081 18.7816 14.3972 19.0818C14.3891 18.7995 14.3493 18.4721 14.2791 18.275C14.2698 18.2491 14.2485 18.2215 14.1758 18.1978C14.2001 18.3074 14.2202 18.4364 14.2335 18.5499C14.2029 18.4214 14.1588 18.2964 14.1021 18.1771C14.0435 18.1452 13.9825 18.1183 13.9194 18.0964C14.0301 18.3232 14.0865 18.5725 14.0843 18.8248C14.0843 18.8248 13.9546 18.2831 13.776 18.0082L13.6717 17.9777C13.7711 18.1432 13.8303 18.3297 13.8445 18.5223C13.8445 18.5223 13.7293 18.1627 13.6296 18.0261C12.5549 17.723 9.42698 17.3703 8.80633 17.4666C7.38986 17.6867 5.97458 19.1198 5.97803 19.2881C5.98149 19.4563 7.68261 18.7119 8.77234 18.6888C9.68397 18.6704 14.1038 20.0822 14.3528 19.5733C14.4488 19.3559 14.5002 19.1214 14.5038 18.8837C14.5075 18.646 14.4634 18.4101 14.3741 18.1898Z" fill="#45230F"/>
<path d="M18.6888 18.4788L18.7845 18.4299C18.6859 18.7018 18.6963 19.0736 18.7268 19.3703C18.7148 19.0879 18.732 18.7584 18.7891 18.5578C18.7966 18.5313 18.8162 18.5002 18.8882 18.4731C18.871 18.5838 18.86 18.7145 18.8525 18.8286C18.8744 18.6981 18.91 18.5703 18.9585 18.4472C19.0157 18.4114 19.0757 18.3802 19.1378 18.3539C19.0421 18.5875 19.0026 18.8403 19.0225 19.092C19.0225 19.092 19.1153 18.5429 19.2766 18.2553L19.3797 18.2178C19.2915 18.3895 19.2453 18.5797 19.2449 18.7728C19.2449 18.7728 19.3388 18.4057 19.4276 18.2622C20.4925 17.8825 23.364 17.2514 23.9979 17.3033C25.4443 17.4186 27.2388 18.8016 27.2474 18.9704C27.256 19.1393 25.2207 18.4633 24.1183 18.5198C23.1964 18.567 19.0922 20.3471 18.8052 19.8584C18.6933 19.6484 18.6254 19.4178 18.6053 19.1806C18.5854 18.9435 18.6137 18.7047 18.6888 18.4788Z" fill="#45230F"/>
<g style="mix-blend-mode:multiply" opacity="0.3">
<g style="mix-blend-mode:multiply" opacity="0.3">
<path d="M25.3297 20.7148C25.3297 20.7148 25.0675 19.7864 23.375 19.3623C23.375 19.3623 24.4445 19.8498 24.7517 20.4405C25.0588 21.0312 25.3297 20.7148 25.3297 20.7148Z" fill="#B69382"/>
</g>
</g>
<g style="mix-blend-mode:multiply" opacity="0.3">
<g style="mix-blend-mode:multiply" opacity="0.3">
<path d="M20.0537 21.6869C20.0537 21.6869 20.09 19.9229 21.9461 19.3945C21.9461 19.3945 20.6881 19.9523 20.5055 21.1694L20.0537 21.6869Z" fill="#B69382"/>
</g>
</g>
<path d="M20.1517 21.4168C20.5332 20.9028 21.3849 19.9554 22.4613 19.8448C23.9372 19.6938 25.2816 20.5714 25.3294 20.715C25.3772 20.8585 23.9533 21.7465 22.8313 21.8606C21.7093 21.9747 20.8231 21.626 20.3995 21.6675C20.0854 21.7015 19.9471 21.6934 20.1517 21.4168Z" fill="#E7E0D7"/>
<path d="M23.5222 20.6578C23.5353 20.778 23.5241 20.8995 23.4896 21.0154C23.4552 21.1313 23.398 21.2391 23.3213 21.3326C23.2448 21.4262 23.1503 21.5036 23.0436 21.5603C22.9367 21.6169 22.8197 21.6518 22.6994 21.6627C22.4546 21.6896 22.2092 21.6191 22.016 21.4664C21.8229 21.3137 21.6976 21.0911 21.6673 20.8468C21.6544 20.7266 21.6656 20.6051 21.7 20.4892C21.7346 20.3734 21.7918 20.2656 21.8683 20.172C21.945 20.0786 22.0394 20.0012 22.1461 19.9445C22.2529 19.8877 22.3698 19.8528 22.4902 19.8418C22.7349 19.8149 22.9804 19.8855 23.1735 20.0381C23.3666 20.1908 23.4919 20.4134 23.5222 20.6578Z" fill="#682510"/>
<path d="M23.4375 20.6255C23.4871 21.0634 23.1494 21.4571 22.6814 21.5049C22.2135 21.5527 21.7946 21.2364 21.7451 20.7989C21.6955 20.3616 22.0332 19.9674 22.5011 19.9196C22.969 19.8717 23.3874 20.1881 23.4375 20.6255Z" fill="#91462D"/>
<path d="M23.0329 20.6389C23.0391 20.6965 23.0338 20.7549 23.0173 20.8106C23.0007 20.8663 22.9732 20.9181 22.9364 20.963C22.8996 21.008 22.8542 21.0452 22.8029 21.0724C22.7517 21.0996 22.6955 21.1164 22.6377 21.1217C22.5202 21.1344 22.4026 21.1005 22.3099 21.0272C22.2173 20.9539 22.1572 20.8471 22.1427 20.7299C22.1364 20.6721 22.1418 20.6137 22.1584 20.5581C22.1749 20.5024 22.2024 20.4506 22.2392 20.4056C22.276 20.3608 22.3214 20.3236 22.3726 20.2963C22.4239 20.2691 22.4801 20.2523 22.5379 20.247C22.6554 20.2343 22.7731 20.2683 22.8657 20.3415C22.9583 20.4149 23.0183 20.5216 23.0329 20.6389Z" fill="#0B0B0B"/>
<path d="M22.5597 20.2268C22.6312 20.3086 22.596 20.4533 22.4808 20.5506C22.3655 20.648 22.214 20.6612 22.1425 20.58C22.071 20.4987 22.1061 20.3541 22.2214 20.2562C22.3366 20.1582 22.4882 20.1455 22.5597 20.2268Z" fill="#E8E7E7"/>
<path d="M23.1179 20.8491C23.1633 20.9014 23.1409 20.9948 23.0666 21.0576C22.9922 21.1204 22.8936 21.1285 22.8493 21.0761C22.805 21.0236 22.8257 20.9308 22.9 20.868C22.9743 20.8052 23.0718 20.7972 23.1179 20.8491Z" fill="#E8E7E7"/>
<path d="M21.136 21.7543C20.8248 21.6995 20.5719 21.6517 20.3984 21.6696C20.0855 21.7013 19.9472 21.6932 20.1518 21.4166C20.3211 21.1913 20.5076 20.9793 20.7096 20.7827C20.5246 21.0616 20.4203 21.5283 21.136 21.7543Z" fill="#5E4E46"/>
<path d="M25.3296 20.7147C25.3526 20.7845 24.8438 21.1982 24.3252 21.3947C24.588 21.295 24.8473 20.388 24.5701 20.2341C25.0132 20.4358 25.3083 20.6496 25.3296 20.7147Z" fill="#5E4E46"/>
<path d="M20.0537 21.5947C20.2093 21.298 20.9884 20.4693 21.5277 20.2733C22.0671 20.0775 22.1438 19.9795 22.8191 19.9628C23.4945 19.9461 24.3036 20.1932 25.3299 20.7148C25.3299 20.7148 24.8844 20.2019 24.0247 19.904C23.1649 19.6061 22.848 19.7075 22.372 19.7513C21.352 19.8458 20.3585 20.6364 20.0537 21.5947Z" fill="#0B0B0B"/>
<path opacity="0.85" d="M28.0571 19.2638C28.0537 19.1814 28.0491 19.1001 28.0427 19.0206C27.9073 17.1904 26.813 15.7066 25.3971 15.317C23.0846 14.6831 17.6412 13.4211 13.0144 14.157C9.31431 14.7459 7.24266 15.8921 6.19099 16.6925C5.61472 17.1317 5.25226 17.9062 5.21826 18.7572L5.3168 25.9605C5.29721 26.4561 5.79279 26.6059 5.97834 26.9309C6.2319 27.3735 5.85214 28.0644 6.27281 28.3474C6.94473 28.8003 7.82064 29.3615 9.36794 29.909C12.648 31.0696 13.6322 29.6849 14.5283 28.5698L14.5318 28.5611C14.7156 27.162 15.0423 25.0904 16.506 25.046H16.7164C18.1236 25.0875 18.4792 27.0006 18.6682 28.3912C19.098 28.9547 19.574 29.6364 20.156 30.3729C21.8053 32.4607 23.1895 30.6783 23.1895 30.6783C26.9012 27.5706 28.2847 28.6615 28.2847 28.6615C28.2847 28.6615 28.2012 22.7847 28.0571 19.2638Z" fill="url(#paint0_radial)"/>
<path d="M28.0156 19.0166C28.0121 18.9336 28.0075 18.8529 28.0012 18.7735C27.8663 16.942 26.7715 15.4588 25.3556 15.0692C23.0436 14.4354 17.5997 13.1728 12.973 13.9087C9.27283 14.4976 7.20115 15.6437 6.14948 16.4442C5.57322 16.8839 5.21076 17.6578 5.17676 18.5089L5.2753 25.7121C5.2557 26.2083 5.75129 26.3581 5.93742 26.6826C6.19039 27.1251 5.81064 27.816 6.23131 28.0996C6.90323 28.5519 7.77914 29.1138 9.32637 29.6612C12.6065 30.8213 13.5907 29.4365 14.4868 28.3214L14.4908 28.3128C14.4983 28.2552 14.5058 28.1975 14.5139 28.1399C13.6783 29.1824 12.7056 30.3873 9.67732 29.3178C8.20326 28.7992 7.36884 28.2615 6.72919 27.8305C6.32582 27.5602 6.69001 26.9027 6.44914 26.4809C6.27165 26.172 5.79969 26.0291 5.81525 25.5588L5.72478 18.6968C5.75705 17.886 6.10338 17.1484 6.6514 16.73C7.65294 15.9653 9.62378 14.8739 13.1504 14.3126C17.5576 13.6119 22.7428 14.8122 24.9447 15.4179C26.2937 15.789 27.3362 17.2043 27.4652 18.9457C27.4704 19.0212 27.475 19.0984 27.4785 19.1762C27.6163 22.53 27.6957 28.129 27.6957 28.129C27.6957 28.129 26.3773 27.0917 22.8419 30.052C22.8419 30.052 21.5241 31.7501 19.9526 29.7638C19.427 29.0988 18.9937 28.4817 18.6007 27.9618C18.6095 28.0253 18.6182 28.0875 18.6266 28.1486C19.0571 28.7116 19.5325 29.3939 20.1145 30.1303C21.7637 32.2181 23.1479 30.4352 23.1479 30.4352C26.8596 27.328 28.2432 28.4183 28.2432 28.4183C28.2432 28.4183 28.1596 22.537 28.0156 19.0166Z" fill="#28292E"/>
<path d="M23.0653 28.1456L22.409 28.1583L23.331 26.4232C23.331 26.4232 18.7451 26.3408 18.7451 24.4063C18.7451 24.4063 18.7901 21.3308 16.666 21.3308C14.596 21.3308 14.6053 24.4063 14.6053 24.4063C14.6663 26.3437 10.02 26.4232 10.02 26.4232L10.8268 28.3785L10.428 28.3865L11.0371 33.3695C11.0371 33.3695 16.5162 40.7323 22.1151 33.3988C27.3492 26.5477 23.0653 28.1456 23.0653 28.1456Z" fill="#606161"/>
<path d="M23.6915 26.5888C23.6915 26.5888 23 26.1462 22.4313 26.4424C22.1172 26.6055 21.6648 28.1493 21.4712 28.9122C21.0373 30.6232 21.2828 32.2055 21.5807 33.1304C21.7052 33.5165 22.5603 33.4283 22.9234 33.2457C23.1014 33.1563 22.7989 33.0982 23.0386 32.8314C24.103 31.6535 23.6915 26.5888 23.6915 26.5888Z" fill="#606161"/>
<path d="M21.5925 33.1303C21.2946 32.2083 21.0491 30.6229 21.483 28.9121C21.6766 28.1491 22.129 26.607 22.443 26.4423C22.5545 26.3852 22.6765 26.3518 22.8015 26.3443C22.6206 26.3263 22.4383 26.3603 22.276 26.4423C21.9619 26.6053 21.509 28.1491 21.3159 28.9121C20.882 30.6229 21.1275 32.2054 21.4254 33.1303C21.4957 33.3492 21.8017 33.4184 22.1198 33.3988C21.8679 33.3861 21.6507 33.3077 21.5925 33.1303Z" fill="#28292E"/>
<path d="M21.6157 32.8796C21.3177 31.9541 21.101 30.3809 21.535 28.67C21.6346 28.2758 21.834 27.6656 22.0178 27.1521C21.7995 27.7065 21.5286 28.4516 21.4116 28.9121C20.9777 30.623 21.2232 32.2054 21.5211 33.1302C21.6456 33.5163 22.5007 33.4282 22.8638 33.2455C22.986 33.1844 22.8816 33.1377 22.8822 33.0282C22.4887 33.1862 21.732 33.2409 21.6157 32.8796Z" fill="#E79424"/>
<path d="M26.3676 25.1447L26.0766 34.5757L26.0633 34.5803C25.5425 34.4892 25.0142 34.4469 24.4855 34.4541C23.9357 34.4548 23.3864 34.4869 22.8403 34.5504C22.7412 34.5625 22.6484 34.574 22.5632 34.5878C22.007 32.2621 22.0941 30.3875 22.4358 28.9405C22.436 28.9365 22.436 28.9325 22.4358 28.9284C23.0426 26.36 24.4451 25.1436 24.4451 25.1436L26.3676 25.1447Z" fill="#606161"/>
<path d="M24.1549 34.0858C23.9642 33.8317 23.8017 33.4732 23.7222 32.9673C23.2888 30.2266 23.6386 26.2429 25.7074 25.2587C25.7999 25.2114 25.8978 25.1756 25.999 25.1521C25.8785 25.1699 25.7618 25.2071 25.6532 25.2622C23.5844 26.2458 23.0353 30.2266 23.4686 32.9673C23.5487 33.4732 23.6807 33.8576 23.902 34.0858C24.2523 34.4466 24.5514 34.4402 24.9807 34.4777C25.3034 34.5059 25.8503 34.5993 26.0376 34.5814C25.6895 34.5491 24.3791 34.3838 24.1549 34.0858Z" fill="#28292E"/>
<path d="M24.9036 34.4811C24.6125 34.4638 24.3205 34.4638 24.0294 34.4811C23.4768 34.5134 22.5974 34.568 22.5634 34.5888C22.4844 34.6366 22.2603 32.9251 22.2603 32.9251C22.2603 32.9251 23.0313 33.3423 24.4645 32.1506L25.0563 34.4908L24.9036 34.4811Z" fill="#28292E"/>
<path d="M25.8649 25.1954C26.0516 25.1066 27.2479 25.1238 27.4427 25.1348C27.7101 25.1498 27.0572 25.2547 27.2698 25.4362C27.6446 25.7454 27.9277 26.151 28.0887 26.6095C28.7393 28.5636 28.4494 32.7927 26.0003 34.3734C25.7122 34.5584 25.3699 34.5025 25.0512 34.4524C24.7326 34.4022 24.4381 34.3578 24.2324 34.0841C24.0411 33.83 23.8791 33.4715 23.799 32.965C23.3656 30.2243 23.7961 26.179 25.8649 25.1954Z" fill="#606161"/>
<path d="M26.0007 33.1189C25.4245 33.49 25.243 33.6375 24.8315 33.0929C24.6151 32.8199 24.4953 32.4829 24.4909 32.1346C24.3209 32.4366 23.6144 32.704 23.5487 32.7581C23.0877 33.1396 24.3555 34.2092 24.6165 34.3987C24.6711 34.4405 24.7365 34.4659 24.805 34.4719C25.266 34.5014 26.2382 34.6039 26.3672 34.5872C26.5579 34.5607 25.8313 34.484 26.0013 34.3746C27.9202 33.1356 28.5132 30.2693 28.3668 28.147C28.2435 30.0295 27.5606 32.1116 26.0007 33.1189Z" fill="#28292E"/>
<path d="M24.2603 34.084C24.0695 33.8299 23.907 33.4715 23.8269 32.965C23.3936 30.2243 23.7116 26.2228 25.7782 25.2431C25.9037 25.1855 25.9251 25.1607 26.0587 25.1469C26.0507 25.14 25.9263 25.1566 25.7217 25.2541C23.6523 26.2377 23.1429 30.2272 23.5762 32.9679C23.6563 33.4744 23.7883 33.8587 24.0096 34.0869C24.3594 34.4477 24.6591 34.4408 25.0878 34.4788C25.4105 34.507 25.9574 34.5998 26.1452 34.5825C25.7966 34.5474 24.4867 34.382 24.2603 34.084Z" fill="#E79424"/>
<path d="M26.9547 25.251C27.1699 25.1507 27.4095 25.1147 27.6447 25.1476C27.8799 25.1804 28.1005 25.2805 28.2801 25.436C28.6555 25.745 28.9394 26.1508 29.1013 26.6093C29.7513 28.5634 29.4614 32.7925 27.0129 34.3732C26.4366 34.7443 25.6558 34.6308 25.2443 34.0851C25.0536 33.8309 24.8911 33.4725 24.811 32.966C24.3759 30.2241 24.8854 26.2347 26.9547 25.251Z" fill="#606161"/>
<path d="M25.2738 34.084C25.0825 33.8298 24.9205 33.4714 24.8404 32.9649C24.4071 30.2242 24.9165 26.2348 26.9858 25.2511C27.1092 25.1932 27.2416 25.1569 27.3771 25.1439C27.1572 25.1197 26.9348 25.1569 26.7346 25.2511C24.6653 26.2348 24.1564 30.2242 24.5892 32.9649C24.6693 33.4714 24.8318 33.8293 25.0226 34.084C25.1572 34.2592 25.3345 34.3972 25.5376 34.4844C25.7406 34.5717 25.9627 34.6054 26.1825 34.5825C26.0046 34.5676 25.8317 34.5157 25.6752 34.4298C25.5186 34.3439 25.3819 34.2261 25.2738 34.084Z" fill="#E79424"/>
<path d="M27.011 33.1189C26.4348 33.49 25.6539 33.3765 25.2425 32.8308C25.0518 32.5767 25.0235 32.2211 24.9676 31.7117C24.9221 31.2945 24.6218 26.0459 27.2727 25.1533C24.1344 26.0753 24.6444 32.2188 24.812 32.9662C24.9273 33.4664 25.0546 33.8306 25.2454 34.0853C25.6568 34.6322 26.4388 34.7457 27.0139 34.3734C28.9335 33.1345 29.5258 30.2682 29.3766 28.1458C29.2538 30.0296 28.571 32.1116 27.011 33.1189Z" fill="#28292E"/>
<path d="M22.8444 34.557L22.5627 34.5887C22.5241 34.5887 22.501 34.4302 22.4826 34.3472C22.3703 33.8115 22.2881 33.27 22.2365 32.7251C22.0763 31.2378 22.1898 29.9798 22.4353 28.9414C22.4272 29.0601 22.2625 30.0524 22.2625 31.1565C22.259 32.5176 22.448 34.0649 22.8421 34.5512C22.8409 34.5524 22.8427 34.5559 22.8444 34.557Z" fill="#E79424"/>
<path d="M22.4224 29.0131C22.4227 29.0091 22.4227 29.0051 22.4224 29.001C23.0298 26.4326 24.3989 25.2104 24.3989 25.2104L27.399 25.1372L26.254 25.1447H24.3339C24.3339 25.1447 22.9313 26.3612 22.3245 28.9284C22.3247 28.9325 22.3247 28.9365 22.3245 28.9405C21.9827 30.3875 21.8957 32.2621 22.4518 34.5878C22.4674 34.5849 22.5365 34.5849 22.5527 34.5826C22.0847 32.288 22.0842 30.4451 22.4224 29.0131Z" fill="#28292E"/>
<path d="M9.66346 26.5888C9.66346 26.5888 10.355 26.1462 10.9243 26.4424C11.2383 26.6055 11.6907 28.1493 11.8844 28.9122C12.3182 30.6232 12.0722 32.2055 11.7742 33.1304C11.6504 33.5165 10.7946 33.4283 10.4322 33.2457C10.2541 33.1563 10.5566 33.0982 10.3169 32.8314C9.25253 31.6535 9.66346 26.5888 9.66346 26.5888Z" fill="#606161"/>
<path d="M11.7627 33.1303C12.0606 32.2082 12.3067 30.623 11.8727 28.912C11.6791 28.1491 11.2267 26.6071 10.9127 26.4422C10.8011 26.3851 10.6789 26.3517 10.5537 26.3442C10.7348 26.3264 10.9173 26.3604 11.0798 26.4422C11.3939 26.6053 11.8462 28.1491 12.0399 28.912C12.4737 30.623 12.2283 32.2053 11.9304 33.1303C11.8595 33.3492 11.5535 33.4183 11.236 33.3988C11.4878 33.3861 11.7051 33.3077 11.7627 33.1303Z" fill="#28292E"/>
<path d="M11.7403 32.8796C12.0383 31.9541 12.2549 30.3809 11.821 28.67C11.7213 28.2758 11.5213 27.6656 11.3381 27.1521C11.5565 27.7065 11.8273 28.4516 11.9443 28.9121C12.3783 30.623 12.1322 32.2054 11.8342 33.1302C11.7103 33.5163 10.8546 33.4282 10.4921 33.2455C10.37 33.1844 10.4737 33.1377 10.4737 33.0282C10.8673 33.1862 11.6239 33.2409 11.7403 32.8796Z" fill="#E79424"/>
<path d="M6.98828 25.1445L7.27641 34.5768L7.28966 34.5814C7.81052 34.4902 8.33873 34.448 8.86747 34.4551C9.41725 34.4558 9.96654 34.488 10.5127 34.5514C10.6118 34.5635 10.7046 34.575 10.7899 34.5889C11.3459 32.2631 11.2589 30.3886 10.9172 28.9415C10.9168 28.9376 10.9168 28.9334 10.9172 28.9295C10.3104 26.3611 8.90839 25.1445 8.90839 25.1445H6.98828Z" fill="#606161"/>
<path d="M9.19996 34.0858C9.39128 33.8317 9.55314 33.4732 9.63325 32.9673C10.0666 30.2266 9.71682 26.2429 7.64749 25.2587C7.55522 25.2113 7.45748 25.1756 7.35648 25.1521C7.4769 25.1699 7.59365 25.2071 7.70224 25.2622C9.77102 26.2458 10.3196 30.2266 9.88686 32.9673C9.80675 33.4732 9.67475 33.8576 9.45348 34.0858C9.10311 34.4466 8.80404 34.4402 8.37471 34.4777C8.05202 34.5059 7.50515 34.5993 7.31787 34.5814C7.66421 34.5491 8.97581 34.3838 9.19996 34.0858Z" fill="#28292E"/>
<path d="M8.4522 34.4811C8.74334 34.4638 9.03523 34.4638 9.32637 34.4811C9.87896 34.5134 10.7577 34.568 10.7923 34.5888C10.8707 34.6366 11.0954 32.9251 11.0954 32.9251C11.0954 32.9251 10.3245 33.3423 8.89069 32.1506L8.29834 34.4903L8.4522 34.4811Z" fill="#28292E"/>
<path d="M7.49119 25.1954C7.30506 25.1066 6.11106 25.1238 5.91397 25.1348C5.64659 25.1498 6.2995 25.2547 6.08685 25.4362C5.71207 25.7455 5.42875 26.1511 5.26741 26.6095C4.6174 28.5636 4.90725 32.7927 7.35578 34.3734C7.6439 34.5584 7.98966 34.5025 8.30488 34.4524C8.62011 34.4022 8.9186 34.3578 9.12427 34.0841C9.31501 33.83 9.47754 33.4715 9.55764 32.965C9.98986 30.2243 9.55938 26.179 7.49119 25.1954Z" fill="#606161"/>
<path d="M7.35507 33.1189C7.93133 33.49 8.11285 33.6375 8.52368 33.0929C8.74074 32.8203 8.86094 32.4831 8.86548 32.1346C9.03543 32.4366 9.74196 32.704 9.80763 32.7582C10.2686 33.1396 9.00086 34.2092 8.73983 34.3988C8.68514 34.4404 8.6198 34.4657 8.5514 34.4719C8.09038 34.5013 7.11822 34.6039 6.98914 34.5872C6.7984 34.5607 7.52506 34.4841 7.35507 34.3746C5.43555 33.135 4.84085 30.2681 4.98952 28.1458C5.11227 30.0296 5.79514 32.1116 7.35507 33.1189Z" fill="#28292E"/>
<path d="M9.09237 34.084C9.28368 33.8299 9.44621 33.4715 9.52574 32.965C9.95903 30.2243 9.64099 26.2228 7.57508 25.2431C7.44888 25.1855 7.42814 25.1607 7.29445 25.1469C7.30251 25.14 7.42699 25.1566 7.63156 25.2541C9.70089 26.2377 10.2103 30.2272 9.77695 32.9679C9.69684 33.4744 9.56493 33.8587 9.34366 34.0869C8.99328 34.4477 8.69422 34.4408 8.26489 34.4788C7.94216 34.507 7.39529 34.5998 7.20801 34.5825C7.55838 34.5474 8.86879 34.382 9.09237 34.084Z" fill="#E79424"/>
<path d="M6.40104 25.2512C6.18584 25.1507 5.94617 25.1147 5.71097 25.1476C5.47577 25.1804 5.25511 25.2806 5.07564 25.4361C4.70087 25.7453 4.41772 26.151 4.25678 26.6094C3.60675 28.5635 3.89604 32.7927 6.34513 34.3733C6.9214 34.7444 7.70223 34.6309 8.1131 34.0852C8.30445 33.831 8.46689 33.4726 8.54642 32.9661C8.97922 30.2243 8.47094 26.2348 6.40104 25.2512Z" fill="#606161"/>
<path d="M8.08194 34.084C8.2727 33.8298 8.43522 33.4714 8.51525 32.9649C8.94862 30.2242 8.43918 26.2348 6.36989 25.2511C6.24637 25.1932 6.11382 25.1569 5.97803 25.1439C6.19818 25.1197 6.42072 25.1569 6.62113 25.2511C8.6899 26.2348 9.19934 30.2242 8.76597 32.9649C8.68586 33.4714 8.52391 33.8293 8.33259 34.084C8.19805 34.2593 8.02074 34.3973 7.81765 34.4845C7.61455 34.5718 7.39246 34.6055 7.17261 34.5825C7.35065 34.5677 7.5236 34.5157 7.68026 34.4299C7.83691 34.344 7.97376 34.2262 8.08194 34.084Z" fill="#E79424"/>
<path d="M6.34472 33.1189C6.92098 33.49 7.7018 33.3765 8.11268 32.8308C8.30398 32.5767 8.3322 32.2211 8.38755 31.7117C8.43367 31.2945 8.73331 26.0459 6.08598 25.1533C9.22427 26.0753 8.71425 32.2188 8.54604 32.9662C8.43078 33.4664 8.30398 33.8306 8.11268 34.0853C7.7018 34.6322 6.91925 34.7457 6.34472 34.3734C4.4252 33.1345 3.83223 30.2682 3.98206 28.1458C4.10135 30.0296 4.78306 32.1116 6.34472 33.1189Z" fill="#28292E"/>
<path d="M10.5112 34.557L10.7931 34.5887C10.8317 34.5887 10.8547 34.4302 10.8732 34.3472C10.9864 33.8116 11.0695 33.27 11.1221 32.7251C11.2823 31.2378 11.1682 29.9798 10.9233 28.9414C10.9313 29.0601 11.0962 30.0524 11.0962 31.1565C11.0996 32.5176 10.91 34.0649 10.5164 34.5512C10.5141 34.5524 10.513 34.5559 10.5112 34.557Z" fill="#E79424"/>
<path d="M10.9335 29.0131C10.9331 29.0091 10.9331 29.0051 10.9335 29.001C10.3267 26.4326 8.95751 25.2104 8.95751 25.2104L5.95752 25.1372L7.10255 25.1447H9.02376C9.02376 25.1447 10.4258 26.3612 11.0326 28.9296C11.0322 28.9336 11.0322 28.9377 11.0326 28.9416C11.3743 30.3887 11.4614 32.2632 10.9053 34.589C10.8897 34.5861 10.8206 34.5861 10.8044 34.5838C11.2712 32.288 11.2712 30.4451 10.9335 29.0131Z" fill="#28292E"/>
<path d="M18.6305 23.1806C18.4576 22.3555 18.151 21.1464 16.7951 21.1211H16.5992C15.2432 21.1464 14.9355 22.3555 14.7638 23.1806C14.4445 24.1695 13.4003 26.2216 10.0645 26.4232L10.8942 26.4088C14.2814 25.9616 14.6399 25.016 14.6491 24.4397C14.6778 24.038 14.7325 23.6387 14.8128 23.244C14.9857 22.4476 15.3591 21.4265 16.5992 21.4028H16.7951C18.0358 21.4265 18.4087 22.4476 18.5815 23.244C18.6619 23.6387 18.7166 24.038 18.7452 24.4397C18.7527 25.016 19.1122 25.9616 22.5001 26.4088L23.3299 26.4232C19.9962 26.2198 18.9498 24.1695 18.6305 23.1806Z" fill="#28292E"/>
<path d="M11.6981 26.1514C13.7628 25.5089 14.5038 24.0002 14.7631 23.1951C14.936 22.3706 15.2426 21.161 16.5986 21.1356H16.7944C18.1504 21.161 18.4581 22.3706 18.6299 23.1951C18.8945 24.0016 19.3768 24.7192 20.0236 25.2688C20.6703 25.8184 21.4563 26.1787 22.2949 26.3098C22.3767 26.322 22.4844 26.3278 22.5692 26.3404C22.8849 26.3865 23.1949 26.405 23.3327 26.4234L23.4088 26.2983C20.0728 26.0967 18.9491 24.0382 18.6299 23.0488C18.457 22.2242 18.1504 21.0146 16.7944 20.9893H16.5986C15.2426 21.0146 14.9349 22.2242 14.7631 23.0488C14.4439 24.0382 13.3076 26.1392 9.97217 26.341L10.0217 26.4234C10.315 26.3848 10.9703 26.3635 11.6981 26.1514Z" fill="#E79424"/>
<g style="mix-blend-mode:multiply" opacity="0.3">
<g style="mix-blend-mode:multiply" opacity="0.3">
<path d="M14.9252 27.755L14.9132 27.7509C14.991 27.7323 15.0713 27.7262 15.1511 27.7331C15.2475 27.7462 15.3398 27.7804 15.4214 27.8333C15.5213 27.9001 15.6155 27.9748 15.7032 28.0569C15.7913 28.1418 15.8901 28.2148 15.997 28.2742C16.1056 28.335 16.2251 28.3742 16.3486 28.3895C16.6402 28.4317 16.9375 28.4121 17.221 28.3318C17.3596 28.2876 17.4915 28.225 17.6135 28.1457C17.7303 28.0678 17.8328 27.9703 17.9166 27.8575C17.9987 27.7479 18.0631 27.6259 18.1073 27.4962C18.1528 27.3759 18.1855 27.2511 18.2053 27.124C18.2358 26.9252 18.2487 26.724 18.2439 26.5229C18.241 26.3725 18.2393 26.2866 18.2393 26.2866C18.2393 26.2866 18.2658 26.3685 18.3113 26.5114C18.3692 26.7158 18.4015 26.9266 18.4075 27.1389C18.4087 27.2854 18.3944 27.4316 18.3649 27.5752C18.3366 27.7012 18.2927 27.8231 18.2341 27.9382C18.5158 27.8466 18.8104 27.8806 18.9048 28.0488C19.0778 28.3433 18.732 28.5451 18.3401 28.4937C18.1131 28.4638 17.9742 28.4361 17.8532 28.4235C17.6996 28.5507 17.5238 28.6484 17.3345 28.7115C16.9978 28.824 16.6377 28.8474 16.2893 28.7795C16.1172 28.7449 15.955 28.6729 15.8138 28.5687C15.7637 28.5301 15.7169 28.4875 15.6738 28.4413C15.3885 28.3796 15.0837 28.5698 14.7725 28.4724C14.6377 28.4304 14.4671 28.2044 14.5068 28.031C14.5443 27.8852 14.7132 27.7584 14.9252 27.755Z" fill="#B69382"/>
</g>
</g>
<g style="mix-blend-mode:multiply" opacity="0.5">
<g style="mix-blend-mode:multiply" opacity="0.5">
<path d="M18.2384 27.9353C18.5191 27.8449 18.809 27.8818 18.9058 28.0472C19.0787 28.3416 18.7329 28.5433 18.341 28.492C18.1157 28.4627 17.9774 28.4344 17.8569 28.4223C18.019 28.2906 18.1495 28.1242 18.2384 27.9353Z" fill="#B69382"/>
</g>
</g>
<g style="mix-blend-mode:multiply" opacity="0.5">
<g style="mix-blend-mode:multiply" opacity="0.5">
<path d="M14.8888 27.8823C15.0021 27.8902 15.1122 27.9233 15.2109 27.9793C15.3096 28.0354 15.3945 28.1129 15.4593 28.2061C15.5217 28.2958 15.5955 28.377 15.6789 28.4476C15.3936 28.3963 15.087 28.5559 14.7759 28.4758C14.6416 28.4413 14.4716 28.2546 14.5119 28.1105C14.5437 27.9987 14.6946 27.8978 14.8888 27.8823Z" fill="#B69382"/>
</g>
</g>
<path d="M13.4736 31.8764C13.4736 31.8764 13.5572 33.6324 14.1047 33.9706C14.1047 33.9706 16.9791 35.3801 19.3884 33.9095C19.9375 33.5741 19.9698 31.8015 19.9698 31.8015" fill="#28292E"/>
<path d="M19.636 31.8015C19.636 31.8015 19.6072 33.3909 19.1145 33.6917C16.954 35.0108 14.3758 33.7493 14.3758 33.7493C13.8878 33.4433 13.8105 31.8673 13.8105 31.8673L19.636 31.8015Z" fill="#E79424"/>
<path d="M16.6777 33.7727C18.8257 33.7727 20.5669 32.0315 20.5669 29.8836C20.5669 27.7356 18.8257 25.9944 16.6777 25.9944C14.5298 25.9944 12.7886 27.7356 12.7886 29.8836C12.7886 32.0315 14.5298 33.7727 16.6777 33.7727Z" fill="#28292E"/>
<path d="M16.6776 33.3337C18.583 33.3337 20.1277 31.7891 20.1277 29.8837C20.1277 27.9782 18.583 26.4336 16.6776 26.4336C14.7722 26.4336 13.2275 27.9782 13.2275 29.8837C13.2275 31.7891 14.7722 33.3337 16.6776 33.3337Z" fill="#E79424"/>
<path d="M17.0433 27.196V28.1849C17.3157 28.2435 17.5698 28.3674 17.7837 28.5458C17.9976 28.7243 18.1651 28.952 18.2717 29.2094C18.3783 29.4668 18.4208 29.7461 18.3957 30.0236C18.3705 30.301 18.2784 30.5682 18.1273 30.8023L18.8275 31.5025C19.1137 31.1271 19.2962 30.6832 19.357 30.215C19.4178 29.7469 19.3546 29.2711 19.1737 28.8351C18.9928 28.3991 18.7007 28.0182 18.3264 27.7306C17.9521 27.443 17.5089 27.2586 17.041 27.196H17.0433Z" fill="#28292E"/>
<path d="M14.9529 29.8699C14.953 29.4761 15.0879 29.0942 15.335 28.7877C15.5823 28.4811 15.9269 28.2685 16.3117 28.1849V27.196C15.8442 27.2589 15.4012 27.4433 15.0272 27.7309C14.6533 28.0185 14.3613 28.3992 14.1805 28.835C13.9997 29.2707 13.9363 29.7463 13.9969 30.2141C14.0574 30.6821 14.2396 31.1258 14.5253 31.5013L15.2255 30.8011C15.0469 30.5234 14.9522 30.2 14.9529 29.8699Z" fill="#28292E"/>
<path d="M16.6775 31.5951C16.3462 31.5951 16.022 31.4993 15.744 31.3191L15.0444 32.0193C15.5133 32.3776 16.0871 32.5716 16.6772 32.5716C17.2674 32.5716 17.8411 32.3776 18.31 32.0193L17.6099 31.3197C17.3321 31.4993 17.0083 31.5949 16.6775 31.5951Z" fill="#28292E"/>
<path d="M16.6777 30.8559C17.2146 30.8559 17.6498 30.4207 17.6498 29.8838C17.6498 29.3469 17.2146 28.9116 16.6777 28.9116C16.1408 28.9116 15.7056 29.3469 15.7056 29.8838C15.7056 30.4207 16.1408 30.8559 16.6777 30.8559Z" fill="#28292E"/>
<path d="M16.6776 30.7146C17.1366 30.7146 17.5086 30.3426 17.5086 29.8837C17.5086 29.4247 17.1366 29.0527 16.6776 29.0527C16.2187 29.0527 15.8467 29.4247 15.8467 29.8837C15.8467 30.3426 16.2187 30.7146 16.6776 30.7146Z" fill="#C62929"/>
<path d="M14.0942 32.572H13.8291V33.5949H14.0942V32.572Z" fill="#28292E"/>
<path d="M23.4702 2.64044C22.2116 0.206904 18.8549 -1.38703 15.4147 1.71843C11.9744 4.82388 15.4988 13.0465 10.3799 16.0673C10.3799 16.0673 13.4917 15.0052 13.9077 10.3756C14.3238 5.7459 18.5178 2.89342 18.5178 2.89342L23.4702 2.64044Z" fill="#28292E"/>
<path d="M16.9251 1.46613C14.9951 0.878347 10.8 1.54968 10.8 6.66802C10.8 11.7864 8.95366 18.498 6.10059 19.42C6.10059 19.42 10.3799 18.6628 11.5128 8.03087L13.6991 6.34127L16.9251 1.46613Z" fill="#28292E"/>
<path d="M11.7206 3.22705C10.9675 3.47715 9.9872 5.3327 9.94455 8.82479C9.88004 14.0774 8.61919 14.5384 7.50586 15.1372C7.50586 15.1372 10.0725 15.1129 10.7997 10.8055L12.2536 4.61007L11.7206 3.22705Z" fill="#28292E"/>
<path d="M15.3716 9.32332L15.2598 9.36886C15.2656 9.38041 15.2846 9.36308 15.269 9.3729C15.239 9.40384 15.2118 9.43741 15.1878 9.47322C15.1026 9.60316 15.0308 9.74143 14.9734 9.8858C14.9003 10.0685 14.8207 10.2811 14.7429 10.5231C14.4271 11.4878 14.0663 12.8414 13.5039 14.1195C13.2314 14.7474 12.9011 15.3485 12.5174 15.9151C12.3379 16.1735 12.1434 16.4212 11.9348 16.6568C11.7461 16.8652 11.5458 17.0628 11.3349 17.2487C11.155 17.4024 10.9665 17.5458 10.7701 17.6779C10.5973 17.8013 10.4325 17.8825 10.3052 17.9626L9.87988 18.1718L10.2878 17.9333C10.4089 17.8445 10.5668 17.7528 10.727 17.6192C10.9105 17.4757 11.0855 17.3218 11.2514 17.1582C11.4438 16.962 11.6249 16.7552 11.7942 16.5387C11.9798 16.2959 12.151 16.0425 12.307 15.7798C12.6393 15.2047 12.9176 14.6001 13.1386 13.9738C13.5956 12.6922 13.8514 11.3546 14.1044 10.3376C14.1661 10.0835 14.2352 9.84661 14.3032 9.63508C14.3664 9.43816 14.4494 9.24824 14.551 9.06806C14.5967 8.98919 14.6495 8.91478 14.7089 8.84564C14.7777 8.77321 14.855 8.70952 14.9394 8.65606L15.0547 8.59839L15.3716 9.32332Z" fill="#28292E"/>
<path d="M11.7314 16.0661L12.0196 15.918C12.2664 15.7814 12.5002 15.6227 12.7181 15.4437C12.8636 15.3249 12.9998 15.195 13.1254 15.0553C13.2661 14.9005 13.397 14.7371 13.5173 14.566C13.641 14.3802 13.7544 14.1879 13.8573 13.9898C13.9674 13.7899 14.0556 13.5743 14.1454 13.3611C14.3125 12.9376 14.4528 12.504 14.5656 12.0628C14.626 11.8536 14.667 11.6456 14.7125 11.4508C14.758 11.2561 14.7932 11.0699 14.8249 10.8982C14.8934 10.5559 14.9361 10.2643 14.9672 10.0649C14.9983 9.86552 15.0168 9.74854 15.0168 9.74854L15.4063 9.81429C15.4063 9.81429 15.3821 9.92954 15.3394 10.1323C15.2968 10.3352 15.2386 10.625 15.1504 10.969C15.1089 11.142 15.0645 11.3287 15.0069 11.5246C14.9493 11.7205 14.8975 11.9279 14.8249 12.1383C14.6859 12.5822 14.5195 13.0169 14.3264 13.4401C14.222 13.6533 14.1201 13.8683 13.9967 14.0682C13.8806 14.2657 13.7539 14.4566 13.617 14.6404C13.4848 14.8089 13.3423 14.9693 13.1905 15.1204C13.055 15.2556 12.9094 15.3802 12.7549 15.4933C12.5254 15.6627 12.2811 15.811 12.0248 15.9364L11.7314 16.0661Z" fill="#28292E"/>
<path d="M12.6257 7.17264C12.4188 8.46231 11.7313 13.2671 9.87988 14.9129L10.4832 10.5807C10.4832 10.5807 11.2185 6.00053 11.2525 5.99708C11.2865 5.99361 12.6257 7.17264 12.6257 7.17264Z" fill="#28292E"/>
<path d="M26.3593 5.09197C26.3593 5.09197 26.3558 5.00264 26.3495 4.83438C26.3431 4.66611 26.3235 4.42062 26.2803 4.11117C26.2281 3.74078 26.1333 3.37765 25.9979 3.02896C25.8262 2.5809 25.5576 2.17632 25.2114 1.84417C24.8315 1.48516 24.3135 1.22124 23.7303 1.08121C23.114 0.93616 22.4786 0.890059 21.8477 0.944633C20.5321 1.05989 19.1808 1.60849 18.0358 2.4285C16.8907 3.24851 15.9624 4.37971 15.4259 5.58985C15.1602 6.16955 14.9692 6.78067 14.8577 7.40852C14.7649 8.01762 14.6774 8.59329 14.5961 9.12459C14.4232 10.1884 14.2469 11.0695 14.0965 11.6804C14.0216 11.9864 13.9495 12.2231 13.8942 12.3822C13.8675 12.4642 13.834 12.5438 13.7939 12.6202C13.8293 12.5419 13.8581 12.4607 13.8798 12.3776C13.927 12.2163 13.9812 11.9742 14.0434 11.6688C14.1697 11.0545 14.2988 10.1671 14.4382 9.10157C14.505 8.56681 14.5782 7.98766 14.6548 7.37279C14.751 6.72263 14.9328 6.08804 15.1954 5.48555C15.4782 4.84098 15.8465 4.23741 16.2903 3.69108C16.7487 3.12748 17.2776 2.62509 17.864 2.19627C19.0414 1.33188 20.4532 0.792504 21.8235 0.680133C22.4838 0.626118 23.1484 0.68319 23.7897 0.848974C24.4 1.01667 24.9451 1.3169 25.3364 1.71336C25.6914 2.07092 25.9582 2.5064 26.1155 2.98516C26.234 3.34825 26.3104 3.72374 26.3431 4.10426C26.3652 4.34716 26.3729 4.59115 26.3661 4.83495C26.3621 5.00264 26.3593 5.09197 26.3593 5.09197Z" fill="#C62929"/>
<path d="M25.0099 7.70166C25.0303 7.68645 25.0482 7.66817 25.063 7.64749C25.1032 7.59014 25.1375 7.52871 25.1649 7.46424C25.2639 7.23247 25.3427 6.99263 25.4007 6.74737C25.4883 6.40349 25.5524 6.05404 25.5925 5.70146C25.6441 5.30143 25.6587 4.8975 25.6364 4.49478C25.6269 4.29221 25.603 4.09058 25.5649 3.89144C25.5283 3.70019 25.4761 3.51228 25.4087 3.32959C25.3454 3.15932 25.2663 2.99534 25.1725 2.83977C25.0857 2.70138 24.9852 2.5722 24.8722 2.45425C24.7722 2.35666 24.6662 2.26543 24.5547 2.18111C24.4662 2.11696 24.3743 2.05771 24.2792 2.00361L24.0205 1.8728C24.0205 1.8728 24.1231 1.89701 24.3029 1.95118C24.4086 1.99116 24.512 2.03675 24.6129 2.08775C24.7457 2.15489 24.8705 2.23664 24.9852 2.3315C25.1198 2.44713 25.2423 2.57632 25.3505 2.71703C25.4716 2.87511 25.5723 3.04781 25.6501 3.23104C25.8231 3.6085 25.9037 4.0453 25.932 4.47749C25.9533 4.9001 25.9258 5.32376 25.8501 5.74007C25.7849 6.10127 25.6875 6.45593 25.5591 6.79981C25.4713 7.04429 25.3552 7.27771 25.2134 7.49536C25.1741 7.55735 25.1263 7.61359 25.0716 7.66247C25.053 7.67839 25.0323 7.69159 25.0099 7.70166Z" fill="#C62929"/>
<path d="M23.5607 7.22527C23.6168 7.18223 23.668 7.13314 23.7134 7.07891C23.8384 6.92491 23.938 6.75198 24.0084 6.56661C24.1986 6.09696 24.3248 5.34379 24.1329 4.49727C24.03 4.0459 23.8177 3.62675 23.5146 3.27676C23.1913 2.91429 22.7476 2.61521 22.2359 2.50975C21.7242 2.4043 21.1543 2.44809 20.6102 2.59331C20.0574 2.7455 19.5313 2.98184 19.0503 3.29404C18.0707 3.90315 17.264 4.78655 16.7874 5.75927C16.6721 6.00016 16.5661 6.25716 16.4549 6.49689C16.3437 6.73661 16.2175 6.97576 16.0958 7.19992C15.8618 7.6197 15.6056 8.02674 15.3283 8.41931C14.9109 9.00234 14.4419 9.54659 13.9268 10.0455C13.7344 10.2365 13.5302 10.4152 13.3154 10.5808C13.3154 10.5808 13.5378 10.3855 13.8853 10.0045C14.363 9.47902 14.7992 8.9172 15.19 8.32419C15.4496 7.92853 15.6881 7.51939 15.9045 7.0985C16.135 6.65363 16.324 6.16208 16.5569 5.64749C17.042 4.62405 17.8748 3.69224 18.8942 3.04452C19.4034 2.72233 19.959 2.48018 20.5417 2.32651C21.1179 2.17899 21.7242 2.13058 22.2923 2.25909C22.8686 2.38125 23.3469 2.73335 23.6806 3.13615C23.9916 3.52074 24.2034 3.97589 24.2972 4.46154C24.441 5.17815 24.3588 5.92172 24.062 6.58966C23.9795 6.77423 23.866 6.94338 23.7267 7.08986C23.6764 7.14088 23.6208 7.18628 23.5607 7.22527Z" fill="#C62929"/>
<path d="M21.8696 1.8728C22.1508 1.90092 22.4298 1.94789 22.7047 2.01341C22.8397 2.04609 22.9727 2.08689 23.1028 2.13558C23.2517 2.18789 23.3953 2.25366 23.5322 2.33208C23.6815 2.41663 23.8213 2.51689 23.9494 2.63116C24.08 2.75379 24.196 2.89108 24.2951 3.0403C24.3471 3.11343 24.3907 3.19209 24.4254 3.27484C24.4661 3.35322 24.501 3.4345 24.5297 3.51802C24.5866 3.67805 24.6268 3.84355 24.6495 4.01187C24.678 4.16596 24.6907 4.32255 24.6876 4.47922C24.6948 4.61792 24.6893 4.75698 24.6714 4.8947C24.6543 5.10011 24.6215 5.30392 24.5735 5.50439C24.5424 5.64903 24.5204 5.73085 24.5204 5.73085C24.5204 5.73085 24.5164 5.64499 24.5164 5.50035C24.5164 5.42717 24.5164 5.33784 24.5164 5.23585C24.5164 5.13385 24.502 5.01917 24.4997 4.8947C24.4964 4.76157 24.4849 4.62878 24.4652 4.49709C24.4512 4.35102 24.4266 4.20618 24.3914 4.06374C24.36 3.91176 24.3162 3.76259 24.2606 3.61771C24.2337 3.54423 24.2011 3.47294 24.1632 3.4045C24.1328 3.33281 24.0941 3.26492 24.048 3.20223C23.965 3.0702 23.8672 2.94818 23.7563 2.83861L23.5835 2.68591L23.3962 2.55394C23.2744 2.47399 23.1476 2.402 23.0164 2.33842C22.8914 2.27445 22.7669 2.22317 22.6528 2.17476L21.8696 1.8728Z" fill="#C62929"/>
<path d="M20.9184 0.302734C20.9184 0.302734 20.7852 0.352869 20.5507 0.430664C20.4354 0.46985 20.296 0.528628 20.1369 0.589135C19.9779 0.649642 19.8062 0.738386 19.6131 0.819638C19.4276 0.916451 19.2195 1.0052 19.0115 1.12275C18.8035 1.2403 18.5839 1.36132 18.3621 1.49616C18.1402 1.63101 17.9212 1.78429 17.6982 1.93988C17.4752 2.09547 17.2579 2.26604 17.0517 2.44872C16.8344 2.61871 16.6425 2.81695 16.4455 3.0025C16.2645 3.20419 16.068 3.38629 15.9113 3.59259C15.7418 3.78795 15.5943 3.98906 15.4566 4.18325C15.3188 4.37746 15.2088 4.57281 15.0918 4.74568C14.9748 4.91856 14.9028 5.0972 14.8169 5.2453C14.7455 5.37416 14.6825 5.50756 14.6285 5.64464C14.53 5.87053 14.4683 5.99962 14.4683 5.99962C14.4683 5.99962 14.496 5.86132 14.5553 5.61987C14.5878 5.47293 14.6295 5.32819 14.6804 5.18652C14.7394 5.00061 14.8091 4.81821 14.8889 4.64023C14.9869 4.45007 15.0699 4.22763 15.207 4.02248C15.3349 3.79662 15.4788 3.58016 15.6375 3.37477C15.8021 3.15119 15.9802 2.93778 16.1706 2.7357C16.3729 2.53804 16.571 2.32655 16.7953 2.14619C17.0194 1.96582 17.2464 1.78833 17.4787 1.62755C17.707 1.47145 17.9435 1.32738 18.1869 1.19594C18.4123 1.06998 18.6447 0.95686 18.883 0.857092C19.1054 0.751639 19.3296 0.684218 19.529 0.608728C19.8577 0.504416 20.1926 0.420697 20.5317 0.358056C20.776 0.31887 20.9184 0.302734 20.9184 0.302734Z" fill="#C62929"/>
<path d="M24.0203 8.34827L23.9328 8.32583C23.8492 8.30454 23.7686 8.27278 23.693 8.23133C23.4169 8.0809 23.1859 7.85949 23.024 7.58995C22.7804 7.2066 22.6669 6.75497 22.7002 6.30201C22.7099 6.05998 22.7998 5.78339 22.8643 5.57304C22.9236 5.34734 22.9535 5.1149 22.9531 4.88154C22.9502 4.41131 22.8125 3.93705 22.5394 3.59763C22.29 3.27752 21.9258 3.06711 21.5239 3.01101C21.2316 2.96476 20.9335 2.96826 20.6423 3.02138C20.4274 3.0548 20.3052 3.08649 20.3052 3.08649L20.3893 3.05422C20.468 3.02124 20.5484 2.99258 20.6302 2.96836C20.7576 2.93002 20.8876 2.90093 21.0192 2.88134C21.1922 2.85108 21.3684 2.84276 21.5436 2.85657C22.0001 2.8891 22.4262 3.0978 22.7318 3.43859C23.0637 3.81949 23.2395 4.35369 23.2441 4.87924C23.2502 5.14266 23.2166 5.40549 23.1444 5.65891C23.0647 5.87591 23.0083 6.10075 22.9761 6.32968C22.9307 6.73271 23.0025 7.1403 23.183 7.50351C23.3111 7.76709 23.4973 7.99819 23.7276 8.17947C23.7941 8.2298 23.8651 8.27394 23.9396 8.31139L24.0203 8.34827Z" fill="#C62929"/>
<path d="M14.8677 10.6903C14.8677 10.6903 14.8821 10.5981 14.908 10.4362C14.9196 10.3555 14.9564 10.2633 14.9864 10.1481C15.0274 10.0255 15.0755 9.90544 15.1305 9.78846C15.2753 9.50053 15.4401 9.223 15.6238 8.95809C15.8248 8.66992 16.0416 8.36681 16.2449 8.05797C16.4507 7.76039 16.6377 7.45035 16.8051 7.12962L17.0218 6.68071C17.0794 6.53376 17.1405 6.39258 17.1883 6.26523C17.2753 6.00188 17.3554 5.78232 17.3895 5.6227C17.4338 5.46538 17.4597 5.37549 17.4597 5.37549C17.4597 5.37549 17.4476 5.46826 17.4269 5.63077C17.398 5.85621 17.3535 6.07937 17.2938 6.29865C17.2067 6.60957 17.0945 6.91292 16.9584 7.20568C16.7956 7.53762 16.6121 7.85904 16.4092 8.16803C16.1943 8.47687 15.9695 8.77601 15.7632 9.05717C15.5569 9.33842 15.3679 9.6006 15.2284 9.83977C15.1674 9.96253 15.0988 10.0703 15.0556 10.1746C15.0124 10.2788 14.9674 10.3653 14.9455 10.4442C14.8971 10.6033 14.8677 10.6903 14.8677 10.6903Z" fill="#C62929"/>
<path d="M21.293 3.80338C21.3544 3.78286 21.4177 3.76801 21.482 3.75902C21.6598 3.73644 21.8402 3.77462 21.9936 3.86736C22.2114 4.00344 22.3778 4.20794 22.4668 4.4488C22.5205 4.58161 22.5542 4.72161 22.567 4.86428C22.5772 5.0074 22.5772 5.15105 22.567 5.29417C22.5457 5.8468 22.559 6.40174 22.6909 6.79244C22.74 6.95107 22.8127 7.10143 22.9065 7.23846C22.9421 7.29181 22.9805 7.34317 23.0218 7.39232C22.9701 7.35267 22.9218 7.30873 22.8776 7.26094C22.7565 7.1359 22.6589 6.99009 22.5895 6.83047C22.4928 6.60409 22.4292 6.365 22.4005 6.12052C22.3702 5.84349 22.3606 5.56457 22.3717 5.2861C22.3924 4.99797 22.3878 4.74846 22.3037 4.50873C22.2196 4.26901 22.0945 4.07423 21.9332 3.96013C21.8038 3.86184 21.6477 3.80517 21.4854 3.79763C21.4213 3.79313 21.3567 3.79506 21.293 3.80338Z" fill="#C62929"/>
<path d="M15.9285 1.28906L15.6542 1.57719C15.4779 1.75641 15.2347 2.02437 14.9627 2.35169C14.6506 2.72182 14.3903 3.1326 14.1888 3.57278C14.0777 3.81907 13.9874 4.0743 13.9191 4.33574C13.8457 4.60588 13.7925 4.88115 13.76 5.15921C13.7243 5.4387 13.7025 5.72106 13.6903 6.00574C13.6782 6.29041 13.6656 6.56183 13.6701 6.82921C13.6701 7.36283 13.7076 7.86647 13.7168 8.30325C13.722 8.65519 13.6966 9.00689 13.6407 9.35438C13.6021 9.60501 13.5693 9.74625 13.5693 9.74625C13.5693 9.74625 13.5745 9.60155 13.5837 9.34918C13.5943 9.00309 13.5831 8.65668 13.5503 8.31191C13.5158 7.88549 13.4287 7.38415 13.4091 6.83612C13.384 6.26423 13.4032 5.69125 13.4668 5.12233C13.5047 4.83026 13.564 4.54135 13.6442 4.25795C13.722 3.98279 13.826 3.71572 13.9548 3.4604C14.1862 3.01235 14.4833 2.60151 14.8365 2.24162C15.0819 1.99028 15.3426 1.75416 15.6168 1.53455C15.8121 1.37551 15.9285 1.28906 15.9285 1.28906Z" fill="#C62929"/>
<path d="M13.5352 2.14258L13.4199 2.21576C13.3128 2.28949 13.2143 2.37491 13.1261 2.47047C12.9871 2.61653 12.8591 2.77253 12.7429 2.93723C12.6085 3.12913 12.4714 3.35387 12.3257 3.60166C12.1799 3.84945 12.0473 4.13182 11.9148 4.43378C11.7822 4.73573 11.6647 5.06132 11.5465 5.40016C11.4284 5.739 11.3281 6.09628 11.2452 6.46394C11.158 6.83407 11.0921 7.20886 11.0475 7.58649C10.9929 7.96257 10.9586 8.34134 10.9449 8.72117C10.9363 9.09514 10.934 9.47027 10.9363 9.83508C10.9386 10.1998 10.9179 10.5554 10.8873 10.8884C10.8567 11.2215 10.8228 11.5379 10.772 11.8271C10.681 12.4034 10.5277 12.8765 10.3762 13.1843C10.3205 13.3048 10.2488 13.4172 10.1629 13.5185C10.1336 13.5548 10.0995 13.587 10.0615 13.6142C10.0957 13.5831 10.1255 13.5477 10.1503 13.5087C10.2215 13.4007 10.2795 13.2847 10.3231 13.163C10.4499 12.8518 10.5438 12.3781 10.6067 11.8064C10.6695 11.2348 10.6822 10.56 10.6776 9.8402C10.6683 9.47662 10.6643 9.1038 10.6666 8.71597C10.6731 8.32566 10.7014 7.93612 10.7513 7.54903C10.8036 7.16244 10.878 6.77917 10.9743 6.40112C11.0651 6.0347 11.1743 5.67311 11.3017 5.31776C11.4213 4.98559 11.56 4.66062 11.7171 4.34445C11.8681 4.04365 12.026 3.7682 12.1781 3.5181L12.4149 3.17235L12.6506 2.87442C12.7836 2.71698 12.9277 2.56928 13.0817 2.43243C13.1799 2.34315 13.2894 2.26702 13.4073 2.20596L13.5352 2.14258Z" fill="#C62929"/>
<path d="M13.3169 3.22705L13.2627 3.28122C13.2345 3.32501 13.1971 3.38034 13.1515 3.45986C13.0559 3.61545 12.9464 3.8546 12.8058 4.13466C12.6652 4.41472 12.5252 4.75299 12.3771 5.1143C12.2289 5.47561 12.0808 5.86343 11.946 6.2576C11.8111 6.65176 11.6924 7.0488 11.5928 7.4251C11.553 7.61526 11.4971 7.79563 11.4619 7.97081C11.4268 8.14599 11.3928 8.31197 11.368 8.46583C11.3433 8.6197 11.3288 8.76201 11.3104 8.88881C11.292 9.01553 11.2897 9.12567 11.2804 9.21724L11.2534 9.50542C11.2534 9.50542 11.2424 9.40048 11.2228 9.21724C11.2176 9.12509 11.1986 9.01215 11.2003 8.88304C11.202 8.75392 11.2003 8.60757 11.2043 8.44793C11.227 8.08491 11.2724 7.72365 11.3404 7.36632C11.4239 6.95972 11.533 6.5588 11.6671 6.16596C11.8036 5.77335 11.9618 5.38859 12.1408 5.01345C12.2975 4.68718 12.4706 4.36906 12.6594 4.06032C12.7927 3.841 12.941 3.63113 13.1032 3.4322C13.1495 3.37471 13.2 3.32059 13.2541 3.27027L13.3169 3.22705Z" fill="#C62929"/>
<path d="M11.0894 4.28174C11.0894 4.28174 10.9326 4.87874 10.7891 5.78519C10.7113 6.23756 10.6509 6.76944 10.6013 7.34109C10.5517 7.91274 10.5298 8.51607 10.5218 9.13267C10.5142 9.43809 10.4982 9.75332 10.4728 10.0547C10.4474 10.3561 10.4105 10.6574 10.3679 10.945C10.2893 11.4706 10.1631 11.9878 9.99103 12.4905C9.8705 12.8462 9.71251 13.1882 9.51963 13.5105C9.44686 13.6321 9.36642 13.7489 9.27881 13.8603C9.27881 13.8603 9.35603 13.726 9.46897 13.4835C9.61896 13.147 9.7404 12.7984 9.83197 12.4416C9.96306 11.9387 10.056 11.4267 10.1097 10.9099C10.1737 10.3417 10.2146 9.73657 10.225 9.12343C10.2312 8.51797 10.2696 7.91315 10.3403 7.31171C10.4068 6.78722 10.5015 6.2667 10.6238 5.75235C10.7275 5.30056 10.8508 4.93349 10.9355 4.67705C11.0202 4.42062 11.0894 4.28174 11.0894 4.28174Z" fill="#C62929"/>
<path d="M29.073 12.6449C28.616 12.6449 28.2628 12.404 27.8081 12.6184C27.9637 13.4298 28.0311 14.2809 28.0766 15.109C28.0766 15.1528 28.0846 15.1961 28.0846 15.2392C28.1579 16.3826 28.3728 17.5247 28.219 18.6645C28.1965 18.8311 28.117 19.0149 28.3037 19.1485C28.8442 19.1128 28.9756 18.8178 29.1911 18.3303C29.4463 17.739 29.5927 17.1065 29.6233 16.4632C29.6836 15.4857 29.6413 14.5045 29.497 13.5358C29.447 13.1964 29.3375 12.8829 29.073 12.6449Z" fill="#E4AB65" stroke="#231F20" stroke-width="0.166948" stroke-miterlimit="10"/>
<path d="M29.6353 13.3335C29.7107 14.0486 29.8733 14.7534 29.8831 15.476C30.1603 15.5336 30.4277 15.4696 30.6956 15.4103C30.7711 14.936 30.6466 14.4744 30.6063 14.0076C30.6022 13.9352 30.5807 13.8648 30.5434 13.8024C30.5062 13.7401 30.4544 13.6877 30.3925 13.6498C30.2628 13.2505 29.9655 13.247 29.6353 13.3335Z" fill="#28292E"/>
<path d="M29.8911 16.1422C29.9061 16.8585 29.7966 17.5645 29.7153 18.2744C30.1862 18.332 30.3976 18.0819 30.4985 17.6572C30.6186 17.1184 30.6829 16.5686 30.6904 16.0166C30.4213 16.0391 30.1435 16.0102 29.8911 16.1422Z" fill="#28292E"/>
<path d="M30.6955 15.4103C30.6955 15.4103 29.8961 15.2582 29.7735 15.4997C29.6507 15.7411 29.7735 16.246 29.7735 16.246C29.7735 16.246 29.8461 16.7438 29.9901 16.7069C30.3543 16.6119 30.6194 16.8481 30.9594 17.0107C31.1581 17.1057 31.3397 17.2077 31.4463 17.448C32.6709 20.2141 31.2158 23.9597 29.026 26.4238C27.8643 27.7307 27.1763 28.3168 27.1763 28.3168L27.2961 30.1516C27.2961 30.1516 28.6711 29.0417 30.2005 27.2237C32.9682 23.9373 34.4918 16.3981 30.6955 15.4103Z" fill="#E29440"/>
<path d="M30.6955 15.4103C30.6955 15.4103 29.8961 15.2582 29.7735 15.4997C29.6507 15.7411 29.7735 16.246 29.7735 16.246C29.7735 16.246 29.8461 16.7438 29.9901 16.7069C30.3543 16.6119 30.6194 16.8481 30.9594 17.0107C31.1581 17.1057 31.3397 17.2077 31.4463 17.448C32.6709 20.2141 31.2158 23.9597 29.026 26.4238C27.8643 27.7307 27.1763 28.3168 27.1763 28.3168L27.2961 30.1516C27.2961 30.1516 28.6711 29.0417 30.2005 27.2237C32.9682 23.9373 34.4918 16.3981 30.6955 15.4103Z" stroke="#28292E" stroke-width="0.496564" stroke-miterlimit="10"/>
<path d="M29.8912 16.1424L29.8832 15.4762C30.0342 15.2665 29.9852 15.0238 29.953 14.8043C29.8798 14.3081 29.8953 13.7906 29.6354 13.3336C29.4919 13.068 29.4914 12.6859 29.073 12.645C29.697 14.2009 29.613 15.8087 29.3692 17.409C29.2966 17.8884 29.2383 18.2313 29.0136 18.5384C28.8863 18.7113 28.7393 18.9326 28.4189 19.0179L28.4126 19.2046C29.2407 19.2622 29.5075 18.928 29.7155 18.2722C29.8573 18.1783 29.8441 18.0233 29.87 17.8832C29.9512 17.4401 29.9402 16.9877 29.9973 16.5422C30.0152 16.4005 30.0232 16.2507 29.8912 16.1424Z" fill="#E29440"/>
<path d="M27.9275 27.6029C27.9275 27.6029 25.1741 27.3361 26.4241 29.8504C27.674 32.3646 28.5706 28.99 28.5706 28.99" fill="#E29440"/>
<path d="M27.9275 27.6029C27.9275 27.6029 25.1741 27.3361 26.4241 29.8504C27.674 32.3646 28.5706 28.99 28.5706 28.99" stroke="#28292E" stroke-width="0.496564" stroke-miterlimit="10"/>
<path d="M3.92713 12.2513C4.38411 12.2513 4.86817 12.083 5.32283 12.2973C5.16724 13.1087 4.96901 13.8879 4.92348 14.7176C4.92348 14.7609 4.91541 14.8047 4.91484 14.8479C4.8405 15.9895 4.59617 17.1841 4.75234 18.325V18.3302C4.7596 18.3883 4.75046 18.4472 4.72593 18.5003C4.7014 18.5534 4.66248 18.5986 4.61357 18.6307C4.56466 18.6628 4.50773 18.6805 4.44925 18.6819C4.39075 18.6833 4.33305 18.6683 4.28268 18.6385C4.06313 18.5048 3.95249 18.2651 3.80842 17.9389C3.553 17.3477 3.40658 16.7152 3.37623 16.0719C3.31589 15.0942 3.35819 14.1128 3.50243 13.1439C3.55314 12.8033 3.66263 12.4898 3.92713 12.2513Z" fill="#E4AB65" stroke="#231F20" stroke-width="0.166948" stroke-miterlimit="10"/>
<path d="M3.3649 12.9405C3.28941 13.6556 3.12633 14.3604 3.11711 15.083C2.83935 15.1406 2.57255 15.0766 2.30459 15.0173C2.22909 14.543 2.35357 14.0809 2.3939 13.6147C2.39784 13.5422 2.41937 13.4718 2.45662 13.4094C2.49386 13.347 2.54571 13.2947 2.6077 13.2568C2.73736 12.857 3.0324 12.8541 3.3649 12.9405Z" fill="#28292E"/>
<path d="M3.11172 15.7488C3.09616 16.465 3.20623 17.1709 3.2846 17.8809C2.81437 17.9385 2.60288 17.6884 2.50147 17.2632C2.38154 16.7243 2.31723 16.1746 2.30957 15.6226C2.57869 15.6456 2.85644 15.6168 3.11172 15.7488Z" fill="#28292E"/>
<path d="M2.30492 15.0175C2.30492 15.0175 3.1042 14.8648 3.22694 15.1068C3.34969 15.3489 3.22694 15.8526 3.22694 15.8526C3.22694 15.8526 3.15433 16.351 3.01026 16.3136C2.64607 16.2184 2.38042 16.4542 2.041 16.6173C1.84219 16.7123 1.66067 16.8137 1.55407 17.0546C0.329513 19.8178 1.78456 23.5663 3.97434 26.0298C5.13551 27.3373 5.82413 27.9234 5.82413 27.9234L5.70427 29.7576C5.70427 29.7576 4.32932 28.6477 2.79935 26.8303C0.0315881 23.5439 -1.49262 16.0053 2.30492 15.0175Z" fill="#E29440"/>
<path d="M1.39633 17.8838C1.35406 17.9044 1.3181 17.936 1.29216 17.9752C1.26622 18.0145 1.25125 18.0598 1.2488 18.1069C1.244 18.155 1.24265 18.2036 1.24477 18.2521C1.23955 18.3041 1.23069 18.3557 1.21826 18.4065C1.21826 18.4243 1.23555 18.4324 1.24996 18.4307C1.32372 18.4197 1.33063 18.3304 1.32199 18.2693C1.30492 18.2126 1.29145 18.1549 1.28165 18.0965C1.29104 18.0136 1.3324 17.9377 1.39691 17.8849L1.39633 17.8838Z" fill="#E4AB65"/>
<path d="M2.30492 15.0175C2.30492 15.0175 3.1042 14.8648 3.22694 15.1068C3.34969 15.3489 3.22694 15.8526 3.22694 15.8526C3.22694 15.8526 3.15433 16.351 3.01026 16.3136C2.64607 16.2184 2.38042 16.4542 2.041 16.6173C1.84219 16.7123 1.66067 16.8137 1.55407 17.0546C0.329513 19.8178 1.78456 23.5663 3.97434 26.0298C5.13551 27.3373 5.82413 27.9234 5.82413 27.9234L5.70427 29.7576C5.70427 29.7576 4.32932 28.6477 2.79935 26.8303C0.0315881 23.5439 -1.49262 16.0053 2.30492 15.0175Z" stroke="#28292E" stroke-width="0.496564" stroke-miterlimit="10"/>
<path d="M3.11168 15.7487L3.11975 15.0831C2.96877 14.8727 3.01775 14.6307 3.05002 14.4105C3.12263 13.9149 3.10765 13.3969 3.36754 12.9405C3.51102 12.6749 3.51102 12.2923 3.92997 12.249C3.30588 13.8049 3.38944 15.4132 3.63319 17.0136C3.70638 17.493 3.76458 17.8358 3.98932 18.143C4.11667 18.3159 4.43189 18.3412 4.75286 18.4265L4.77418 18.6801C3.9461 18.7376 3.49546 18.532 3.28744 17.8768C3.1451 17.7828 3.15893 17.6278 3.133 17.4878C3.05117 17.0447 3.06212 16.5923 3.00565 16.1462C2.9849 16.0074 2.97568 15.8558 3.11168 15.7487Z" fill="#E29440"/>
<path d="M5.07102 27.2092C5.07102 27.2092 8.14132 27.9065 6.84704 29.6745C5.6369 31.3289 4.42676 28.5957 4.42676 28.5957" fill="#E29440"/>
<path d="M5.8203 27.4058C5.90213 27.4732 6.02488 27.4859 6.12341 27.5181C6.25365 27.5602 6.37294 27.6276 6.50202 27.6714C6.5314 27.6812 6.54869 27.6426 6.53026 27.6224C6.39425 27.468 6.02257 27.2842 5.82088 27.3994C5.8204 27.3998 5.82001 27.4003 5.81974 27.4008C5.81948 27.4014 5.81934 27.402 5.81934 27.4026C5.81934 27.4032 5.81948 27.4038 5.81974 27.4044C5.82001 27.4049 5.8204 27.4054 5.82088 27.4058H5.8203Z" fill="#E4AB65"/>
<path d="M5.07102 27.2092C5.07102 27.2092 8.14132 27.9065 6.84704 29.6745C5.6369 31.3289 4.42676 28.5957 4.42676 28.5957" stroke="#28292E" stroke-width="0.496564" stroke-miterlimit="10"/>
</g>
<defs>
<radialGradient id="paint0_radial" cx="0" cy="0" r="1" gradientUnits="userSpaceOnUse" gradientTransform="translate(16.7492 22.5554) scale(11.1321 8.57175)">
<stop offset="0.01" stop-color="#0F8AA6"/>
<stop offset="0.43" stop-color="#0F88A5"/>
<stop offset="0.61" stop-color="#1181A2"/>
<stop offset="0.75" stop-color="#13749D"/>
<stop offset="0.86" stop-color="#176395"/>
<stop offset="0.96" stop-color="#1B4C8C"/>
</radialGradient>
<clipPath id="clip0">
<rect width="33" height="37.125" fill="white"/>
</clipPath>
</defs>
</svg>
