<svg width="30" height="37" viewBox="0 0 30 37" fill="none" xmlns="http://www.w3.org/2000/svg">
<g clip-path="url(#clip0)">
<path d="M27.113 36.5518H2.25391C1.22472 36.5518 0.402344 35.7356 0.402344 34.7507V2.22899C0.402344 1.24407 1.22472 0.427979 2.25391 0.427979H27.113C28.1422 0.427979 28.9647 1.24407 28.9647 2.22899V34.7507C28.9647 35.7356 28.1422 36.5518 27.113 36.5518Z" fill="#313341" stroke="#E99531" stroke-width="0.758197" stroke-miterlimit="10" stroke-linecap="round" stroke-linejoin="round"/>
<path opacity="0.85" d="M25.6521 3.93311H3.72585C3.28533 3.93311 2.92822 4.2902 2.92822 4.73073V32.0806C2.92822 32.5211 3.28533 32.8782 3.72585 32.8782H25.6521C26.0926 32.8782 26.4497 32.5211 26.4497 32.0806V4.73073C26.4497 4.2902 26.0926 3.93311 25.6521 3.93311Z" fill="url(#paint0_radial)" stroke="#E99531" stroke-width="0.382131"/>
<path d="M14.6833 35.4908C15.1826 35.4908 15.5874 35.0952 15.5874 34.6072C15.5874 34.1193 15.1826 33.7236 14.6833 33.7236C14.1841 33.7236 13.7793 34.1193 13.7793 34.6072C13.7793 35.0952 14.1841 35.4908 14.6833 35.4908Z" fill="url(#paint1_linear)" stroke="#C42A29" stroke-width="0.0758197" stroke-miterlimit="10"/>
<path d="M8.99076 5.91602L4.7915 10.0114" stroke="url(#paint2_linear)" stroke-width="0.265369" stroke-miterlimit="10" stroke-linecap="round"/>
<path d="M11.7405 5.44092L4.31445 12.7073" stroke="url(#paint3_linear)" stroke-width="0.265369" stroke-miterlimit="10" stroke-linecap="round"/>
<path d="M17.8176 2.72435H11.5384C11.3554 2.72435 11.2153 2.57699 11.2153 2.40856C11.2153 2.22961 11.3661 2.09277 11.5384 2.09277H17.8176C18.0006 2.09277 18.1407 2.24014 18.1407 2.40856C18.1407 2.58751 18.0006 2.72435 17.8176 2.72435Z" fill="url(#paint4_linear)"/>
<path d="M19.0239 2.09277H19.0023C18.8192 2.09277 18.6792 2.24014 18.6792 2.40856C18.6792 2.57699 18.8299 2.72435 19.0023 2.72435H19.0239C19.2069 2.72435 19.347 2.57699 19.347 2.40856C19.347 2.24014 19.1961 2.09277 19.0239 2.09277Z" fill="url(#paint5_linear)"/>
<path d="M19.0817 6.39795L22.1692 19.3355C22.1692 19.3355 22.6877 20.7839 21.6507 20.5171C21.6507 20.5171 20.5987 19.5642 18.9062 19.3887C18.121 19.3049 17.3815 19.4727 16.8174 19.6709C16.1388 19.9072 15.5442 20.3418 15.1173 20.9212C14.7666 21.3863 14.4616 21.8512 14.4006 22.4001C14.3092 23.2082 14.4006 24.7025 14.4006 24.7025C14.4006 24.7025 14.6065 25.625 14.7818 25.7927C14.7971 25.8079 14.7971 25.8232 14.7971 25.8384V26.0977C14.7971 26.1511 14.7361 26.1815 14.6903 26.1511C14.4921 25.9985 14.0881 25.6479 13.9356 25.2362L5.06158 25.503L13.4248 24.1003C13.5697 24.0774 13.684 23.9477 13.684 23.7953V23.3836C13.684 23.2464 13.6001 23.1321 13.4705 23.0939L4.31445 20.1436L13.9508 21.6607C14.0728 21.6759 14.1872 21.6149 14.2329 21.5006C14.2482 21.4624 14.271 21.4167 14.2863 21.3785C14.3396 21.2719 14.3168 21.1347 14.2253 21.0584L5.99168 14.2275L15.3078 19.5566C15.3841 19.6022 15.4833 19.5871 15.5442 19.5259L15.59 19.4803C15.6586 19.4116 15.6739 19.2973 15.6128 19.221L9.12503 10.2479L17.1148 18.3215C17.1909 18.3977 17.3205 18.3215 17.2825 18.2147L13.806 7.7626L19.6305 18.634C19.6687 18.7103 19.7906 18.6798 19.783 18.5884L19.0817 6.39795Z" fill="url(#paint6_linear)"/>
<path d="M20.9492 22.9339H20.1487C20.0878 22.9339 20.0344 22.9568 19.9886 22.9873C19.9276 23.0331 19.9276 23.1322 19.9886 23.1779C20.3164 23.4599 21.5057 24.451 21.6278 24.5044C21.7726 24.5578 22.5502 24.4968 22.5807 23.6963C22.6112 22.8958 20.9492 22.9339 20.9492 22.9339Z" fill="url(#paint7_linear)"/>
</g>
<defs>
<radialGradient id="paint0_radial" cx="0" cy="0" r="1" gradientUnits="userSpaceOnUse" gradientTransform="translate(15.3382 18.4057) rotate(53.636) scale(16.613 20.8678)">
<stop offset="0.01" stop-color="#17A3C4"/>
<stop offset="0.96" stop-color="#1E569E"/>
</radialGradient>
<linearGradient id="paint1_linear" x1="14.6833" y1="33.7236" x2="14.6833" y2="35.4908" gradientUnits="userSpaceOnUse">
<stop stop-color="#B12626"/>
<stop offset="1" stop-color="#861111"/>
</linearGradient>
<linearGradient id="paint2_linear" x1="6.89113" y1="5.91602" x2="6.89113" y2="10.0114" gradientUnits="userSpaceOnUse">
<stop stop-color="#B12626"/>
<stop offset="1" stop-color="#861111"/>
</linearGradient>
<linearGradient id="paint3_linear" x1="8.02746" y1="5.44092" x2="8.02746" y2="12.7073" gradientUnits="userSpaceOnUse">
<stop stop-color="#B12626"/>
<stop offset="1" stop-color="#861111"/>
</linearGradient>
<linearGradient id="paint4_linear" x1="14.678" y1="2.09277" x2="14.678" y2="2.72435" gradientUnits="userSpaceOnUse">
<stop stop-color="#B12626"/>
<stop offset="1" stop-color="#861111"/>
</linearGradient>
<linearGradient id="paint5_linear" x1="19.0131" y1="2.09277" x2="19.0131" y2="2.72435" gradientUnits="userSpaceOnUse">
<stop stop-color="#B12626"/>
<stop offset="1" stop-color="#861111"/>
</linearGradient>
<linearGradient id="paint6_linear" x1="13.3066" y1="6.39795" x2="13.3066" y2="26.1632" gradientUnits="userSpaceOnUse">
<stop stop-color="#B12626"/>
<stop offset="1" stop-color="#861111"/>
</linearGradient>
<linearGradient id="paint7_linear" x1="21.2621" y1="22.9337" x2="21.2621" y2="24.5187" gradientUnits="userSpaceOnUse">
<stop stop-color="#B12626"/>
<stop offset="1" stop-color="#861111"/>
</linearGradient>
<clipPath id="clip0">
<rect width="29.418" height="37" fill="white"/>
</clipPath>
</defs>
</svg>
