<svg width="40" height="38" viewBox="0 0 40 38" fill="none" xmlns="http://www.w3.org/2000/svg">
<path d="M7.90928 28.6004L17.9419 35.9473L19.5185 35.863L31.8524 27.0319L32.2735 3.65161L6.92139 6.87091V26.6524C6.92139 27.4221 7.28834 28.1457 7.90928 28.6004Z" fill="#E4AB65"/>
<path d="M33.0783 6.87134V26.6524C33.0783 27.4219 32.7113 28.1454 32.0899 28.601L20.7129 36.9325C20.2888 37.2431 19.7109 37.2431 19.2867 36.9325L17.9419 35.9474C18.0674 35.9088 18.1881 35.8492 18.2985 35.768L29.6755 27.4364C30.2968 26.9817 30.6638 26.2581 30.6638 25.4888V6.87134H33.0783Z" fill="#E29440"/>
<mask id="mask0" mask-type="alpha" maskUnits="userSpaceOnUse" x="9" y="4" width="22" height="31">
<path d="M9.33594 6.87111V26.5093C9.33594 26.6378 9.39727 26.7585 9.50102 26.8342L19.7626 34.3299C19.904 34.4331 20.0959 34.4331 20.2373 34.3299L30.4989 26.8342C30.6027 26.7585 30.664 26.6378 30.664 26.5093V6.87111L19.9999 4.82861L9.33594 6.87111Z" fill="#FFE07D"/>
</mask>
<g mask="url(#mask0)">
<rect x="20" y="5.00024" width="11" height="14" fill="#532D16"/>
<rect x="20" y="19.0002" width="11" height="16" fill="#3A3841"/>
<rect x="9" y="5.00024" width="11" height="14" fill="#1D2A54"/>
<rect x="9" y="19.0002" width="11" height="16" fill="#721F21"/>
</g>
<path d="M20.361 14.8908L21.4739 17.1458C21.5325 17.2645 21.6458 17.3469 21.7768 17.366L24.2654 17.7276C24.5955 17.7756 24.7273 18.1812 24.4885 18.414L22.6877 20.1693C22.5929 20.2617 22.5496 20.3949 22.572 20.5255L22.9971 23.004C23.0535 23.3328 22.7084 23.5835 22.4132 23.4282L20.1873 22.258C20.07 22.1963 19.93 22.1963 19.8128 22.258L17.5869 23.4282C17.2917 23.5835 16.9467 23.3328 17.003 23.004L17.4281 20.5255C17.4505 20.3949 17.4072 20.2617 17.3124 20.1693L15.5116 18.414C15.2728 18.1812 15.4046 17.7756 15.7346 17.7276L18.2232 17.366C18.3543 17.3469 18.4676 17.2645 18.5262 17.1458L19.6391 14.8908C19.7868 14.5917 20.2134 14.5917 20.361 14.8908Z" fill="#E89416"/>
<path d="M38.3905 4.45652H1.60986L2.41463 2.04199H37.5857L38.3905 4.45652Z" fill="#606161"/>
<path d="M2.01211 5.6637H0.402422C0.180156 5.6637 0 5.48354 0 5.26128V1.23714C0 1.01487 0.180156 0.834717 0.402422 0.834717H2.01211C2.23437 0.834717 2.41453 1.01487 2.41453 1.23714V5.26128C2.41445 5.48354 2.2343 5.6637 2.01211 5.6637Z" fill="#7B7B7B"/>
<path d="M39.5975 5.6637H37.9879C37.7656 5.6637 37.5854 5.48354 37.5854 5.26128V1.23714C37.5854 1.01487 37.7656 0.834717 37.9879 0.834717H39.5975C39.8198 0.834717 40 1.01487 40 1.23714V5.26128C40 5.48354 39.8198 5.6637 39.5975 5.6637Z" fill="#7B7B7B"/>
<path d="M32.1129 6.87098H30.6642H9.33623H5.71451C5.26998 6.87098 4.90967 6.51066 4.90967 6.06613V2.04199H32.9177V6.06613C32.9177 6.51066 32.5574 6.87098 32.1129 6.87098Z" fill="#FCCA8E"/>
<path d="M35.171 2.04224V6.06637C35.171 6.51067 34.8104 6.87122 34.3661 6.87122H31.9517C32.396 6.87122 32.7565 6.51067 32.7565 6.06637V2.04224H35.171Z" fill="#E4AB65"/>
</svg>
