<svg width="31" height="31" viewBox="0 0 31 31" fill="none" xmlns="http://www.w3.org/2000/svg">
<circle cx="15.5" cy="15.5" r="15.5" fill="#E4AB65"/>
<path fill-rule="evenodd" clip-rule="evenodd" d="M14.5552 30.9717C22.6756 30.4834 29.1104 23.7432 29.1104 15.5C29.1104 7.25683 22.6756 0.51658 14.5552 0.0283218C14.8677 0.00953083 15.1827 0 15.5 0C24.0604 0 31 6.93959 31 15.5C31 24.0604 24.0604 31 15.5 31C15.1827 31 14.8677 30.9905 14.5552 30.9717Z" fill="#E29440"/>
<circle cx="15.5002" cy="15.5002" r="11.7912" fill="#C62929"/>
<path fill-rule="evenodd" clip-rule="evenodd" d="M14.5903 27.2568C20.6773 26.7924 25.4718 21.7062 25.4718 15.5002C25.4718 9.29419 20.6773 4.208 14.5903 3.74356C14.8906 3.72065 15.1939 3.70898 15.5 3.70898C22.0121 3.70898 27.2912 8.98808 27.2912 15.5002C27.2912 22.0123 22.0121 27.2914 15.5 27.2914C15.1939 27.2914 14.8906 27.2797 14.5903 27.2568Z" fill="#B62323"/>
<path d="M15.5002 3.70898L18.4918 8.27769L23.8378 7.16255L22.7227 12.5085L27.2914 15.5002L22.7227 18.4918L23.8378 23.8378L18.4918 22.7227L15.5002 27.2914L12.5085 22.7227L7.16255 23.8378L8.27769 18.4918L3.70898 15.5002L8.27769 12.5085L7.16255 7.16255L12.5085 8.27769L15.5002 3.70898Z" fill="#FCCA8E"/>
<circle cx="15.5001" cy="15.5001" r="7.52257" fill="#E4AB65"/>
<path fill-rule="evenodd" clip-rule="evenodd" d="M14.7651 22.9873C18.5749 22.618 21.5529 19.4068 21.5529 15.5001C21.5529 11.5934 18.5749 8.38227 14.7651 8.01297C15.0069 7.98953 15.252 7.97754 15.4999 7.97754C19.6545 7.97754 23.0225 11.3455 23.0225 15.5001C23.0225 19.6547 19.6545 23.0227 15.4999 23.0227C15.252 23.0227 15.0069 23.0107 14.7651 22.9873Z" fill="#E29440"/>
<circle cx="15.4999" cy="15.4999" r="5.42325" fill="#606161"/>
<circle cx="15.5001" cy="15.5001" r="2.83409" fill="#E4AB65"/>
<path fill-rule="evenodd" clip-rule="evenodd" d="M14.7653 16.7245C16.002 16.7245 17.0046 15.7219 17.0046 14.4852C17.0046 13.7839 16.6822 13.1579 16.1775 12.7473C17.4156 13.051 18.3342 14.1682 18.3342 15.4999C18.3342 17.0652 17.0653 18.334 15.5001 18.334C13.9349 18.334 12.666 17.0652 12.666 15.4999C12.666 15.4284 12.6687 15.3574 12.6739 15.2872C12.9964 16.1278 13.8112 16.7245 14.7653 16.7245Z" fill="#E29440"/>
</svg>
