<svg width="17" height="17" viewBox="0 0 17 17" fill="none" xmlns="http://www.w3.org/2000/svg">
<path d="M5.7658 8.41349C5.7658 9.92234 6.98891 11.1455 8.49765 11.1455C10.0064 11.1455 11.2295 9.92234 11.2295 8.41349C11.2295 6.90475 10.0064 5.68164 8.49765 5.68164C6.98891 5.68164 5.7658 6.90475 5.7658 8.41349Z" fill="#E69324"/>
<path d="M0.849046 8.56051C0.788238 8.4719 0.788238 8.35492 0.849046 8.26631C0.883677 8.21616 1.71298 7.01888 3.06524 5.8041C3.86269 5.08738 4.67648 4.51567 5.48378 4.10449C6.50454 3.58467 7.51859 3.32117 8.49742 3.32117C9.47626 3.32117 10.4903 3.58467 11.5111 4.10449C12.3184 4.51567 13.1322 5.08738 13.9296 5.8041C15.2819 7.01888 16.1112 8.21616 16.1458 8.26631C16.2066 8.35492 16.2066 8.4719 16.1458 8.56051C16.1112 8.61077 15.2819 9.80794 13.9296 11.0228C13.1322 11.7396 12.3184 12.3113 11.5111 12.7224C10.4903 13.2421 9.47626 13.5056 8.49742 13.5056C7.51859 13.5056 6.50454 13.2421 5.48378 12.7224C4.67648 12.3113 3.86269 11.7396 3.06524 11.0228C1.71298 9.80794 0.883677 8.61077 0.849046 8.56051ZM8.49742 11.6643C10.2928 11.6643 11.7482 10.2087 11.7482 8.41341C11.7482 6.61801 10.2928 5.16267 8.49742 5.16267C6.70214 5.16267 5.24668 6.61801 5.24668 8.41341C5.24865 10.2079 6.70306 11.6622 8.49742 11.6643Z" fill="#E69324"/>
<path d="M16.2069 5.13756C16.0635 5.13756 15.9474 5.02139 15.9474 4.87812V2.44614H13.5156C13.3722 2.44614 13.2561 2.33008 13.2561 2.18669C13.2561 2.04342 13.3722 1.92725 13.5156 1.92725H16.2069C16.3503 1.92725 16.4663 2.04342 16.4663 2.18669V4.87812C16.4663 5.02139 16.3503 5.13756 16.2069 5.13756Z" fill="white"/>
<path d="M0.788017 11.6895C0.931408 11.6895 1.04746 11.8056 1.04746 11.9489V14.3808H3.47932C3.62271 14.3808 3.73877 14.4969 3.73877 14.6402C3.73877 14.7836 3.62271 14.8997 3.47932 14.8997H0.788017C0.644626 14.8997 0.528569 14.7836 0.528569 14.6402V11.9489C0.528569 11.8056 0.644626 11.6895 0.788017 11.6895Z" fill="white"/>
<path d="M0.788017 1.92725H3.47932C3.62271 1.92725 3.73877 2.04342 3.73877 2.18669C3.73877 2.33008 3.62271 2.44614 3.47932 2.44614H1.04746V4.87812C1.04746 5.02139 0.931408 5.13756 0.788017 5.13756C0.644626 5.13756 0.528569 5.02139 0.528569 4.87812V2.18669C0.528569 2.04342 0.644626 1.92725 0.788017 1.92725Z" fill="#C8C8C9"/>
<path d="M13.5156 14.3808H15.9474V11.9489C15.9474 11.8056 16.0635 11.6895 16.2069 11.6895C16.3503 11.6895 16.4663 11.8056 16.4663 11.9489V14.6402C16.4663 14.7836 16.3503 14.8997 16.2069 14.8997H13.5156C13.3722 14.8997 13.2561 14.7836 13.2561 14.6402C13.2561 14.4969 13.3722 14.3808 13.5156 14.3808Z" fill="#C8C8C9"/>
</svg>
