<svg width="25" height="25" viewBox="0 0 25 25" fill="none" xmlns="http://www.w3.org/2000/svg">
<circle cx="8.71232" cy="8.71217" r="4.16667" fill="#EF6E4B"/>
<path d="M6.25025 8.68062C6.25025 6.74312 7.6308 5.12853 9.46205 4.76534C9.20928 4.71464 8.94816 4.68756 8.6808 4.68756C6.47525 4.68756 4.68774 6.47506 4.68774 8.68062C4.68774 10.8862 6.47525 12.6737 8.6808 12.6737C8.94816 12.6737 9.20928 12.6466 9.46205 12.5959C7.6308 12.2327 6.25025 10.6181 6.25025 8.68062Z" fill="#00B871"/>
<path d="M18.0043 3.15878L18.4953 2.66774L19.4774 3.64983L18.9864 4.14088L18.0043 3.15878Z" fill="white"/>
<path d="M20.8322 5.98846L21.3232 5.49742L22.3053 6.47951L21.8142 6.97055L20.8322 5.98846Z" fill="white"/>
<path d="M17.8857 6.47928L18.8678 5.49718L19.3589 5.98823L18.3768 6.97033L17.8857 6.47928Z" fill="white"/>
<path d="M20.7094 3.65616L21.6914 2.67407L22.1825 3.16511L21.2004 4.1472L20.7094 3.65616Z" fill="white"/>
<path d="M8.68076 13.1945C6.19187 13.1945 4.16687 11.1695 4.16687 8.68064C4.16687 6.19175 6.19187 4.16675 8.68076 4.16675C11.1696 4.16675 13.1946 6.19175 13.1946 8.68064C13.1946 11.1695 11.1696 13.1945 8.68076 13.1945ZM8.68076 5.20841C6.76618 5.20841 5.20854 6.76605 5.20854 8.68064C5.20854 10.5952 6.76618 12.1529 8.68076 12.1529C10.5953 12.1529 12.153 10.5952 12.153 8.68064C12.153 6.76605 10.5953 5.20841 8.68076 5.20841Z" fill="white"/>
<path d="M16.1669 20.6806L15.4308 19.9445L16.7058 18.6695C17.044 18.3313 17.044 17.7806 16.7058 17.4417L11.2593 11.9945L11.9961 11.2577L17.4426 16.7049C18.1871 17.4494 18.1871 18.6605 17.4426 19.4056L16.1669 20.6806Z" fill="white"/>
<path d="M12.6495 17.1662L14.9064 14.9093L15.643 15.6459L13.3861 17.9027L12.6495 17.1662Z" fill="white"/>
</svg>
