<svg width="27" height="30" viewBox="0 0 27 30" fill="none" xmlns="http://www.w3.org/2000/svg">
<path d="M11.7312 0.55595L0.537115 11.8993C-0.186781 12.6306 -0.177392 13.8134 0.555805 14.5373C1.289 15.2612 2.46996 15.2538 3.19386 14.5186L11.1938 6.41231L11.1938 28.1344C11.1938 29.1661 12.0278 30 13.0595 30C14.0912 30 14.9252 29.1661 14.9252 28.1344L14.9252 6.41231L22.9252 14.5186C23.6491 15.2537 24.83 15.2593 25.5632 14.5373C25.9326 14.1717 26.1192 13.6903 26.1192 13.2089C26.1192 12.735 25.9401 12.2612 25.5818 11.8993L14.3877 0.55595C14.037 0.201461 13.5593 -5.92698e-07 13.0594 -5.70843e-07C12.5596 -5.48997e-07 12.0838 0.199619 11.7312 0.55595Z" fill="#B4E3B9"/>
</svg>
