<svg width="15" height="15" viewBox="0 0 15 15" fill="none" xmlns="http://www.w3.org/2000/svg">
<path d="M14.4931 11.8367L12.015 9.35859C12.4656 8.45746 12.766 7.40615 12.766 6.35484C12.766 2.82543 9.91239 -0.0281372 6.38298 -0.0281372C2.85357 -0.0281372 0 2.82543 0 6.35484C0 9.88424 2.85357 12.7378 6.38298 12.7378C7.43429 12.7378 8.48561 12.4374 9.38673 11.9869L11.8648 14.465C12.6158 15.2159 13.7422 15.2159 14.4931 14.465C15.169 13.714 15.169 12.5876 14.4931 11.8367ZM6.38298 11.2359C3.6796 11.2359 1.50188 9.05821 1.50188 6.35484C1.50188 3.65146 3.6796 1.47374 6.38298 1.47374C9.08636 1.47374 11.2641 3.65146 11.2641 6.35484C11.2641 9.05821 9.08636 11.2359 6.38298 11.2359Z" fill="#C8C8C8"/>
</svg>
