<svg width="40" height="40" viewBox="0 0 40 40" fill="none" xmlns="http://www.w3.org/2000/svg">
<g clip-path="url(#clip0)">
<g filter="url(#filter0_d)">
<rect x="1" y="1" width="38" height="38" rx="19" fill="#313341"/>
</g>
<path d="M22.4613 18.6133V17.0133L20.8267 16.7973C20.7014 16.1968 20.4644 15.6251 20.128 15.112L21.1307 13.8027L20 12.6507L18.6827 13.6533C18.1689 13.3183 17.5975 13.0814 16.9973 12.9547L16.7813 11.32H15.1813L14.9653 12.9547C14.3647 13.0797 13.7929 13.3167 13.28 13.6533L11.9707 12.6507L10.8293 13.7893L11.8347 15.0987C11.4983 15.6117 11.2613 16.1834 11.136 16.784L9.49866 17V18.6L11.136 18.8133C11.2598 19.4148 11.4979 19.9869 11.8373 20.4987L10.8293 21.808L11.9707 22.9494L13.2827 21.9414C13.788 22.2887 14.3558 22.535 14.9547 22.6667L15.1707 24.304H16.7707L16.9973 22.6667C17.5977 22.5421 18.1694 22.3061 18.6827 21.9707L20 22.9627L21.1387 21.8214L20.136 20.512C20.4709 19.9991 20.7053 19.4271 20.8267 18.8267L22.4613 18.6133ZM13.2427 17.8133C13.24 17.2721 13.3982 16.7422 13.697 16.2909C13.9959 15.8396 14.422 15.4872 14.9213 15.2783C15.4207 15.0695 15.9708 15.0136 16.502 15.1178C17.0332 15.2219 17.5214 15.4815 17.9049 15.8635C18.2884 16.2455 18.5499 16.7327 18.6561 17.2635C18.7624 17.7942 18.7087 18.3446 18.5018 18.8448C18.2949 19.3449 17.9441 19.7724 17.494 20.0731C17.0439 20.3737 16.5146 20.5339 15.9733 20.5333C15.2505 20.5319 14.5575 20.2445 14.0459 19.7339C13.5343 19.2232 13.2455 18.5309 13.2427 17.808V17.8133Z" fill="white"/>
<path d="M22.4613 18.6133V17.0133L20.8267 16.7973C20.7014 16.1968 20.4644 15.6251 20.128 15.112L21.1307 13.8027L20 12.6507L18.6827 13.6533C18.1689 13.3183 17.5975 13.0814 16.9973 12.9547L16.7813 11.32H15.1813L14.9653 12.9547C14.3647 13.0797 13.7929 13.3167 13.28 13.6533L11.9707 12.6507L10.8293 13.7893L11.8347 15.0987C11.4983 15.6117 11.2613 16.1834 11.136 16.784L9.49866 17V18.6L11.136 18.8133C11.2598 19.4148 11.4979 19.9869 11.8373 20.4987L10.8293 21.808L11.9707 22.9494L13.2827 21.9414C13.788 22.2887 14.3558 22.535 14.9547 22.6667L15.1707 24.304H16.7707L16.9973 22.6667C17.5977 22.5421 18.1694 22.3061 18.6827 21.9707L20 22.9627L21.1387 21.8214L20.136 20.512C20.4709 19.9991 20.7053 19.4271 20.8267 18.8267L22.4613 18.6133ZM13.2427 17.8133C13.24 17.2721 13.3982 16.7422 13.697 16.2909C13.9959 15.8396 14.422 15.4872 14.9213 15.2783C15.4207 15.0695 15.9708 15.0136 16.502 15.1178C17.0332 15.2219 17.5214 15.4815 17.9049 15.8635C18.2884 16.2455 18.5499 16.7327 18.6561 17.2635C18.7624 17.7942 18.7087 18.3446 18.5018 18.8448C18.2949 19.3449 17.9441 19.7724 17.494 20.0731C17.0439 20.3737 16.5146 20.5339 15.9733 20.5333C15.2505 20.5319 14.5575 20.2445 14.0459 19.7339C13.5343 19.2232 13.2455 18.5309 13.2427 17.808V17.8133Z" fill="#C8C8C8"/>
<path d="M15.976 14.0507C15.2336 14.0512 14.5081 14.2718 13.891 14.6845C13.274 15.0973 12.7931 15.6837 12.5093 16.3697C12.2254 17.0557 12.1513 17.8104 12.2963 18.5385C12.4412 19.2666 12.7988 19.9353 13.3237 20.4603C13.8487 20.9852 14.5174 21.3427 15.2455 21.4877C15.9736 21.6327 16.7283 21.5585 17.4143 21.2747C18.1003 20.9908 18.6867 20.51 19.0994 19.893C19.5122 19.2759 19.7328 18.5504 19.7333 17.808C19.7337 17.3145 19.6367 16.8257 19.448 16.3697C19.2593 15.9137 18.9826 15.4993 18.6336 15.1504C18.2846 14.8014 17.8703 14.5247 17.4143 14.336C16.9583 14.1473 16.4695 14.0503 15.976 14.0507ZM15.9733 20.5333C15.4325 20.5328 14.904 20.3718 14.4547 20.0708C14.0054 19.7698 13.6554 19.3422 13.4492 18.8423C13.243 18.3423 13.1897 17.7924 13.2961 17.2622C13.4025 16.7319 13.6639 16.2451 14.047 15.8635C14.4302 15.4818 14.918 15.2224 15.4487 15.118C15.9793 15.0137 16.529 15.0691 17.0282 15.2773C17.5273 15.4855 17.9535 15.837 18.2528 16.2875C18.552 16.738 18.7109 17.2672 18.7093 17.808C18.7086 18.1666 18.6373 18.5215 18.4994 18.8526C18.3616 19.1836 18.1598 19.4842 17.9058 19.7373C17.6517 19.9904 17.3503 20.1909 17.0187 20.3275C16.6872 20.4641 16.3319 20.534 15.9733 20.5333Z" fill="white"/>
<path d="M15.976 14.0507C15.2336 14.0512 14.5081 14.2718 13.891 14.6845C13.274 15.0973 12.7931 15.6837 12.5093 16.3697C12.2254 17.0557 12.1513 17.8104 12.2963 18.5385C12.4412 19.2666 12.7988 19.9353 13.3237 20.4603C13.8487 20.9852 14.5174 21.3427 15.2455 21.4877C15.9736 21.6327 16.7283 21.5585 17.4143 21.2747C18.1003 20.9908 18.6867 20.51 19.0994 19.893C19.5122 19.2759 19.7328 18.5504 19.7333 17.808C19.7337 17.3145 19.6367 16.8257 19.448 16.3697C19.2593 15.9137 18.9826 15.4993 18.6336 15.1504C18.2846 14.8014 17.8703 14.5247 17.4143 14.336C16.9583 14.1473 16.4695 14.0503 15.976 14.0507ZM15.9733 20.5333C15.4325 20.5328 14.904 20.3718 14.4547 20.0708C14.0054 19.7698 13.6554 19.3422 13.4492 18.8423C13.243 18.3423 13.1897 17.7924 13.2961 17.2622C13.4025 16.7319 13.6639 16.2451 14.047 15.8635C14.4302 15.4818 14.918 15.2224 15.4487 15.118C15.9793 15.0137 16.529 15.0691 17.0282 15.2773C17.5273 15.4855 17.9535 15.837 18.2528 16.2875C18.552 16.738 18.7109 17.2672 18.7093 17.808C18.7086 18.1666 18.6373 18.5215 18.4994 18.8526C18.3616 19.1836 18.1598 19.4842 17.9058 19.7373C17.6517 19.9904 17.3503 20.1909 17.0187 20.3275C16.6872 20.4641 16.3319 20.534 15.9733 20.5333Z" fill="#C8C8C8"/>
<path d="M30.512 24.336V23.104L29.2587 22.9413C29.1637 22.4814 28.9827 22.0435 28.7253 21.6507L29.4933 20.6507L28.6213 19.7787L27.6213 20.5467C27.2282 20.2899 26.7904 20.109 26.3307 20.0133L26.168 18.7627H24.9333L24.7707 20C24.3109 20.0957 23.8732 20.2766 23.48 20.5333L22.48 19.7787L21.6 20.6507L22.368 21.6507C22.1106 22.0435 21.9297 22.4814 21.8347 22.9413L20.584 23.104V24.336L21.8347 24.5013C21.928 24.961 22.1091 25.3983 22.368 25.7893L21.6 26.792L22.472 27.664L23.4747 26.8933C23.8655 27.1527 24.3029 27.3338 24.7627 27.4267L24.9253 28.6773H26.16L26.3227 27.4267C26.7825 27.3312 27.2203 27.1503 27.6133 26.8933L28.6133 27.6613L29.4853 26.7893L28.7173 25.7867C28.9753 25.3951 29.1563 24.958 29.2507 24.4987L30.512 24.336ZM23.4667 23.7333C23.4661 23.3196 23.5884 22.915 23.8179 22.5708C24.0474 22.2266 24.3739 21.9582 24.756 21.7997C25.1382 21.6411 25.5587 21.5995 25.9645 21.68C26.3703 21.7606 26.7431 21.9598 27.0357 22.2523C27.3282 22.5449 27.5274 22.9177 27.608 23.3234C27.6885 23.7292 27.6469 24.1498 27.4883 24.532C27.3298 24.9141 27.0614 25.2406 26.7172 25.4701C26.373 25.6996 25.9684 25.8219 25.5547 25.8213C25.0011 25.8206 24.4704 25.6004 24.079 25.209C23.6876 24.8176 23.4674 24.2869 23.4667 23.7333Z" fill="white"/>
<path d="M30.512 24.336V23.104L29.2587 22.9413C29.1637 22.4814 28.9827 22.0435 28.7253 21.6507L29.4933 20.6507L28.6213 19.7787L27.6213 20.5467C27.2282 20.2899 26.7904 20.109 26.3307 20.0133L26.168 18.7627H24.9333L24.7707 20C24.3109 20.0957 23.8732 20.2766 23.48 20.5333L22.48 19.7787L21.6 20.6507L22.368 21.6507C22.1106 22.0435 21.9297 22.4814 21.8347 22.9413L20.584 23.104V24.336L21.8347 24.5013C21.928 24.961 22.1091 25.3983 22.368 25.7893L21.6 26.792L22.472 27.664L23.4747 26.8933C23.8655 27.1527 24.3029 27.3338 24.7627 27.4267L24.9253 28.6773H26.16L26.3227 27.4267C26.7825 27.3312 27.2203 27.1503 27.6133 26.8933L28.6133 27.6613L29.4853 26.7893L28.7173 25.7867C28.9753 25.3951 29.1563 24.958 29.2507 24.4987L30.512 24.336ZM23.4667 23.7333C23.4661 23.3196 23.5884 22.915 23.8179 22.5708C24.0474 22.2266 24.3739 21.9582 24.756 21.7997C25.1382 21.6411 25.5587 21.5995 25.9645 21.68C26.3703 21.7606 26.7431 21.9598 27.0357 22.2523C27.3282 22.5449 27.5274 22.9177 27.608 23.3234C27.6885 23.7292 27.6469 24.1498 27.4883 24.532C27.3298 24.9141 27.0614 25.2406 26.7172 25.4701C26.373 25.6996 25.9684 25.8219 25.5547 25.8213C25.0011 25.8206 24.4704 25.6004 24.079 25.209C23.6876 24.8176 23.4674 24.2869 23.4667 23.7333Z" fill="#C8C8C8"/>
<path d="M25.552 20.8507C24.9843 20.8502 24.4292 21.0179 23.9568 21.3327C23.4844 21.6475 23.1158 22.0952 22.8978 22.6193C22.6797 23.1434 22.6218 23.7204 22.7314 24.2774C22.8411 24.8344 23.1134 25.3464 23.5138 25.7488C23.9143 26.1511 24.4251 26.4257 24.9815 26.538C25.538 26.6502 26.1153 26.595 26.6404 26.3794C27.1655 26.1637 27.615 25.7972 27.932 25.3263C28.2489 24.8553 28.4192 24.301 28.4213 23.7333C28.4231 23.3554 28.3502 22.9809 28.2068 22.6312C28.0634 22.2815 27.8523 21.9637 27.5857 21.6958C27.319 21.4279 27.0021 21.2154 26.6531 21.0704C26.3041 20.9253 25.9299 20.8507 25.552 20.8507ZM25.552 25.8107C25.1378 25.8112 24.7328 25.6887 24.3884 25.4587C24.0439 25.2287 23.7756 24.9016 23.6173 24.5188C23.4591 24.1361 23.4181 23.7149 23.4995 23.3088C23.581 22.9028 23.7812 22.53 24.0748 22.2379C24.3685 21.9458 24.7422 21.7475 25.1487 21.6681C25.5552 21.5887 25.9761 21.6319 26.3581 21.7921C26.74 21.9523 27.0657 22.2223 27.294 22.5679C27.5222 22.9136 27.6426 23.3192 27.64 23.7333C27.6372 24.2857 27.4156 24.8145 27.0237 25.2038C26.6319 25.5932 26.1017 25.8114 25.5493 25.8107H25.552Z" fill="white"/>
<path d="M25.552 20.8507C24.9843 20.8502 24.4292 21.0179 23.9568 21.3327C23.4844 21.6475 23.1158 22.0952 22.8978 22.6193C22.6797 23.1434 22.6218 23.7204 22.7314 24.2774C22.8411 24.8344 23.1134 25.3464 23.5138 25.7488C23.9143 26.1511 24.4251 26.4257 24.9815 26.538C25.538 26.6502 26.1153 26.595 26.6404 26.3794C27.1655 26.1637 27.615 25.7972 27.932 25.3263C28.2489 24.8553 28.4192 24.301 28.4213 23.7333C28.4231 23.3554 28.3502 22.9809 28.2068 22.6312C28.0634 22.2815 27.8523 21.9637 27.5857 21.6958C27.319 21.4279 27.0021 21.2154 26.6531 21.0704C26.3041 20.9253 25.9299 20.8507 25.552 20.8507ZM25.552 25.8107C25.1378 25.8112 24.7328 25.6887 24.3884 25.4587C24.0439 25.2287 23.7756 24.9016 23.6173 24.5188C23.4591 24.1361 23.4181 23.7149 23.4995 23.3088C23.581 22.9028 23.7812 22.53 24.0748 22.2379C24.3685 21.9458 24.7422 21.7475 25.1487 21.6681C25.5552 21.5887 25.9761 21.6319 26.3581 21.7921C26.74 21.9523 27.0657 22.2223 27.294 22.5679C27.5222 22.9136 27.6426 23.3192 27.64 23.7333C27.6372 24.2857 27.4156 24.8145 27.0237 25.2038C26.6319 25.5932 26.1017 25.8114 25.5493 25.8107H25.552Z" fill="#C8C8C8"/>
<path d="M28.9733 13.7947L28.6347 12.9947L27.7707 13.2293C27.5809 12.9559 27.3422 12.7199 27.0667 12.5333L27.296 11.6667L26.496 11.3333L26.048 12.1093C25.7202 12.048 25.3838 12.048 25.056 12.1093L24.608 11.3333L23.808 11.672L24.024 12.5333C23.7491 12.7223 23.5121 12.961 23.3253 13.2373L22.4587 13.008L22.1253 13.808L22.9013 14.256C22.84 14.5838 22.84 14.9202 22.9013 15.248L22.1333 15.696L22.472 16.496L23.3307 16.2667C23.5196 16.5415 23.7584 16.7785 24.0347 16.9653L23.8053 17.832L24.6053 18.1653L25.0667 17.392C25.3944 17.4547 25.731 17.4547 26.0587 17.392L26.5067 18.168L27.3067 17.8293L27.072 16.9653C27.348 16.7781 27.5867 16.5412 27.776 16.2667L28.64 16.496L28.9733 15.696L28.1973 15.248C28.2586 14.9202 28.2586 14.5838 28.1973 14.256L28.9733 13.7947ZM24.1733 15.3173C24.0603 15.0461 24.0302 14.7475 24.0869 14.4592C24.1436 14.1709 24.2846 13.9059 24.4919 13.6977C24.6993 13.4895 24.9637 13.3475 25.2518 13.2896C25.5398 13.2318 25.8386 13.2606 26.1102 13.3726C26.3819 13.4845 26.6143 13.6745 26.7779 13.9185C26.9416 14.1626 27.0292 14.4497 27.0297 14.7435C27.0301 15.0373 26.9434 15.3247 26.7806 15.5692C26.6177 15.8138 26.386 16.0045 26.1147 16.1173C25.7521 16.2668 25.3451 16.2665 24.9828 16.1165C24.6205 15.9666 24.3323 15.6792 24.1813 15.3173H24.1733Z" fill="white"/>
<path d="M28.9733 13.7947L28.6347 12.9947L27.7707 13.2293C27.5809 12.9559 27.3422 12.7199 27.0667 12.5333L27.296 11.6667L26.496 11.3333L26.048 12.1093C25.7202 12.048 25.3838 12.048 25.056 12.1093L24.608 11.3333L23.808 11.672L24.024 12.5333C23.7491 12.7223 23.5121 12.961 23.3253 13.2373L22.4587 13.008L22.1253 13.808L22.9013 14.256C22.84 14.5838 22.84 14.9202 22.9013 15.248L22.1333 15.696L22.472 16.496L23.3307 16.2667C23.5196 16.5415 23.7584 16.7785 24.0347 16.9653L23.8053 17.832L24.6053 18.1653L25.0667 17.392C25.3944 17.4547 25.731 17.4547 26.0587 17.392L26.5067 18.168L27.3067 17.8293L27.072 16.9653C27.348 16.7781 27.5867 16.5412 27.776 16.2667L28.64 16.496L28.9733 15.696L28.1973 15.248C28.2586 14.9202 28.2586 14.5838 28.1973 14.256L28.9733 13.7947ZM24.1733 15.3173C24.0603 15.0461 24.0302 14.7475 24.0869 14.4592C24.1436 14.1709 24.2846 13.9059 24.4919 13.6977C24.6993 13.4895 24.9637 13.3475 25.2518 13.2896C25.5398 13.2318 25.8386 13.2606 26.1102 13.3726C26.3819 13.4845 26.6143 13.6745 26.7779 13.9185C26.9416 14.1626 27.0292 14.4497 27.0297 14.7435C27.0301 15.0373 26.9434 15.3247 26.7806 15.5692C26.6177 15.8138 26.386 16.0045 26.1147 16.1173C25.7521 16.2668 25.3451 16.2665 24.9828 16.1165C24.6205 15.9666 24.3323 15.6792 24.1813 15.3173H24.1733Z" fill="#C8C8C8"/>
<path d="M24.7653 12.8613C24.3928 13.0164 24.0745 13.2784 23.8509 13.6143C23.6273 13.9502 23.5083 14.3448 23.509 14.7484C23.5097 15.1519 23.6301 15.5461 23.8549 15.8812C24.0797 16.2164 24.3988 16.4773 24.7719 16.631C25.145 16.7847 25.5553 16.8243 25.9509 16.7448C26.3465 16.6653 26.7097 16.4703 26.9944 16.1844C27.2792 15.8984 27.4728 15.5345 27.5506 15.1386C27.6285 14.7426 27.5872 14.3325 27.432 13.96C27.2234 13.4613 26.8255 13.0656 26.3257 12.8596C25.8258 12.6537 25.2647 12.6543 24.7653 12.8613ZM26.1333 16.1173C25.8622 16.2301 25.5637 16.26 25.2756 16.2032C24.9874 16.1464 24.7226 16.0055 24.5145 15.7982C24.3065 15.591 24.1645 15.3267 24.1066 15.0388C24.0487 14.7509 24.0775 14.4523 24.1892 14.1807C24.301 13.9091 24.4908 13.6768 24.7345 13.513C24.9783 13.3492 25.2652 13.2614 25.5588 13.2606C25.8525 13.2598 26.1398 13.3461 26.3845 13.5086C26.6291 13.671 26.8201 13.9024 26.9333 14.1733C27.0086 14.3535 27.0476 14.5467 27.0481 14.742C27.0487 14.9372 27.0107 15.1306 26.9364 15.3112C26.8621 15.4918 26.7529 15.6559 26.6151 15.7942C26.4773 15.9325 26.3136 16.0423 26.1333 16.1173Z" fill="white"/>
<path d="M24.7653 12.8613C24.3928 13.0164 24.0745 13.2784 23.8509 13.6143C23.6273 13.9502 23.5083 14.3448 23.509 14.7484C23.5097 15.1519 23.6301 15.5461 23.8549 15.8812C24.0797 16.2164 24.3988 16.4773 24.7719 16.631C25.145 16.7847 25.5553 16.8243 25.9509 16.7448C26.3465 16.6653 26.7097 16.4703 26.9944 16.1844C27.2792 15.8984 27.4728 15.5345 27.5506 15.1386C27.6285 14.7426 27.5872 14.3325 27.432 13.96C27.2234 13.4613 26.8255 13.0656 26.3257 12.8596C25.8258 12.6537 25.2647 12.6543 24.7653 12.8613ZM26.1333 16.1173C25.8622 16.2301 25.5637 16.26 25.2756 16.2032C24.9874 16.1464 24.7226 16.0055 24.5145 15.7982C24.3065 15.591 24.1645 15.3267 24.1066 15.0388C24.0487 14.7509 24.0775 14.4523 24.1892 14.1807C24.301 13.9091 24.4908 13.6768 24.7345 13.513C24.9783 13.3492 25.2652 13.2614 25.5588 13.2606C25.8525 13.2598 26.1398 13.3461 26.3845 13.5086C26.6291 13.671 26.8201 13.9024 26.9333 14.1733C27.0086 14.3535 27.0476 14.5467 27.0481 14.742C27.0487 14.9372 27.0107 15.1306 26.9364 15.3112C26.8621 15.4918 26.7529 15.6559 26.6151 15.7942C26.4773 15.9325 26.3136 16.0423 26.1333 16.1173Z" fill="#C8C8C8"/>
</g>
<defs>
<filter id="filter0_d" x="-6" y="-1" width="46" height="46" filterUnits="userSpaceOnUse" color-interpolation-filters="sRGB">
<feFlood flood-opacity="0" result="BackgroundImageFix"/>
<feColorMatrix in="SourceAlpha" type="matrix" values="0 0 0 0 0 0 0 0 0 0 0 0 0 0 0 0 0 0 127 0"/>
<feOffset dx="-3" dy="2"/>
<feGaussianBlur stdDeviation="2"/>
<feColorMatrix type="matrix" values="0 0 0 0 0 0 0 0 0 0 0 0 0 0 0 0 0 0 0.07 0"/>
<feBlend mode="normal" in2="BackgroundImageFix" result="effect1_dropShadow"/>
<feBlend mode="normal" in="SourceGraphic" in2="effect1_dropShadow" result="shape"/>
</filter>
<clipPath id="clip0">
<rect width="40" height="40" fill="white"/>
</clipPath>
</defs>
</svg>
