<svg width="53" height="30" viewBox="0 0 53 30" fill="none" xmlns="http://www.w3.org/2000/svg">
<path d="M7.46182 10.6645H21.8509V7.44995H32.079V10.6645H35.3333V12.0423L36.7281 10.6645H40.8992L43.2467 7.44995H48.3509V10.6645H50.6755L53 12.9607V20.7677L48.8158 24.9009H37.193L35.3333 23.0639V24.9009H29.2894L27.4298 23.0639V24.9009H14.8772L13.0175 23.0639V24.9009H6.50875L0 18.4716V7.44995H5.11409L7.46182 10.6645ZM7.90352 19.8497V16.1754H4.64909V15.2574H7.90352V11.5831H4.64909V8.36838H0.929777V18.0128L2.78944 19.8497H7.90352ZM35.3333 18.0128L37.193 19.8497H42.7719V16.1754H39.0526V15.2574H42.7719V11.5831H37.193L35.3333 13.42V18.0128ZM34.4035 19.8497V16.1754H31.1491V15.2574H34.4035V11.5831H31.1491V8.36838H27.4298V18.0128L29.2894 19.8497H34.4035ZM47.421 19.8497V15.2574H48.3509V19.8497H52.0702V13.42L50.2106 11.5831H47.421V8.36838H43.7017V19.8497H47.421ZM21.8509 19.8497V11.5831H18.1316V16.1754H17.2017V11.5831H13.4825V16.1754H12.5526V11.5831H8.8333V18.0128L10.693 19.8497H21.8509ZM26.5 19.8493V11.5831H22.7807V19.8493H26.5ZM26.5 10.6645V8.36838H22.7807V10.6645H26.5Z" fill="white"/>
</svg>
