<svg width="21" height="17" viewBox="0 0 21 17" fill="none" xmlns="http://www.w3.org/2000/svg">
<path fill-rule="evenodd" clip-rule="evenodd" d="M13 8.49998C13 8.35283 12.9116 8.21693 12.7682 8.14343L8.69538 6.05512C8.55195 5.98163 8.37521 5.98163 8.23179 6.05512C8.08837 6.12862 8 6.26452 8 6.41167V10.5883C8 10.7353 8.08837 10.8712 8.23179 10.9447C8.3035 10.9815 8.38354 11 8.46358 11C8.54362 11 8.62366 10.9815 8.69538 10.9447L12.7682 8.85653C12.9116 8.78303 13 8.64713 13 8.49998ZM8.92717 9.87519V7.12477L11.6093 8.49998L8.92717 9.87519Z" fill="white"/>
<rect x="0.5" y="0.5" width="20" height="16" rx="1.5" stroke="white"/>
<rect y="4" width="20" height="1" fill="white"/>
<rect y="12" width="20" height="1" fill="white"/>
<rect x="4" y="13" width="1" height="3" fill="white"/>
<rect x="8" y="13" width="1" height="3" fill="white"/>
<rect x="12" y="13" width="1" height="3" fill="white"/>
<rect x="16" y="13" width="1" height="3" fill="white"/>
<rect x="4" y="1" width="1" height="3" fill="white"/>
<rect x="8" y="1" width="1" height="3" fill="white"/>
<rect x="12" y="1" width="1" height="3" fill="white"/>
<rect x="16" y="1" width="1" height="3" fill="white"/>
</svg>
