<svg width="53" height="30" viewBox="0 0 53 30" fill="none" xmlns="http://www.w3.org/2000/svg">
<g clip-path="url(#clip0)">
<path d="M52.6846 9.86455C52.6846 9.86455 52.376 7.79059 51.4297 6.87606C50.23 5.67691 48.8841 5.6714 48.267 5.60079C43.8506 5.29411 37.2272 5.29411 37.2272 5.29411H37.2134C37.2134 5.29411 30.5876 5.29411 26.1712 5.59859C25.5541 5.66919 24.214 5.67471 23.0086 6.87385C22.0622 7.78838 21.7537 9.86234 21.7537 9.86234C21.5573 11.48 21.452 13.1066 21.4382 14.7351V17.0197C21.452 18.6482 21.5573 20.2748 21.7537 21.8924C21.7537 21.8924 22.0622 23.9675 23.0086 24.8809C24.2094 26.0801 25.7867 26.0426 26.489 26.1683C29.0138 26.3989 37.2203 26.4706 37.2203 26.4706C37.2203 26.4706 43.8529 26.4607 48.2728 26.1562C48.8899 26.0867 50.2358 26.0801 51.4354 24.8809C52.3818 23.9675 52.6903 21.8924 52.6903 21.8924C52.8847 20.2754 52.9881 18.6496 53 17.0219V14.7373C52.9862 13.1088 52.8809 11.4822 52.6846 9.86455Z" fill="#B12626"/>
<path d="M19.8128 22.5641H17.7991V21.414C17.0363 22.278 16.3889 22.7134 15.6838 22.7134C15.0653 22.7134 14.636 22.4262 14.4202 21.9052C14.2898 21.5884 14.1975 21.0936 14.1975 20.3664V11.9939H16.2101V20.5761C16.2574 20.8702 16.3832 20.9774 16.6393 20.9774C17.0248 20.9774 17.3733 20.6468 17.7991 20.0529V11.9939H19.8128V22.5641Z" fill="white"/>
<path d="M12.7145 15.4478C12.7145 14.3182 12.4837 13.4701 12.0786 12.94C11.5397 12.2128 10.7008 11.9221 9.85261 11.9221C8.89366 11.9221 8.16318 12.2173 7.62774 12.9412C7.21577 13.4746 6.9942 14.3318 6.9942 15.4615V19.2231C6.9942 20.3459 7.19038 21.1222 7.60235 21.6499C7.86774 21.9931 8.20966 22.2712 8.60153 22.4626C8.99341 22.654 9.42468 22.7535 9.86185 22.7535C10.299 22.7535 10.7303 22.654 11.1222 22.4626C11.514 22.2712 11.856 21.9931 12.1213 21.6499C12.5275 21.1222 12.7156 20.3459 12.7156 19.2231L12.7145 15.4478ZM10.7008 19.4249C10.807 20.4713 10.4781 20.9911 9.85261 20.9911C9.22716 20.9911 8.89943 20.4713 9.00098 19.4249V15.2392C8.89481 14.1916 9.22369 13.7015 9.848 13.7015C10.4723 13.7015 10.8035 14.1916 10.6973 15.2392L10.7008 19.4249Z" fill="white"/>
<path d="M4.76825 16.8088V22.5641H2.65416V16.8088C2.65416 16.8088 0.461593 9.75172 0 8.43628H2.22488L3.7112 13.9488L5.19292 8.43628H7.41664L4.76825 16.8088Z" fill="white"/>
<path d="M50.4359 17.6455V15.5059C50.4359 14.3888 50.2131 13.5681 49.8127 13.0414C49.275 12.3267 48.511 11.9471 47.5486 11.9471C46.5862 11.9471 45.8061 12.3267 45.251 13.0414C44.8437 13.5704 44.606 14.4344 44.606 15.5492V19.2174C44.606 20.3276 44.8668 21.1062 45.2741 21.6294C45.8292 22.3441 46.5931 22.7009 47.5959 22.7009C48.5987 22.7009 49.3857 22.3259 49.9166 21.5667C50.1523 21.2257 50.3055 20.8356 50.3643 20.4268C50.4087 20.0175 50.4314 19.6062 50.4324 19.1946V18.8982H48.4187C48.4187 19.6585 48.4187 20.1099 48.4049 20.2136C48.2952 20.7198 48.0194 20.974 47.5474 20.974C46.8885 20.974 46.6104 20.4872 46.6173 19.5217V17.6455H50.4359ZM46.6208 14.92C46.6208 13.942 46.892 13.6752 47.5336 13.6752C48.1752 13.6752 48.4222 13.9659 48.4222 14.9291V16.069H46.6208V14.92Z" fill="white"/>
<path d="M41.5433 11.9311C40.8382 11.9311 40.1366 12.3597 39.5169 13.1132V8.54111H37.6117V22.5618H39.5192V21.5085C40.1585 22.2951 40.8613 22.6997 41.5433 22.6997C42.3072 22.6997 42.8658 22.2951 43.122 21.5176C43.2489 21.0742 43.3331 20.3926 43.3331 19.4248V15.2391C43.3331 14.2486 43.205 13.5703 43.077 13.1497C42.8208 12.3666 42.3072 11.9311 41.5433 11.9311ZM41.3206 19.5297C41.3206 20.5761 41.0702 20.9773 40.5128 20.9773C40.1966 20.9773 39.8331 20.8166 39.5123 20.4997V14.1528C39.8331 13.8405 40.1943 13.6752 40.5105 13.6752C41.0633 13.6752 41.3183 13.983 41.3183 15.0294L41.3206 19.5297Z" fill="white"/>
<path d="M36.0226 22.5641H34.0101V21.4139C33.2461 22.2779 32.5999 22.7134 31.8948 22.7134C31.2763 22.7134 30.8459 22.4261 30.6312 21.9052C30.4997 21.5883 30.4073 21.0936 30.4073 20.3663V12.0987H32.4199V20.5761C32.4672 20.8702 32.593 20.9773 32.8492 20.9773C33.2346 20.9773 33.5843 20.6468 34.0101 20.0529V12.0987H36.0226V22.5641Z" fill="white"/>
<path d="M28.3948 22.5641H26.275V10.5291H24.0501V8.54339L30.7247 8.54111V10.5291H28.3948V22.5641Z" fill="white"/>
</g>
<defs>
<clipPath id="clip0">
<rect width="53" height="30" fill="white"/>
</clipPath>
</defs>
</svg>
