<svg width="12" height="13" viewBox="0 0 12 13" fill="none" xmlns="http://www.w3.org/2000/svg">
<path d="M3.72691 11.5723C5.39419 11.5723 6.74578 10.9309 6.74578 10.1397C6.74578 9.34849 5.39419 8.70709 3.72691 8.70709C2.05963 8.70709 0.708038 9.34849 0.708038 10.1397C0.708038 10.9309 2.05963 11.5723 3.72691 11.5723Z" fill="#E55327"/>
<path d="M6.74578 9.55481H0.708038V10.1407H6.74578V9.55481Z" fill="#E55327"/>
<path fill-rule="evenodd" clip-rule="evenodd" d="M3.72691 10.9874C5.38729 10.9874 6.74578 10.3434 6.74578 9.55481C6.74578 8.76621 5.38729 8.12219 3.72691 8.12219C2.06653 8.12219 0.708038 8.76621 0.708038 9.55481C0.708038 10.3434 2.05997 10.9874 3.72691 10.9874Z" fill="#E55327"/>
<path fill-rule="evenodd" clip-rule="evenodd" d="M3.72691 10.7053C5.17072 10.7053 6.35202 10.1862 6.35202 9.55531C6.35202 8.91786 5.17072 8.40527 3.72691 8.40527C2.28311 8.40527 1.10181 8.92443 1.10181 9.55531C1.10181 10.1928 2.28311 10.7053 3.72691 10.7053Z" fill="#F38053"/>
<path d="M4.01565 8.87793C4.14034 8.89108 4.24535 8.92393 4.3241 8.95679C4.43567 9.00937 4.51442 9.07508 4.54067 9.16709L4.07472 9.19337C4.06159 9.16051 4.0419 9.13423 4.00909 9.11451V8.87793H4.01565ZM4.01565 9.41681C4.22566 9.44967 4.3766 9.4891 4.46192 9.54167C4.56692 9.60081 4.61943 9.67967 4.61943 9.77168C4.61943 9.87682 4.5538 9.96225 4.41598 10.0345C4.31098 10.0871 4.17972 10.1265 4.00909 10.1528V9.94911C4.03534 9.94254 4.05503 9.9294 4.07472 9.91625C4.13378 9.88339 4.16003 9.84396 4.16003 9.80453C4.16003 9.7651 4.13378 9.73225 4.08784 9.70596C4.06815 9.69282 4.0419 9.67967 4.00253 9.6731V9.41681H4.01565ZM3.59563 9.96225V9.60081C3.55626 9.59424 3.51688 9.58767 3.4775 9.5811V9.31823C3.51032 9.33138 3.5497 9.34452 3.59563 9.35109V9.0488C3.5497 9.05537 3.51032 9.06851 3.4775 9.08165V8.87136C3.51688 8.86479 3.55626 8.86479 3.59563 8.86479V8.77936H3.85815V8.86479C3.91065 8.86479 3.96315 8.87136 4.01565 8.87793V9.11451C3.97627 9.08823 3.92377 9.06851 3.85815 9.05537V9.39709C3.91065 9.40366 3.96315 9.41024 4.01565 9.41681V9.66653C3.97627 9.65339 3.92377 9.64681 3.85815 9.63367V9.9754C3.91721 9.96882 3.96971 9.96225 4.01565 9.94254V10.1463C3.96971 10.1528 3.91721 10.1594 3.85815 10.1594V10.3237H3.59563V10.166C3.55626 10.166 3.51688 10.1594 3.4775 10.1528V9.91625C3.51688 9.94254 3.55626 9.95568 3.59563 9.96225ZM3.4775 9.5811C3.30031 9.54824 3.16249 9.50881 3.07061 9.44967C2.95905 9.38395 2.89998 9.30509 2.89998 9.21309C2.89998 9.12108 2.96561 9.03565 3.0903 8.97651C3.19531 8.92393 3.32 8.89108 3.4775 8.87136V9.08165C3.45782 9.08823 3.43813 9.10137 3.425 9.10794C3.38563 9.13423 3.35937 9.16709 3.35937 9.19994C3.35937 9.2328 3.37906 9.25909 3.41844 9.28537C3.43813 9.29852 3.45782 9.30509 3.4775 9.31823V9.5811ZM3.4775 10.166C3.32 10.1463 3.18874 10.1134 3.07718 10.0608C2.94592 10.0017 2.8606 9.90968 2.82123 9.79796L3.30031 9.77168C3.32 9.81768 3.35938 9.85711 3.41188 9.88997C3.43157 9.90311 3.45125 9.91625 3.47094 9.92282V10.166H3.4775Z" fill="#E55327"/>
<path fill-rule="evenodd" clip-rule="evenodd" d="M5.76137 10.81C7.42175 10.81 8.78024 10.166 8.78024 9.37738C8.78024 8.58878 7.42175 7.94476 5.76137 7.94476C4.10099 7.94476 2.74249 8.58878 2.74249 9.37738C2.74249 10.166 4.10099 10.81 5.76137 10.81Z" fill="#E55327"/>
<path d="M8.78024 8.79254H2.74249V9.37839H8.78024V8.79254Z" fill="#E55327"/>
<path d="M5.76137 10.2251C7.42864 10.2251 8.78024 9.58375 8.78024 8.79254C8.78024 8.00133 7.42864 7.35992 5.76137 7.35992C4.09409 7.35992 2.74249 8.00133 2.74249 8.79254C2.74249 9.58375 4.09409 10.2251 5.76137 10.2251Z" fill="#E55327"/>
<path d="M5.76137 9.94301C7.21117 9.94301 8.38647 9.42813 8.38647 8.79298C8.38647 8.15783 7.21117 7.64294 5.76137 7.64294C4.31156 7.64294 3.13626 8.15783 3.13626 8.79298C3.13626 9.42813 4.31156 9.94301 5.76137 9.94301Z" fill="#F38053"/>
<path d="M6.05667 8.11566C6.18136 8.12881 6.28636 8.16167 6.36512 8.19452C6.47668 8.2471 6.55544 8.31281 6.58169 8.40482L6.11573 8.4311C6.10261 8.39824 6.08292 8.37196 6.0501 8.35224V8.11566H6.05667ZM6.05667 8.65454C6.26667 8.6874 6.41762 8.72683 6.50293 8.7794C6.60794 8.83854 6.66044 8.9174 6.66044 9.00941C6.66044 9.11455 6.59481 9.19998 6.457 9.27227C6.35199 9.32484 6.22074 9.36427 6.0501 9.39056V9.18684C6.07635 9.18027 6.09604 9.16712 6.12229 9.15398C6.18136 9.12112 6.20761 9.08169 6.20761 9.04226C6.20761 9.00283 6.18136 8.96998 6.13542 8.94369C6.11573 8.93055 6.08948 8.9174 6.0501 8.91083V8.65454H6.05667ZM5.63009 9.20655V8.84511C5.59071 8.83854 5.55133 8.83197 5.51196 8.8254V8.56254C5.54477 8.57568 5.58415 8.58882 5.63009 8.59539V8.2931C5.58415 8.29967 5.54477 8.31281 5.51196 8.32596V8.10909C5.55133 8.10252 5.59071 8.10252 5.63009 8.10252V8.01709H5.8926V8.10252C5.9451 8.10252 5.9976 8.10909 6.0501 8.11566V8.35224C6.01073 8.32596 5.95823 8.30624 5.8926 8.2931V8.63482C5.9451 8.64139 5.9976 8.64797 6.0501 8.65454V8.90426C6.01073 8.89112 5.95823 8.88454 5.8926 8.8714V9.21313C5.95166 9.20655 6.00416 9.19998 6.0501 9.18027V9.38399C6.00416 9.39056 5.95166 9.39713 5.8926 9.39713V9.56142H5.63009V9.4037C5.59071 9.4037 5.55133 9.39713 5.51196 9.39056V9.15398C5.55133 9.18027 5.59071 9.19341 5.63009 9.20655ZM5.51196 8.81883C5.33476 8.78597 5.19695 8.74654 5.10507 8.6874C4.9935 8.62168 4.93444 8.54282 4.93444 8.45082C4.93444 8.35881 5.00006 8.27338 5.12476 8.21424C5.22976 8.16167 5.35445 8.12881 5.51196 8.10909V8.31938C5.49227 8.32596 5.47258 8.3391 5.45946 8.34567C5.41352 8.37196 5.39383 8.40482 5.39383 8.43767C5.39383 8.47053 5.41352 8.49682 5.45289 8.52311C5.47258 8.53625 5.49227 8.54282 5.51196 8.55596V8.81883ZM5.51196 9.4037C5.35445 9.38399 5.2232 9.35113 5.11163 9.29856C4.98037 9.23941 4.89506 9.14741 4.85568 9.03569L5.33476 9.00941C5.35445 9.05541 5.39383 9.09484 5.44633 9.12769C5.46602 9.14084 5.48571 9.15398 5.5054 9.16055V9.4037H5.51196Z" fill="#E55327"/>
<path fill-rule="evenodd" clip-rule="evenodd" d="M3.32002 9.58111C4.9804 9.58111 6.33889 8.93709 6.33889 8.14849C6.33889 7.3599 4.9804 6.71588 3.32002 6.71588C1.65964 6.71588 0.301147 7.3599 0.301147 8.14849C0.301147 8.93709 1.65964 9.58111 3.32002 9.58111Z" fill="#E55327"/>
<path d="M6.33889 7.5636H0.301147V8.14945H6.33889V7.5636Z" fill="#E55327"/>
<path d="M3.32002 8.99627C4.9873 8.99627 6.33889 8.35487 6.33889 7.56366C6.33889 6.77245 4.9873 6.13104 3.32002 6.13104C1.65274 6.13104 0.301147 6.77245 0.301147 7.56366C0.301147 8.35487 1.65274 8.99627 3.32002 8.99627Z" fill="#E55327"/>
<path d="M3.32002 8.71419C4.76983 8.71419 5.94513 8.1993 5.94513 7.56416C5.94513 6.92901 4.76983 6.41412 3.32002 6.41412C1.87022 6.41412 0.694916 6.92901 0.694916 7.56416C0.694916 8.1993 1.87022 8.71419 3.32002 8.71419Z" fill="#F38053"/>
<path d="M3.61532 6.88678C3.74002 6.89993 3.84502 6.93278 3.92377 6.96564C4.03534 7.01821 4.11409 7.08393 4.14034 7.17593L3.67439 7.20222C3.66126 7.16936 3.64157 7.14308 3.60876 7.12336V6.88678H3.61532ZM3.61532 7.42565C3.82533 7.45851 3.97628 7.49794 4.06159 7.55052C4.1666 7.60966 4.2191 7.68852 4.2191 7.78052C4.2191 7.88567 4.15347 7.9711 4.01565 8.04339C3.91065 8.09596 3.77939 8.13539 3.60876 8.16168V7.95796C3.63501 7.95138 3.6547 7.93824 3.67439 7.9251C3.73345 7.89224 3.7597 7.85281 3.7597 7.81338C3.7597 7.77395 3.73345 7.74109 3.68751 7.71481C3.66783 7.70166 3.64157 7.68852 3.6022 7.68195V7.42565H3.61532ZM3.19531 7.9711V7.60966C3.15593 7.60309 3.11655 7.59652 3.07718 7.58994V7.32708C3.10999 7.34022 3.14937 7.35337 3.19531 7.35994V7.05764C3.14937 7.06422 3.10999 7.07736 3.07718 7.0905V6.88021C3.11655 6.87364 3.15593 6.87364 3.19531 6.87364V6.78821H3.45782V6.87364C3.51032 6.87364 3.56282 6.88021 3.61532 6.88678V7.12336C3.57595 7.09707 3.52344 7.07736 3.45782 7.06422V7.40594C3.51032 7.41251 3.56282 7.41908 3.61532 7.42565V7.67538C3.57595 7.66223 3.52344 7.65566 3.45782 7.64252V7.98424C3.51688 7.97767 3.56938 7.9711 3.61532 7.95138V8.1551C3.56938 8.16168 3.51688 8.16825 3.45782 8.16825V8.33254H3.19531V8.17482C3.15593 8.17482 3.11655 8.16825 3.07718 8.16168V7.9251C3.10999 7.95138 3.14937 7.96453 3.19531 7.9711ZM3.07061 7.58994C2.89342 7.55709 2.7556 7.51766 2.66372 7.45851C2.55216 7.3928 2.49309 7.31394 2.49309 7.22193C2.49309 7.12993 2.55872 7.0445 2.68341 6.98536C2.78841 6.93278 2.91311 6.89993 3.07061 6.88021V7.0905C3.05093 7.09707 3.03124 7.11022 3.01811 7.11679C2.97873 7.14308 2.95248 7.17593 2.95248 7.20879C2.95248 7.24165 2.97217 7.26794 3.01155 7.29422C3.03124 7.30737 3.05093 7.31394 3.07061 7.32708V7.58994ZM3.07061 8.16825C2.91311 8.14853 2.78185 8.11567 2.67028 8.0631C2.53903 8.00396 2.45371 7.91195 2.41434 7.80024L2.89342 7.77395C2.91311 7.81995 2.95248 7.85938 3.00499 7.89224C3.02467 7.90538 3.04436 7.91853 3.06405 7.9251V8.16825H3.07061Z" fill="#E55327"/>
<path d="M5.47917 8.54278C7.14644 8.54278 8.49804 7.90138 8.49804 7.11017C8.49804 6.31895 7.14644 5.67755 5.47917 5.67755C3.81189 5.67755 2.4603 6.31895 2.4603 7.11017C2.4603 7.90138 3.81189 8.54278 5.47917 8.54278Z" fill="#E55327"/>
<path d="M8.49804 6.52533H2.4603V7.11118H8.49804V6.52533Z" fill="#E55327"/>
<path d="M5.47917 7.95794C7.14644 7.95794 8.49804 7.31654 8.49804 6.52533C8.49804 5.73412 7.14644 5.09271 5.47917 5.09271C3.81189 5.09271 2.4603 5.73412 2.4603 6.52533C2.4603 7.31654 3.81189 7.95794 5.47917 7.95794Z" fill="#E55327"/>
<path fill-rule="evenodd" clip-rule="evenodd" d="M5.47917 7.67586C6.92298 7.67586 8.10428 7.1567 8.10428 6.52583C8.10428 5.88838 6.92298 5.37579 5.47917 5.37579C4.03536 5.37579 2.85406 5.89495 2.85406 6.52583C2.85406 7.1567 4.03536 7.67586 5.47917 7.67586Z" fill="#F38053"/>
<path d="M5.77447 5.84843C5.89916 5.86158 6.00417 5.89443 6.08292 5.92729C6.19449 5.97986 6.27324 6.04558 6.29949 6.13758L5.83354 6.16387C5.82041 6.13101 5.80072 6.10473 5.76791 6.08501V5.84843H5.77447ZM5.77447 6.38731C5.98448 6.42016 6.13542 6.45959 6.22074 6.51217C6.32574 6.57131 6.37825 6.65017 6.37825 6.74217C6.37825 6.84732 6.31262 6.93275 6.1748 7.00504C6.0698 7.05761 5.93854 7.09704 5.76791 7.12333V6.91961C5.79416 6.91304 5.81385 6.89989 5.83354 6.88675C5.8926 6.85389 5.91885 6.81446 5.91885 6.77503C5.91885 6.7356 5.8926 6.70274 5.84666 6.67646C5.82697 6.66331 5.80072 6.65017 5.76135 6.6436V6.38731H5.77447ZM5.35445 6.93275V6.57131C5.31508 6.56474 5.2757 6.55817 5.23632 6.5516V6.28873C5.26914 6.30187 5.30851 6.31502 5.35445 6.32159V6.01929C5.30851 6.02587 5.26914 6.03901 5.23632 6.05215V5.84186C5.2757 5.83529 5.31508 5.83529 5.35445 5.83529V5.74329H5.61697V5.82872C5.66947 5.82872 5.72197 5.83529 5.77447 5.84186V6.07844C5.73509 6.05215 5.68259 6.03244 5.61697 6.01929V6.36102C5.66947 6.36759 5.72197 6.37416 5.77447 6.38073V6.63046C5.73509 6.61731 5.68259 6.61074 5.61697 6.5976V6.93932C5.67603 6.93275 5.72853 6.92618 5.77447 6.90646V7.11018C5.72853 7.11676 5.67603 7.12333 5.61697 7.12333V7.28762H5.35445V7.1299C5.31508 7.1299 5.2757 7.12333 5.23632 7.11676V6.88018C5.26914 6.91304 5.30851 6.92618 5.35445 6.93275ZM5.23632 6.5516C5.05913 6.51874 4.92131 6.47931 4.82943 6.42016C4.71787 6.35445 4.6588 6.27559 4.6588 6.18358C4.6588 6.09158 4.72443 6.00615 4.84912 5.94701C4.95413 5.89443 5.07882 5.86158 5.23632 5.84186V6.05215C5.21664 6.05872 5.19695 6.07187 5.18382 6.07844C5.13788 6.10473 5.11819 6.13758 5.11819 6.17044C5.11819 6.2033 5.13788 6.22959 5.17726 6.25587C5.19695 6.26902 5.21664 6.27559 5.23632 6.28873V6.5516ZM5.23632 7.1299C5.07882 7.11018 4.94756 7.07733 4.836 7.02475C4.70474 6.96561 4.61942 6.87361 4.58005 6.76189L5.05913 6.7356C5.07882 6.7816 5.11819 6.82103 5.1707 6.85389C5.19038 6.86703 5.21007 6.88018 5.22976 6.88675V7.1299H5.23632Z" fill="#E55327"/>
<path d="M4.55382 7.50445C6.22109 7.50445 7.57269 6.86305 7.57269 6.07184C7.57269 5.28062 6.22109 4.63922 4.55382 4.63922C2.88654 4.63922 1.53494 5.28062 1.53494 6.07184C1.53494 6.86305 2.88654 7.50445 4.55382 7.50445Z" fill="#E55327"/>
<path d="M7.57269 5.487H1.53494V6.07285H7.57269V5.487Z" fill="#E55327"/>
<path fill-rule="evenodd" clip-rule="evenodd" d="M4.55382 6.91302C6.2142 6.91302 7.57269 6.269 7.57269 5.4804C7.57269 4.69181 6.2142 4.04779 4.55382 4.04779C2.89344 4.04779 1.53494 4.69181 1.53494 5.4804C1.53494 6.27557 2.89344 6.91302 4.55382 6.91302Z" fill="#E55327"/>
<path fill-rule="evenodd" clip-rule="evenodd" d="M4.55382 6.63747C5.99763 6.63747 7.17893 6.11831 7.17893 5.48744C7.17893 4.84999 5.99763 4.3374 4.55382 4.3374C3.11001 4.3374 1.92871 4.85656 1.92871 5.48744C1.92871 6.11831 3.11001 6.63747 4.55382 6.63747Z" fill="#F38053"/>
<path d="M4.84912 4.81012C4.97381 4.82327 5.07882 4.85612 5.15757 4.88898C5.26914 4.94155 5.34789 5.00727 5.37414 5.09927L4.90818 5.12556C4.89506 5.0927 4.87537 5.06641 4.84256 5.0467V4.81012H4.84912ZM4.84912 5.34899C5.05913 5.38185 5.21007 5.42128 5.29539 5.47385C5.40039 5.533 5.45289 5.61186 5.45289 5.70386C5.45289 5.80901 5.38727 5.89444 5.24945 5.96673C5.14444 6.0193 5.01319 6.05873 4.84256 6.08501V5.87472C4.86881 5.86815 4.88849 5.85501 4.90818 5.84186C4.96725 5.80901 4.9935 5.76958 4.9935 5.73015C4.9935 5.69072 4.96725 5.65786 4.92131 5.63157C4.90162 5.61843 4.87537 5.60529 4.83599 5.59872V5.34899H4.84912ZM4.4291 5.89444V5.533C4.38972 5.52643 4.35035 5.51986 4.31097 5.51328V5.25042C4.34379 5.26356 4.38316 5.27671 4.4291 5.28328V4.98098C4.38316 4.98756 4.34379 5.0007 4.31097 5.01384V4.80355C4.35035 4.79698 4.38972 4.79698 4.4291 4.79698V4.71155H4.69161V4.79698C4.74411 4.79698 4.79662 4.80355 4.84912 4.81012V5.0467C4.80974 5.02041 4.75724 5.0007 4.69161 4.98756V5.32928C4.74411 5.33585 4.79662 5.34242 4.84912 5.34899V5.59872C4.80974 5.58557 4.75724 5.579 4.69161 5.56586V5.90758C4.75068 5.90101 4.80318 5.89444 4.84912 5.87472V6.08501C4.80318 6.09159 4.75068 6.09816 4.69161 6.09816V6.26245H4.4291V6.10473C4.38972 6.10473 4.35035 6.09816 4.31097 6.09159V5.85501C4.34379 5.87472 4.38316 5.88787 4.4291 5.89444ZM4.30441 5.51328C4.12721 5.48043 3.9894 5.441 3.89752 5.38185C3.78595 5.31614 3.72689 5.23728 3.72689 5.14527C3.72689 5.05327 3.79251 4.96784 3.91721 4.9087C4.02221 4.85612 4.1469 4.82327 4.30441 4.80355V5.01384C4.28472 5.02041 4.26503 5.03356 4.25191 5.04013C4.21253 5.06642 4.18628 5.09927 4.18628 5.13213C4.18628 5.16499 4.20597 5.19128 4.24534 5.21756C4.26503 5.23071 4.28472 5.23728 4.30441 5.25042V5.51328ZM4.30441 6.09159C4.1469 6.07187 4.01565 6.03901 3.90408 5.98644C3.77282 5.9273 3.68751 5.83529 3.64813 5.72358L4.12721 5.69729C4.1469 5.74329 4.18628 5.78272 4.23878 5.81558C4.25847 5.82872 4.27816 5.84186 4.29785 5.84844V6.09159H4.30441Z" fill="#E55327"/>
<path fill-rule="evenodd" clip-rule="evenodd" d="M5.32823 6.68304C6.98861 6.68304 8.3471 6.03902 8.3471 5.25043C8.3471 4.46183 6.98861 3.81781 5.32823 3.81781C3.66785 3.81781 2.30936 4.46183 2.30936 5.25043C2.30936 6.03902 3.66129 6.68304 5.32823 6.68304Z" fill="#E55327"/>
<path d="M8.3471 4.66553H2.30936V5.25138H8.3471V4.66553Z" fill="#E55327"/>
<path fill-rule="evenodd" clip-rule="evenodd" d="M5.32823 6.09814C6.98861 6.09814 8.3471 5.45412 8.3471 4.66552C8.3471 3.87693 6.98861 3.23291 5.32823 3.23291C3.66785 3.23291 2.30936 3.87693 2.30936 4.66552C2.30936 5.45412 3.66129 6.09814 5.32823 6.09814Z" fill="#E55327"/>
<path fill-rule="evenodd" clip-rule="evenodd" d="M5.32823 5.81606C6.77204 5.81606 7.95334 5.2969 7.95334 4.66603C7.95334 4.02858 6.77204 3.51599 5.32823 3.51599C3.88442 3.51599 2.70312 4.03515 2.70312 4.66603C2.70313 5.30347 3.87786 5.81606 5.32823 5.81606Z" fill="#F38053"/>
<path d="M5.617 3.98867C5.74169 4.00181 5.8467 4.03467 5.92545 4.06753C6.03702 4.1201 6.11577 4.18582 6.14202 4.27782L5.68263 4.30411C5.6695 4.27125 5.64981 4.24496 5.617 4.22525V3.98867ZM5.617 4.52754C5.82701 4.5604 5.97795 4.59983 6.06327 4.6524C6.16827 4.71155 6.22078 4.79041 6.22078 4.88241C6.22078 4.98756 6.15515 5.07299 6.01733 5.14528C5.91233 5.19785 5.78107 5.23728 5.61044 5.26356V5.05327C5.63669 5.0467 5.65638 5.03356 5.67607 5.02041C5.73513 4.98756 5.76138 4.94813 5.76138 4.9087C5.76138 4.86927 5.73513 4.83641 5.68919 4.81012C5.6695 4.79698 5.64325 4.78384 5.60388 4.77726V4.52754H5.617ZM5.19698 5.07956V4.71812C5.15761 4.71155 5.11823 4.70498 5.07885 4.69841V4.43554C5.11167 4.44868 5.15104 4.46183 5.19698 4.4684V4.1661C5.15104 4.17268 5.11167 4.18582 5.07885 4.19896V3.98867C5.11823 3.9821 5.15761 3.9821 5.19698 3.9821V3.89667H5.45949V3.9821C5.512 3.9821 5.5645 3.98867 5.617 3.99524V4.23182C5.57762 4.20553 5.52512 4.18582 5.45949 4.17268V4.5144C5.512 4.52097 5.5645 4.52754 5.617 4.53411V4.78384C5.57762 4.77069 5.52512 4.76412 5.45949 4.75098V5.08613C5.51856 5.07956 5.57106 5.07299 5.617 5.05327V5.26356C5.57106 5.27014 5.51856 5.27671 5.45949 5.27671V5.441H5.19698V5.28328C5.15761 5.28328 5.11823 5.27671 5.07885 5.27014V5.03356C5.11823 5.05327 5.15761 5.06642 5.19698 5.07956ZM5.07885 4.69183C4.90166 4.65898 4.76384 4.61955 4.67196 4.5604C4.56039 4.49468 4.50133 4.41583 4.50133 4.32382C4.50133 4.23182 4.56696 4.14639 4.69165 4.08724C4.79665 4.03467 4.92135 4.00181 5.07885 3.9821V4.19239C5.05917 4.19896 5.03948 4.21211 5.02635 4.21868C4.98698 4.24496 4.96072 4.27782 4.96072 4.31068C4.96072 4.34354 4.98041 4.36982 5.01979 4.39611C5.03948 4.40925 5.05917 4.41583 5.07885 4.42897V4.69183ZM5.07885 5.27671C4.92135 5.25699 4.79009 5.22414 4.67852 5.17156C4.54727 5.11242 4.46195 5.02041 4.42258 4.9087L4.90166 4.88241C4.92135 4.92841 4.96072 4.96784 5.01323 5.0007C5.03291 5.01384 5.0526 5.02699 5.07229 5.03356V5.27671H5.07885Z" fill="#E55327"/>
<path d="M4.2913 5.82873C5.95858 5.82873 7.31018 5.18733 7.31018 4.39611C7.31018 3.6049 5.95858 2.9635 4.2913 2.9635C2.62403 2.9635 1.27243 3.6049 1.27243 4.39611C1.27243 5.18733 2.62403 5.82873 4.2913 5.82873Z" fill="#E55327"/>
<path d="M7.31018 3.80469H1.27243V4.39054H7.31018V3.80469Z" fill="#E55327"/>
<path fill-rule="evenodd" clip-rule="evenodd" d="M4.2913 5.2373C5.95168 5.2373 7.31018 4.59328 7.31018 3.80468C7.31018 3.01609 5.95168 2.37207 4.2913 2.37207C2.63092 2.37207 1.27243 3.01609 1.27243 3.80468C1.27243 4.59328 2.62436 5.2373 4.2913 5.2373Z" fill="#E55327"/>
<path fill-rule="evenodd" clip-rule="evenodd" d="M4.29131 4.96175C5.73511 4.96175 6.91641 4.44259 6.91641 3.81172C6.91641 3.17427 5.73511 2.66168 4.29131 2.66168C2.8475 2.66168 1.6662 3.18084 1.6662 3.81172C1.6662 4.44259 2.84093 4.96175 4.29131 4.96175Z" fill="#F38053"/>
<path d="M4.58007 3.12783C4.70477 3.14097 4.80977 3.17383 4.88852 3.20669C5.00009 3.25926 5.07884 3.32498 5.10509 3.41698L4.63914 3.44327C4.62601 3.41041 4.60632 3.38412 4.57351 3.36441V3.12783H4.58007ZM4.58007 3.67327C4.79008 3.70613 4.94102 3.74556 5.02634 3.79814C5.13134 3.85728 5.18385 3.93614 5.18385 4.02814C5.18385 4.13329 5.11822 4.21872 4.9804 4.29101C4.8754 4.34358 4.74414 4.38301 4.57351 4.4093V4.199C4.59976 4.19243 4.61945 4.17929 4.63914 4.16615C4.6982 4.13329 4.72445 4.09386 4.72445 4.05443C4.72445 4.015 4.6982 3.98214 4.65226 3.95585C4.63258 3.94271 4.60632 3.92957 4.56695 3.923V3.67327H4.58007ZM4.16006 4.21872V3.85728C4.12068 3.85071 4.0813 3.84414 4.04193 3.83757V3.5747C4.07474 3.58784 4.11412 3.60099 4.16006 3.60756V3.30526C4.11412 3.31184 4.07474 3.32498 4.04193 3.33812V3.12783C4.0813 3.12126 4.12068 3.12126 4.16006 3.12126V3.03583H4.42257V3.11469C4.47507 3.11469 4.52757 3.12126 4.58007 3.12783V3.36441C4.5407 3.33812 4.48819 3.31841 4.42257 3.30526V3.64699C4.47507 3.65356 4.52757 3.66013 4.58007 3.6667V3.91642C4.5407 3.90328 4.48819 3.89671 4.42257 3.88357V4.23186C4.48163 4.22529 4.53413 4.21872 4.58007 4.199V4.4093C4.53413 4.41587 4.48163 4.42244 4.42257 4.42244V4.58673H4.16006V4.42901C4.12068 4.42901 4.0813 4.42244 4.04193 4.41587V4.17929C4.0813 4.19243 4.12068 4.21215 4.16006 4.21872ZM4.04193 3.83757C3.86473 3.80471 3.72691 3.76528 3.63504 3.70613C3.52347 3.64042 3.4644 3.56156 3.4644 3.46955C3.4644 3.37755 3.53003 3.29212 3.65472 3.23298C3.75973 3.1804 3.88442 3.14755 4.04193 3.12783V3.33812C4.02224 3.34469 4.00255 3.35784 3.98942 3.36441C3.95005 3.3907 3.9238 3.42355 3.9238 3.45641C3.9238 3.48927 3.94349 3.51556 3.98286 3.54184C4.00255 3.55499 4.02224 3.56156 4.04193 3.5747V3.83757ZM4.04193 4.41587C3.88442 4.39615 3.75317 4.36329 3.6416 4.31072C3.51034 4.25158 3.42503 4.15957 3.38565 4.04786L3.86473 4.02157C3.88442 4.06757 3.9238 4.107 3.9763 4.13986C3.99599 4.153 4.01568 4.16615 4.03536 4.17272V4.41587H4.04193Z" fill="#E55327"/>
<path d="M3.5366 5.03356C5.20388 5.03356 6.55547 4.39216 6.55547 3.60095C6.55547 2.80974 5.20388 2.16833 3.5366 2.16833C1.86933 2.16833 0.517731 2.80974 0.517731 3.60095C0.517731 4.39216 1.86933 5.03356 3.5366 5.03356Z" fill="#E55327"/>
<path d="M6.55547 3.01605H0.517731V3.6019H6.55547V3.01605Z" fill="#E55327"/>
<path fill-rule="evenodd" clip-rule="evenodd" d="M3.5366 4.44213C5.19698 4.44213 6.55547 3.79811 6.55547 3.00952C6.55547 2.22092 5.19698 1.5769 3.5366 1.5769C1.87622 1.5769 0.517731 2.22092 0.517731 3.00952C0.517731 3.80468 1.87622 4.44213 3.5366 4.44213Z" fill="#E55327"/>
<path fill-rule="evenodd" clip-rule="evenodd" d="M3.53661 4.16658C4.98042 4.16658 6.16172 3.64743 6.16172 3.01655C6.16172 2.3791 4.98042 1.86652 3.53661 1.86652C2.0928 1.86652 0.911499 2.38567 0.911499 3.01655C0.911499 3.64743 2.0928 4.16658 3.53661 4.16658Z" fill="#F38053"/>
<path d="M3.83191 2.33924C3.9566 2.35238 4.0616 2.38524 4.14036 2.4181C4.25192 2.47067 4.33068 2.53638 4.35693 2.62839L3.89753 2.65467C3.88441 2.62182 3.86472 2.59553 3.83191 2.57581V2.33924ZM3.83191 2.87811C4.04192 2.91097 4.19286 2.9504 4.27818 3.00297C4.38318 3.06211 4.43568 3.14097 4.43568 3.23298C4.43568 3.33812 4.37005 3.42355 4.23224 3.49584C4.12723 3.54841 3.99598 3.58784 3.82534 3.61413V3.41041C3.8516 3.40384 3.87128 3.3907 3.89097 3.37755C3.95004 3.34469 3.97629 3.30526 3.97629 3.26583C3.97629 3.22641 3.95004 3.19355 3.9041 3.16726C3.88441 3.15412 3.85816 3.14097 3.81878 3.1344V2.87811H3.83191ZM3.41189 3.42355V3.06211C3.37251 3.05554 3.33314 3.04897 3.29376 3.0424V2.77953C3.32657 2.79268 3.36595 2.80582 3.41189 2.81239V2.5101C3.36595 2.51667 3.32657 2.52981 3.29376 2.54296V2.33266C3.33314 2.32609 3.37251 2.32609 3.41189 2.32609V2.24066H3.6744V2.32609C3.7269 2.32609 3.7794 2.33266 3.83191 2.33924V2.57581C3.79253 2.54953 3.74003 2.52981 3.6744 2.51667V2.85839C3.7269 2.86497 3.7794 2.87154 3.83191 2.87811V3.12783C3.79253 3.11469 3.74003 3.10812 3.6744 3.09497V3.4367C3.73347 3.43013 3.78597 3.42355 3.83191 3.40384V3.60756C3.78597 3.61413 3.73347 3.6207 3.6744 3.6207V3.78499H3.41189V3.62727C3.37251 3.62727 3.33314 3.6207 3.29376 3.61413V3.37755C3.32657 3.40384 3.36595 3.41698 3.41189 3.42355ZM3.2872 3.0424C3.11 3.00954 2.97218 2.97011 2.88031 2.91097C2.76874 2.84525 2.70967 2.76639 2.70967 2.67439C2.70967 2.58239 2.7753 2.49695 2.89999 2.43781C3.005 2.38524 3.12969 2.35238 3.2872 2.33266V2.54296C3.26751 2.54953 3.24782 2.56267 3.2347 2.56924C3.19532 2.59553 3.16907 2.62839 3.16907 2.66125C3.16907 2.6941 3.18876 2.72039 3.22813 2.74668C3.24782 2.75982 3.26751 2.76639 3.2872 2.77953V3.0424ZM3.2872 3.62727C3.12969 3.60756 2.99844 3.5747 2.88687 3.52213C2.75561 3.46298 2.6703 3.37098 2.63092 3.25926L3.11 3.23298C3.12969 3.27898 3.16907 3.31841 3.22157 3.35127C3.24126 3.36441 3.26095 3.37755 3.28063 3.38412V3.62727H3.2872Z" fill="#E55327"/>
<path d="M4.90166 4.0028C6.56893 4.0028 7.92053 3.3614 7.92053 2.57019C7.92053 1.77898 6.56893 1.13757 4.90166 1.13757C3.23438 1.13757 1.88278 1.77898 1.88278 2.57019C1.88278 3.3614 3.23438 4.0028 4.90166 4.0028Z" fill="#E55327"/>
<path d="M7.92053 1.98431H1.88278V2.57016H7.92053V1.98431Z" fill="#E55327"/>
<path fill-rule="evenodd" clip-rule="evenodd" d="M4.90166 3.40954C6.56204 3.40954 7.92053 2.76552 7.92053 1.97693C7.92053 1.18833 6.56204 0.544312 4.90166 0.544312C3.24128 0.544312 1.88278 1.18833 1.88278 1.97693C1.88278 2.77209 3.24128 3.40954 4.90166 3.40954Z" fill="#E55327"/>
<path fill-rule="evenodd" clip-rule="evenodd" d="M4.90166 3.13478C6.34546 3.13478 7.52676 2.61563 7.52676 1.98475C7.52676 1.3473 6.34546 0.834717 4.90166 0.834717C3.45785 0.834717 2.27655 1.35387 2.27655 1.98475C2.27655 2.61563 3.45785 3.13478 4.90166 3.13478Z" fill="#F38053"/>
<path d="M5.19699 1.30748C5.32168 1.32062 5.42668 1.35348 5.50544 1.38634C5.617 1.43891 5.69576 1.50463 5.72201 1.59663L5.25605 1.62292C5.24293 1.59006 5.22324 1.56377 5.19042 1.54406V1.30748H5.19699ZM5.19699 1.84635C5.407 1.87921 5.55794 1.91864 5.64326 1.97121C5.74826 2.03036 5.80076 2.10922 5.80076 2.20122C5.80076 2.30636 5.73513 2.3918 5.59732 2.46408C5.49231 2.51666 5.36106 2.55609 5.19042 2.58237V2.37208C5.21668 2.36551 5.23636 2.35237 5.25605 2.33922C5.31512 2.30636 5.34137 2.26693 5.34137 2.2275C5.34137 2.18807 5.31512 2.15522 5.26918 2.12893C5.24949 2.11579 5.22324 2.10264 5.18386 2.09607V1.84635H5.19699ZM4.77697 2.3918V2.03036C4.73759 2.02378 4.69822 2.01721 4.65884 2.01064V1.74778C4.69165 1.76092 4.73103 1.77406 4.77697 1.78063V1.47834C4.73103 1.48491 4.69165 1.49805 4.65884 1.5112V1.30091C4.69822 1.29433 4.73759 1.29433 4.77697 1.29433V1.20233H5.03948V1.28776C5.09198 1.28776 5.14448 1.29433 5.19699 1.30091V1.53748C5.15761 1.5112 5.10511 1.49148 5.03948 1.47834V1.82006C5.09198 1.82664 5.14448 1.83321 5.19699 1.83978V2.0895C5.15761 2.07636 5.10511 2.06979 5.03948 2.05664V2.39837C5.09855 2.3918 5.15105 2.38522 5.19699 2.36551V2.5758C5.15105 2.58237 5.09855 2.58894 5.03948 2.58894V2.75323H4.77697V2.59552C4.73759 2.59552 4.69822 2.58894 4.65884 2.58237V2.34579C4.69165 2.37208 4.73103 2.38522 4.77697 2.3918ZM4.65884 2.01064C4.48165 1.97778 4.34383 1.93835 4.25195 1.87921C4.14038 1.81349 4.08132 1.73463 4.08132 1.64263C4.08132 1.55063 4.14694 1.4652 4.27164 1.40605C4.37664 1.35348 4.50133 1.32062 4.65884 1.30091V1.5112C4.63915 1.51777 4.61946 1.53091 4.60634 1.53748C4.56696 1.56377 4.54071 1.59663 4.54071 1.62949C4.54071 1.66235 4.5604 1.68863 4.59978 1.71492C4.61946 1.72806 4.63915 1.73463 4.65884 1.74778V2.01064ZM4.65884 2.58894C4.50133 2.56923 4.37008 2.53637 4.25851 2.4838C4.12726 2.42465 4.04194 2.33265 4.00256 2.22093L4.48165 2.19465C4.50133 2.24065 4.54071 2.28008 4.59321 2.31294C4.6129 2.32608 4.63259 2.33922 4.65228 2.34579V2.58894H4.65884Z" fill="#E55327"/>
<path fill-rule="evenodd" clip-rule="evenodd" d="M8.81306 12.9655C10.4734 12.9655 11.8319 11.6052 11.8319 9.94256C11.8319 8.27994 10.4734 6.91962 8.81306 6.91962C7.15268 6.91962 5.79419 8.27994 5.79419 9.94256C5.79419 11.6118 7.15268 12.9655 8.81306 12.9655Z" fill="#E55327"/>
<path fill-rule="evenodd" clip-rule="evenodd" d="M8.81305 12.3816C10.1519 12.3816 11.2478 11.2842 11.2478 9.94357C11.2478 8.60295 10.1519 7.50549 8.81305 7.50549C7.47425 7.50549 6.37827 8.60295 6.37827 9.94357C6.37827 11.2907 7.47425 12.3816 8.81305 12.3816Z" fill="#F38053"/>
<path d="M9.1084 8.51648C9.23309 8.54934 9.33809 8.60849 9.41685 8.68735C9.52842 8.79906 9.60717 8.94364 9.63342 9.12765L9.16746 9.18679C9.15434 9.12107 9.13465 9.0685 9.10184 9.0225V8.51648H9.1084ZM9.1084 9.65338C9.31841 9.72566 9.46935 9.81109 9.55467 9.91624C9.65967 10.0411 9.71217 10.2054 9.71217 10.4025C9.71217 10.626 9.64655 10.81 9.50873 10.9611C9.40372 11.0794 9.27247 11.1583 9.10184 11.2108V10.7706C9.12809 10.7508 9.14777 10.7311 9.16746 10.7048C9.22653 10.6391 9.25278 10.5537 9.25278 10.4617C9.25278 10.3763 9.22653 10.3105 9.18059 10.2514C9.1609 10.2251 9.13465 10.1988 9.09527 10.1791V9.65338H9.1084ZM8.68838 10.81V10.0411C8.649 10.028 8.60963 10.0148 8.57025 10.0017V9.44308C8.60306 9.46937 8.64244 9.49566 8.68838 9.51537V8.87792C8.64244 8.89107 8.60306 8.91735 8.57025 8.94364V8.50334C8.60963 8.49677 8.649 8.4902 8.68838 8.48363V8.29962H8.95089V8.48363C9.00339 8.4902 9.0559 8.50334 9.1084 8.51648V9.0225C9.06902 8.96335 9.01652 8.92393 8.95089 8.89764V9.61395C9.00339 9.62709 9.0559 9.6468 9.1084 9.65995V10.1922C9.06902 10.166 9.01652 10.1462 8.95089 10.1265V10.8428C9.00996 10.8297 9.06246 10.81 9.1084 10.7771V11.2174C9.06246 11.2306 9.00996 11.2437 8.95089 11.2503V11.592H8.68838V11.2569C8.649 11.2503 8.60963 11.2437 8.57025 11.2371V10.7311C8.60306 10.764 8.64244 10.7903 8.68838 10.81ZM8.56369 10.0017C8.38649 9.93596 8.24867 9.84395 8.15679 9.72566C8.04523 9.58766 7.98616 9.4168 7.98616 9.21965C7.98616 9.01593 8.05179 8.85164 8.17648 8.71363C8.28149 8.60192 8.40618 8.52963 8.56369 8.49677V8.94364C8.544 8.96336 8.52431 8.98307 8.51118 9.00279C8.47181 9.06193 8.44556 9.12765 8.44556 9.19993C8.44556 9.26565 8.46525 9.32479 8.50462 9.37737C8.52431 9.40365 8.544 9.42337 8.56369 9.44308V10.0017ZM8.56369 11.2306C8.40618 11.1911 8.27493 11.1188 8.16336 11.0137C8.0321 10.8823 7.94679 10.6983 7.90741 10.4551L8.38649 10.4025C8.40618 10.5011 8.44556 10.5865 8.49806 10.6588C8.51775 10.6851 8.53744 10.7114 8.55712 10.7311V11.2306H8.56369Z" fill="#E55327"/>
</svg>
