<svg width="136" height="136" viewBox="0 0 136 136" fill="none" xmlns="http://www.w3.org/2000/svg">
<path d="M6.1582 129.878C36.4362 123.046 104.613 92.5967 135.096 25.4586" stroke="#1FA357"/>
<path d="M6.1582 130.118C22.7085 94.9251 70.3579 39.3892 128.553 98.7925" stroke="#D53901"/>
<line x1="5.6582" y1="130.652" x2="5.6582" y2="12.3093" stroke="#A1A1A1"/>
<line x1="123.935" y1="130.378" x2="6.15826" y2="130.378" stroke="#A1A1A1"/>
<path d="M5.38846 0.707153L10.055 12.8895H0.721917L5.38846 0.707153Z" fill="#C4C4C4"/>
<path d="M132.402 129.878L120.278 134.567L120.278 125.189L132.402 129.878Z" fill="#C4C4C4"/>
<line x1="1.53955" y1="110.041" x2="10.0071" y2="110.041" stroke="#A1A1A1"/>
<line x1="28.2121" y1="126.011" x2="28.2121" y2="134.519" stroke="#A1A1A1"/>
<line x1="1.53955" y1="85.29" x2="10.0071" y2="85.29" stroke="#A1A1A1"/>
<line x1="52.8451" y1="126.011" x2="52.8451" y2="134.519" stroke="#A1A1A1"/>
<line x1="1.53955" y1="60.5387" x2="10.0071" y2="60.5387" stroke="#A1A1A1"/>
<line x1="77.4781" y1="126.011" x2="77.4781" y2="134.519" stroke="#A1A1A1"/>
<line x1="1.53955" y1="35.7873" x2="10.0071" y2="35.7873" stroke="#A1A1A1"/>
<line x1="102.111" y1="126.011" x2="102.111" y2="134.519" stroke="#A1A1A1"/>
</svg>
