<svg width="69" height="36" viewBox="0 0 69 36" fill="none" xmlns="http://www.w3.org/2000/svg">
<path d="M1.4 10.2C1.4 8.408 1.57733 6.87733 1.932 5.608C2.28667 4.33867 2.79067 3.30267 3.444 2.5C4.09733 1.67867 4.89067 1.08133 5.824 0.708C6.75733 0.315999 7.80267 0.119999 8.96 0.119999C9.76267 0.119999 10.4813 0.203999 11.116 0.371999C11.7693 0.521333 12.32 0.698666 12.768 0.903999C13.2907 1.128 13.748 1.38 14.14 1.66L12.88 3.9H12.6C12.3387 3.676 12.04 3.47067 11.704 3.284C11.4053 3.13467 11.0507 2.99467 10.64 2.864C10.2293 2.71467 9.76267 2.64 9.24 2.64C8.68 2.64 8.15733 2.76133 7.672 3.004C7.20533 3.228 6.79467 3.62933 6.44 4.208C6.08533 4.78667 5.80533 5.56133 5.6 6.532C5.41333 7.50267 5.32 8.72533 5.32 10.2C5.32 11.6747 5.42267 12.8973 5.628 13.868C5.83333 14.8387 6.11333 15.6133 6.468 16.192C6.84133 16.7707 7.28 17.1813 7.784 17.424C8.30667 17.648 8.88533 17.76 9.52 17.76C9.87467 17.76 10.192 17.7133 10.472 17.62C10.6213 17.5827 10.7707 17.536 10.92 17.48V11.6H7.98V9.08H13.72L14.84 10.2V18.74C14.448 19.0387 13.972 19.3 13.412 19.524C12.9267 19.7293 12.3387 19.9067 11.648 20.056C10.9573 20.2053 10.1547 20.28 9.24 20.28C8.008 20.28 6.90667 20.0933 5.936 19.72C4.96533 19.328 4.144 18.7307 3.472 17.928C2.8 17.1067 2.28667 16.0613 1.932 14.792C1.57733 13.5227 1.4 11.992 1.4 10.2ZM25.8956 11.04C25.8956 10.0507 25.681 9.34133 25.2516 8.912C24.8223 8.464 24.1503 8.24 23.2356 8.24C22.769 8.24 22.3583 8.296 22.0036 8.408C21.649 8.52 21.341 8.65067 21.0796 8.8C20.781 8.968 20.5196 9.15467 20.2956 9.36H20.0156L18.7556 7.12C19.1476 6.85867 19.5863 6.62533 20.0716 6.42C20.501 6.252 21.005 6.09333 21.5836 5.944C22.1623 5.79467 22.8063 5.72 23.5156 5.72C24.5236 5.72 25.4196 5.85067 26.2036 6.112C26.9876 6.37333 27.641 6.74667 28.1636 7.232C28.705 7.69867 29.1156 8.25867 29.3956 8.912C29.6756 9.56533 29.8156 10.2747 29.8156 11.04V20H27.0156L26.7356 18.32H26.5956C26.3156 18.6933 25.9983 19.02 25.6436 19.3C25.3263 19.5613 24.9343 19.7947 24.4676 20C24.001 20.1867 23.4503 20.28 22.8156 20.28C21.1356 20.28 19.8476 19.8787 18.9516 19.076C18.0743 18.2547 17.6356 17.2093 17.6356 15.94C17.6356 15.268 17.7476 14.6613 17.9716 14.12C18.2143 13.56 18.5876 13.084 19.0916 12.692C19.6143 12.3 20.2676 12.0013 21.0516 11.796C21.8543 11.572 22.8156 11.46 23.9356 11.46H25.8956V11.04ZM25.8956 13.98H23.9356C23.0956 13.98 22.489 14.148 22.1156 14.484C21.7423 14.82 21.5556 15.3053 21.5556 15.94C21.5556 16.4253 21.7236 16.8267 22.0596 17.144C22.3956 17.4613 22.881 17.62 23.5156 17.62C23.8703 17.62 24.1876 17.536 24.4676 17.368C24.7663 17.1813 25.0183 16.9853 25.2236 16.78C25.4663 16.5373 25.6903 16.2573 25.8956 15.94V13.98ZM43.9567 7.68C44.2554 7.32533 44.6194 6.99867 45.0487 6.7C45.4221 6.45733 45.8607 6.23333 46.3647 6.028C46.8874 5.82267 47.4847 5.72 48.1567 5.72C49.7061 5.72 50.9287 6.18667 51.8247 7.12C52.7394 8.03467 53.1967 9.34133 53.1967 11.04V20H49.2767V11.04C49.2767 10.1253 49.0901 9.45333 48.7167 9.024C48.3621 8.59467 47.9421 8.38 47.4567 8.38C47.1394 8.38 46.8501 8.45467 46.5887 8.604C46.3461 8.75333 46.1314 8.912 45.9447 9.08C45.7394 9.28533 45.5434 9.51867 45.3567 9.78V20H41.4367V11.04C41.4367 10.1253 41.2501 9.45333 40.8767 9.024C40.5221 8.59467 40.1021 8.38 39.6167 8.38C39.2621 8.38 38.9541 8.47333 38.6927 8.66C38.4314 8.828 38.2167 9.01467 38.0487 9.22C37.8434 9.46267 37.6661 9.74267 37.5167 10.06V20H33.5967V6H36.3967L36.6767 7.68H36.8167C37.0781 7.32533 37.3767 6.99867 37.7127 6.7C38.0114 6.45733 38.3754 6.23333 38.8047 6.028C39.2527 5.82267 39.7567 5.72 40.3167 5.72C41.0261 5.72 41.6047 5.82267 42.0527 6.028C42.5194 6.23333 42.8927 6.45733 43.1727 6.7C43.5087 6.99867 43.7701 7.32533 43.9567 7.68ZM62.2956 8.24C61.7356 8.24 61.2223 8.52933 60.7556 9.108C60.289 9.668 60.0556 10.5453 60.0556 11.74H64.5356C64.5356 10.5453 64.3023 9.668 63.8356 9.108C63.369 8.52933 62.8556 8.24 62.2956 8.24ZM63.1356 20.28C58.469 20.28 56.1356 17.8533 56.1356 13C56.1356 10.5547 56.6863 8.73467 57.7876 7.54C58.9076 6.32667 60.4103 5.72 62.2956 5.72C64.181 5.72 65.6743 6.308 66.7756 7.484C67.8956 8.66 68.4556 10.4053 68.4556 12.72V13.42L67.6156 14.26H60.0556C60.0556 16.5933 61.1756 17.76 63.4156 17.76C63.8636 17.76 64.265 17.704 64.6196 17.592C64.993 17.48 65.3103 17.3493 65.5716 17.2C65.8703 17.032 66.1316 16.8453 66.3556 16.64H66.6356L67.8956 18.88C67.485 19.1413 67.037 19.3747 66.5516 19.58C66.1223 19.7667 65.6183 19.9253 65.0396 20.056C64.4796 20.2053 63.845 20.28 63.1356 20.28ZM4 26.84C4.448 26.84 4.85333 26.8827 5.216 26.968C5.57867 27.0533 5.89867 27.144 6.176 27.24C6.496 27.3573 6.784 27.4907 7.04 27.64L6.32 28.92H6.16C6 28.8027 5.81867 28.696 5.616 28.6C5.43467 28.5147 5.22133 28.44 4.976 28.376C4.73067 28.312 4.45867 28.28 4.16 28.28C3.712 28.28 3.38667 28.3653 3.184 28.536C2.98133 28.696 2.88 28.8773 2.88 29.08C2.88 29.304 2.98667 29.4853 3.2 29.624C3.424 29.7627 3.696 29.8907 4.016 30.008C4.34667 30.1253 4.69867 30.2427 5.072 30.36C5.456 30.4773 5.808 30.632 6.128 30.824C6.45867 31.016 6.73067 31.2613 6.944 31.56C7.168 31.848 7.28 32.216 7.28 32.664C7.28 33.0267 7.21067 33.3627 7.072 33.672C6.944 33.9707 6.736 34.232 6.448 34.456C6.16 34.68 5.792 34.856 5.344 34.984C4.90667 35.1013 4.37867 35.16 3.76 35.16C3.28 35.16 2.83733 35.1173 2.432 35.032C2.02667 34.9573 1.68 34.8667 1.392 34.76C1.05067 34.6427 0.746667 34.5093 0.48 34.36L1.2 33.08H1.36C1.53067 33.1973 1.72267 33.304 1.936 33.4C2.11733 33.4853 2.34133 33.56 2.608 33.624C2.87467 33.688 3.17867 33.72 3.52 33.72C4.08533 33.72 4.48 33.6347 4.704 33.464C4.928 33.2827 5.04 33.0693 5.04 32.824C5.04 32.6 4.928 32.4187 4.704 32.28C4.49067 32.1413 4.21867 32.0133 3.888 31.896C3.568 31.7787 3.216 31.6613 2.832 31.544C2.45867 31.4267 2.10667 31.272 1.776 31.08C1.456 30.888 1.184 30.648 0.96 30.36C0.746667 30.072 0.64 29.6987 0.64 29.24C0.64 28.8987 0.704 28.584 0.832 28.296C0.970667 27.9973 1.17333 27.7413 1.44 27.528C1.71733 27.3147 2.06933 27.1493 2.496 27.032C2.92267 26.904 3.424 26.84 4 26.84ZM12.3256 28.28C12.0696 28.28 11.835 28.328 11.6216 28.424C11.419 28.5093 11.243 28.6587 11.0936 28.872C10.955 29.0747 10.843 29.352 10.7576 29.704C10.683 30.0453 10.6456 30.4773 10.6456 31C10.6456 31.5227 10.683 31.96 10.7576 32.312C10.843 32.6533 10.9603 32.9307 11.1096 33.144C11.2696 33.3467 11.4616 33.496 11.6856 33.592C11.9203 33.6773 12.187 33.72 12.4856 33.72C12.7416 33.72 12.971 33.688 13.1736 33.624C13.387 33.56 13.5683 33.4853 13.7176 33.4C13.8883 33.304 14.0376 33.1973 14.1656 33.08H14.3256L15.0456 34.36C14.811 34.5093 14.555 34.6427 14.2776 34.76C14.0323 34.8667 13.7443 34.9573 13.4136 35.032C13.0936 35.1173 12.731 35.16 12.3256 35.16C11.035 35.16 10.059 34.8187 9.39763 34.136C8.73629 33.4533 8.40563 32.408 8.40563 31C8.40563 29.592 8.73096 28.5467 9.38163 27.864C10.0323 27.1813 10.9603 26.84 12.1656 26.84C12.571 26.84 12.9336 26.8827 13.2536 26.968C13.5843 27.0533 13.8723 27.144 14.1176 27.24C14.395 27.3573 14.651 27.4907 14.8856 27.64L14.1656 28.92H14.0056C13.8776 28.8027 13.7283 28.696 13.5576 28.6C13.4083 28.5147 13.227 28.44 13.0136 28.376C12.811 28.312 12.5816 28.28 12.3256 28.28ZM21.1194 31C21.1194 30.4773 21.082 30.0453 21.0074 29.704C20.9327 29.352 20.8314 29.0747 20.7034 28.872C20.5754 28.6587 20.4207 28.5093 20.2394 28.424C20.0687 28.328 19.882 28.28 19.6794 28.28C19.4767 28.28 19.2847 28.328 19.1034 28.424C18.9327 28.5093 18.7834 28.6587 18.6554 28.872C18.5274 29.0747 18.426 29.352 18.3514 29.704C18.2767 30.0453 18.2394 30.4773 18.2394 31C18.2394 31.5227 18.2767 31.96 18.3514 32.312C18.426 32.6533 18.5274 32.9307 18.6554 33.144C18.7834 33.3467 18.9327 33.496 19.1034 33.592C19.2847 33.6773 19.4767 33.72 19.6794 33.72C19.882 33.72 20.0687 33.6773 20.2394 33.592C20.4207 33.496 20.5754 33.3467 20.7034 33.144C20.8314 32.9307 20.9327 32.6533 21.0074 32.312C21.082 31.96 21.1194 31.5227 21.1194 31ZM23.3594 31C23.3594 32.408 23.034 33.4533 22.3834 34.136C21.7434 34.8187 20.842 35.16 19.6794 35.16C18.5167 35.16 17.61 34.8187 16.9594 34.136C16.3194 33.4533 15.9994 32.408 15.9994 31C15.9994 29.592 16.3194 28.5467 16.9594 27.864C17.61 27.1813 18.5167 26.84 19.6794 26.84C20.842 26.84 21.7434 27.1813 22.3834 27.864C23.034 28.5467 23.3594 29.592 23.3594 31ZM28.72 28.44C28.496 28.44 28.2987 28.4933 28.128 28.6C27.968 28.696 27.8293 28.8027 27.712 28.92C27.584 29.0587 27.4667 29.2187 27.36 29.4V35H25.12V27H26.72L26.88 27.96H26.96C27.1093 27.7573 27.2907 27.5707 27.504 27.4C27.6853 27.2613 27.9093 27.1333 28.176 27.016C28.4427 26.8987 28.7573 26.84 29.12 26.84C29.2587 26.84 29.3973 26.8507 29.536 26.872C29.6853 26.8827 29.8187 26.8987 29.936 26.92C30.064 26.952 30.192 26.9787 30.32 27L30 28.6H29.84C29.7227 28.5787 29.6053 28.552 29.488 28.52C29.3813 28.4987 29.2587 28.4827 29.12 28.472C28.992 28.4507 28.8587 28.44 28.72 28.44ZM34.4725 28.28C34.1525 28.28 33.8592 28.4453 33.5925 28.776C33.3258 29.096 33.1925 29.5973 33.1925 30.28H35.7525C35.7525 29.5973 35.6192 29.096 35.3525 28.776C35.0858 28.4453 34.7925 28.28 34.4725 28.28ZM34.9525 35.16C32.2858 35.16 30.9525 33.7733 30.9525 31C30.9525 29.6027 31.2672 28.5627 31.8965 27.88C32.5365 27.1867 33.3952 26.84 34.4725 26.84C35.5498 26.84 36.4032 27.176 37.0325 27.848C37.6725 28.52 37.9925 29.5173 37.9925 30.84V31.24L37.5125 31.72H33.1925C33.1925 33.0533 33.8325 33.72 35.1125 33.72C35.3685 33.72 35.5978 33.688 35.8005 33.624C36.0138 33.56 36.1952 33.4853 36.3445 33.4C36.5152 33.304 36.6645 33.1973 36.7925 33.08H36.9525L37.6725 34.36C37.4378 34.5093 37.1818 34.6427 36.9045 34.76C36.6592 34.8667 36.3712 34.9573 36.0405 35.032C35.7205 35.1173 35.3578 35.16 34.9525 35.16Z" fill="#1FA357"/>
<path d="M40.385 32.76C40.705 32.76 40.9823 32.8827 41.217 33.128C41.4623 33.3627 41.585 33.64 41.585 33.96C41.585 34.28 41.4623 34.5627 41.217 34.808C40.9823 35.0427 40.705 35.16 40.385 35.16C40.065 35.16 39.7823 35.0427 39.537 34.808C39.3023 34.5627 39.185 34.28 39.185 33.96C39.185 33.64 39.3023 33.3627 39.537 33.128C39.7823 32.8827 40.065 32.76 40.385 32.76ZM43.2606 24.44L43.9006 23.8H45.5006V35H43.2606V24.44ZM49.985 27V35H47.745V27H49.985ZM48.865 23.56C49.185 23.56 49.4623 23.6827 49.697 23.928C49.9423 24.1627 50.065 24.44 50.065 24.76C50.065 25.08 49.9423 25.3627 49.697 25.608C49.4623 25.8427 49.185 25.96 48.865 25.96C48.545 25.96 48.2623 25.8427 48.017 25.608C47.7823 25.3627 47.665 25.08 47.665 24.76C47.665 24.44 47.7823 24.1627 48.017 23.928C48.2623 23.6827 48.545 23.56 48.865 23.56ZM53.9094 35L51.2694 27H53.5094L54.9494 31.96C54.9707 32.0453 54.9867 32.1413 54.9974 32.248C55.0187 32.344 55.0347 32.4347 55.0454 32.52C55.056 32.6267 55.0667 32.7333 55.0774 32.84H55.1414C55.152 32.7333 55.1627 32.6267 55.1734 32.52C55.184 32.4347 55.1947 32.344 55.2054 32.248C55.2267 32.1413 55.248 32.0453 55.2694 31.96L56.7094 27H58.9494L56.3094 35H53.9094ZM63.2694 28.28C62.9494 28.28 62.656 28.4453 62.3894 28.776C62.1227 29.096 61.9894 29.5973 61.9894 30.28H64.5494C64.5494 29.5973 64.416 29.096 64.1494 28.776C63.8827 28.4453 63.5894 28.28 63.2694 28.28ZM63.7494 35.16C61.0827 35.16 59.7494 33.7733 59.7494 31C59.7494 29.6027 60.064 28.5627 60.6934 27.88C61.3334 27.1867 62.192 26.84 63.2694 26.84C64.3467 26.84 65.2 27.176 65.8294 27.848C66.4694 28.52 66.7894 29.5173 66.7894 30.84V31.24L66.3094 31.72H61.9894C61.9894 33.0533 62.6294 33.72 63.9094 33.72C64.1654 33.72 64.3947 33.688 64.5974 33.624C64.8107 33.56 64.992 33.4853 65.1414 33.4C65.312 33.304 65.4614 33.1973 65.5894 33.08H65.7494L66.4694 34.36C66.2347 34.5093 65.9787 34.6427 65.7014 34.76C65.456 34.8667 65.168 34.9573 64.8374 35.032C64.5174 35.1173 64.1547 35.16 63.7494 35.16Z" fill="#D53901"/>
</svg>
