<svg width="16" height="18" viewBox="0 0 16 18" fill="none" xmlns="http://www.w3.org/2000/svg">
<path d="M11.1105 0.666992C11.4026 0.666992 11.644 0.885716 11.6822 1.1695L11.6874 1.24839L11.6875 1.90555C14.0567 2.068 15.5075 3.5994 15.5 6.07182V13.1457C15.5 15.7664 13.8711 17.3337 11.253 17.3337H4.74688C2.13195 17.3337 0.5 15.7397 0.5 13.087V6.07182C0.5 3.60029 1.95543 2.06847 4.31954 1.90562L4.31961 1.24839C4.31961 0.927292 4.5779 0.666992 4.89653 0.666992C5.1886 0.666992 5.42998 0.885716 5.46818 1.1695L5.47345 1.24839L5.47333 1.89116H10.5333L10.5336 1.24839C10.5336 0.927292 10.7919 0.666992 11.1105 0.666992ZM14.3458 7.56949H1.65333L1.65384 13.087C1.65384 15.0246 2.69097 16.1001 4.55747 16.1675L4.74688 16.1709H11.253C13.2455 16.1709 14.3461 15.1118 14.3461 13.1457L14.3458 7.56949ZM11.4241 12.447C11.7427 12.447 12.001 12.7073 12.001 13.0284C12.001 13.3227 11.7839 13.566 11.5023 13.6045L11.4241 13.6098C11.0983 13.6098 10.84 13.3495 10.84 13.0284C10.84 12.7341 11.0571 12.4908 11.3387 12.4523L11.4241 12.447ZM8.01065 12.447C8.32927 12.447 8.58757 12.7073 8.58757 13.0284C8.58757 13.3227 8.37053 13.566 8.08893 13.6045L8.01065 13.6098C7.6849 13.6098 7.4266 13.3495 7.4266 13.0284C7.4266 12.7341 7.64364 12.4908 7.92524 12.4523L8.01065 12.447ZM4.5901 12.447C4.90873 12.447 5.16702 12.7073 5.16702 13.0284C5.16702 13.3227 4.94998 13.566 4.66839 13.6045L4.58298 13.6098C4.26435 13.6098 4.00606 13.3495 4.00606 13.0284C4.00606 12.7341 4.2231 12.4908 4.50469 12.4523L4.5901 12.447ZM11.4241 9.4342C11.7427 9.4342 12.001 9.6945 12.001 10.0156C12.001 10.3099 11.7839 10.5532 11.5023 10.5917L11.4241 10.597C11.0983 10.597 10.84 10.3367 10.84 10.0156C10.84 9.72125 11.0571 9.478 11.3387 9.4395L11.4241 9.4342ZM8.01065 9.4342C8.32927 9.4342 8.58757 9.6945 8.58757 10.0156C8.58757 10.3099 8.37053 10.5532 8.08893 10.5917L8.01065 10.597C7.6849 10.597 7.4266 10.3367 7.4266 10.0156C7.4266 9.72125 7.64364 9.478 7.92524 9.4395L8.01065 9.4342ZM4.5901 9.4342C4.90873 9.4342 5.16702 9.6945 5.16702 10.0156C5.16702 10.3099 4.94998 10.5532 4.66839 10.5917L4.58298 10.597C4.26435 10.597 4.00606 10.3367 4.00606 10.0156C4.00606 9.72125 4.2231 9.478 4.50469 9.4395L4.5901 9.4342ZM10.5333 3.05366H5.47333L5.47345 3.79938C5.47345 4.12048 5.21515 4.38078 4.89653 4.38078C4.60445 4.38078 4.36307 4.16205 4.32487 3.87827L4.31961 3.79938L4.31879 3.07134C2.59908 3.21564 1.65384 4.25583 1.65384 6.07182L1.65333 6.40616H14.3458L14.3461 6.07003C14.3516 4.25262 13.4112 3.21458 11.6875 3.07115L11.6874 3.79938C11.6874 4.12048 11.4291 4.38078 11.1105 4.38078C10.8184 4.38078 10.5771 4.16205 10.5389 3.87827L10.5336 3.79938L10.5333 3.05366Z" fill="#238CCB"/>
</svg>
