<svg width="18" height="18" viewBox="0 0 18 18" fill="none" xmlns="http://www.w3.org/2000/svg">
<path d="M12.6122 0.666992C15.4487 0.666992 17.3339 2.69158 17.3339 5.59699V12.4037C17.3339 15.3092 15.4486 17.3337 12.6114 17.3337H5.38807C2.55115 17.3337 0.667236 15.3095 0.667236 12.4037V5.59699C0.667236 2.69416 2.55676 0.666992 5.38807 0.666992H12.6122ZM12.6122 1.91699H5.38807C3.26752 1.91699 1.91724 3.36564 1.91724 5.59699V12.4037C1.91724 14.6384 3.26235 16.0837 5.38807 16.0837H12.6114C14.7376 16.0837 16.0839 14.638 16.0839 12.4037V5.59699C16.0839 3.3628 14.7377 1.91699 12.6122 1.91699ZM9.00024 4.73658C9.31665 4.73658 9.57815 4.9717 9.61953 5.27677L9.62524 5.36158L9.62499 8.64016L12.1463 10.1448C12.418 10.3069 12.5221 10.6428 12.4014 10.926L12.3628 11.0018C12.2007 11.2735 11.8648 11.3776 11.5816 11.2569L11.5059 11.2183L8.68003 9.53248C8.51801 9.43583 8.40981 9.27223 8.3822 9.08886L8.37524 8.99574V5.36158C8.37524 5.0164 8.65506 4.73658 9.00024 4.73658Z" fill="#006DBC"/>
</svg>
