<svg width="15" height="15" viewBox="0 0 15 15" fill="none" xmlns="http://www.w3.org/2000/svg">
<path d="M4.6875 9.03867L2.26465 10.1259C1.74902 10.3603 1.74902 10.744 2.26465 10.9784L6.60059 12.956C7.09541 13.1813 7.90986 13.1813 8.40469 12.956L12.7406 10.9784C13.2562 10.744 13.2562 10.3603 12.7406 10.1259L10.3986 8.99883M12.7383 4.03271L8.3625 2.0376C7.88818 1.8208 7.11182 1.8208 6.6375 2.0376L2.26465 4.03271C1.74902 4.26709 1.74902 4.65059 2.26465 4.88496L6.60059 6.8625C7.09541 7.08809 7.90986 7.08809 8.40469 6.8625L12.7406 4.88496C13.2539 4.65059 13.2539 4.2668 12.7383 4.03271Z" stroke="#1E1E1E" stroke-width="0.9375" stroke-linecap="round" stroke-linejoin="round"/>
<path d="M4.68738 5.99023L2.2616 7.07891C1.74597 7.31328 1.74597 7.69707 2.2616 7.93145L6.59753 9.90869C7.09236 10.1343 7.90681 10.1343 8.40164 9.90869L12.7376 7.93145C13.2561 7.69707 13.2561 7.31328 12.7405 7.07891L10.3124 5.99023" stroke="#1E1E1E" stroke-width="0.9375" stroke-linecap="round" stroke-linejoin="round"/>
</svg>
