<svg width="9" height="13" viewBox="0 0 9 13" fill="none" xmlns="http://www.w3.org/2000/svg">
<path fill-rule="evenodd" clip-rule="evenodd" d="M1.11598 12.3684C0.881644 12.134 0.75 11.8161 0.75 11.4846C0.75 11.1532 0.881644 10.8353 1.11598 10.6009L5.23223 6.48464L1.11598 2.36839C0.888286 2.13264 0.762292 1.81688 0.76514 1.48914C0.767988 1.16139 0.89945 0.847877 1.13121 0.616117C1.36297 0.384357 1.67649 0.252895 2.00423 0.250047C2.33198 0.247199 2.64773 0.373193 2.88348 0.60089L7.88348 5.60089C8.11782 5.8353 8.24947 6.15318 8.24947 6.48464C8.24947 6.81609 8.11782 7.13398 7.88348 7.36839L2.88348 12.3684C2.64907 12.6027 2.33119 12.7344 1.99973 12.7344C1.66828 12.7344 1.35039 12.6027 1.11598 12.3684Z" fill="#C8C8C8"/>
</svg>
