<svg width="13" height="11" viewBox="0 0 13 11" fill="none" xmlns="http://www.w3.org/2000/svg">
<path d="M0.5 6.25C0.5 6.05109 0.579018 5.86032 0.71967 5.71967C0.860322 5.57902 1.05109 5.5 1.25 5.5H2.75C2.94891 5.5 3.13968 5.57902 3.28033 5.71967C3.42098 5.86032 3.5 6.05109 3.5 6.25V10C3.5 10.1989 3.42098 10.3897 3.28033 10.5303C3.13968 10.671 2.94891 10.75 2.75 10.75H1.25C1.05109 10.75 0.860322 10.671 0.71967 10.5303C0.579018 10.3897 0.5 10.1989 0.5 10V6.25ZM5 3.25C5 3.05109 5.07902 2.86032 5.21967 2.71967C5.36032 2.57902 5.55109 2.5 5.75 2.5H7.25C7.44891 2.5 7.63968 2.57902 7.78033 2.71967C7.92098 2.86032 8 3.05109 8 3.25V10C8 10.1989 7.92098 10.3897 7.78033 10.5303C7.63968 10.671 7.44891 10.75 7.25 10.75H5.75C5.55109 10.75 5.36032 10.671 5.21967 10.5303C5.07902 10.3897 5 10.1989 5 10V3.25ZM9.5 1C9.5 0.801088 9.57902 0.610322 9.71967 0.46967C9.86032 0.329018 10.0511 0.25 10.25 0.25H11.75C11.9489 0.25 12.1397 0.329018 12.2803 0.46967C12.421 0.610322 12.5 0.801088 12.5 1V10C12.5 10.1989 12.421 10.3897 12.2803 10.5303C12.1397 10.671 11.9489 10.75 11.75 10.75H10.25C10.0511 10.75 9.86032 10.671 9.71967 10.5303C9.57902 10.3897 9.5 10.1989 9.5 10V1Z" fill="#238CCB"/>
</svg>
