<svg width="20" height="20" viewBox="0 0 20 20" fill="none" xmlns="http://www.w3.org/2000/svg">
<path d="M10 -8.74228e-07C15.5142 -3.92164e-07 20 4.48583 20 10C20 15.5142 15.5142 20 10 20C4.48583 20 3.92164e-07 15.5142 8.74228e-07 10C1.35629e-06 4.48583 4.48583 -1.35629e-06 10 -8.74228e-07ZM10 19.1667C15.0542 19.1667 19.1667 15.0542 19.1667 10C19.1667 4.94583 15.0542 0.833334 10 0.833333C4.94583 0.833333 0.833335 4.94583 0.833335 10C0.833334 15.0542 4.94583 19.1667 10 19.1667Z" fill="#6C7178"/>
<path d="M13.5999 6.40039L6.3999 13.6004M13.5999 13.6004L6.3999 6.40039L13.5999 13.6004Z" stroke="#6C7178" stroke-linecap="round" stroke-linejoin="round"/>
</svg>
