<svg width="20" height="20" viewBox="0 0 20 20" fill="none" xmlns="http://www.w3.org/2000/svg">
<path d="M19.6163 13.6153C17.7644 14.4529 15.7013 14.7064 13.7017 14.3419C11.7022 13.9774 9.86118 13.0123 8.42399 11.5751C6.9868 10.1379 6.02167 8.2969 5.65718 6.29735C5.29268 4.29781 5.54614 2.23467 6.38377 0.382812C4.90947 1.04908 3.61881 2.06306 2.62252 3.33776C1.62623 4.61246 0.954055 6.10984 0.663656 7.70142C0.373256 9.293 0.473304 10.9313 0.955218 12.4757C1.43713 14.0201 2.28652 15.4246 3.43052 16.5686C4.57452 17.7126 5.97897 18.5619 7.52339 19.0439C9.06781 19.5258 10.7061 19.6258 12.2977 19.3354C13.8892 19.045 15.3866 18.3728 16.6613 17.3766C17.936 16.3803 18.95 15.0896 19.6163 13.6153Z" fill="#5F82FF"/>
</svg>
