<svg width="13" height="13" viewBox="0 0 13 13" fill="none" xmlns="http://www.w3.org/2000/svg">
<path fill-rule="evenodd" clip-rule="evenodd" d="M6.5 12.5C8.0913 12.5 9.61742 11.8679 10.7426 10.7426C11.8679 9.61742 12.5 8.0913 12.5 6.5C12.5 4.9087 11.8679 3.38258 10.7426 2.25736C9.61742 1.13214 8.0913 0.5 6.5 0.5C4.9087 0.5 3.38258 1.13214 2.25736 2.25736C1.13214 3.38258 0.5 4.9087 0.5 6.5C0.5 8.0913 1.13214 9.61742 2.25736 10.7426C3.38258 11.8679 4.9087 12.5 6.5 12.5ZM7.25 2.75C7.25 2.55109 7.17098 2.36032 7.03033 2.21967C6.88968 2.07902 6.69891 2 6.5 2C6.30109 2 6.11032 2.07902 5.96967 2.21967C5.82902 2.36032 5.75 2.55109 5.75 2.75V2.819C5.30201 2.89875 4.87457 3.06758 4.493 3.3155C3.9515 3.6755 3.5 4.25675 3.5 5C3.5 5.7425 3.9515 6.32375 4.493 6.6845C4.853 6.9245 5.2835 7.09325 5.75 7.181V8.63675C5.45675 8.5415 5.24 8.399 5.11775 8.25875C5.0543 8.18089 4.97586 8.11657 4.88708 8.0696C4.79831 8.02263 4.701 7.99397 4.60093 7.98532C4.50087 7.97668 4.40009 7.98821 4.30457 8.01925C4.20905 8.05029 4.12073 8.1002 4.04487 8.16602C3.969 8.23184 3.90713 8.31222 3.86292 8.40241C3.81871 8.49259 3.79306 8.59073 3.7875 8.69102C3.78194 8.7913 3.79658 8.89168 3.83055 8.9862C3.86452 9.08072 3.91713 9.16745 3.98525 9.24125C4.40675 9.728 5.045 10.0483 5.75 10.181V10.25C5.75 10.4489 5.82902 10.6397 5.96967 10.7803C6.11032 10.921 6.30109 11 6.5 11C6.69891 11 6.88968 10.921 7.03033 10.7803C7.17098 10.6397 7.25 10.4489 7.25 10.25V10.181C7.69799 10.1013 8.12543 9.93242 8.507 9.6845C9.0485 9.3245 9.5 8.74325 9.5 8C9.5 7.2575 9.0485 6.67625 8.507 6.3155C8.12543 6.06758 7.69799 5.89875 7.25 5.819V4.36325C7.54325 4.4585 7.76 4.601 7.88225 4.74125C7.94629 4.81723 8.02479 4.87973 8.1132 4.92512C8.2016 4.9705 8.29814 4.99787 8.39721 5.00562C8.49628 5.01338 8.5959 5.00136 8.69029 4.97029C8.78468 4.93921 8.87195 4.88968 8.94703 4.82459C9.02211 4.75949 9.08351 4.68013 9.12766 4.5911C9.1718 4.50207 9.19782 4.40516 9.20419 4.30599C9.21056 4.20682 9.19716 4.10738 9.16477 4.01343C9.13237 3.91949 9.08164 3.83292 9.0155 3.75875C8.59325 3.272 7.95575 2.95175 7.25 2.819V2.75Z" fill="#6C7178"/>
</svg>
