<svg width="15" height="12" viewBox="0 0 15 12" fill="none" xmlns="http://www.w3.org/2000/svg">
<path d="M9.75 2.75C9.75 3.34674 9.51295 3.91903 9.09099 4.34099C8.66903 4.76295 8.09674 5 7.5 5C6.90326 5 6.33097 4.76295 5.90901 4.34099C5.48705 3.91903 5.25 3.34674 5.25 2.75C5.25 2.15326 5.48705 1.58097 5.90901 1.15901C6.33097 0.737053 6.90326 0.5 7.5 0.5C8.09674 0.5 8.66903 0.737053 9.09099 1.15901C9.51295 1.58097 9.75 2.15326 9.75 2.75ZM13.5 4.25C13.5 4.64782 13.342 5.02936 13.0607 5.31066C12.7794 5.59196 12.3978 5.75 12 5.75C11.6022 5.75 11.2206 5.59196 10.9393 5.31066C10.658 5.02936 10.5 4.64782 10.5 4.25C10.5 3.85218 10.658 3.47064 10.9393 3.18934C11.2206 2.90804 11.6022 2.75 12 2.75C12.3978 2.75 12.7794 2.90804 13.0607 3.18934C13.342 3.47064 13.5 3.85218 13.5 4.25ZM10.5 9.5C10.5 8.70435 10.1839 7.94129 9.62132 7.37868C9.05871 6.81607 8.29565 6.5 7.5 6.5C6.70435 6.5 5.94129 6.81607 5.37868 7.37868C4.81607 7.94129 4.5 8.70435 4.5 9.5V11.75H10.5V9.5ZM4.5 4.25C4.5 4.64782 4.34197 5.02936 4.06066 5.31066C3.77936 5.59196 3.39783 5.75 3 5.75C2.60218 5.75 2.22064 5.59196 1.93934 5.31066C1.65804 5.02936 1.5 4.64782 1.5 4.25C1.5 3.85218 1.65804 3.47064 1.93934 3.18934C2.22064 2.90804 2.60218 2.75 3 2.75C3.39783 2.75 3.77936 2.90804 4.06066 3.18934C4.34197 3.47064 4.5 3.85218 4.5 4.25ZM12 11.75V9.5C12.0011 8.73746 11.8075 7.98727 11.4375 7.3205C11.77 7.23541 12.1176 7.22738 12.4536 7.29704C12.7897 7.3667 13.1055 7.51219 13.3768 7.72243C13.6481 7.93267 13.8678 8.2021 14.0191 8.51016C14.1704 8.81822 14.2494 9.15677 14.25 9.5V11.75H12ZM3.5625 7.3205C3.19256 7.98729 2.99895 8.73747 3 9.5V11.75H0.75V9.5C0.749856 9.15653 0.828348 8.81759 0.97946 8.50914C1.13057 8.2007 1.3503 7.93095 1.62179 7.72056C1.89328 7.51017 2.20934 7.36473 2.54573 7.29539C2.88213 7.22604 3.22994 7.23463 3.5625 7.3205Z" fill="#6C7178"/>
</svg>
