<svg width="25" height="25" viewBox="0 0 25 25" fill="none" xmlns="http://www.w3.org/2000/svg">
<path d="M12.1094 3.125C7.14795 3.125 3.125 7.14795 3.125 12.1094C3.125 17.0708 7.14795 21.0937 12.1094 21.0937C17.0708 21.0937 21.0937 17.0708 21.0937 12.1094C21.0937 7.14795 17.0708 3.125 12.1094 3.125Z" stroke="#6C7178" stroke-miterlimit="10"/>
<path d="M10.7422 10.7422H12.3047V16.4063" stroke="#6C7178" stroke-linecap="round" stroke-linejoin="round"/>
<path d="M10.1562 16.6016H14.4531" stroke="#6C7178" stroke-miterlimit="10" stroke-linecap="round"/>
<path d="M12.1094 6.34766C11.8583 6.34766 11.6128 6.42211 11.4041 6.56161C11.1953 6.70111 11.0326 6.89938 10.9365 7.13136C10.8404 7.36334 10.8153 7.6186 10.8642 7.86486C10.9132 8.11113 11.0341 8.33733 11.2117 8.51488C11.3892 8.69243 11.6154 8.81334 11.8617 8.86232C12.108 8.91131 12.3632 8.88617 12.5952 8.79008C12.8272 8.69399 13.0255 8.53127 13.165 8.3225C13.3045 8.11373 13.3789 7.86828 13.3789 7.61719C13.3789 7.28049 13.2452 6.95758 13.0071 6.71949C12.769 6.48141 12.4461 6.34766 12.1094 6.34766Z" fill="#6C7178"/>
</svg>
