<svg width="20" height="21" viewBox="0 0 20 21" fill="none" xmlns="http://www.w3.org/2000/svg">
<path d="M14.7849 0.105469C17.2582 0.105469 19.2759 2.05257 19.3892 4.49783L19.3942 4.71484V16.319C19.3942 18.7974 17.4422 20.8202 14.9919 20.9338L14.7744 20.9388H9.6859C7.21587 20.9388 5.19936 18.9942 5.08288 16.5527L5.07757 16.3294V15.3482C5.07757 14.9167 5.42734 14.5669 5.85882 14.5669C6.25433 14.5669 6.5812 14.8608 6.63293 15.2422L6.64007 15.3482V16.3294C6.64007 17.9517 7.9084 19.2784 9.50697 19.3711L9.6859 19.3763H14.7744C16.4025 19.3763 17.7335 18.1034 17.8265 16.4986L17.8317 16.319V4.71484C17.8317 3.09184 16.5636 1.76579 14.9639 1.67314L14.7849 1.66797H9.69736C8.06845 1.66797 6.73819 2.93982 6.64525 4.54459L6.64007 4.72422V5.69609C6.64007 6.12757 6.29029 6.47734 5.85882 6.47734C5.4633 6.47734 5.13643 6.18343 5.0847 5.8021L5.07757 5.69609V4.72422C5.07757 2.24566 7.02878 0.223995 9.47983 0.110495L9.69736 0.105469H14.7849ZM10.8852 6.8554L10.973 6.93087L14.023 9.96837C14.0483 9.99395 14.0711 10.02 14.0922 10.0475L14.023 9.96837C14.0615 10.0067 14.0952 10.048 14.124 10.0916C14.1341 10.1075 14.1441 10.1239 14.1536 10.1408C14.1599 10.1515 14.1656 10.1623 14.171 10.1731C14.1815 10.1948 14.1914 10.2172 14.2003 10.2401C14.2052 10.252 14.2094 10.2637 14.2133 10.2756C14.2203 10.2973 14.2267 10.3199 14.232 10.3428C14.2352 10.3552 14.2377 10.3674 14.24 10.3796C14.2436 10.4007 14.2467 10.4227 14.2489 10.4449C14.2507 10.4606 14.2518 10.4759 14.2524 10.4912C14.2525 10.5013 14.2527 10.5116 14.2527 10.5219L14.2524 10.5516C14.2518 10.5676 14.2507 10.5836 14.2491 10.5996L14.2527 10.5219C14.2527 10.5707 14.2482 10.6185 14.2396 10.6648C14.2377 10.6765 14.2352 10.6887 14.2323 10.7009C14.2265 10.7249 14.2198 10.7483 14.2121 10.7712C14.2087 10.782 14.2048 10.7928 14.2007 10.8035C14.1918 10.8256 14.1823 10.8472 14.1719 10.8683C14.1666 10.8798 14.1604 10.8915 14.1539 10.9031C14.142 10.9237 14.1296 10.9436 14.1164 10.9629C14.1109 10.9715 14.1051 10.9797 14.099 10.9878C14.0733 11.0213 14.0495 11.0487 14.0238 11.0744L14.023 11.0755L10.973 14.113C10.6673 14.4175 10.1726 14.4164 9.86817 14.1107C9.59138 13.8328 9.56706 13.3987 9.79462 13.0933L9.87044 13.0059L11.5787 11.3023L0.928711 11.3032C0.497238 11.3032 0.147461 10.9534 0.147461 10.5219C0.147461 10.1264 0.441371 9.79954 0.8227 9.74781L0.928711 9.74068L11.5787 9.73984L9.87044 8.03799C9.59251 7.7612 9.56641 7.32723 9.79271 7.02091L9.86817 6.93314C10.145 6.65521 10.5789 6.6291 10.8852 6.8554Z" fill="#1E1E1E"/>
</svg>
