<svg width="25" height="25" viewBox="0 0 25 25" fill="none" xmlns="http://www.w3.org/2000/svg">
<g clip-path="url(#clip0)">
<path d="M9.29553 21.7941C12.3883 21.7941 15.2695 20.2623 17.0029 17.6966C17.3542 17.1766 17.2174 16.4702 16.6974 16.1188C16.1772 15.7676 15.471 15.9043 15.1196 16.4243C13.8095 18.3636 11.6323 19.5214 9.29553 19.5214C5.42316 19.5214 2.27272 16.371 2.27272 12.4986C2.27272 8.62622 5.42316 5.47583 9.29553 5.47583C11.6392 5.47583 13.82 6.63887 15.1291 8.58696C15.4793 9.10796 16.1852 9.24634 16.7061 8.89629C17.227 8.54619 17.3655 7.84014 17.0155 7.31924C15.2833 4.74189 12.3973 3.20312 9.29553 3.20312C4.17004 3.20312 7.62939e-06 7.37305 7.62939e-06 12.4986C7.62939e-06 17.6242 4.17004 21.7941 9.29553 21.7941Z" fill="#DBDBDB"/>
<path d="M7.95469 11.3641H21.1202L19.651 9.89488C19.2072 9.45108 19.2072 8.7316 19.651 8.28785C20.0947 7.84415 20.8143 7.84415 21.258 8.28785L24.6671 11.6969C24.6688 11.6985 24.6702 11.7003 24.6718 11.702C24.6961 11.7266 24.7195 11.7523 24.7416 11.7791C24.7484 11.7873 24.7542 11.7962 24.7607 11.8046C24.777 11.8255 24.7933 11.8465 24.8081 11.8685C24.8129 11.8759 24.8171 11.8838 24.8219 11.8913C24.8371 11.9152 24.852 11.9391 24.8655 11.9641C24.8685 11.9696 24.8707 11.9754 24.8736 11.9809C24.8877 12.0084 24.9013 12.0361 24.9131 12.0647C24.9147 12.0686 24.9159 12.0727 24.9176 12.0766C24.9297 12.1069 24.9412 12.1377 24.9507 12.1693C24.952 12.1735 24.9528 12.1778 24.954 12.1821C24.9631 12.2132 24.9713 12.2446 24.9778 12.2768C24.9797 12.2865 24.9806 12.2964 24.9823 12.3062C24.987 12.3329 24.9917 12.3596 24.9944 12.387C24.998 12.4245 25 12.4624 25 12.5004C25 12.5385 24.998 12.5764 24.9943 12.6139C24.9916 12.6417 24.9868 12.6687 24.9821 12.6958C24.9804 12.7051 24.9797 12.7147 24.9778 12.7241C24.9713 12.7567 24.9628 12.7886 24.9537 12.8202C24.9526 12.8239 24.952 12.8279 24.9507 12.8316C24.941 12.8636 24.9294 12.8949 24.917 12.9258C24.9157 12.9292 24.9147 12.9327 24.9133 12.936C24.9011 12.9653 24.8873 12.9937 24.8728 13.0216C24.8703 13.0266 24.8682 13.0317 24.8656 13.0366C24.8517 13.0625 24.8362 13.0873 24.8206 13.1119C24.8163 13.1186 24.8126 13.1256 24.8083 13.1321C24.7926 13.1555 24.7754 13.1778 24.7581 13.2C24.7525 13.2071 24.7476 13.2146 24.7418 13.2215C24.7183 13.2502 24.6933 13.2778 24.6671 13.3041L21.2582 16.713C21.0363 16.9349 20.7455 17.0458 20.4546 17.0458C20.1638 17.0458 19.8729 16.9349 19.6512 16.713C19.2074 16.2692 19.2074 15.5497 19.6512 15.106L21.1204 13.6368H7.95483C7.32725 13.6368 6.81846 13.128 6.81846 12.5004C6.81846 11.8728 7.3271 11.3641 7.95469 11.3641Z" fill="#DBDBDB"/>
</g>
<defs>
<clipPath id="clip0">
<rect width="25" height="25" fill="white" transform="matrix(-1 0 0 1 25 0)"/>
</clipPath>
</defs>
</svg>
