<svg width="18" height="18" viewBox="0 0 18 18" fill="none" xmlns="http://www.w3.org/2000/svg">
<path d="M6.3125 1.0005V14.1255M11.3621 3.99425L6.88789 1.13175C6.70992 1.04285 6.51329 0.997711 6.31436 1.00009C6.11543 1.00247 5.91994 1.05229 5.74414 1.14542L1.33242 4.10558C1.23205 4.15875 1.14807 4.23827 1.0895 4.33559C1.03093 4.4329 0.99999 4.54434 1 4.65792V16.2126C0.999991 16.3204 1.02786 16.4264 1.08089 16.5202C1.13392 16.614 1.21032 16.6926 1.30267 16.7481C1.39501 16.8037 1.50017 16.8345 1.60791 16.8374C1.71566 16.8404 1.82233 16.8154 1.91758 16.765L5.73867 14.2732C5.91591 14.1793 6.11313 14.1294 6.3137 14.1278C6.51426 14.1261 6.71228 14.1728 6.89102 14.2638L11.2605 17.1153C11.4377 17.2056 11.6339 17.2523 11.8327 17.2516C12.0316 17.2508 12.2274 17.2027 12.4039 17.1111L16.9129 14.1446C17.0145 14.0919 17.0997 14.0123 17.1591 13.9145C17.2185 13.8167 17.25 13.7044 17.25 13.59V2.03839C17.25 1.93061 17.2221 1.82465 17.1691 1.73082C17.1161 1.63698 17.0397 1.55846 16.9473 1.50287C16.855 1.44728 16.7498 1.41652 16.6421 1.41357C16.5343 1.41062 16.4277 1.43559 16.3324 1.48605L12.5043 3.98058C12.3287 4.07345 12.1335 4.12314 11.9349 4.12551C11.7362 4.12789 11.5399 4.08289 11.3621 3.99425V3.99425ZM11.9375 4.1255V17.2505V4.1255Z" stroke="#1E1E1E" stroke-width="1.25283" stroke-linecap="round" stroke-linejoin="round"/>
</svg>
