<svg width="22" height="21" viewBox="0 0 22 21" fill="none" xmlns="http://www.w3.org/2000/svg">
<path d="M9.0724 13.0593L9.41006 13.0607C14.4269 13.1042 17.2776 14.1336 17.2776 16.8926C17.2776 19.5867 14.563 20.6141 9.74271 20.6984L9.0724 20.7041C3.84596 20.7041 0.867188 19.6911 0.867188 16.8708C0.867188 14.0535 3.8328 13.0593 9.0724 13.0593ZM9.0724 14.6218L8.72165 14.6235C4.56861 14.6633 2.42969 15.4196 2.42969 16.8708C2.42969 18.3709 4.69587 19.1416 9.0724 19.1416C13.4545 19.1416 15.7151 18.3835 15.7151 16.8926C15.7151 15.3925 13.4489 14.6218 9.0724 14.6218ZM18.7877 6.24982C19.1832 6.24982 19.5101 6.54373 19.5618 6.92506L19.569 7.03107L19.5682 8.33815L20.9189 8.33826C21.3503 8.33826 21.7001 8.68803 21.7001 9.11951C21.7001 9.51502 21.4062 9.84189 21.0249 9.89362L20.9189 9.90076L19.5682 9.90065L19.569 11.2082C19.569 11.6396 19.2192 11.9894 18.7877 11.9894C18.3922 11.9894 18.0653 11.6955 18.0136 11.3142L18.0065 11.2082L18.0057 9.90065L16.6584 9.90076C16.227 9.90076 15.8772 9.55098 15.8772 9.11951C15.8772 8.72399 16.1711 8.39712 16.5524 8.34539L16.6584 8.33826L18.0057 8.33815L18.0065 7.03107C18.0065 6.5996 18.3562 6.24982 18.7877 6.24982ZM9.0724 0.0839844C12.1455 0.0839844 14.612 2.55043 14.612 5.62357C14.612 8.696 12.1452 11.1632 9.0724 11.1632C6.0003 11.1632 3.53281 8.69567 3.53281 5.62357C3.53281 2.55076 5.99996 0.0839844 9.0724 0.0839844ZM9.0724 1.64648C6.86286 1.64648 5.09531 3.41376 5.09531 5.62357C5.09531 7.83272 6.86324 9.60065 9.0724 9.60065C11.2822 9.60065 13.0495 7.83311 13.0495 5.62357C13.0495 3.41337 11.2826 1.64648 9.0724 1.64648Z" fill="#C0402D"/>
</svg>
