<svg width="16" height="20" viewBox="0 0 16 20" fill="none" xmlns="http://www.w3.org/2000/svg">
<path d="M14.2741 4.49966L9.75113 4.49966L13.4182 0.986709C13.6467 0.767756 13.6545 0.4051 13.4355 0.176597C13.2166 -0.0519057 12.8539 -0.0596982 12.6254 0.159255L8.09446 4.49974L8.05374 4.49974L4.78633 1.34127C4.55874 1.12132 4.19601 1.12751 3.97614 1.35502C3.75619 1.58253 3.76238 1.94526 3.98989 2.16521L6.40495 4.49974L1.72595 4.49974C0.778093 4.49974 0.00701996 5.27082 0.00702013 6.21867L0.00702193 16.5142C0.0070221 17.4621 0.778095 18.2331 1.72595 18.2331L14.2741 18.2331C15.2218 18.2331 15.993 17.4621 15.993 16.5142L15.993 6.21859C15.993 5.27081 15.2218 4.49966 14.2741 4.49966ZM14.847 16.5141C14.847 16.83 14.59 17.0871 14.2741 17.0871L1.72595 17.0871C1.41005 17.0871 1.15297 16.83 1.15297 16.5141L1.15297 6.2186C1.15297 5.90269 1.41005 5.64562 1.72595 5.64562L14.2741 5.64562C14.59 5.64562 14.847 5.90269 14.847 6.21859L14.847 16.5141Z" fill="#BA6824"/>
<path d="M11.1183 18.8535L4.88175 18.8535C4.56532 18.8535 4.30878 19.1101 4.30878 19.4265C4.30878 19.7429 4.56532 19.9995 4.88175 19.9995L11.1183 19.9995C11.4348 19.9995 11.6912 19.7429 11.6912 19.4265C11.6912 19.1101 11.4348 18.8535 11.1183 18.8535Z" fill="#BA6824"/>
</svg>
