<svg width="18" height="18" viewBox="0 0 18 18" fill="none" xmlns="http://www.w3.org/2000/svg">
<path d="M17.9629 3.1878C17.9539 3.04412 17.8969 2.90762 17.8011 2.80016C17.7053 2.69271 17.5762 2.62051 17.4345 2.59515C13.9779 1.97558 12.5234 1.49102 9.4018 0.0863376C9.09 -0.0297815 8.89674 -0.0277725 8.5982 0.0863376C5.47665 1.49262 4.02215 1.97478 0.565496 2.59515C0.423786 2.62051 0.29469 2.69271 0.19889 2.80016C0.103089 2.90762 0.0461289 3.04412 0.0371335 3.1878C-0.117558 5.64278 0.211513 7.929 1.01591 9.98418C1.67366 11.6601 2.64809 13.1935 3.88594 14.5008C5.68076 16.4065 7.67086 17.5191 8.69705 17.9401C8.89163 18.0195 9.10957 18.0195 9.30416 17.9401C10.389 17.5014 12.3052 16.4206 14.1141 14.5C15.3518 13.193 16.3263 11.6598 16.9841 9.98418C17.7885 7.9294 18.1176 5.64278 17.9629 3.1878Z" fill="#DBDBDB"/>
</svg>
