<svg width="20" height="20" viewBox="0 0 20 20" fill="none" xmlns="http://www.w3.org/2000/svg">
<path d="M17.5 8.81407V12.6813C17.5 13.1809 17.3503 13.669 17.0702 14.0828C16.79 14.4965 16.3924 14.8168 15.9285 15.0024L15.0035 15.3723C14.8103 15.4496 14.6395 15.574 14.5066 15.7341C14.3736 15.8942 14.2827 16.085 14.2422 16.2891L13.8516 18.2477C13.8232 18.3895 13.7464 18.5172 13.6345 18.6088C13.5225 18.7004 13.3822 18.7503 13.2375 18.75H6.7625C6.61802 18.75 6.478 18.7 6.36626 18.6084C6.25452 18.5168 6.17796 18.3893 6.14961 18.2477L5.75781 16.2891C5.71708 16.0852 5.62612 15.8947 5.49319 15.7348C5.36025 15.5749 5.18953 15.4507 4.99648 15.3734L4.07148 15.0035C3.6076 14.818 3.20995 14.4977 2.92984 14.0839C2.64974 13.6702 2.50002 13.1821 2.5 12.6824V8.75001C2.5 4.61251 5.85039 1.25743 9.98633 1.25001C14.1223 1.24259 17.5 4.68165 17.5 8.81407Z" stroke="#6C7178" stroke-width="1.27011" stroke-miterlimit="10" stroke-linecap="round"/>
<path d="M6.5625 12.5C7.42545 12.5 8.125 11.8004 8.125 10.9375C8.125 10.0746 7.42545 9.375 6.5625 9.375C5.69956 9.375 5 10.0746 5 10.9375C5 11.8004 5.69956 12.5 6.5625 12.5Z" stroke="#6C7178" stroke-width="1.27011" stroke-miterlimit="10" stroke-linecap="round"/>
<path d="M13.4375 12.5C14.3004 12.5 15 11.8004 15 10.9375C15 10.0746 14.3004 9.375 13.4375 9.375C12.5746 9.375 11.875 10.0746 11.875 10.9375C11.875 11.8004 12.5746 12.5 13.4375 12.5Z" stroke="#6C7178" stroke-width="1.27011" stroke-miterlimit="10" stroke-linecap="round"/>
<path d="M11.875 17.5V18.75M10 13.125L9.375 15H10.625L10 13.125ZM10 17.5V18.75V17.5ZM8.125 17.5V18.75V17.5Z" stroke="#6C7178" stroke-width="1.27011" stroke-linecap="round" stroke-linejoin="round"/>
</svg>
