<svg width="66" height="66" viewBox="0 0 66 66" fill="none" xmlns="http://www.w3.org/2000/svg">
<path d="M65.0231 34.3048H63.7607C62.7032 34.3048 61.8428 33.4445 61.8428 32.387C61.8428 31.3294 62.703 30.4691 63.7606 30.4691H65.023C65.5627 30.4691 65.9999 30.0319 65.9999 29.4921V23.6308C65.9999 23.091 65.5627 22.6538 65.023 22.6538H63.7606C62.703 22.6538 61.8427 21.7935 61.8427 20.7359V20.3807L63.2758 19.068C63.6643 18.7121 63.7006 18.1122 63.3579 17.7119L59.5442 13.2609C59.3756 13.0641 59.1357 12.9424 58.8774 12.9225C58.6185 12.9009 58.3632 12.9862 58.1667 13.1547L57.208 13.9762C56.4049 14.6642 55.1917 14.5706 54.5037 13.7677C54.1704 13.3787 54.0085 12.8831 54.0479 12.3722C54.0872 11.8615 54.3231 11.3967 54.7123 11.0633L55.671 10.2418C56.0807 9.8908 56.1283 9.27399 55.7772 8.86432L51.9634 4.41346C51.6125 4.00392 50.9957 3.9561 50.5859 4.30724L49.6271 5.12863C49.238 5.46198 48.7426 5.62414 48.2318 5.58444C47.7211 5.54512 47.2562 5.30923 46.9229 4.92006L45.6439 3.4272C45.4753 3.23036 45.2354 3.10867 44.977 3.08882C44.7178 3.06897 44.463 3.15224 44.2664 3.32098L27.3762 17.793H24.5873C24.0476 17.793 23.6104 18.2302 23.6104 18.77C23.6104 19.3097 24.0476 19.747 24.5873 19.747H59.8889V20.7359C59.8889 22.8709 61.6258 24.6077 63.7607 24.6077H64.0461V28.5151H63.7607C61.6258 28.5151 59.8889 30.252 59.8889 32.387C59.8889 34.5219 61.6258 36.2588 63.7607 36.2588H64.0461V40.1662H63.7607C61.6258 40.1662 59.8889 41.9029 59.8889 44.0379V46.2527H53.1337C52.594 46.2527 52.1567 46.69 52.1567 47.2297C52.1567 47.7695 52.594 48.2067 53.1337 48.2067H60.8659C61.4056 48.2067 61.8428 47.7695 61.8428 47.2297V44.0379C61.8428 42.9805 62.7032 42.1201 63.7607 42.1201H65.0231C65.5628 42.1201 66.0001 41.6829 66.0001 41.1432V35.2818C66.0001 34.7421 65.5628 34.3048 65.0231 34.3048ZM30.3793 17.793L44.7957 5.44071L45.439 6.19172C46.1118 6.97714 47.0504 7.45345 48.0815 7.53285C49.1125 7.61213 50.1129 7.28561 50.8983 6.61272L51.1153 6.42697L53.6577 9.394L53.4409 9.57988C51.8198 10.9688 51.6308 13.4179 53.02 15.0392C54.4092 16.6603 56.8583 16.8492 58.4793 15.4601L58.6961 15.2742L60.8544 17.793H30.3793Z" fill="url(#paint0_linear)"/>
<path d="M44.5584 46.2527H6.1113V45.2639C6.1113 43.1289 4.37442 41.392 2.23948 41.392H1.95396V37.4846H2.23948C4.37442 37.4846 6.1113 35.7478 6.1113 33.6128C6.1113 31.4779 4.37442 29.741 2.23948 29.741H1.95396V25.8336H2.23948C4.37442 25.8336 6.1113 24.0967 6.1113 21.9618V19.7469H17.2608C17.8005 19.7469 18.2377 19.3097 18.2377 18.7699C18.2377 18.2302 17.8005 17.793 17.2608 17.793H5.13433C4.5946 17.793 4.15735 18.2302 4.15735 18.7699V21.9618C4.15735 23.0192 3.29703 23.8797 2.23948 23.8797H0.976979C0.437249 23.8797 0 24.3169 0 24.8566V30.718C0 31.2577 0.437249 31.695 0.976979 31.695H2.23948C3.2969 31.695 4.15735 32.5553 4.15735 33.6128C4.15735 34.6704 3.29703 35.5307 2.23948 35.5307H0.976979C0.437249 35.5307 0 35.9679 0 36.5077V42.369C0 42.9088 0.437249 43.346 0.976979 43.346H2.23948C3.2969 43.346 4.15735 44.2063 4.15735 45.2639V45.7921L2.77702 46.8868C2.56884 47.0518 2.43697 47.2944 2.41144 47.5585C2.38605 47.8228 2.46932 48.0863 2.64219 48.2879L6.45574 52.7389C6.62435 52.9357 6.86424 53.0574 7.12257 53.0772C7.3809 53.0988 7.63665 53.0137 7.83323 52.8451L8.79203 52.0236C9.18107 51.6901 9.67659 51.5271 10.1873 51.5678C10.698 51.6071 11.1629 51.843 11.4962 52.2321C12.1843 53.0352 12.0907 54.2484 11.2877 54.9365L10.329 55.7578C9.91919 56.1089 9.87162 56.7257 10.2228 57.1353L14.0363 61.5863C14.3873 61.9961 15.0041 62.0439 15.4138 61.6926L16.3726 60.8712C16.7615 60.5378 17.2586 60.3755 17.7679 60.4154C18.2786 60.4547 18.7434 60.6906 19.0768 61.0797L20.3558 62.5725C20.549 62.7979 20.8228 62.9138 21.0982 62.9138C21.3231 62.9138 21.5491 62.8366 21.7333 62.6787L38.5937 48.2323C38.6031 48.2242 38.6112 48.2154 38.6204 48.2071H44.5579C45.0976 48.2071 45.5349 47.7698 45.5349 47.2301C45.5349 46.6903 45.0981 46.2527 44.5584 46.2527ZM21.2044 60.5589L20.561 59.8081C19.8883 59.0227 18.9498 58.5463 17.9186 58.4669C16.8875 58.3869 15.8871 58.7142 15.1017 59.3871L14.8848 59.5728L12.3424 56.6057L12.5592 56.4199C13.3445 55.747 13.8209 54.8086 13.9003 53.7773C13.9797 52.7462 13.6531 51.7458 12.9802 50.9605C12.3074 50.1751 11.369 49.6987 10.3377 49.6193C9.30688 49.5411 8.30632 49.8667 7.52089 50.5395L7.30407 50.7254L5.14567 48.2065H35.6206L21.2044 60.5589Z" fill="url(#paint1_linear)"/>
<path d="M55.1587 22.374H27.329C26.7892 22.374 26.352 22.8113 26.352 23.351C26.352 23.8907 26.7892 24.328 27.329 24.328H54.1818V41.6736H11.8182V24.328H19.8622C20.4019 24.328 20.8392 23.8907 20.8392 23.351C20.8392 22.8113 20.4019 22.374 19.8622 22.374H10.8412C10.3015 22.374 9.86426 22.8114 9.86426 23.351V42.6506C9.86426 43.1903 10.3015 43.6275 10.8412 43.6275H55.1589C55.6986 43.6275 56.1358 43.1903 56.1358 42.6506V23.351C56.1357 22.8113 55.6985 22.374 55.1587 22.374Z" fill="url(#paint2_linear)"/>
<path d="M20.196 28.7236H14.8008C14.4436 28.7236 14.2778 29.1064 14.2778 29.4634C14.2778 29.8715 14.4691 30.216 14.8008 30.216H16.6759V37.5244C16.6759 37.8689 17.0841 38.0474 17.5049 38.0474C17.9131 38.0474 18.334 37.8689 18.334 37.5244V30.216H20.1962C20.5278 30.216 20.7191 29.8588 20.7191 29.4634C20.719 29.1064 20.5532 28.7236 20.196 28.7236Z" fill="#C8C8C8"/>
<path d="M22.4535 28.7236C22.0326 28.7236 21.6245 28.8766 21.6245 29.2337V37.5244C21.6245 37.8689 22.0326 38.0474 22.4535 38.0474C22.8618 38.0474 23.2825 37.8689 23.2825 37.5244V29.2337C23.2825 28.8766 22.8618 28.7236 22.4535 28.7236Z" fill="#C8C8C8"/>
<path d="M29.8644 34.7824C29.4307 34.7824 29.0735 34.91 29.048 35.3053C29.0097 35.8411 28.9078 36.6701 27.7471 36.6701C26.8671 36.6701 26.3824 36.1981 26.3824 35.2032V31.6446C26.3824 30.6497 26.8669 30.1777 27.7216 30.1777C28.9332 30.1777 29.0225 31.0451 29.0481 31.4405C29.0608 31.8232 29.4053 31.9634 29.8771 31.9634C30.4383 31.9634 30.7063 31.8104 30.7063 31.1471C30.7063 29.6674 29.4434 28.7236 27.6704 28.7236C26.0633 28.7236 24.7241 29.5143 24.7241 31.6445V35.2031C24.7241 37.3331 26.0507 38.124 27.6578 38.124C29.4434 38.124 30.7063 37.1419 30.7063 35.5985C30.7063 34.948 30.4383 34.7824 29.8644 34.7824Z" fill="#C8C8C8"/>
<path d="M38.0525 36.9888L35.2719 32.7543L37.5549 29.8971C37.6441 29.7823 37.6569 29.6675 37.6569 29.5783C37.6569 29.1573 37.1211 28.7236 36.7003 28.7236C36.5219 28.7236 36.3687 28.7873 36.2412 28.966L33.4861 32.7159V29.2337C33.4861 28.8766 33.0654 28.7236 32.6571 28.7236C32.2362 28.7236 31.8281 28.8766 31.8281 29.2337H31.8283V37.5244C31.8283 37.8689 32.2364 38.0474 32.6573 38.0474C33.0655 38.0474 33.4862 37.8689 33.4862 37.5244V35.0246L34.1751 34.1573L36.573 37.7924C36.7133 38.0219 36.9301 38.1112 37.1469 38.1112C37.6316 38.1112 38.1417 37.6905 38.1417 37.2822C38.1417 37.1803 38.1162 37.0782 38.0525 36.9888Z" fill="#C8C8C8"/>
<path d="M44.1359 36.5936H40.5262V34.0298H42.465C42.8222 34.0298 42.988 33.6854 42.988 33.392C42.988 33.0475 42.7967 32.7286 42.465 32.7286H40.5262V30.1777H44.1359C44.4676 30.1777 44.6589 29.8333 44.6589 29.4379C44.6589 29.0936 44.493 28.7236 44.1359 28.7236H39.5952C39.2252 28.7236 38.8682 28.9022 38.8682 29.2466V37.5246C38.8682 37.869 39.2252 38.0475 39.5952 38.0475H44.1359C44.4931 38.0475 44.6589 37.6777 44.6589 37.3333C44.6589 36.9381 44.4676 36.5936 44.1359 36.5936Z" fill="#C8C8C8"/>
<path d="M50.9343 28.7236H45.5391C45.1819 28.7236 45.0161 29.1064 45.0161 29.4634C45.0161 29.8715 45.2074 30.216 45.5391 30.216H47.4142V37.5244C47.4142 37.8689 47.8224 38.0474 48.2431 38.0474C48.6514 38.0474 49.0723 37.8689 49.0723 37.5244V30.216H50.9345C51.2661 30.216 51.4574 29.8588 51.4574 29.4634C51.4573 29.1064 51.2915 28.7236 50.9343 28.7236Z" fill="#C8C8C8"/>
<defs>
<linearGradient id="paint0_linear" x1="44.8052" y1="3.08594" x2="44.8052" y2="48.2067" gradientUnits="userSpaceOnUse">
<stop stop-color="#6C7178"/>
<stop offset="0.989583" stop-color="white"/>
</linearGradient>
<linearGradient id="paint1_linear" x1="22.7674" y1="17.793" x2="22.7674" y2="62.9138" gradientUnits="userSpaceOnUse">
<stop stop-color="#6C7178"/>
<stop offset="0.989583" stop-color="white"/>
</linearGradient>
<linearGradient id="paint2_linear" x1="33" y1="22.374" x2="33" y2="43.6275" gradientUnits="userSpaceOnUse">
<stop stop-color="#6C7178"/>
<stop offset="0.989583" stop-color="white"/>
</linearGradient>
</defs>
</svg>
