<svg width="30" height="30" viewBox="0 0 30 30" fill="none" xmlns="http://www.w3.org/2000/svg">
<g filter="url(#filter0_d)">
<path d="M15 5C9.486 5 5 9.486 5 15C5 20.514 9.486 25 15 25C20.514 25 25 20.514 25 15C25 9.486 20.514 5 15 5ZM15 9.1C15.2571 9.1 15.5085 9.17624 15.7222 9.31909C15.936 9.46194 16.1026 9.66497 16.201 9.90251C16.2994 10.1401 16.3252 10.4014 16.275 10.6536C16.2249 10.9058 16.101 11.1374 15.9192 11.3192C15.7374 11.501 15.5058 11.6249 15.2536 11.675C15.0014 11.7252 14.7401 11.6994 14.5025 11.601C14.265 11.5026 14.0619 11.336 13.9191 11.1222C13.7762 10.9085 13.7 10.6571 13.7 10.4C13.7 10.0552 13.837 9.72456 14.0808 9.48076C14.3246 9.23696 14.6552 9.1 15 9.1ZM17.4 20.4H13C12.7878 20.4 12.5843 20.3157 12.4343 20.1657C12.2843 20.0157 12.2 19.8122 12.2 19.6C12.2 19.3878 12.2843 19.1843 12.4343 19.0343C12.5843 18.8843 12.7878 18.8 13 18.8H14.4V14.4H13.6C13.3878 14.4 13.1843 14.3157 13.0343 14.1657C12.8843 14.0157 12.8 13.8122 12.8 13.6C12.8 13.3878 12.8843 13.1843 13.0343 13.0343C13.1843 12.8843 13.3878 12.8 13.6 12.8H15.2C15.4122 12.8 15.6157 12.8843 15.7657 13.0343C15.9157 13.1843 16 13.3878 16 13.6V18.8H17.4C17.6122 18.8 17.8157 18.8843 17.9657 19.0343C18.1157 19.1843 18.2 19.3878 18.2 19.6C18.2 19.8122 18.1157 20.0157 17.9657 20.1657C17.8157 20.3157 17.6122 20.4 17.4 20.4Z" fill="#242B36"/>
</g>
<defs>
<filter id="filter0_d" x="0" y="0" width="30" height="30" filterUnits="userSpaceOnUse" color-interpolation-filters="sRGB">
<feFlood flood-opacity="0" result="BackgroundImageFix"/>
<feColorMatrix in="SourceAlpha" type="matrix" values="0 0 0 0 0 0 0 0 0 0 0 0 0 0 0 0 0 0 127 0" result="hardAlpha"/>
<feOffset/>
<feGaussianBlur stdDeviation="2.5"/>
<feColorMatrix type="matrix" values="0 0 0 0 0.754167 0 0 0 0 0.250495 0 0 0 0 0.175972 0 0 0 0.6 0"/>
<feBlend mode="normal" in2="BackgroundImageFix" result="effect1_dropShadow"/>
<feBlend mode="normal" in="SourceGraphic" in2="effect1_dropShadow" result="shape"/>
</filter>
</defs>
</svg>
