<svg width="20" height="17" viewBox="0 0 20 17" fill="none" xmlns="http://www.w3.org/2000/svg">
<path d="M20.625 2.39584C19.8748 2.72182 19.081 2.93658 18.2688 3.03334C19.1224 2.5335 19.7643 1.73941 20.0742 0.800007C19.2671 1.27192 18.3856 1.60304 17.4675 1.77917C17.0809 1.37398 16.6159 1.05163 16.1008 0.831734C15.5857 0.611834 15.0313 0.498972 14.4713 0.500007C12.2038 0.500007 10.3688 2.30834 10.3688 4.5375C10.3671 4.84757 10.4027 5.15671 10.4746 5.45833C8.84862 5.38211 7.25647 4.96733 5.79999 4.24053C4.34352 3.51372 3.05479 2.4909 2.01625 1.23751C1.65191 1.85172 1.45922 2.55252 1.45833 3.26667C1.45833 4.66667 2.18875 5.90417 3.29167 6.62917C2.63822 6.61366 1.99816 6.44071 1.42583 6.125V6.175C1.42583 8.13333 2.8425 9.7625 4.7175 10.1333C4.36491 10.2273 4.00157 10.2749 3.63667 10.275C3.37774 10.2754 3.1194 10.2503 2.86542 10.2C3.38667 11.8042 4.90375 12.9708 6.70083 13.0042C5.24057 14.1295 3.44776 14.7378 1.60417 14.7333C1.27692 14.7328 0.949986 14.7134 0.625 14.675C2.50049 15.8726 4.6806 16.506 6.90583 16.5C14.4625 16.5 18.5908 10.3458 18.5908 5.00833C18.5908 4.83333 18.5863 4.65833 18.5779 4.4875C19.3792 3.91753 20.0724 3.20922 20.625 2.39584Z" fill="#238CCB"/>
</svg>
