<svg width="20" height="20" viewBox="0 0 20 20" fill="none" xmlns="http://www.w3.org/2000/svg">
<g clip-path="url(#clip0)">
<path d="M10 -8.74228e-07C15.5142 -3.92164e-07 20 4.48583 20 10C20 15.5142 15.5142 20 10 20C4.48583 20 3.92164e-07 15.5142 8.74228e-07 10C1.35629e-06 4.48583 4.48583 -1.35629e-06 10 -8.74228e-07ZM10 19.1667C15.0542 19.1667 19.1667 15.0542 19.1667 10C19.1667 4.94583 15.0542 0.833334 10 0.833333C4.94583 0.833333 0.833335 4.94583 0.833335 10C0.833334 15.0542 4.94583 19.1667 10 19.1667Z" fill="#E9983A"/>
<path d="M9.99999 4.16731C10.23 4.16731 10.4167 4.35398 10.4167 4.58398L10.4167 15.4173C10.4167 15.6473 10.23 15.834 9.99999 15.834C9.76998 15.834 9.58331 15.6473 9.58331 15.4173L9.58332 4.58398C9.58332 4.35398 9.76998 4.16731 9.99999 4.16731Z" fill="#E9983A"/>
<path d="M6.66666 11.666C6.77333 11.666 6.88 11.7068 6.96166 11.7877L10 14.8268L13.0383 11.7877C13.2008 11.6252 13.465 11.6252 13.6275 11.7877C13.79 11.9502 13.79 12.2143 13.6275 12.3768L10.2942 15.7102C10.1317 15.8727 9.8675 15.8727 9.705 15.7102L6.37166 12.3768C6.20916 12.2143 6.20916 11.9502 6.37166 11.7877C6.45333 11.7068 6.56 11.666 6.66666 11.666Z" fill="#E9983A"/>
</g>
<defs>
<clipPath id="clip0">
<rect width="20" height="20" fill="white" transform="translate(20 20) rotate(-180)"/>
</clipPath>
</defs>
</svg>
