<svg width="25" height="15" viewBox="0 0 25 15" fill="none" xmlns="http://www.w3.org/2000/svg">
<path fill-rule="evenodd" clip-rule="evenodd" d="M23.667 1.44531C23.8408 0.894531 23.667 0.49414 22.8979 0.49414H20.3408C19.6958 0.49414 19.3979 0.844726 19.2241 1.21973C19.2241 1.21973 17.9087 4.42285 16.0718 6.49951C15.4761 7.1001 15.2031 7.30029 14.8804 7.30029C14.7065 7.30029 14.4829 7.1001 14.4829 6.5498V1.41943C14.4829 0.769043 14.2847 0.46875 13.7383 0.46875H9.7168C9.31934 0.46875 9.07129 0.769043 9.07129 1.06934C9.07129 1.69482 9.98975 1.84521 10.0889 3.59668V7.40234C10.0889 8.22803 9.94238 8.37891 9.61719 8.37891C8.74854 8.37891 6.63867 5.15088 5.37305 1.47266C5.12695 0.744141 4.87695 0.46875 4.23145 0.46875H1.6499C0.905273 0.46875 0.78125 0.818848 0.78125 1.19434C0.78125 1.87012 1.6499 5.27295 4.82715 9.77686C6.93701 12.853 9.94043 14.5063 12.646 14.5063C14.2847 14.5063 14.4829 14.1309 14.4829 13.5054V11.1782C14.4829 10.4277 14.6318 10.3027 15.1533 10.3027C15.5254 10.3027 16.1958 10.5024 17.71 11.979C19.4473 13.7305 19.7451 14.5312 20.7134 14.5312H23.27C24.0146 14.5312 24.3623 14.1558 24.1636 13.4302C23.9404 12.7046 23.0962 11.6538 22.0039 10.4028C21.4082 9.70264 20.5146 8.92676 20.2417 8.55127C19.8696 8.05078 19.9688 7.85059 20.2417 7.40039C20.2168 7.40039 23.3447 2.94629 23.667 1.44336" fill="#238CCB"/>
</svg>
