<svg width="32" height="32" viewBox="0 0 32 32" fill="none" xmlns="http://www.w3.org/2000/svg">
<g filter="url(#filter0_d)">
<path d="M16 6C10.4792 6 6 10.4792 6 16C6 21.5208 10.4792 26 16 26C21.5208 26 26 21.5208 26 16C26 10.4792 21.5208 6 16 6ZM15.6875 21.8333C15.4815 21.8333 15.2801 21.7722 15.1088 21.6578C14.9375 21.5433 14.804 21.3806 14.7251 21.1903C14.6463 21 14.6257 20.7905 14.6658 20.5884C14.706 20.3864 14.8053 20.2008 14.9509 20.0551C15.0966 19.9094 15.2822 19.8102 15.4843 19.77C15.6863 19.7298 15.8958 19.7505 16.0861 19.8293C16.2765 19.9081 16.4392 20.0416 16.5536 20.2129C16.6681 20.3842 16.7292 20.5856 16.7292 20.7917C16.7292 21.0679 16.6194 21.3329 16.4241 21.5282C16.2287 21.7236 15.9638 21.8333 15.6875 21.8333ZM17.4292 16.5208C16.5849 17.0875 16.4688 17.6068 16.4688 18.0833C16.4688 18.2767 16.3919 18.4622 16.2552 18.5989C16.1184 18.7357 15.933 18.8125 15.7396 18.8125C15.5462 18.8125 15.3607 18.7357 15.224 18.5989C15.0872 18.4622 15.0104 18.2767 15.0104 18.0833C15.0104 16.9422 15.5354 16.0349 16.6156 15.3094C17.6198 14.6354 18.1875 14.2083 18.1875 13.2693C18.1875 12.6307 17.8229 12.1458 17.0682 11.787C16.8906 11.7026 16.4953 11.6203 16.0089 11.626C15.3984 11.6339 14.9245 11.7797 14.5594 12.0734C13.8708 12.6276 13.8125 13.2307 13.8125 13.2396C13.8079 13.3353 13.7845 13.4292 13.7435 13.5159C13.7026 13.6026 13.645 13.6804 13.5741 13.7449C13.5031 13.8093 13.4201 13.8592 13.3299 13.8915C13.2397 13.9239 13.1439 13.9382 13.0482 13.9336C12.9524 13.929 12.8585 13.9055 12.7718 13.8646C12.6851 13.8237 12.6073 13.7661 12.5429 13.6952C12.4784 13.6242 12.4286 13.5412 12.3962 13.451C12.3638 13.3608 12.3495 13.265 12.3542 13.1693C12.3599 13.0427 12.4479 11.9026 13.6443 10.9401C14.2646 10.4411 15.0536 10.1818 15.988 10.1703C16.6495 10.1625 17.2708 10.2745 17.6922 10.4734C18.9531 11.0698 19.6458 12.0641 19.6458 13.2693C19.6458 15.0312 18.4682 15.8224 17.4292 16.5208Z" fill="#C8C8C8"/>
</g>
<defs>
<filter id="filter0_d" x="0" y="0" width="32" height="32" filterUnits="userSpaceOnUse" color-interpolation-filters="sRGB">
<feFlood flood-opacity="0" result="BackgroundImageFix"/>
<feColorMatrix in="SourceAlpha" type="matrix" values="0 0 0 0 0 0 0 0 0 0 0 0 0 0 0 0 0 0 127 0"/>
<feOffset/>
<feGaussianBlur stdDeviation="3"/>
<feColorMatrix type="matrix" values="0 0 0 0 0.111979 0 0 0 0 0.138108 0 0 0 0 0.179167 0 0 0 1 0"/>
<feBlend mode="normal" in2="BackgroundImageFix" result="effect1_dropShadow"/>
<feBlend mode="normal" in="SourceGraphic" in2="effect1_dropShadow" result="shape"/>
</filter>
</defs>
</svg>
