<svg width="47" height="24" viewBox="0 0 47 24" fill="none" xmlns="http://www.w3.org/2000/svg">
<path d="M21.7098 5.75393L18.6389 2.75271C14.9267 -0.874121 8.39847 -0.39621 4.0855 3.81659C2.01832 5.83624 0.75588 8.41012 0.530592 11.0644C0.299214 13.781 1.17501 16.2568 2.99659 18.0355C2.99863 18.0375 3.00063 18.0394 3.00268 18.0414L6.09378 21.0585C7.85042 22.5448 10.1124 23.2705 12.4394 23.2705C15.3428 23.2705 18.3476 22.1393 20.5934 19.9451C24.6974 15.9355 25.2088 9.43631 21.7098 5.75393ZM19.1585 18.5431C16.2673 21.3679 11.8864 22.0738 8.75362 20.4587C8.81551 20.4616 8.87944 20.4557 8.94138 20.4567C9.05302 20.4606 9.16262 20.4715 9.27422 20.4715C9.39395 20.4715 9.51573 20.4567 9.63651 20.4527C9.78364 20.4477 9.93082 20.4418 10.08 20.4299C10.3195 20.412 10.559 20.3823 10.8005 20.3486C10.9294 20.3298 11.0583 20.3119 11.1872 20.2891C11.445 20.2425 11.7027 20.184 11.9595 20.1186C12.0752 20.0898 12.1908 20.063 12.3055 20.0303C12.5714 19.955 12.8353 19.8647 13.0981 19.7686C13.2067 19.7299 13.3152 19.6952 13.4228 19.6526C13.6867 19.5475 13.9465 19.4275 14.2063 19.3026C14.3108 19.253 14.4163 19.2084 14.5198 19.1548C14.7766 19.023 15.0262 18.8732 15.2769 18.7215C15.3784 18.66 15.4829 18.6045 15.5834 18.5401C15.8361 18.3755 16.0806 18.1941 16.3252 18.0086C16.4145 17.9412 16.5089 17.8807 16.5972 17.8103C16.9239 17.5486 17.2426 17.2699 17.5491 16.9705C19.6163 14.9509 20.8787 12.377 21.104 9.72278C21.1405 9.30436 21.1405 8.89389 21.1243 8.48839C21.1223 8.44079 21.1294 8.39023 21.1264 8.34166C22.7743 11.334 22.0254 15.7421 19.1585 18.5431Z" fill="#006DBC"/>
<path d="M6.09173 12.1521L14.166 8.17324L12.5238 7.37549C12.1424 7.21391 11.8297 7.12859 11.5857 7.11955C11.3465 7.10247 11.1205 7.17317 10.9076 7.33164C10.7076 7.48667 10.4774 7.74785 10.217 8.1152L9.16213 7.61662C9.27811 7.45705 9.52192 7.11783 9.89358 6.59895C10.2734 6.08465 10.6091 5.59907 10.9008 5.14219L11.0939 5.09045L13.1861 6.44736L16.706 8.49715L16.6284 9.09619C14.0127 10.2027 11.2877 11.494 8.45357 12.9702L10.4707 13.9312C10.9009 14.1203 11.3112 14.1321 11.7017 13.9667C12.1002 13.8058 12.5335 13.4395 13.0014 12.8678L14.0511 13.3474C13.9223 13.5105 13.648 13.8646 13.2282 14.4099C12.8131 14.9472 12.4486 15.454 12.1346 15.9304L11.7919 16.0425L7.04251 13.267L6.07099 12.8476L6.09173 12.1521Z" fill="#FFFFFF"/>
<path d="M36.5131 14.1909C36.5131 15.2043 36.1984 15.9936 35.5691 16.5589C34.9397 17.1243 34.1397 17.4069 33.1691 17.4069C32.2197 17.4069 31.4357 17.1563 30.8171 16.6549C30.1984 16.1429 29.8677 15.3909 29.8251 14.3989H30.9771C31.0197 15.0709 31.2437 15.5723 31.6491 15.9029C32.0651 16.2229 32.5717 16.3829 33.1691 16.3829C33.7984 16.3829 34.3211 16.1856 34.7371 15.7909C35.1531 15.3963 35.3611 14.8576 35.3611 14.1749C35.3611 12.7029 34.6144 11.9669 33.1211 11.9669H32.8811V10.9589H33.1211C33.8037 10.9589 34.3104 10.7829 34.6411 10.4309C34.9824 10.0683 35.1531 9.55625 35.1531 8.89492C35.1531 8.23359 34.9664 7.72159 34.5931 7.35892C34.2197 6.99625 33.7451 6.81492 33.1691 6.81492C32.5717 6.81492 32.0917 6.98559 31.7291 7.32692C31.3771 7.66825 31.1744 8.13225 31.1211 8.71892H29.9691C30.0331 7.81225 30.3584 7.09759 30.9451 6.57492C31.5424 6.05225 32.2837 5.79092 33.1691 5.79092C34.0971 5.79092 34.8491 6.07359 35.4251 6.63892C36.0117 7.20425 36.3051 7.95092 36.3051 8.87892C36.3051 10.0949 35.7931 10.9376 34.7691 11.4069C35.9317 11.8443 36.5131 12.7723 36.5131 14.1909ZM44.3285 17.2949H38.0405V16.2709L42.5365 10.5589C42.9631 10.0043 43.1765 9.44425 43.1765 8.87892C43.1765 8.26025 43.0005 7.76425 42.6485 7.39092C42.2965 7.01759 41.8111 6.83092 41.1925 6.83092C40.6165 6.83092 40.1418 7.00159 39.7685 7.34292C39.3951 7.68425 39.2085 8.20159 39.2085 8.89492H38.0565C38.0565 7.98825 38.3445 7.24692 38.9205 6.67092C39.4965 6.09492 40.2538 5.80692 41.1925 5.80692C42.1311 5.80692 42.8885 6.08959 43.4645 6.65492C44.0405 7.20959 44.3285 7.95092 44.3285 8.87892C44.3285 9.31625 44.2591 9.70559 44.1205 10.0469C43.9818 10.3883 43.7471 10.7669 43.4165 11.1829L39.4325 16.2709H44.3285V17.2949Z" fill="#FFFFFF"/>
</svg>
